<svg xmlns="http://www.w3.org/2000/svg" xmlns:xlink="http://www.w3.org/1999/xlink" width="24" height="24" viewBox="0 0 24 24">
  <defs>
    <clipPath id="clip-path">
      <rect id="Rectangle_61535" data-name="Rectangle 61535" width="24" height="24" transform="translate(0 0)" fill="#bdbdbd"/>
    </clipPath>
    <clipPath id="clip-註冊_QQ">
      <rect width="24" height="24"/>
    </clipPath>
  </defs>
  <g id="註冊_QQ" clip-path="url(#clip-註冊_QQ)">
    <g id="Group_38560" data-name="Group 38560" transform="translate(198.017 -434.749)">
      <g id="Group_36408" data-name="Group 36408" transform="translate(-198.017 434.749)" clip-path="url(#clip-path)">
        <g id="登入注册_QQ" data-name="登入注册 QQ">
          <g id="Group_36407" data-name="Group 36407">
            <g id="Group_36406" data-name="Group 36406" clip-path="url(#clip-path)">
              <g id="QQ">
                <g id="Group_12123" data-name="Group 12123">
                  <g id="Group_36405" data-name="Group 36405">
                    <g id="Group_36404" data-name="Group 36404" clip-path="url(#clip-path)">
                      <g id="QQ-2" transform="translate(1.873 1.009)">
                        <g id="Group_3961" data-name="Group 3961">
                          <path id="Path_24682" data-name="Path 24682" d="M-189.887,457.749a6.362,6.362,0,0,1-3.442-1.008,3.432,3.432,0,0,1-.552-.46,1.647,1.647,0,0,1-.247-2.107,3.867,3.867,0,0,1,1.029-1.1,5.085,5.085,0,0,1-.322-.6,5.76,5.76,0,0,1-.9.481,1.2,1.2,0,0,1-1.112-.034,1.227,1.227,0,0,1-.63-.965,3.47,3.47,0,0,1,.069-1.755,15.012,15.012,0,0,1,1.864-4.545,21.886,21.886,0,0,1,.234-3.111,7.558,7.558,0,0,1,.618-2.386,7.362,7.362,0,0,1,4.82-4.032,8.063,8.063,0,0,1,7.345,1.318,7.065,7.065,0,0,1,2.464,3.376,14.723,14.723,0,0,1,.8,4.874,12.6,12.6,0,0,1,1.649,3.915,15.085,15.085,0,0,1,.257,1.508l.039.271a2.2,2.2,0,0,1-.048.737,1.2,1.2,0,0,1-.528.777,1.239,1.239,0,0,1-.953.177,3.31,3.31,0,0,1-1.247-.5l-.25.51c.1.065.2.133.3.206a2.108,2.108,0,0,1,.414,2.951,2.114,2.114,0,0,1-.565.518,4.425,4.425,0,0,1-1.779.668,9.985,9.985,0,0,1-3.7.016,4.33,4.33,0,0,1-1.1-.378,1.481,1.481,0,0,0-1.23-.045,12.191,12.191,0,0,1-1.972.563A6.227,6.227,0,0,1-189.887,457.749Z" transform="translate(196.144 -435.758)" fill="#bdbdbd"/>
                        </g>
                      </g>
                    </g>
                  </g>
                </g>
              </g>
            </g>
          </g>
        </g>
      </g>
    </g>
  </g>
</svg>
