<svg xmlns="http://www.w3.org/2000/svg" xmlns:xlink="http://www.w3.org/1999/xlink" width="24" height="24" viewBox="0 0 24 24">
  <defs>
    <clipPath id="clip-path">
      <rect id="Rectangle_55046" data-name="Rectangle 55046" width="24" height="24" fill="#bdbdbd"/>
    </clipPath>
    <clipPath id="clip-註冊_telegram">
      <rect width="24" height="24"/>
    </clipPath>
  </defs>
  <g id="註冊_telegram" clip-path="url(#clip-註冊_telegram)">
    <g id="Artboard_2" data-name="Artboard – 2" clip-path="url(#clip-path)">
      <g id="Group_40187" data-name="Group 40187" transform="translate(-2181.771 -3128.32)">
        <path id="Path_52112" data-name="Path 52112" d="M2204.771,3132.6c-.054.409-.11.818-.161,1.228-.03.238-.048.478-.077.716-.036.293-.079.586-.118.879-.051.371-.1.741-.152,1.112-.031.221-.068.441-.1.662s-.066.43-.1.645q-.087.563-.175,1.125-.081.513-.164,1.025c-.058.358-.117.716-.176,1.074q-.082.5-.162,1.008c-.026.166-.046.332-.076.5-.107.582-.218,1.164-.325,1.746q-.2,1.1-.4,2.209c-.073.4-.118.809-.219,1.2a2.705,2.705,0,0,1-.7,1.413,1.058,1.058,0,0,1-.68.281,2.565,2.565,0,0,1-1.6-.471c-.678-.439-1.34-.9-2.01-1.354-.825-.554-1.652-1.1-2.477-1.658-.634-.426-1.271-.848-1.893-1.291a1.762,1.762,0,0,1-.625-.693.821.821,0,0,1,.009-.775,3.084,3.084,0,0,1,.408-.571c.346-.37.705-.728,1.073-1.077.692-.657,1.394-1.305,2.093-1.956.287-.268.581-.53.864-.8q1.058-1.017,2.108-2.042a3.361,3.361,0,0,0,.341-.417.386.386,0,0,0-.018-.442.342.342,0,0,0-.448-.047c-.292.167-.58.341-.861.524q-1.241.81-2.475,1.632c-.948.633-1.89,1.277-2.837,1.912s-1.88,1.272-2.836,1.883a3.057,3.057,0,0,1-2.093.469,9.251,9.251,0,0,1-1.326-.3c-.906-.261-1.805-.545-2.7-.827a1.647,1.647,0,0,1-.747-.436.634.634,0,0,1-.063-.759,1.6,1.6,0,0,1,.716-.542c.768-.348,1.543-.682,2.314-1.022.751-.332,1.5-.668,2.253-1,.8-.347,1.6-.684,2.4-1.03.708-.306,1.41-.623,2.119-.927s1.424-.594,2.133-.9c.663-.282,1.321-.576,1.985-.858.412-.175.829-.338,1.243-.507.8-.327,1.6-.675,2.41-.978.883-.328,1.774-.638,2.677-.906a2.2,2.2,0,0,1,.938,0,.861.861,0,0,1,.676.908c0,.141,0,.281,0,.422Z" fill="#bdbdbd"/>
      </g>
    </g>
  </g>
</svg>
