<svg xmlns="http://www.w3.org/2000/svg" xmlns:xlink="http://www.w3.org/1999/xlink" width="24" height="24" viewBox="0 0 24 24">
  <defs>
    <clipPath id="clip-path">
      <rect id="Rectangle_61535" data-name="Rectangle 61535" width="24" height="24" transform="translate(-198.017 434.749)" fill="none"/>
    </clipPath>
  </defs>
  <g id="微信WeChat" transform="translate(198.017 -434.749)">
    <g id="Group_36408" data-name="Group 36408" clip-path="url(#clip-path)">
      <g id="wechat" transform="translate(-198.017 430.86)">
        <path id="Path_50946" data-name="Path 50946" d="M36.629,33.758a5.191,5.191,0,0,0,2.306-4.187C38.935,26.519,35.99,24,32.3,24s-6.6,2.484-6.6,5.535,2.945,5.535,6.6,5.535a8.613,8.613,0,0,0,2.165-.284c.035-.035.106-.035.213-.035a.685.685,0,0,1,.355.106l1.455.852c.035.035.035.035.106.035a.229.229,0,0,0,.213-.213c0-.035-.035-.106-.035-.142a8.667,8.667,0,0,1-.248-1.135v-.142A.276.276,0,0,1,36.629,33.758ZM30.1,28.719a.887.887,0,1,1,.887-.887A.878.878,0,0,1,30.1,28.719Zm4.4,0a.887.887,0,1,1,.887-.887A.857.857,0,0,1,34.5,28.719Z" transform="translate(-15.935 -10.968)" fill="#bdbdbd"/>
        <path id="Path_50947" data-name="Path 50947" d="M16.365,12.606h.461C16.187,9.448,12.887,7,8.948,7,4.584,7.035,1,9.981,1,13.635a6.084,6.084,0,0,0,2.768,5,.527.527,0,0,1,.213.461c0,.035-.035.106-.035.142-.142.5-.355,1.313-.355,1.348-.106.071-.106.106-.106.213a.253.253,0,0,0,.284.248c.035,0,.106-.035.142-.035l1.739-.994a1.474,1.474,0,0,1,.461-.106,2,2,0,0,0,.248.035,8.957,8.957,0,0,0,2.59.355H9.41a6,6,0,0,1-.248-1.6C9.161,15.232,12.355,12.606,16.365,12.606ZM11.61,10.442a1.068,1.068,0,0,1,1.065,1.065,1.065,1.065,0,1,1-2.129,0A1.068,1.068,0,0,1,11.61,10.442ZM6.287,12.606a1.068,1.068,0,0,1-1.065-1.065,1.065,1.065,0,1,1,2.129,0A1.068,1.068,0,0,1,6.287,12.606Z" fill="#bdbdbd"/>
      </g>
    </g>
  </g>
</svg>
