<svg xmlns="http://www.w3.org/2000/svg" xmlns:xlink="http://www.w3.org/1999/xlink" width="24" height="24" viewBox="0 0 24 24">
  <defs>
    <clipPath id="clip-path">
      <rect id="Rectangle_57676" data-name="Rectangle 57676" width="24" height="24" transform="translate(305 74)" fill="#afafaf"/>
    </clipPath>
    <clipPath id="clip-认证">
      <rect width="24" height="24"/>
    </clipPath>
  </defs>
  <g id="认证" clip-path="url(#clip-认证)">
    <g id="Mask_Group_14452" data-name="Mask Group 14452" transform="translate(-305 -74)" clip-path="url(#clip-path)">
      <path id="Icon_awesome-address-card" data-name="Icon awesome-address-card" d="M20.167,2.25H1.833A1.834,1.834,0,0,0,0,4.083V17.528a1.834,1.834,0,0,0,1.833,1.833H20.167A1.834,1.834,0,0,0,22,17.528V4.083A1.834,1.834,0,0,0,20.167,2.25ZM6.722,5.917A2.444,2.444,0,1,1,4.278,8.361,2.447,2.447,0,0,1,6.722,5.917ZM11,14.961a.8.8,0,0,1-.856.733H3.3a.8.8,0,0,1-.856-.733v-.733a2.4,2.4,0,0,1,2.567-2.2H5.2a3.934,3.934,0,0,0,3.04,0h.191A2.4,2.4,0,0,1,11,14.228Zm8.556-2.017a.306.306,0,0,1-.306.306h-5.5a.306.306,0,0,1-.306-.306v-.611a.306.306,0,0,1,.306-.306h5.5a.306.306,0,0,1,.306.306Zm0-2.444a.306.306,0,0,1-.306.306h-5.5a.306.306,0,0,1-.306-.306V9.889a.306.306,0,0,1,.306-.306h5.5a.306.306,0,0,1,.306.306Zm0-2.444a.306.306,0,0,1-.306.306h-5.5a.306.306,0,0,1-.306-.306V7.444a.306.306,0,0,1,.306-.306h5.5a.306.306,0,0,1,.306.306Z" transform="translate(306 75.195)" fill="#fff"/>
    </g>
  </g>
</svg>
