<svg xmlns="http://www.w3.org/2000/svg" xmlns:xlink="http://www.w3.org/1999/xlink" width="24" height="24" viewBox="0 0 24 24">
  <defs>
    <clipPath id="clip-path">
      <rect id="Rectangle_57689" data-name="Rectangle 57689" width="24" height="24" transform="translate(143 329)" fill="#fff"/>
    </clipPath>
  </defs>
  <g id="Mask_Group_14457" data-name="Mask Group 14457" transform="translate(-143 -329)" clip-path="url(#clip-path)">
    <g id="Group_14828" data-name="Group 14828" transform="translate(143.4 330.934)">
      <path id="Path_9061" data-name="Path 9061" d="M1535.344,1783.7H1518.6a1.6,1.6,0,0,0-1.6,1.6v9.043a1.6,1.6,0,0,0,1.6,1.594h16.746a1.6,1.6,0,0,0,1.594-1.594V1785.3A1.6,1.6,0,0,0,1535.344,1783.7Zm-13.736,9.184h-2.65a.5.5,0,0,1,0-1h2.65a.5.5,0,0,1,0,1Zm.549-3.57a.683.683,0,0,1-.684.684h-2.383a.683.683,0,0,1-.682-.684v-1.977a.683.683,0,0,1,.682-.684h2.383a.683.683,0,0,1,.684.684Zm3.908,3.57h-2.648a.5.5,0,0,1,0-1h2.648a.5.5,0,0,1,0,1Zm4.459,0h-2.65a.5.5,0,0,1,0-1h2.65a.5.5,0,0,1,0,1Zm4.457,0h-2.648a.5.5,0,0,1,0-1h2.648a.5.5,0,1,1,0,1Zm0-5.471h-4.852a.5.5,0,1,1,0-1h4.852a.5.5,0,1,1,0,1Z" transform="translate(-1517 -1775.805)" fill="#ccc"/>
      <path id="Path_9062" data-name="Path 9062" d="M1629.164,1561.955a1.6,1.6,0,0,0-1.6-1.594h-16.746a1.6,1.6,0,0,0-1.6,1.594v1.35h19.938Z" transform="translate(-1605.964 -1560.361)" fill="#ccc"/>
      <path id="Path_9063" data-name="Path 9063" d="M1609.215,1706.369v2.234h11.742a.717.717,0,0,1,.709-.607h3.637a.721.721,0,0,1,.719.719v.8a2.08,2.08,0,0,1,.371,1.189v2.74h1.164a1.6,1.6,0,0,0,1.6-1.6v-5.475Z" transform="translate(-1605.954 -1701.206)" fill="#ccc"/>
    </g>
  </g>
</svg>
