<svg xmlns="http://www.w3.org/2000/svg" xmlns:xlink="http://www.w3.org/1999/xlink" width="22" height="22" viewBox="0 0 22 22">
  <defs>
    <clipPath id="clip-生日">
      <rect width="22" height="22"/>
    </clipPath>
  </defs>
  <g id="生日" clip-path="url(#clip-生日)">
    <g id="Group_12390" data-name="Group 12390" transform="translate(-1466.494 -152.667)">
      <path id="Path_24747" data-name="Path 24747" d="M1471.913,156.1c0,.488,0,.942,0,1.4a1.693,1.693,0,1,0,3.384,0c0-.455,0-.908,0-1.377h4.1c0,.493-.009.977,0,1.461a1.688,1.688,0,0,0,2.489,1.452,1.639,1.639,0,0,0,.893-1.474c.013-.477,0-.953,0-1.479a12.536,12.536,0,0,1,1.68.1,2.124,2.124,0,0,1,1.7,2.115q.006,5.619,0,11.239a2.19,2.19,0,0,1-2.25,2.193q-4.375.005-8.748,0-2.175,0-4.349,0a2.2,2.2,0,0,1-2.323-2.312v-11a2.2,2.2,0,0,1,2.283-2.3C1471.144,156.1,1471.511,156.1,1471.913,156.1Zm-2.055,4.971c-.005.062-.013.1-.013.137v8.416a.662.662,0,0,0,.429.643,1.387,1.387,0,0,0,.546.1q6.512.008,13.021.006c.055,0,.11,0,.164,0a.79.79,0,0,0,.807-.846q0-4.087,0-8.178v-.276Z" transform="translate(0 1.161)" fill="#bdbdbd"/>
      <path id="Path_24748" data-name="Path 24748" d="M1472.964,157.266c0,.469,0,.939,0,1.41a1.149,1.149,0,1,1-2.3.02q-.016-1.433,0-2.865a1.15,1.15,0,1,1,2.3,0C1472.968,156.311,1472.964,156.787,1472.964,157.266Z" transform="translate(1.787)" fill="#bdbdbd"/>
      <path id="Path_24749" data-name="Path 24749" d="M1477.064,157.275c0,.462,0,.924,0,1.386a1.148,1.148,0,1,1-2.3.026q-.022-1.433,0-2.865a1.148,1.148,0,1,1,2.3.02C1477.07,156.32,1477.064,156.8,1477.064,157.275Z" transform="translate(5.174 0)" fill="#bdbdbd"/>
      <path id="Path_24750" data-name="Path 24750" d="M1474.48,164.312c.762-.838,1.505-1.655,2.247-2.471s1.463-1.609,2.193-2.413a1.133,1.133,0,0,1,1.532-.144,1.106,1.106,0,0,1,.281,1.543,4.551,4.551,0,0,1-.435.522q-2.452,2.66-4.907,5.318a1.138,1.138,0,0,1-1.786.044q-1.381-1.378-2.758-2.76a1.159,1.159,0,1,1,1.634-1.64C1473.143,162.968,1473.8,163.629,1474.48,164.312Z" transform="translate(1.63 3.623)" fill="#bdbdbd"/>
    </g>
  </g>
</svg>
