<svg xmlns="http://www.w3.org/2000/svg" xmlns:xlink="http://www.w3.org/1999/xlink" width="24" height="24" viewBox="0 0 24 24">
  <defs>
    <clipPath id="clip-path">
      <rect id="Rectangle_62562" data-name="Rectangle 62562" width="24" height="24" transform="translate(1449 678)" fill="#fff" stroke="#707070" stroke-width="1"/>
    </clipPath>
  </defs>
  <g id="Mask_Group_775" data-name="Mask Group 775" transform="translate(-1449 -678)" clip-path="url(#clip-path)">
    <g id="Group_39830" data-name="Group 39830" transform="translate(-1.584)">
      <g id="noun_Shield_3432020" transform="translate(1452 679)">
        <g id="Group_39829" data-name="Group 39829" transform="translate(0 0)">
          <g id="Group_39828" data-name="Group 39828">
            <path id="Path_51784" data-name="Path 51784" d="M27.864,20.745a7.542,7.542,0,0,1-2.139-4.52c-.535-3.215,1.483-7.777,1.483-7.777a19.565,19.565,0,0,1-5.223-1.164,17.6,17.6,0,0,1-4.624-2.253s-.015-.045-.038-.028c-.023-.017-.039.028-.039.028a17.565,17.565,0,0,1-4.623,2.253A19.58,19.58,0,0,1,7.439,8.448s2.016,4.562,1.482,7.777a7.361,7.361,0,0,1-2.211,4.52c-.215.122,4.208,6.511,10.575,6.245h0c.014,0,.025,0,.039,0a.322.322,0,0,1,.038,0h0C23.766,27.278,28.045,20.849,27.864,20.745Z" transform="translate(-6.702 -5)" fill="#afb7cb"/>
          </g>
        </g>
      </g>
      <path id="Icon_awesome-crown" data-name="Icon awesome-crown" d="M8.04,6.822H1.705a.244.244,0,0,0-.244.244v.487a.244.244,0,0,0,.244.244H8.04a.244.244,0,0,0,.244-.244V7.066A.244.244,0,0,0,8.04,6.822Zm.975-4.873a.731.731,0,0,0-.731.731.716.716,0,0,0,.067.3l-1.1.661a.487.487,0,0,1-.673-.177L5.334,1.294a.731.731,0,1,0-.923,0L3.17,3.466a.487.487,0,0,1-.673.177L1.4,2.982a.731.731,0,1,0-.665.429A.746.746,0,0,0,.848,3.4l1.1,2.936H7.8L8.9,3.4a.746.746,0,0,0,.117.012.731.731,0,0,0,0-1.462Z" transform="translate(1457.915 686.102)" fill="#fff"/>
    </g>
  </g>
</svg>
