<svg xmlns="http://www.w3.org/2000/svg" xmlns:xlink="http://www.w3.org/1999/xlink" width="24" height="24" viewBox="0 0 24 24">
  <defs>
    <clipPath id="clip-path">
      <rect id="Rectangle_57071" data-name="Rectangle 57071" width="24" height="24"/>
    </clipPath>
  </defs>
  <g id="数字键盘_删除" clip-path="url(#clip-path)">
    <g id="Group_13575" data-name="Group 13575" transform="translate(-1513.389 -1073)">
      <path id="Path_8209" data-name="Path 8209" d="M1533.88,1077h-12.257a.628.628,0,0,0-.473.215l-6.6,7.543a.629.629,0,0,0,0,.827l6.6,7.543a.628.628,0,0,0,.473.215h12.257a2.517,2.517,0,0,0,2.514-2.514v-11.314A2.517,2.517,0,0,0,1533.88,1077Zm1.257,13.829a1.259,1.259,0,0,1-1.257,1.257H1521.9l-6.05-6.914,6.05-6.914h11.972a1.259,1.259,0,0,1,1.257,1.257Z" fill="#afafaf"/>
      <path id="Path_8210" data-name="Path 8210" d="M1537.62,1084.68a.628.628,0,0,0-.889,0l-2.384,2.384-2.384-2.384a.629.629,0,1,0-.889.889l2.384,2.384-2.384,2.384a.629.629,0,1,0,.889.889l2.384-2.384,2.384,2.384a.629.629,0,0,0,.889-.889l-2.384-2.384,2.384-2.384a.629.629,0,0,0,0-.889Z" transform="translate(-6.128 -2.786)" fill="#afafaf"/>
    </g>
    <rect id="Rectangle_57069" data-name="Rectangle 57069" width="24" height="24" fill="none"/>
  </g>
</svg>
