<svg xmlns="http://www.w3.org/2000/svg" xmlns:xlink="http://www.w3.org/1999/xlink" width="24" height="24" viewBox="0 0 24 24">
  <defs>
    <clipPath id="clip-path">
      <rect id="Rectangle_57607" data-name="Rectangle 57607" width="24" height="24" transform="translate(185 204)" fill="#fff"/>
    </clipPath>
  </defs>
  <g id="Mask_Group_14456" data-name="Mask Group 14456" transform="translate(-185 -204)" clip-path="url(#clip-path)">
    <g id="Icon_ionic-ios-information-circle-outline" data-name="Icon ionic-ios-information-circle-outline" transform="translate(186.714 205.714)">
      <path id="Path_8400" data-name="Path 8400" d="M16.552,11.713a1.04,1.04,0,1,1,1.035,1.01A1.011,1.011,0,0,1,16.552,11.713Zm.071,1.8h1.928V20.79H16.622Z" transform="translate(-7.306 -5.65)" fill="#7a9ebe"/>
      <path id="Path_8401" data-name="Path 8401" d="M13.661,4.76a8.9,8.9,0,1,1-6.3,2.606,8.842,8.842,0,0,1,6.3-2.606m0-1.385A10.286,10.286,0,1,0,23.946,13.661,10.284,10.284,0,0,0,13.661,3.375Z" transform="translate(-3.375 -3.375)" fill="#7a9ebe"/>
    </g>
  </g>
</svg>
