<svg xmlns="http://www.w3.org/2000/svg" xmlns:xlink="http://www.w3.org/1999/xlink" width="24" height="24" viewBox="0 0 24 24">
  <defs>
    <clipPath id="clip-path">
      <rect id="Rectangle_62988" data-name="Rectangle 62988" width="24" height="24" fill="#fff" stroke="#4d5772" stroke-width="1"/>
    </clipPath>
    <clipPath id="clip-path-2">
      <rect id="Rectangle_62987" data-name="Rectangle 62987" width="12" height="12" transform="translate(523.132 412.132)" fill="#fff" stroke="#707070" stroke-width="1"/>
    </clipPath>
    <clipPath id="clip-取消输入">
      <rect width="24" height="24"/>
    </clipPath>
  </defs>
  <g id="取消输入" clip-path="url(#clip-取消输入)">
    <g id="Mask_Group_1045" data-name="Mask Group 1045" clip-path="url(#clip-path)">
      <g id="Group_40601" data-name="Group 40601">
        <circle id="Ellipse_6230" data-name="Ellipse 6230" cx="11" cy="11" r="11" transform="translate(1 1)" fill="#bcc0cb"/>
        <g id="Mask_Group_1044" data-name="Mask Group 1044" transform="translate(-517.132 -406.132)" clip-path="url(#clip-path-2)">
          <path id="Icon_ionic-ios-close" data-name="Icon ionic-ios-close" d="M18.255,16.922,22.281,12.9a.943.943,0,0,0-1.334-1.334l-4.025,4.025L12.9,11.563A.943.943,0,1,0,11.563,12.9l4.025,4.025-4.025,4.025A.943.943,0,1,0,12.9,22.281l4.025-4.025,4.025,4.025a.943.943,0,0,0,1.334-1.334Z" transform="translate(512.212 401.21)" fill="#fff"/>
        </g>
      </g>
    </g>
  </g>
</svg>
