<svg xmlns="http://www.w3.org/2000/svg" xmlns:xlink="http://www.w3.org/1999/xlink" width="24" height="24" viewBox="0 0 24 24">
  <defs>
    <clipPath id="clip-登入_註冊_閉眼">
      <rect width="24" height="24"/>
    </clipPath>
  </defs>
  <g id="登入_註冊_閉眼" clip-path="url(#clip-登入_註冊_閉眼)">
    <g id="Group_38538" data-name="Group 38538" transform="translate(-364 -255.68)">
      <g id="Group_38021" data-name="Group 38021" transform="translate(365.126 260.534)">
        <g id="Group_37947" data-name="Group 37947">
          <path id="Path_47294" data-name="Path 47294" d="M29.913,31.024a10.972,10.972,0,0,1,5.324,1.91,19.317,19.317,0,0,1,5.122,5.039,1.06,1.06,0,0,1,.1.953,17.209,17.209,0,0,1-7.575,6.4c-3.043,1.2-5.833.473-8.446-1.267a20.435,20.435,0,0,1-5.04-4.94c-.248-.334-.387-.657-.1-1.04,2.076-2.782,4.453-5.214,7.808-6.42A22.539,22.539,0,0,1,29.913,31.024ZM36,38.531a6.124,6.124,0,1,0-6.093,6.118A6.117,6.117,0,0,0,36,38.531Zm3.288-.008-2.337-2.637a10.71,10.71,0,0,1,.021,5.265ZM22.765,41.141l.167-.076a8.2,8.2,0,0,1-.067-5.134,30.421,30.421,0,0,0-2.129,2.353.535.535,0,0,0,.017.51C21.407,39.591,22.091,40.362,22.765,41.141Z" transform="translate(-19.135 -31.024)" fill="#bdbdbd"/>
          <path id="Path_47295" data-name="Path 47295" d="M76.79,60.288c-1.065.49-1.458,1.149-1.225,1.96a1.5,1.5,0,0,0,1.7,1.109c.831-.112,1.3-.773,1.305-1.83a3.39,3.39,0,0,1,.075,4.353,3.535,3.535,0,0,1-4.665.864A3.582,3.582,0,0,1,72.6,62.2,3.448,3.448,0,0,1,76.79,60.288Z" transform="translate(-65.091 -56.185)" fill="#bdbdbd"/>
        </g>
        <g id="Path_1399" data-name="Path 1399" transform="translate(0.912 0.635)">
          <path id="Path_47410" data-name="Path 47410" d="M945.257,547.843a.819.819,0,0,1-.7-.393.874.874,0,0,1,.248-1.183l17.919-11.911a.811.811,0,0,1,1.143.257.875.875,0,0,1-.25,1.184L945.7,547.707A.8.8,0,0,1,945.257,547.843Z" transform="translate(-944.429 -534.22)" fill="#bdbdbd"/>
        </g>
      </g>
      <rect id="Rectangle_57640" data-name="Rectangle 57640" width="24" height="24" transform="translate(364 255.68)" fill="none"/>
    </g>
  </g>
</svg>
