<svg xmlns="http://www.w3.org/2000/svg" xmlns:xlink="http://www.w3.org/1999/xlink" width="22" height="22" viewBox="0 0 22 22">
  <defs>
    <clipPath id="clip-性别">
      <rect width="22" height="22"/>
    </clipPath>
  </defs>
  <g id="性别" clip-path="url(#clip-性别)">
    <g id="Group_12389" data-name="Group 12389" transform="translate(-1434.166 -156.644)">
      <g id="Group_12387" data-name="Group 12387" transform="translate(1437.667 158.944)">
        <path id="Path_24743" data-name="Path 24743" d="M1440.093,162.453a1.754,1.754,0,1,0-1.755-1.754A1.755,1.755,0,0,0,1440.093,162.453Z" transform="translate(-1436.677 -158.944)" fill="#bdbdbd"/>
        <path id="Path_24744" data-name="Path 24744" d="M1444.2,160.765h-1.437a.539.539,0,0,0-.431.193l-.723.959a.577.577,0,0,1-.861,0l-.752-.968a.541.541,0,0,0-.428-.188h-1.4a.456.456,0,0,0-.5.421l.349,5.549a.47.47,0,0,0,.5.382h.913l.436,6.24a.394.394,0,0,0,.423.319h1.881a.394.394,0,0,0,.423-.319l.435-6.24h.819a.47.47,0,0,0,.5-.382l.349-5.549A.455.455,0,0,0,1444.2,160.765Z" transform="translate(-1437.667 -156.259)" fill="#bdbdbd"/>
      </g>
      <g id="Group_12388" data-name="Group 12388" transform="translate(1445.489 158.944)">
        <path id="Path_24745" data-name="Path 24745" d="M1443.4,162.453a1.754,1.754,0,1,0-1.755-1.754A1.755,1.755,0,0,0,1443.4,162.453Z" transform="translate(-1439.617 -158.944)" fill="#bdbdbd"/>
        <path id="Path_24746" data-name="Path 24746" d="M1448.009,168.012l-1.259-7.065a.411.411,0,0,0-.413-.32h-3.831a.408.408,0,0,0-.411.32l-1.262,7.065a.4.4,0,0,0,.413.445h1.727l.29,4.77a.348.348,0,0,0,.361.311h1.6a.346.346,0,0,0,.359-.311l.292-4.77h1.727A.393.393,0,0,0,1448.009,168.012Z" transform="translate(-1440.828 -156.462)" fill="#bdbdbd"/>
      </g>
    </g>
  </g>
</svg>
