<svg xmlns="http://www.w3.org/2000/svg" xmlns:xlink="http://www.w3.org/1999/xlink" width="68" height="68" viewBox="0 0 68 68">
  <defs>
    <clipPath id="clip-backtotop">
      <rect width="68" height="68"/>
    </clipPath>
  </defs>
  <g id="backtotop" clip-path="url(#clip-backtotop)">
    <g id="Group_71" data-name="Group 71" transform="translate(-1750 -1615)">
      <g id="Group_66" data-name="Group 66" transform="translate(0 0.042)">
        <path id="Path_53" data-name="Path 53" d="M1311.5-128.838a1.161,1.161,0,0,0-1.712,0l-7.822,8.121-7.823-8.117a1.164,1.164,0,0,0-1.725.01,1.373,1.373,0,0,0,.011,1.836l8.676,9.271a1.176,1.176,0,0,0,.858.377,1.177,1.177,0,0,0,.86-.377l8.689-9.283a1.348,1.348,0,0,0,.348-.922A1.343,1.343,0,0,0,1311.5-128.838Z" transform="translate(3085.857 1513.616) rotate(180)" fill="#cbcbcb"/>
        <path id="Path_54" data-name="Path 54" d="M-6.93-12.96v1.6h-4.48V0h-1.84V-11.36h-4.5v-1.6ZM-.25.24a6.105,6.105,0,0,1-3.3-.85A5.313,5.313,0,0,1-5.6-2.98a8.491,8.491,0,0,1-.69-3.54,7.57,7.57,0,0,1,.84-3.74,5.36,5.36,0,0,1,2.24-2.22,6.677,6.677,0,0,1,3.1-.72,6.105,6.105,0,0,1,3.3.85A5.313,5.313,0,0,1,5.24-9.98a8.491,8.491,0,0,1,.69,3.54A7.57,7.57,0,0,1,5.09-2.7,5.36,5.36,0,0,1,2.85-.48,6.677,6.677,0,0,1-.25.24Zm0-1.56a4.1,4.1,0,0,0,2.37-.65A3.919,3.919,0,0,0,3.54-3.76a6.943,6.943,0,0,0,.47-2.66,7.583,7.583,0,0,0-.45-2.73,3.914,3.914,0,0,0-1.37-1.83,3.845,3.845,0,0,0-2.3-.66,4.1,4.1,0,0,0-2.37.65A3.919,3.919,0,0,0-3.9-9.2a6.943,6.943,0,0,0-.47,2.66,7.583,7.583,0,0,0,.45,2.73A3.914,3.914,0,0,0-2.55-1.98,3.845,3.845,0,0,0-.25-1.32ZM12.79-12.96a6.316,6.316,0,0,1,2.62.49,3.537,3.537,0,0,1,1.62,1.38,3.911,3.911,0,0,1,.54,2.07,4.228,4.228,0,0,1-.55,2.14,3.9,3.9,0,0,1-1.66,1.53,5.929,5.929,0,0,1-2.73.57H10.31V0H8.47V-12.96Zm-.3,6.62a3.553,3.553,0,0,0,2.37-.68,2.4,2.4,0,0,0,.79-1.92,2.285,2.285,0,0,0-.73-1.83,3.242,3.242,0,0,0-2.17-.63H10.31v5.06Z" transform="translate(1783.75 1666)" fill="#cbcbcb"/>
      </g>
      <path id="Path_56" data-name="Path 56" d="M348.889,31.722a6.007,6.007,0,0,0-6,6v52a6.006,6.006,0,0,0,6,6h52a6.007,6.007,0,0,0,6-6v-52a6.007,6.007,0,0,0-6-6h-52m0-2h52a8,8,0,0,1,8,8v52a8,8,0,0,1-8,8h-52a8,8,0,0,1-8-8v-52A8,8,0,0,1,348.889,29.722Z" transform="translate(1409.111 1585.278)" fill="#cbcbcb"/>
    </g>
  </g>
</svg>
