<svg xmlns="http://www.w3.org/2000/svg" xmlns:xlink="http://www.w3.org/1999/xlink" width="24" height="24" viewBox="0 0 24 24">
  <defs>
    <clipPath id="clip-我的_帮助中心">
      <rect width="24" height="24"/>
    </clipPath>
  </defs>
  <g id="我的_帮助中心" clip-path="url(#clip-我的_帮助中心)">
    <g id="Group_4657" data-name="Group 4657" transform="translate(-5291.87 -1636.556)">
      <path id="Path_7809" data-name="Path 7809" d="M5310.825,1640.3h-1.655v-1.953a.787.787,0,0,0-1.574,0v1.953h-2.937v-1.953a.788.788,0,0,0-1.575,0v1.953h-2.937v-1.953a.788.788,0,0,0-1.575,0v1.953h-1.654a2.884,2.884,0,0,0-3,2.741v13.777a2.884,2.884,0,0,0,3,2.741h13.909a2.884,2.884,0,0,0,3-2.741v-13.777A2.884,2.884,0,0,0,5310.825,1640.3Zm1.428,16.519a1.318,1.318,0,0,1-1.428,1.166h-13.909a1.319,1.319,0,0,1-1.429-1.166v-13.777a1.319,1.319,0,0,1,1.429-1.167h1.654v1.4a.788.788,0,0,0,1.575,0v-1.4h2.938v1.4a.788.788,0,0,0,1.575,0v-1.4h2.938v1.4a.787.787,0,0,0,1.574,0v-1.4h1.655a1.318,1.318,0,0,1,1.428,1.167Z" transform="translate(0 0)" fill="#afafaf"/>
      <path id="Path_7810" data-name="Path 7810" d="M5306.234,1656.87a1.164,1.164,0,0,0-1.187,1.219,1.188,1.188,0,1,0,2.374,0A1.164,1.164,0,0,0,5306.234,1656.87Z" transform="translate(-2.368 -4.108)" fill="#afafaf"/>
      <path id="Path_7811" data-name="Path 7811" d="M5305.907,1647.768a3.673,3.673,0,0,0-2.694,1.182.443.443,0,0,0-.123.32.453.453,0,0,0,.143.317l.632.581a.449.449,0,0,0,.3.116.443.443,0,0,0,.311-.126,1.939,1.939,0,0,1,1.365-.609c.618,0,.972.289.972.792,0,.384-.364.727-.788,1.127a2.815,2.815,0,0,0-1.217,2.6.444.444,0,0,0,.44.373h.941a.445.445,0,0,0,.335-.15.451.451,0,0,0,.108-.354c-.082-.616.334-1,.862-1.493a3.029,3.029,0,0,0,1.254-2.224C5308.751,1648.755,5307.609,1647.768,5305.907,1647.768Z" transform="translate(-1.952 -2.172)" fill="#afafaf"/>
    </g>
    <rect id="Rectangle_56493" data-name="Rectangle 56493" width="24" height="24" fill="none"/>
  </g>
</svg>
