<svg xmlns="http://www.w3.org/2000/svg" xmlns:xlink="http://www.w3.org/1999/xlink" width="24" height="24" viewBox="0 0 24 24">
  <defs>
    <linearGradient id="linear-gradient" x1="0.5" x2="0.5" y2="1" gradientUnits="objectBoundingBox">
      <stop offset="0" stop-color="#f3ac0a"/>
      <stop offset="1" stop-color="#7a5605"/>
    </linearGradient>
    <clipPath id="clip-path">
      <rect id="Rectangle_62925" data-name="Rectangle 62925" width="24" height="24" transform="translate(633.948 1151.948)" stroke="#707070" stroke-width="1" fill="url(#linear-gradient)"/>
    </clipPath>
    <clipPath id="clip-我的报表_摘要_获利总览">
      <rect width="24" height="24"/>
    </clipPath>
  </defs>
  <g id="我的报表_摘要_获利总览" clip-path="url(#clip-我的报表_摘要_获利总览)">
    <g id="Mask_Group_1007" data-name="Mask Group 1007" transform="translate(-633.947 -1151.948)" clip-path="url(#clip-path)">
      <g id="Group_40145" data-name="Group 40145" transform="translate(636.957 1152.963)">
        <g id="Group_40144" data-name="Group 40144" transform="translate(0)">
          <path id="Union_113" data-name="Union 113" d="M7.58,21.971a.771.771,0,0,1-.766-.761V13.494a.771.771,0,0,1,.766-.761h3.045a.75.75,0,0,1,.762.741v7.736a.767.767,0,0,1-.762.761Zm6.832-.025a.767.767,0,0,1-.762-.761V10.448a.767.767,0,0,1,.762-.761h3.025a.806.806,0,0,1,.787.761V21.184a.767.767,0,0,1-.762.761Zm-13.643,0A.773.773,0,0,1,0,21.184V16.519a.773.773,0,0,1,.77-.761H3.787a.771.771,0,0,1,.768.761v4.665a.771.771,0,0,1-.768.761ZM.535,13.656a.923.923,0,0,1-.184-1.315l4.73-6.376A.925.925,0,0,1,6.4,5.783L9.93,8.392l3.584-4.827-1.248-.924a.659.659,0,0,1,.182-1.152L16.629.032a.666.666,0,0,1,.879.645l-.162,4.437a.65.65,0,0,1-1.039.508L15.063,4.7l-4.156,5.589a.968.968,0,0,1-1.342.208L6.031,7.839,1.85,13.448a.935.935,0,0,1-.762.4A.989.989,0,0,1,.535,13.656Z" stroke="rgba(0,0,0,0)" stroke-miterlimit="10" stroke-width="1" fill="url(#linear-gradient)"/>
        </g>
      </g>
    </g>
  </g>
</svg>
