<svg xmlns="http://www.w3.org/2000/svg" xmlns:xlink="http://www.w3.org/1999/xlink" width="30" height="30" viewBox="0 0 30 30">
  <defs>
    <clipPath id="clip-Artboard_11">
      <rect width="30" height="30"/>
    </clipPath>
  </defs>
  <g id="Artboard_11" data-name="Artboard – 11" clip-path="url(#clip-Artboard_11)">
    <g id="Group_3886" data-name="Group 3886" transform="translate(-0.558 -6.047)">
      <g id="Group_3874" data-name="Group 3874" transform="translate(0.558 5.69)">
        <path id="Path_3248" data-name="Path 3248" d="M28.288,6.308a13.6,13.6,0,0,1-1.212,2.3H1.8a13.6,13.6,0,0,1-1.212-2.3Z" transform="translate(0.56 14.489)" fill="#fff"/>
        <path id="Path_3249" data-name="Path 3249" d="M29.757,6.239a13.5,13.5,0,0,1-.741,2.338H1.311A13.5,13.5,0,0,1,.57,6.239Z" transform="translate(-0.163 12.236)" fill="#df130d"/>
        <path id="Path_3250" data-name="Path 3250" d="M30.491,6.17a13.025,13.025,0,0,1-.37,2.338H.929A16.935,16.935,0,0,1,.559,6.17Z" transform="translate(-0.525 9.983)" fill="#fff"/>
        <path id="Path_3251" data-name="Path 3251" d="M25.885,6.376a15.46,15.46,0,0,1-1.816,2.338H2.444A15.46,15.46,0,0,1,.628,6.376Z" transform="translate(1.744 16.71)" fill="#df130d"/>
        <path id="Path_3252" data-name="Path 3252" d="M16.672,6.513A14.556,14.556,0,0,1,8.736,8.851,14.584,14.584,0,0,1,.766,6.513Z" transform="translate(6.281 21.183)" fill="#df130d"/>
        <path id="Path_3253" data-name="Path 3253" d="M22.28,6.445a14.272,14.272,0,0,1-2.822,2.3H3.5a15.309,15.309,0,0,1-2.822-2.3Z" transform="translate(3.519 18.947)" fill="#fff"/>
        <path id="Path_3254" data-name="Path 3254" d="M22.28,8.1H.682A15.5,15.5,0,0,1,3.5,5.759H19.458A14.439,14.439,0,0,1,22.28,8.1Z" transform="translate(3.519 -3.421)" fill="#fff"/>
        <path id="Path_3255" data-name="Path 3255" d="M16.672,8.028H.766a12.519,12.519,0,0,1,1.473-.813l.167-.068.5-.237.234-.1A14.677,14.677,0,0,1,8.7,5.69h.033A14.845,14.845,0,0,1,16.672,8.028Z" transform="translate(6.281 -5.69)" fill="#df130d"/>
        <path id="Path_3256" data-name="Path 3256" d="M25.885,8.132H.628l.4-.61L1.1,7.488a13.112,13.112,0,0,1,1.345-1.66H24.069A17.049,17.049,0,0,1,25.885,8.132Z" transform="translate(1.744 -1.184)" fill="#df130d"/>
        <path id="Path_3257" data-name="Path 3257" d="M29.757,8.269H.57a14.113,14.113,0,0,1,.741-2.3H29.016A14.113,14.113,0,0,1,29.757,8.269Z" transform="translate(-0.163 3.29)" fill="#df130d"/>
        <path id="Path_3258" data-name="Path 3258" d="M28.288,8.234H.592l.2-.44.538-1.05L1.8,5.9H27.077A15.362,15.362,0,0,1,28.288,8.234Z" transform="translate(0.56 1.036)" fill="#fff"/>
        <path id="Path_3259" data-name="Path 3259" d="M30.491,8.371H.559l.034-.3.1-.847L.929,6.033H30.121A14.061,14.061,0,0,1,30.491,8.371Z" transform="translate(-0.525 5.51)" fill="#fff"/>
        <path id="Path_3260" data-name="Path 3260" d="M30.558,7.254l-.034,1.152H.592L.558,7.254.592,6.1H30.524Z" transform="translate(-0.558 7.763)" fill="#df130d"/>
      </g>
      <g id="Group_3885" data-name="Group 3885" transform="translate(0.558 5.69)">
        <path id="Path_3261" data-name="Path 3261" d="M15.634,5.69V21.952H.592L.558,20.8l.034-1.152.034-.3.1-.847.237-1.186a14.049,14.049,0,0,1,.745-2.3l.2-.44.542-1.05.474-.847.407-.61.068-.034a13.131,13.131,0,0,1,1.355-1.66A15.6,15.6,0,0,1,7.6,8.028,12.71,12.71,0,0,1,9.1,7.215l.169-.068.508-.237.237-.1A15,15,0,0,1,15.634,5.69Z" transform="translate(-0.558 -5.69)" fill="#00285e"/>
        <g id="Group_3884" data-name="Group 3884" transform="translate(0.068 0.789)">
          <g id="Group_3875" data-name="Group 3875" transform="translate(8.483)">
            <path id="Path_3262" data-name="Path 3262" d="M1.818,5.713l.213.65H2.72l-.556.407.213.654-.559-.407-.556.407.214-.654L.921,6.364h.688Z" transform="translate(2.813 -5.713)" fill="#fff"/>
            <path id="Path_3263" data-name="Path 3263" d="M2.125,6.952l.051.163-.22-.163L1.62,6.709l-.335.244-.22.163.051-.163.159-.491L.81,6.122l.146-.068h.451l.078-.237.237-.095.112.332h.684l-.552.407Z" transform="translate(-0.81 -5.404)" fill="#fff"/>
          </g>
          <g id="Group_3876" data-name="Group 3876" transform="translate(4.57 3.249)">
            <path id="Path_3264" data-name="Path 3264" d="M1.818,5.809l.213.654H2.72l-.556.4.213.654-.559-.4-.556.4.214-.654-.556-.4h.688Z" transform="translate(6.726 -5.809)" fill="#fff"/>
            <path id="Path_3265" data-name="Path 3265" d="M1.709,5.809l.213.654h.684l-.556.4.213.654-.556-.4-.556.4.213-.654-.559-.4H1.5Z" transform="translate(3.014 -5.809)" fill="#fff"/>
            <path id="Path_3266" data-name="Path 3266" d="M1.6,5.809l.21.654h.688l-.556.4.213.654-.556-.4-.559.4.213-.654-.556-.4h.688Z" transform="translate(-0.695 -5.809)" fill="#fff"/>
          </g>
          <g id="Group_3877" data-name="Group 3877" transform="translate(1.287 6.501)">
            <path id="Path_3267" data-name="Path 3267" d="M1.818,5.905l.213.654H2.72l-.556.4.213.654-.559-.4-.556.4.214-.654-.556-.4h.688Z" transform="translate(10.008 -5.905)" fill="#fff"/>
            <path id="Path_3268" data-name="Path 3268" d="M1.709,5.905l.213.654h.684l-.556.4.213.654-.556-.4-.556.4.213-.654-.559-.4H1.5Z" transform="translate(6.296 -5.905)" fill="#fff"/>
            <path id="Path_3269" data-name="Path 3269" d="M1.6,5.905l.21.654h.688l-.556.4.213.654-.556-.4-.559.4.213-.654-.556-.4h.688Z" transform="translate(2.588 -5.905)" fill="#fff"/>
            <path id="Path_3270" data-name="Path 3270" d="M1.309,6.429l.2.678L.971,6.7.6,6.971l.542-1.05.034.136h.678Z" transform="translate(-0.598 -5.386)" fill="#fff"/>
          </g>
          <g id="Group_3878" data-name="Group 3878" transform="translate(0.748 9.75)">
            <path id="Path_3271" data-name="Path 3271" d="M1.818,6l.213.654H2.72l-.556.407.213.65-.559-.4-.556.4.214-.65L.921,6.655h.688Z" transform="translate(10.547 -6.001)" fill="#fff"/>
            <path id="Path_3272" data-name="Path 3272" d="M1.709,6l.213.654h.684l-.556.407.213.65-.556-.4-.556.4.213-.65L.808,6.655H1.5Z" transform="translate(6.835 -6.001)" fill="#fff"/>
            <path id="Path_3273" data-name="Path 3273" d="M1.6,6l.21.654h.688l-.556.407.213.65-.556-.4-.559.4.213-.65L.695,6.655h.688Z" transform="translate(3.127 -6.001)" fill="#fff"/>
            <path id="Path_3274" data-name="Path 3274" d="M1.48,6l.213.654h.688l-.559.407.214.65-.556-.4-.556.4.213-.65L.582,6.655h.684Z" transform="translate(-0.582 -6.001)" fill="#fff"/>
          </g>
          <g id="Group_3879" data-name="Group 3879" transform="translate(0.748 13.003)">
            <path id="Path_3275" data-name="Path 3275" d="M1.818,6.1l.213.654H2.72l-.556.4.213.654-.559-.4-.556.4.214-.654-.556-.4h.688Z" transform="translate(10.547 -6.097)" fill="#fff"/>
            <path id="Path_3276" data-name="Path 3276" d="M1.709,6.1l.213.654h.684l-.556.4.213.654-.556-.4-.556.4.213-.654-.559-.4H1.5Z" transform="translate(6.835 -6.097)" fill="#fff"/>
            <path id="Path_3277" data-name="Path 3277" d="M1.6,6.1l.21.654h.688l-.556.4.213.654L1.6,7.4l-.559.4.213-.654-.556-.4h.688Z" transform="translate(3.127 -6.097)" fill="#fff"/>
            <path id="Path_3278" data-name="Path 3278" d="M1.48,6.1l.213.654h.688l-.559.4.214.654L1.48,7.4l-.556.4.213-.654-.556-.4h.684Z" transform="translate(-0.582 -6.097)" fill="#fff"/>
          </g>
          <g id="Group_3880" data-name="Group 3880" transform="translate(0 11.377)">
            <path id="Path_3279" data-name="Path 3279" d="M1.762,6.049l.214.654h.687l-.556.4.21.654-.556-.4-.556.4.213-.654L.864,6.7h.688Z" transform="translate(9.442 -6.049)" fill="#fff"/>
            <path id="Path_3280" data-name="Path 3280" d="M1.652,6.049l.21.654H2.55l-.555.4.213.654-.556-.4-.556.4.21-.654L.751,6.7h.688Z" transform="translate(5.729 -6.049)" fill="#fff"/>
            <path id="Path_3281" data-name="Path 3281" d="M1.537,6.049,1.75,6.7h.688l-.556.4.21.654-.555-.4-.556.4.213-.654L.638,6.7h.688Z" transform="translate(2.021 -6.049)" fill="#fff"/>
            <path id="Path_3282" data-name="Path 3282" d="M.628,6.475l.237.678-.3-.237.1-.847H1.2Z" transform="translate(-0.56 -5.428)" fill="#fff"/>
          </g>
          <g id="Group_3881" data-name="Group 3881" transform="translate(2.659 8.128)">
            <path id="Path_3283" data-name="Path 3283" d="M1.762,5.953l.214.654h.687l-.556.4.21.654-.556-.407-.556.407L1.42,7.01l-.556-.4h.688Z" transform="translate(6.782 -5.953)" fill="#fff"/>
            <path id="Path_3284" data-name="Path 3284" d="M1.652,5.953l.21.654H2.55l-.555.4.213.654-.556-.407L1.1,7.664l.21-.654-.556-.4h.688Z" transform="translate(3.07 -5.953)" fill="#fff"/>
            <path id="Path_3285" data-name="Path 3285" d="M1.537,5.953l.213.654h.688l-.556.4.21.654-.555-.407-.556.407.213-.654-.556-.4h.688Z" transform="translate(-0.638 -5.953)" fill="#fff"/>
          </g>
          <g id="Group_3882" data-name="Group 3882" transform="translate(2.727 4.875)">
            <path id="Path_3286" data-name="Path 3286" d="M1.762,5.857l.214.654h.687l-.556.4.21.654-.556-.4-.556.4.213-.654-.556-.4h.688Z" transform="translate(6.715 -5.857)" fill="#fff"/>
            <path id="Path_3287" data-name="Path 3287" d="M1.652,5.857l.21.654H2.55l-.555.4.213.654-.556-.4-.556.4.21-.654-.556-.4h.688Z" transform="translate(3.003 -5.857)" fill="#fff"/>
            <path id="Path_3288" data-name="Path 3288" d="M1.9,7.175l.129.393-.542-.393-.017-.01-.017.01-.539.393.129-.393.085-.261L.64,6.562l.037-.051h.579l.214-.654.213.654h.688l-.556.4Z" transform="translate(-0.64 -5.857)" fill="#fff"/>
          </g>
          <g id="Group_3883" data-name="Group 3883" transform="translate(6.481 1.623)">
            <path id="Path_3289" data-name="Path 3289" d="M1.762,5.761l.214.654h.687l-.556.407.21.65-.556-.4-.556.4.213-.65L.864,6.415h.688Z" transform="translate(2.961 -5.761)" fill="#fff"/>
            <path id="Path_3290" data-name="Path 3290" d="M1.652,5.761l.21.654H2.55l-.555.407.213.65-.556-.4-.556.4.21-.65L.751,6.415h.688Z" transform="translate(-0.751 -5.761)" fill="#fff"/>
          </g>
        </g>
      </g>
    </g>
  </g>
</svg>
