<svg xmlns="http://www.w3.org/2000/svg" xmlns:xlink="http://www.w3.org/1999/xlink" width="60" height="60" viewBox="0 0 60 60">
  <defs>
    <clipPath id="clip-path">
      <circle id="Ellipse_6211" data-name="Ellipse 6211" cx="30" cy="30" r="30" transform="translate(-611.403 10056.598)" fill="#eef2f9"/>
    </clipPath>
  </defs>
  <g id="Mask_Group_172" data-name="Mask Group 172" transform="translate(611.403 -10056.598)" clip-path="url(#clip-path)">
    <circle id="Ellipse_6210" data-name="Ellipse 6210" cx="30" cy="30" r="30" transform="translate(-611.403 10056.598)" fill="#eef2f9"/>
    <path id="Path_50788" data-name="Path 50788" d="M25,0A25,25,0,1,1,0,25,25,25,0,0,1,25,0Z" transform="translate(-606.403 10061.598)" fill="#fff"/>
    <g id="Group_38014" data-name="Group 38014" transform="translate(-605.331 10066.753)">
      <circle id="Ellipse_6206" data-name="Ellipse 6206" cx="6.898" cy="6.898" r="6.898" transform="translate(27.442)" fill="#afafaf"/>
      <path id="Path_50780" data-name="Path 50780" d="M-71.961,438.709l-.021-.005c-.24-.076-.479-.161-.729-.215a2.82,2.82,0,0,0-.339-.041,40.122,40.122,0,0,0-6.892-.413v.005c-.373,0-.77-.005-1.19-.005-10.013,0-9.078,1.306-10.574,2.993s-7.018,9.827-7.018,9.827l-10.681.093a3.123,3.123,0,0,0-3.123,3.123,3.123,3.123,0,0,0,3.123,3.123h0l13.208-.167s.56,0,1.5-1.026,5.147-6.831,5.147-6.831l.28,53.224h0a3.953,3.953,0,0,0,3.953,3.953,3.953,3.953,0,0,0,3.954-3.953.311.311,0,0,0-.005-.071h.052V471.16h1.361V502.4a4,4,0,0,0,4,4,4,4,0,0,0,3.979-3.6h.024V448.7l-.033-.158.534-1.531c1.111,2.367,2.164,6.73,2.164,14.764v8.806a2.935,2.935,0,0,0,2.935,2.935,2.936,2.936,0,0,0,2.936-2.935v-8.806C-63.423,448.277-66.3,440.534-71.961,438.709Z" transform="translate(115.435 -422.851)" fill="#afafaf"/>
      <g id="Group_38027" data-name="Group 38027" transform="translate(0 18.902)">
        <g id="Group_38026" data-name="Group 38026">
          <path id="Path_50789" data-name="Path 50789" d="M-103.687,441.592h-10.3a1.332,1.332,0,0,0-1.322,1.321v5.668a1.332,1.332,0,0,0,1.322,1.321h10.3a1.332,1.332,0,0,0,1.322-1.321v-5.668A1.323,1.323,0,0,0-103.687,441.592Zm-7.875,1.73a1.172,1.172,0,0,1,1.172,1.172,1.171,1.171,0,0,1-1.172,1.172,1.163,1.163,0,0,1-1.172-1.172A1.172,1.172,0,0,1-111.562,443.322Zm-1.826,4.32a2.681,2.681,0,0,1,.763-1.949,1.634,1.634,0,0,0,1.063.41,1.567,1.567,0,0,0,1.063-.41,2.681,2.681,0,0,1,.763,1.949C-109.75,448.349-113.388,448.349-113.388,447.642Zm8.87.436h-3.569a.332.332,0,0,1-.327-.327.331.331,0,0,1,.327-.327h3.569a.331.331,0,0,1,.327.327A.323.323,0,0,1-104.518,448.077Zm0-2h-3.569a.331.331,0,0,1-.327-.326.331.331,0,0,1,.327-.327h3.569a.331.331,0,0,1,.327.327A.322.322,0,0,1-104.518,446.074Zm0-1.989h-3.569a.331.331,0,0,1-.327-.327.331.331,0,0,1,.327-.326h3.569a.331.331,0,0,1,.327.326A.322.322,0,0,1-104.518,444.085Z" transform="translate(115.309 -441.592)" fill="#afafaf"/>
        </g>
      </g>
    </g>
  </g>
</svg>
