<svg xmlns="http://www.w3.org/2000/svg" width="80" height="80" viewBox="0 0 80 80">
  <g id="Group_37887" data-name="Group 37887" transform="translate(-1464 -10276)">
    <g id="Group_37858" data-name="Group 37858" transform="translate(1470.269 10279.333)">
      <g id="Group_37848" data-name="Group 37848" transform="translate(7.359 0)">
        <g id="Group_37845" data-name="Group 37845" transform="translate(0 0)">
          <g id="Group_14242" data-name="Group 14242" transform="translate(0 0)">
            <g id="Group_14241" data-name="Group 14241" transform="translate(0 0)">
              <g id="Group_14240" data-name="Group 14240">
                <path id="Path_8243" data-name="Path 8243" d="M990.111,597.631v27.4a23.488,23.488,0,0,1-11.1,20.03L960.6,656.574h-.018l-12.66-7.922-4.95-3.1-.8-.5a23.61,23.61,0,0,1-10.32-13.972,23.763,23.763,0,0,1-.778-6.058v-27.4c13.46-1.341,22.984-6.255,29.515-11.542a50.631,50.631,0,0,0,13.886,7.947A60.419,60.419,0,0,0,990.111,597.631Z" transform="translate(-931.082 -586.089)" fill="#1aa3ff"/>
                <path id="Path_8244" data-name="Path 8244" d="M1058.377,604.99a54.675,54.675,0,0,0,12.645,6.813,62.888,62.888,0,0,0,13.391,3.425v24.317a20.027,20.027,0,0,1-9.463,17.081L1058.375,667Z" transform="translate(-1028.862 -600.608)" fill="#1d7ae5"/>
              </g>
            </g>
          </g>
          <g id="Group_14243" data-name="Group 14243" transform="translate(10.523 20.577)">
            <path id="Path_8245" data-name="Path 8245" d="M976.47,692.168l4.563-4.564,8.047,8.047,20.809-20.808,4.563,4.564L989.08,704.779Z" transform="translate(-976.47 -674.843)" fill="#fff"/>
            <path id="Path_8246" data-name="Path 8246" d="M994.511,708.571,983.541,697.6l2.924-2.924,8.047,8.047,20.809-20.809,2.924,2.924Z" transform="translate(-981.901 -680.274)" fill="#fff"/>
          </g>
        </g>
      </g>
      <g id="noun_sparkling_2960738" transform="translate(0 0.153)">
        <g id="Group_37846" data-name="Group 37846">
          <path id="Path_50215" data-name="Path 50215" d="M8.967,293.34A3.839,3.839,0,0,0,6.6,295.706l-.719,2.07a.077.077,0,0,1-.145,0l-.719-2.068A3.838,3.838,0,0,0,2.65,293.34l-2.07-.719a.077.077,0,0,1,0-.145l2.07-.719a3.839,3.839,0,0,0,2.366-2.367l.719-2.07a.077.077,0,0,1,.145,0l.719,2.07a3.839,3.839,0,0,0,2.366,2.367l2.07.719a.077.077,0,0,1,0,.145Z" transform="translate(-0.529 -287.269)" fill="#1aa3ff"/>
        </g>
      </g>
      <path id="Path_50213" data-name="Path 50213" d="M12.264,295.617a2.4,2.4,0,0,0-1.479,1.479l-.449,1.293a.048.048,0,0,1-.092,0L9.8,297.1a2.4,2.4,0,0,0-1.48-1.479l-1.293-.449a.048.048,0,0,1,0-.091l1.293-.449a2.4,2.4,0,0,0,1.48-1.479l.448-1.293a.048.048,0,0,1,.092,0l.449,1.293a2.4,2.4,0,0,0,1.479,1.479l1.294.449a.048.048,0,0,1,0,.091Z" transform="translate(45.623 -225.091)" fill="#1aa3ff"/>
      <path id="Path_50214" data-name="Path 50214" d="M13.4,289.933a3.3,3.3,0,0,0-1.1.681,2.756,2.756,0,0,0-.744,1.168l-.562,1.617a.06.06,0,0,1-.114,0l-.562-1.617a3,3,0,0,0-1.849-1.849l-1.617-.562a.06.06,0,0,1,0-.113l1.617-.562a3,3,0,0,0,1.849-1.849l.562-1.617a.06.06,0,0,1,.114,0l.562,1.617A3,3,0,0,0,13.4,288.7l1.617.562a.06.06,0,0,1,0,.113Z" transform="translate(52.401 -225.255)" fill="#1aa3ff"/>
    </g>
    <rect id="Rectangle_61810" data-name="Rectangle 61810" width="80" height="80" transform="translate(1464 10276)" fill="none"/>
  </g>
</svg>
