<svg xmlns="http://www.w3.org/2000/svg" xmlns:xlink="http://www.w3.org/1999/xlink" width="25" height="25" viewBox="0 0 25 25"><defs><style>.a { fill: #fff; }
  .b { clip-path: url(#a); }
  .c { clip-path: url(#b); }
  .d { fill: #dd2911; }
  .e { fill: #fedd19; }
</style><clipPath id="a"><rect class="a" width="25" height="25" transform="translate(15 14)"/></clipPath><clipPath id="b"><rect width="25" height="25"/></clipPath></defs><g class="b" transform="translate(-15 -14)"><g class="c" transform="translate(15 14)"><g transform="translate(-0.465 -11.09)"><g transform="translate(0.465 11.09)"><circle class="d" cx="12.5" cy="12.5" r="12.5"/></g><g transform="translate(3.779 14.573)"><path class="e" d="M4.407,11.223,5.313,14H8.229L5.87,15.717l.9,2.783L4.407,16.777,2.046,18.5l.9-2.778L.583,14H3.5Z" transform="translate(-0.587 -10.02)"/><path class="e" d="M2.474,11.195l-.087.965.892.379-.945.217-.083.965-.5-.833L.808,13.1l.635-.73L.948,11.54l.892.382Z" transform="translate(8.514 -11.195)"/><path class="e" d="M3.144,11.529l-.456.856.673.7-.954-.167-.456.853-.133-.958-.951-.167.87-.424L1.6,11.263l.673.695Z" transform="translate(10.949 -8.561)"/><path class="e" d="M3.4,12.235l-.765.593.327.908-.8-.544-.768.593.273-.929-.8-.544.967-.032.271-.93.326.913Z" transform="translate(10.983 -4.797)"/><path class="e" d="M3.254,12.725l-.933.256-.046.965-.533-.807-.933.256.6-.758-.529-.8.9.34.6-.754-.043.965Z" transform="translate(8.552 -2.101)"/></g></g></g></g></svg>
