<svg xmlns="http://www.w3.org/2000/svg" xmlns:xlink="http://www.w3.org/1999/xlink" width="24" height="24" viewBox="0 0 24 24">
  <defs>
    <clipPath id="clip-path">
      <rect id="Rectangle_61503" data-name="Rectangle 61503" width="20" height="20" transform="translate(3515 5229)" fill="#fff" stroke="#707070" stroke-width="1"/>
    </clipPath>
    <clipPath id="clip-錢包管理_刪除">
      <rect width="24" height="24"/>
    </clipPath>
  </defs>
  <g id="錢包管理_刪除" clip-path="url(#clip-錢包管理_刪除)">
    <g id="Group_39009" data-name="Group 39009" transform="translate(1771 -565)">
      <g id="Component_887" data-name="Component 887" transform="translate(-1771 565)">
        <path id="Path_46393" data-name="Path 46393" d="M3.429,0H20.571A3.429,3.429,0,0,1,24,3.429V20.571A3.429,3.429,0,0,1,20.571,24H3.429A3.429,3.429,0,0,1,0,20.571V3.429A3.429,3.429,0,0,1,3.429,0Z" fill="red"/>
        <g id="Mask_Group_70" data-name="Mask Group 70" transform="translate(-3513 -5227)" clip-path="url(#clip-path)">
          <path id="删除" d="M-17953.121-1983.629a3.133,3.133,0,0,1-2.812-3.363v-9.858h-.969a.9.9,0,0,1-.633-.256.889.889,0,0,1-.258-.625.884.884,0,0,1,.891-.882h4.375a3.47,3.47,0,0,1,3.469-3.346,3.448,3.448,0,0,1,3.457,3.351h4.121a.879.879,0,0,1,.879.882.824.824,0,0,1-.254.625.87.87,0,0,1-.625.256h-.887v9.852a3.122,3.122,0,0,1-2.809,3.362Zm-1.164-3.363c0,1.01.609,1.715,1.164,1.715h7.93c.547,0,1.152-.708,1.152-1.715v-9.86h-10.246Zm3.41-11.622h3.613a1.794,1.794,0,0,0-1.8-1.687,1.8,1.8,0,0,0-1.816,1.676Zm3.68,10.31v-5.179a.826.826,0,0,1,.727-.908.833.833,0,0,1,.746.907v5.179a.839.839,0,0,1-.742.908.828.828,0,0,1-.66-.919Zm-2.812,0v-5.179a.838.838,0,0,1,.742-.908.832.832,0,0,1,.734.908v5.179a.829.829,0,0,1-.734.908.832.832,0,0,1-.664-.92Zm-2.672,0v-5.179a.845.845,0,0,1,.738-.908.836.836,0,0,1,.75.908l-.008,5.178a.84.84,0,0,1-.742.907.828.828,0,0,1-.6-.284.819.819,0,0,1-.2-.634Z" transform="translate(21474.197 7231.791)" fill="#fff"/>
        </g>
      </g>
    </g>
  </g>
</svg>
