<svg xmlns="http://www.w3.org/2000/svg" xmlns:xlink="http://www.w3.org/1999/xlink" width="60" height="60" viewBox="0 0 60 60">
  <defs>
    <clipPath id="clip-path">
      <circle id="Ellipse_6218" data-name="Ellipse 6218" cx="30" cy="30" r="30" transform="translate(-611.403 10056.598)" fill="#eef2f9"/>
    </clipPath>
  </defs>
  <g id="Mask_Group_174" data-name="Mask Group 174" transform="translate(611.403 -10056.598)" clip-path="url(#clip-path)">
    <circle id="Ellipse_6217" data-name="Ellipse 6217" cx="30" cy="30" r="30" transform="translate(-611.403 10056.598)" fill="#eef2f9"/>
    <path id="Path_50791" data-name="Path 50791" d="M25,0A25,25,0,1,1,0,25,25,25,0,0,1,25,0Z" transform="translate(-606.403 10061.598)" fill="#fff"/>
    <g id="noun_id_1946984" transform="translate(-598.461 10075.645)">
      <g id="Group_38034" data-name="Group 38034" transform="translate(0 0)">
        <path id="Path_50792" data-name="Path 50792" d="M33.134,27.6H5.984A3.51,3.51,0,0,0,2.5,31.084v14.94a3.51,3.51,0,0,0,3.484,3.484H33.134a3.51,3.51,0,0,0,3.484-3.484V31.084A3.487,3.487,0,0,0,33.134,27.6ZM12.376,32.161A3.089,3.089,0,1,1,9.288,35.25,3.088,3.088,0,0,1,12.376,32.161ZM7.564,43.546A7.058,7.058,0,0,1,9.575,38.41a4.308,4.308,0,0,0,2.8,1.077,4.128,4.128,0,0,0,2.8-1.077,7.058,7.058,0,0,1,2.011,5.136C17.153,45.413,7.564,45.413,7.564,43.546ZM30.943,44.7H21.534a.862.862,0,0,1,0-1.724h9.409a.874.874,0,0,1,.862.862A.851.851,0,0,1,30.943,44.7Zm0-5.279H21.534a.862.862,0,0,1,0-1.724h9.409a.874.874,0,0,1,.862.862A.851.851,0,0,1,30.943,39.416Zm0-5.243H21.534a.862.862,0,0,1,0-1.724h9.409a.874.874,0,0,1,.862.862A.851.851,0,0,1,30.943,34.172Z" transform="translate(-2.5 -27.6)" fill="#afafaf"/>
      </g>
    </g>
  </g>
</svg>
