<svg xmlns="http://www.w3.org/2000/svg" xmlns:xlink="http://www.w3.org/1999/xlink" width="60" height="60" viewBox="0 0 60 60">
  <defs>
    <clipPath id="clip-path">
      <circle id="Ellipse_6216" data-name="Ellipse 6216" cx="30" cy="30" r="30" transform="translate(-611.403 10056.598)" fill="#eef2f9"/>
    </clipPath>
  </defs>
  <g id="Mask_Group_173" data-name="Mask Group 173" transform="translate(611.403 -10056.598)" clip-path="url(#clip-path)">
    <circle id="Ellipse_6215" data-name="Ellipse 6215" cx="30" cy="30" r="30" transform="translate(-611.403 10056.598)" fill="#eef2f9"/>
    <path id="Path_50790" data-name="Path 50790" d="M25,0A25,25,0,1,1,0,25,25,25,0,0,1,25,0Z" transform="translate(-606.403 10061.598)" fill="#fff"/>
    <g id="noun_id_1946984" transform="translate(-598.461 10073.73)">
      <g id="Group_38015" data-name="Group 38015" transform="translate(0 0)">
        <path id="Path_50783" data-name="Path 50783" d="M33.134,27.6H5.984A3.51,3.51,0,0,0,2.5,31.084v14.94a3.51,3.51,0,0,0,3.484,3.484H33.134a3.51,3.51,0,0,0,3.484-3.484V31.084A3.487,3.487,0,0,0,33.134,27.6ZM12.376,32.161A3.089,3.089,0,1,1,9.288,35.25,3.088,3.088,0,0,1,12.376,32.161ZM7.564,43.546A7.058,7.058,0,0,1,9.575,38.41a4.308,4.308,0,0,0,2.8,1.077,4.128,4.128,0,0,0,2.8-1.077,7.058,7.058,0,0,1,2.011,5.136C17.153,45.413,7.564,45.413,7.564,43.546ZM30.943,44.7H21.534a.862.862,0,0,1,0-1.724h9.409a.874.874,0,0,1,.862.862A.851.851,0,0,1,30.943,44.7Zm0-5.279H21.534a.862.862,0,0,1,0-1.724h9.409a.874.874,0,0,1,.862.862A.851.851,0,0,1,30.943,39.416Zm0-5.243H21.534a.862.862,0,0,1,0-1.724h9.409a.874.874,0,0,1,.862.862A.851.851,0,0,1,30.943,34.172Z" transform="translate(-2.5 -27.6)" fill="#afafaf"/>
      </g>
    </g>
    <g id="noun_turn_1947987" transform="translate(-598.633 10094.439)">
      <path id="Path_50781" data-name="Path 50781" d="M7.134,21.384,2.609,24.659c-.287.212.036.489.575.489H6.02C7.6,28.26,13.778,30.59,21.1,30.59c8.3,0,15.084-2.965,15.479-6.7.036-.179-.287-.342-.682-.342H33.817c-.359,0-.682.13-.682.293-.359,2.884-5.6,5.181-12,5.181-5.423,0-9.984-1.629-11.492-3.862h2.622c.539,0,.9-.277.575-.489L8.319,21.384A1.184,1.184,0,0,0,7.134,21.384Z" transform="translate(-2.501 -18.225)" fill="#afafaf"/>
    </g>
  </g>
</svg>
