<svg xmlns="http://www.w3.org/2000/svg" xmlns:xlink="http://www.w3.org/1999/xlink" width="24" height="24" viewBox="0 0 24 24">
  <defs>
    <clipPath id="clip-path">
      <rect id="Rectangle_61812" data-name="Rectangle 61812" width="24" height="24"/>
    </clipPath>
  </defs>
  <g id="认证_认证成功" clip-path="url(#clip-path)">
    <rect id="Rectangle_57047" data-name="Rectangle 57047" width="24" height="24" fill="none"/>
    <g id="Icon_ionic-ios-home" data-name="Icon ionic-ios-home">
      <rect id="Rectangle_57172" data-name="Rectangle 57172" width="24" height="24" fill="none"/>
    </g>
    <g id="Group_14271" data-name="Group 14271" transform="translate(1 0.999)">
      <path id="Path_8238" data-name="Path 8238" d="M2851.09,1324.35a11,11,0,1,0,11,11A11,11,0,0,0,2851.09,1324.35Z" transform="translate(-2840.09 -1324.35)" fill="#0aaf72"/>
      <g id="Path_8211" data-name="Path 8211" transform="translate(4.454 6.483)">
        <path id="Path_8212" data-name="Path 8212" d="M1539.168,1083.462a.828.828,0,0,1-.516-.178l-4.6-3.676a.827.827,0,1,1,1.033-1.292l4,3.2,6.319-6.816a.826.826,0,1,1,1.212,1.124l-6.842,7.377A.824.824,0,0,1,1539.168,1083.462Z" transform="translate(-1533.744 -1074.432)" fill="#fff"/>
      </g>
    </g>
  </g>
</svg>
