<svg xmlns="http://www.w3.org/2000/svg" xmlns:xlink="http://www.w3.org/1999/xlink" width="24" height="24" viewBox="0 0 24 24">
  <defs>
    <linearGradient id="linear-gradient" x1="0.5" x2="0.5" y2="2.232" gradientUnits="objectBoundingBox">
      <stop offset="0" stop-color="#f3ac0a"/>
      <stop offset="1" stop-color="#7a5605"/>
    </linearGradient>
    <clipPath id="clip-path">
      <rect id="Rectangle_62110" data-name="Rectangle 62110" width="24" height="24" stroke="#707070" stroke-width="1" fill="url(#linear-gradient)"/>
    </clipPath>
    <linearGradient id="linear-gradient-2" y2="1" xlink:href="#linear-gradient"/>
    <clipPath id="clip-首頁_跑馬燈喇叭">
      <rect width="24" height="24"/>
    </clipPath>
  </defs>
  <g id="首頁_跑馬燈喇叭" clip-path="url(#clip-首頁_跑馬燈喇叭)">
    <g id="Mask_Group_633" data-name="Mask Group 633" clip-path="url(#clip-path)">
      <g id="marquee" transform="translate(1.009 3.228)">
        <path id="Path_51230" data-name="Path 51230" d="M15.6,8.04a.5.5,0,0,0-.536.093l-5.1,4.71H6.5a.49.49,0,0,0-.5.484v6.779a.49.49,0,0,0,.5.484H9.969l5.1,4.71a.5.5,0,0,0,.536.093.483.483,0,0,0,.3-.445V8.484A.483.483,0,0,0,15.6,8.04Z" transform="translate(-6 -8)" fill="url(#linear-gradient-2)"/>
        <path id="Path_51231" data-name="Path 51231" d="M17.254,13.521l-.706.69a.46.46,0,0,0-.07.6,2.373,2.373,0,0,1,0,2.852.46.46,0,0,0,.07.6l.706.69a.511.511,0,0,0,.756-.058,4.274,4.274,0,0,0,0-5.312A.511.511,0,0,0,17.254,13.521Z" transform="translate(-5.07 -7.519)" fill="url(#linear-gradient-2)"/>
        <path id="Path_51232" data-name="Path 51232" d="M20.549,11.009A.5.5,0,0,0,19.833,11l-.7.685a.48.48,0,0,0-.013.668,6.177,6.177,0,0,1,0,8.218.48.48,0,0,0,.013.668l.7.685a.5.5,0,0,0,.716-.011,8.081,8.081,0,0,0,0-10.9Z" transform="translate(-4.838 -7.745)" fill="url(#linear-gradient-2)"/>
        <path id="Path_51233" data-name="Path 51233" d="M23.121,8.49a.506.506,0,0,0-.715-.007l-.7.686a.472.472,0,0,0-.008.667,9.984,9.984,0,0,1,0,13.7.472.472,0,0,0,.008.667l.7.686a.507.507,0,0,0,.715-.007,11.887,11.887,0,0,0,0-16.39Z" transform="translate(-4.608 -7.97)" fill="url(#linear-gradient-2)"/>
      </g>
    </g>
  </g>
</svg>
