<svg xmlns="http://www.w3.org/2000/svg" xmlns:xlink="http://www.w3.org/1999/xlink" width="24" height="24" viewBox="0 0 24 24">
  <defs>
    <clipPath id="clip-市場_聯盟選擇_已選">
      <rect width="24" height="24"/>
    </clipPath>
  </defs>
  <g id="市場_聯盟選擇_已選" clip-path="url(#clip-市場_聯盟選擇_已選)">
    <g id="Group_38966" data-name="Group 38966" transform="translate(-2 -4)">
      <circle id="Ellipse_6110" data-name="Ellipse 6110" cx="12" cy="12" r="12" transform="translate(2 4)" fill="#fff"/>
      <g id="check_1" data-name="check 1" transform="translate(2 4)">
        <path id="Path_51098" data-name="Path 51098" d="M13,1A12,12,0,1,0,25,13,12,12,0,0,0,13,1Zm6.168,8.592-7.992,7.984a.733.733,0,0,1-.432.224.885.885,0,0,1-.152.016.353.353,0,0,1-.128-.016.733.733,0,0,1-.432-.224l-3.2-3.192a.8.8,0,0,1,0-1.128.806.806,0,0,1,1.136,0l2.64,2.64,7.424-7.432a.806.806,0,0,1,1.136,0,.8.8,0,0,1,0,1.128Z" transform="translate(-1 -1)" fill="#7a5605"/>
      </g>
    </g>
  </g>
</svg>
