<svg xmlns="http://www.w3.org/2000/svg" xmlns:xlink="http://www.w3.org/1999/xlink" width="24" height="24" viewBox="0 0 24 24">
  <defs>
    <clipPath id="clip-path">
      <rect id="Rectangle_61452" data-name="Rectangle 61452" width="24" height="24"/>
    </clipPath>
  </defs>
  <g id="认证邮箱" clip-path="url(#clip-path)">
    <g id="footer_钱包_灰" clip-path="url(#clip-path)">
      <rect id="Rectangle_57564" data-name="Rectangle 57564" width="24" height="24" fill="none"/>
      <path id="Icon_zocial-email" data-name="Icon zocial-email" d="M.072,17.6V5.383q0-.021.064-.4l7.192,6.152L.157,18.027A1.8,1.8,0,0,1,.072,17.6ZM1.027,4.132a.914.914,0,0,1,.361-.064H20.757a1.2,1.2,0,0,1,.382.064l-7.213,6.174-.955.764-1.888,1.549L9.194,11.069l-.955-.764Zm.021,14.723,7.234-6.937,2.8,2.27,2.8-2.27,7.234,6.937a1.019,1.019,0,0,1-.361.064H1.387a.961.961,0,0,1-.339-.064Zm13.79-7.722L22.008,4.98a1.266,1.266,0,0,1,.064.4V17.6a1.626,1.626,0,0,1-.064.424Z" transform="translate(0.928 0.507)" fill="#afafaf"/>
    </g>
  </g>
</svg>
