<svg xmlns="http://www.w3.org/2000/svg" xmlns:xlink="http://www.w3.org/1999/xlink" width="24" height="24" viewBox="0 0 24 24">
  <defs>
    <clipPath id="clip-path">
      <rect id="Rectangle_62410" data-name="Rectangle 62410" width="24" height="24" transform="translate(1856 415)" fill="#f3ac0a" stroke="#707070" stroke-width="1"/>
    </clipPath>
  </defs>
  <g id="联盟选择_反选" transform="translate(-1856 -415)" clip-path="url(#clip-path)">
    <g id="noun_inverter_78815" transform="translate(1852 409.333)">
      <path id="Path_51549" data-name="Path 51549" d="M24.556,21.944V14.611c0-3.025-2.2-5.5-4.889-5.5s-4.889,2.475-4.889,5.5v6.111c0,1.657-1.12,3.056-2.444,3.056s-2.444-1.4-2.444-3.056V13.389h2.444L8.667,8.5,5,13.389H7.444v7.333c0,3.025,2.2,5.5,4.889,5.5s4.889-2.475,4.889-5.5V14.611c0-1.657,1.119-3.056,2.444-3.056s2.444,1.4,2.444,3.056v7.333H19.667l3.667,4.889L27,21.944Z" fill="#f3ac0a"/>
    </g>
  </g>
</svg>
