<svg xmlns="http://www.w3.org/2000/svg" xmlns:xlink="http://www.w3.org/1999/xlink" width="24" height="24" viewBox="0 0 24 24">
  <defs>
    <clipPath id="clip-path">
      <rect id="Rectangle_63414" data-name="Rectangle 63414" width="24" height="24" transform="translate(2040 1371)" fill="#fff" stroke="#707070" stroke-width="1"/>
    </clipPath>
    <linearGradient id="linear-gradient" x1="0.5" x2="0.5" y2="1" gradientUnits="objectBoundingBox">
      <stop offset="0" stop-color="#1ecba8"/>
      <stop offset="1" stop-color="#62d9b5"/>
    </linearGradient>
    <clipPath id="clip-下注_保本投注项">
      <rect width="24" height="24"/>
    </clipPath>
  </defs>
  <g id="下注_保本投注项" clip-path="url(#clip-下注_保本投注项)">
    <g id="Mask_Group_1245" data-name="Mask Group 1245" transform="translate(-2040 -1371)" clip-path="url(#clip-path)">
      <g id="Group_41148" data-name="Group 41148" transform="translate(2026 1047)">
        <circle id="Ellipse_6306" data-name="Ellipse 6306" cx="11" cy="11" r="11" transform="translate(15 325)" fill="url(#linear-gradient)"/>
        <g id="noun_Umbrella_4338016" data-name="noun Umbrella 4338016" transform="translate(19.197 328.942)">
          <path id="Path_56061" data-name="Path 56061" d="M-16.989,166.662l.292-.505a.557.557,0,0,1,.761-.2.557.557,0,0,1,.2.761l-.29.5.012.007.4.3.413.353.415.416.389.462.284.392.1.147a7.243,7.243,0,0,1,.168,7.524.574.574,0,0,1-.761.2h0a.462.462,0,0,1-.254-.316l-.02-.076a2.592,2.592,0,0,0-1.2-1.521h0a2.593,2.593,0,0,0-1.968-.259.471.471,0,0,1-.423-.056l-.26-.339a2.585,2.585,0,0,0-.756-1.244l-3.357,5.814a1.95,1.95,0,0,1-2.664.714h0a1.95,1.95,0,0,1-.714-2.664l.418-.724a.557.557,0,0,1,.761-.2.557.557,0,0,1,.2.761l-.418.724a.835.835,0,0,0,.306,1.142h0a.835.835,0,0,0,1.142-.306h0l3.357-5.814a2.594,2.594,0,0,0-1.456-.033.473.473,0,0,1-.423-.056l-.26-.339a2.59,2.59,0,0,0-1.209-1.575h0a2.6,2.6,0,0,0-1.916-.27l-.076.021a.463.463,0,0,1-.4-.065h0a.574.574,0,0,1-.2-.761,7.245,7.245,0,0,1,6.6-3.616l.585.05.552.092.52.127.473.152.465.187Z" transform="translate(26.476 -165.878)" fill="#fff" fill-rule="evenodd"/>
        </g>
      </g>
    </g>
  </g>
</svg>
