<svg xmlns="http://www.w3.org/2000/svg" xmlns:xlink="http://www.w3.org/1999/xlink" width="24" height="24" viewBox="0 0 24 24">
  <defs>
    <clipPath id="clip-我的_公告">
      <rect width="24" height="24"/>
    </clipPath>
  </defs>
  <g id="我的_公告" clip-path="url(#clip-我的_公告)">
    <path id="Path_7801" data-name="Path 7801" d="M5389.448,1756.274l-1.82-2.362a7.848,7.848,0,0,0,.613-3.03v-1.511a8.237,8.237,0,0,0-8.34-8.112h-.9a8.237,8.237,0,0,0-8.339,8.112v1.511a7.909,7.909,0,0,0,.86,3.555l-1.416,1.838a1.6,1.6,0,0,0-.183,1.645,1.469,1.469,0,0,0,1.339.882h3a5.644,5.644,0,0,0,11.035,0h3a1.471,1.471,0,0,0,1.339-.882A1.6,1.6,0,0,0,5389.448,1756.274Zm-9.669,5.018a3.838,3.838,0,0,1-3.542-2.491h7.083A3.838,3.838,0,0,1,5379.779,1761.293Zm-7.688-4.457,1.3-1.685a1.009,1.009,0,0,0,.047-1.145l0,0a5.91,5.91,0,0,1-.894-3.121v-1.511a6.315,6.315,0,0,1,6.459-6.145h.9a6.315,6.315,0,0,1,6.459,6.145v1.511a5.847,5.847,0,0,1-.606,2.589c-.005.008-.015.012-.02.021a1.019,1.019,0,0,0,.051,1.162l1.681,2.182Z" transform="translate(-5367.779 -1740.259)" fill="#afafaf"/>
    <rect id="Rectangle_56493" data-name="Rectangle 56493" width="24" height="24" fill="none"/>
  </g>
</svg>
