<svg xmlns="http://www.w3.org/2000/svg" xmlns:xlink="http://www.w3.org/1999/xlink" width="24" height="24" viewBox="0 0 24 24">
  <defs>
    <clipPath id="clip-登入注册_LINE">
      <rect width="24" height="24"/>
    </clipPath>
  </defs>
  <g id="登入注册_LINE" clip-path="url(#clip-登入注册_LINE)">
    <rect id="Rectangle_55277" data-name="Rectangle 55277" width="24" height="24" fill="none"/>
    <path id="Path_24751" data-name="Path 24751" d="M1507.827,144.766c-6.09,0-11.007,3.948-11.007,8.818a7.872,7.872,0,0,0,2.594,5.688,11.889,11.889,0,0,0,6.474,2.978l.368.05c1.757.368.235,2.56.8,3.013.669.518,5.671-2.827,8.717-5.638a10.223,10.223,0,0,0,1.2-1.205l.2-.252a7.46,7.46,0,0,0,1.639-4.635C1518.833,148.714,1513.9,144.766,1507.827,144.766Zm-4.029,10.615a.515.515,0,0,1-.513.515h-2a.516.516,0,0,1-.515-.515v-3.826a.517.517,0,0,1,.514-.515h.044a.516.516,0,0,1,.515.515v3.266h1.441a.512.512,0,0,1,.509.518Zm1.81-.026a.537.537,0,1,1-1.074,0v-3.781a.537.537,0,1,1,1.074,0Zm5.065.029a.5.5,0,0,1-.147.36.344.344,0,0,1-.125.094.555.555,0,0,1-.243.06h-.044a.519.519,0,0,1-.2-.038.443.443,0,0,1-.2-.147.514.514,0,0,1-.037-.051L1507.8,153.1v2.287a.519.519,0,0,1-.516.516h-.041a.518.518,0,0,1-.516-.516v-3.826a.518.518,0,0,1,.515-.515h.041a.517.517,0,0,1,.441.26l1.866,2.5v-2.244a.52.52,0,0,1,.514-.515h.048a.516.516,0,0,1,.518.518Zm4.189-3.777a.515.515,0,0,1-.516.518h-1.433v.815h1.433a.52.52,0,0,1,.517.515v.041a.517.517,0,0,1-.516.514h-1.433v.817h1.433a.518.518,0,0,1,.516.514v.044a.517.517,0,0,1-.516.514h-1.986a.518.518,0,0,1-.514-.514v-3.815a.518.518,0,0,1,.513-.515h1.992v.009a.521.521,0,0,1,.516.5Z" transform="translate(-1495.819 -142.766)" fill="#bdbdbd"/>
  </g>
</svg>
