<svg xmlns="http://www.w3.org/2000/svg" xmlns:xlink="http://www.w3.org/1999/xlink" width="24" height="24" viewBox="0 0 24 24">
  <defs>
    <clipPath id="clip-path">
      <rect id="Rectangle_57620" data-name="Rectangle 57620" width="24" height="24" transform="translate(0 -0.188)"/>
    </clipPath>
    <clipPath id="clip-无记录">
      <rect width="24" height="24"/>
    </clipPath>
  </defs>
  <g id="无记录" clip-path="url(#clip-无记录)">
    <g id="footer_行情_灰" transform="translate(0 0.188)" clip-path="url(#clip-path)">
      <rect id="Rectangle_57564" data-name="Rectangle 57564" width="24" height="24" transform="translate(0 -0.188)" fill="none"/>
      <g id="Icon_feather-file-minus" data-name="Icon feather-file-minus" transform="translate(3.154 1.083)">
        <path id="Path_14417" data-name="Path 14417" d="M467.765,865.824a1.006,1.006,0,0,0-.039-.126c-.007-.019-.01-.039-.018-.057a.978.978,0,0,0-.073-.136c-.006-.01-.01-.022-.017-.031a1,1,0,0,0-.123-.149l-5.87-5.87a.988.988,0,0,0-.149-.123c-.01-.007-.022-.011-.031-.017a.975.975,0,0,0-.136-.073c-.018-.008-.038-.011-.057-.018a.82.82,0,0,0-.319-.057H453.1a2.939,2.939,0,0,0-2.936,2.936v15.66A2.939,2.939,0,0,0,453.1,880.7h11.745a2.94,2.94,0,0,0,2.936-2.936V866.018A1.007,1.007,0,0,0,467.765,865.824Zm-5.853-3.316,2.53,2.531h-2.53Zm2.936,16.233H453.1a.98.98,0,0,1-.979-.979V862.1a.979.979,0,0,1,.979-.979h6.851v4.894a.979.979,0,0,0,.979.979h4.894v10.766A.98.98,0,0,1,464.848,878.742Z" transform="translate(-450.167 -859.167)" fill="#dcf0ff"/>
        <path id="Path_14418" data-name="Path 14418" d="M463.706,880.392H458.53a.863.863,0,0,1,0-1.725h5.176a.863.863,0,0,1,0,1.725Z" transform="translate(-452.309 -865.792)" fill="#dcf0ff"/>
      </g>
    </g>
  </g>
</svg>
