<svg xmlns="http://www.w3.org/2000/svg" xmlns:xlink="http://www.w3.org/1999/xlink" width="24" height="24" viewBox="0 0 24 24">
  <defs>
    <clipPath id="clip-path">
      <rect id="Rectangle_57690" data-name="Rectangle 57690" width="24" height="24" transform="translate(150 245)" fill="#fff" stroke="#707070" stroke-width="1"/>
    </clipPath>
  </defs>
  <g id="Mask_Group_14458" data-name="Mask Group 14458" transform="translate(-150 -245)" clip-path="url(#clip-path)">
    <g id="Group_14829" data-name="Group 14829" transform="translate(150.998 246.811)">
      <path id="Path_9064" data-name="Path 9064" d="M-118.2-92.9c-2.583-.6-4.771.005-6.291,2.207-1.506,2.18-1.316,4.429.144,6.63h-11.16A1.4,1.4,0,0,1-137-85.557q0-7.972,0-15.944a1.4,1.4,0,0,1,1.509-1.5h15.782a1.4,1.4,0,0,1,1.508,1.5q0,4.189,0,8.378Zm-7.427-4.253h3.621a.752.752,0,0,0,.835-.735.749.749,0,0,0-.823-.749q-3.632,0-7.264,0a.751.751,0,0,0-.824.748.752.752,0,0,0,.835.736Zm-.012,3.574q1.833,0,3.667,0a.748.748,0,0,0,.751-.475.743.743,0,0,0-.739-1.009c-1.477,0-2.955,0-4.432,0q-1.45,0-2.9,0a.742.742,0,0,0-.682.364.739.739,0,0,0,.67,1.121C-128.086-93.575-126.864-93.578-125.641-93.578Zm-7-3.574a.747.747,0,0,0,.79-.734.747.747,0,0,0-.775-.751.749.749,0,0,0-.8.747A.746.746,0,0,0-132.641-97.153Zm0,2.089a.748.748,0,0,0-.785.741.745.745,0,0,0,.78.745.747.747,0,0,0,.8-.751A.749.749,0,0,0-132.642-95.064Z" transform="translate(137.002 103.002)" fill="#f0f0f0"/>
      <path id="Path_9065" data-name="Path 9065" d="M130.906,125A4.9,4.9,0,1,1,126,129.889,4.9,4.9,0,0,1,130.906,125Zm.014,5.958a2.505,2.505,0,0,0,.17.215q.637.643,1.28,1.28a.714.714,0,0,0,.771.178.7.7,0,0,0,.494-.615.764.764,0,0,0-.264-.662c-.472-.466-.939-.937-1.418-1.416.064-.069.115-.126.168-.179.426-.427.854-.852,1.279-1.28a.755.755,0,0,0,.05-1.112.742.742,0,0,0-1.094.057c-.434.43-.865.864-1.3,1.3-.052.052-.109.1-.174.157-.5-.5-.983-.993-1.472-1.476a.736.736,0,0,0-1.077-.026.746.746,0,0,0,.032,1.078q.594.6,1.2,1.2a2.983,2.983,0,0,0,.35.25c-.141.121-.21.173-.27.233-.427.426-.857.849-1.278,1.282a.721.721,0,0,0-.136.856.693.693,0,0,0,.771.385,1.06,1.06,0,0,0,.472-.262C129.959,131.934,130.421,131.458,130.921,130.958Z" transform="translate(-113.793 -114.416)" fill="#f0f0f0"/>
    </g>
  </g>
</svg>
