<svg xmlns="http://www.w3.org/2000/svg" xmlns:xlink="http://www.w3.org/1999/xlink" width="24" height="24" viewBox="0 0 24 24">
  <defs>
    <clipPath id="clip-path">
      <rect id="Rectangle_57188" data-name="Rectangle 57188" width="24" height="24"/>
    </clipPath>
  </defs>
  <g id="验证_验证成功" clip-path="url(#clip-path)">
    <rect id="Rectangle_57047" data-name="Rectangle 57047" width="24" height="24" fill="none"/>
    <g id="Icon_ionic-ios-home" data-name="Icon ionic-ios-home" transform="translate(-1.389 -1.39)">
      <rect id="Rectangle_57172" data-name="Rectangle 57172" width="24" height="24" transform="translate(1.389 1.39)" fill="none"/>
    </g>
    <g id="Group_14271" data-name="Group 14271" transform="translate(-8799.747 -7172.749)">
      <path id="Path_8238" data-name="Path 8238" d="M2851.09,1324.35a11,11,0,1,0,11,11A11,11,0,0,0,2851.09,1324.35Z" transform="translate(5960.657 5849.398)" fill="#51d26f"/>
      <g id="Path_8211" data-name="Path 8211" transform="translate(8805.755 7180.75)">
        <path id="Path_8212" data-name="Path 8212" d="M1538.72,1082.71a.761.761,0,0,1-.473-.164l-4.214-3.37a.759.759,0,0,1,.947-1.185l3.663,2.931,5.792-6.248a.757.757,0,0,1,1.111,1.03l-6.272,6.763a.757.757,0,0,1-.554.243Z" transform="translate(-1533.748 -1074.432)" fill="#fff"/>
      </g>
    </g>
  </g>
</svg>
