<svg xmlns="http://www.w3.org/2000/svg" xmlns:xlink="http://www.w3.org/1999/xlink" width="24" height="24" viewBox="0 0 24 24">
  <defs>
    <clipPath id="clip-path">
      <rect id="Rectangle_56245" data-name="Rectangle 56245" width="24" height="24"/>
    </clipPath>
    <linearGradient id="linear-gradient" x1="0.252" y1="0.144" x2="0.719" y2="0.719" gradientUnits="objectBoundingBox">
      <stop offset="0" stop-color="#4898ff"/>
      <stop offset="1" stop-color="#1877f2"/>
    </linearGradient>
  </defs>
  <g id="快登_FB" clip-path="url(#clip-path)">
    <g id="Group_5454" data-name="Group 5454" transform="translate(-0.004)">
      <g id="Group_5325" data-name="Group 5325">
        <g id="Group_5352" data-name="Group 5352">
          <path id="Path_9415" data-name="Path 9415" d="M11.122,0A11.122,11.122,0,1,1,0,11.122,11.122,11.122,0,0,1,11.122,0Z" transform="translate(0.758 0.857)" fill="#fff"/>
          <path id="Path_9359" data-name="Path 9359" d="M1038.47,1015.19h-.525a12.036,12.036,0,0,0-12,12h0a12.035,12.035,0,0,0,12,12h0a12.034,12.034,0,0,0,12-12v-.525a11.509,11.509,0,0,0-11.475-11.475Zm3.169,7.355H1040.3c-1.05,0-1.253.5-1.253,1.231v1.615h2.505l-.326,2.529h-2.175v6.488h-2.612v-6.487h-2.183v-2.529h2.183v-1.867a3.048,3.048,0,0,1,3.254-3.343,18.08,18.08,0,0,1,1.95.1Z" transform="translate(-1025.95 -1015.19)" fill="url(#linear-gradient)"/>
        </g>
      </g>
    </g>
  </g>
</svg>
