<svg xmlns="http://www.w3.org/2000/svg" xmlns:xlink="http://www.w3.org/1999/xlink" width="24" height="24" viewBox="0 0 24 24">
  <defs>
    <linearGradient id="linear-gradient" x1="0.146" y1="0.147" x2="0.832" y2="0.83" gradientUnits="objectBoundingBox">
      <stop offset="0" stop-color="#6aa6ff"/>
      <stop offset="1" stop-color="#1a77ff"/>
    </linearGradient>
    <clipPath id="clip-zalo">
      <rect width="24" height="24"/>
    </clipPath>
  </defs>
  <g id="zalo" clip-path="url(#clip-zalo)">
    <g id="zalo-2" data-name="zalo" transform="translate(-1243 -556)">
      <g id="Group_12537" data-name="Group 12537" transform="translate(911.002 1330)">
        <circle id="Ellipse_1131" data-name="Ellipse 1131" cx="12" cy="12" r="12" transform="translate(331.999 -774)" fill="url(#linear-gradient)"/>
      </g>
      <g id="Group_12538" data-name="Group 12538" transform="translate(1248 566)">
        <path id="Path_24855" data-name="Path 24855" d="M386.487-596.114l2.619-3.3a.992.992,0,0,0,.229-.81H385.4v.862h2.756l-2.652,3.246h0a.8.8,0,0,0-.2.451v.34h3.677a.359.359,0,0,0,.359-.359v-.431Z" transform="translate(-385.305 600.222)" fill="#fff"/>
        <path id="Path_24856" data-name="Path 24856" d="M601.9-577.125a1.9,1.9,0,0,0-1.9,1.9,1.9,1.9,0,0,0,1.9,1.9,1.9,1.9,0,0,0,1.9-1.9A1.9,1.9,0,0,0,601.9-577.125Zm0,3.017a1.117,1.117,0,0,1-1.117-1.117,1.117,1.117,0,0,1,1.117-1.117,1.117,1.117,0,0,1,1.117,1.117A1.117,1.117,0,0,1,601.9-574.108Z" transform="translate(-589.796 578.222)" fill="#fff"/>
        <path id="Path_24857" data-name="Path 24857" d="M478.166-577.047v.284a1.891,1.891,0,0,0-1.117-.363,1.9,1.9,0,0,0-1.9,1.9,1.9,1.9,0,0,0,1.9,1.9,1.892,1.892,0,0,0,1.117-.363.367.367,0,0,0,.367.363h.416v-3.723Zm-1.117,2.939a1.117,1.117,0,0,1-1.117-1.117,1.117,1.117,0,0,1,1.117-1.117,1.117,1.117,0,0,1,1.117,1.117,1.117,1.117,0,0,1-1.116,1.117Z" transform="translate(-470.881 578.222)" fill="#fff"/>
        <path id="Rectangle_55184" data-name="Rectangle 55184" d="M0,0H.836V4.9h0A.836.836,0,0,1,0,4.062Z" transform="translate(8.758)" fill="#fff"/>
      </g>
    </g>
    <rect id="Rectangle_56245" data-name="Rectangle 56245" width="24" height="24" fill="none"/>
  </g>
</svg>
