<svg xmlns="http://www.w3.org/2000/svg" xmlns:xlink="http://www.w3.org/1999/xlink" width="24" height="24" viewBox="0 0 24 24">
  <defs>
    <linearGradient id="linear-gradient" x1="0.146" y1="0.147" x2="0.832" y2="0.83" gradientUnits="objectBoundingBox">
      <stop offset="0" stop-color="#6aa6ff"/>
      <stop offset="1" stop-color="#1a77ff"/>
    </linearGradient>
    <clipPath id="clip-path">
      <rect id="Rectangle_62500" data-name="Rectangle 62500" width="24" height="24"/>
    </clipPath>
    <clipPath id="clip-path-2">
      <rect id="Rectangle_57864" data-name="Rectangle 57864" width="24" height="24" transform="translate(-1232 1261)" fill="#fff"/>
    </clipPath>
    <clipPath id="clip-path-3">
      <circle id="Ellipse_1131" data-name="Ellipse 1131" cx="11" cy="11" r="11" fill="url(#linear-gradient)"/>
    </clipPath>
  </defs>
  <g id="快登_zalo" clip-path="url(#clip-path)">
    <g id="Mask_Group_206" data-name="Mask Group 206" transform="translate(1232 -1261)" clip-path="url(#clip-path-2)">
      <g id="Group_27876" data-name="Group 27876" transform="translate(-28 2)">
        <g id="Group_12537" data-name="Group 12537" transform="translate(-1202.999 1260)">
          <circle id="Ellipse_1131-2" data-name="Ellipse 1131" cx="11" cy="11" r="11" fill="url(#linear-gradient)"/>
        </g>
        <rect id="Rectangle_56245" data-name="Rectangle 56245" width="22" height="22" transform="translate(-1203 1260)" fill="none"/>
        <g id="Mask_Group_205" data-name="Mask Group 205" transform="translate(-1202.999 1260)" clip-path="url(#clip-path-3)">
          <path id="Subtraction_208" data-name="Subtraction 208" d="M7.729,17.072a10.414,10.414,0,0,1-4.624-1.061,8.4,8.4,0,0,1-1.861.707,5.491,5.491,0,0,1-1.39.228c-.525,0-.748-.153-.842-.282a.355.355,0,0,1-.063-.314c.032-.1.162-.19.327-.3a2.4,2.4,0,0,0,.587-.5,3.6,3.6,0,0,0,.494-1.512A9.168,9.168,0,0,1,.6.793,10.314,10.314,0,0,1,7.729-2,9.831,9.831,0,0,1,17.81,7.536,9.831,9.831,0,0,1,7.729,17.072Zm.879-11V9.443a.694.694,0,0,0,.694.7V6.068Zm2.779.911a1.579,1.579,0,1,0,1.579,1.579,1.579,1.579,0,0,0-1.579-1.579Zm-4,2.856h0a.306.306,0,0,0,.3.3h.346v-3.1H7.387V7.28a1.556,1.556,0,0,0-.924-.3,1.579,1.579,0,1,0,.922,2.857ZM1.411,6.066v.716H3.7l-2.2,2.7a.661.661,0,0,0-.166.375v.282H4.386a.3.3,0,0,0,.3-.3V9.48H2.314L4.49,6.739a.823.823,0,0,0,.19-.673Zm9.977,3.42a.928.928,0,1,1,.929-.929.928.928,0,0,1-.929.929Zm-4.93,0h0a.928.928,0,1,1,.928-.928.928.928,0,0,1-.928.928Z" transform="translate(5.189 1.612)" fill="#fff" stroke="rgba(0,0,0,0)" stroke-miterlimit="10" stroke-width="1"/>
        </g>
      </g>
    </g>
  </g>
</svg>
