<svg xmlns="http://www.w3.org/2000/svg" xmlns:xlink="http://www.w3.org/1999/xlink" width="24" height="24" viewBox="0 0 24 24">
  <defs>
    <clipPath id="clip-path">
      <rect id="Rectangle_55123" data-name="Rectangle 55123" width="24" height="24"/>
    </clipPath>
    <linearGradient id="linear-gradient" x1="0.266" y1="0.18" x2="0.687" y2="0.797" gradientUnits="objectBoundingBox">
      <stop offset="0" stop-color="#4ec765"/>
      <stop offset="1" stop-color="#06c755"/>
    </linearGradient>
    <linearGradient id="linear-gradient-4" x1="0.266" y1="0.18" x2="0.687" y2="0.797" gradientUnits="objectBoundingBox">
      <stop offset="0" stop-color="#4fe86c"/>
      <stop offset="1" stop-color="#06c755"/>
    </linearGradient>
  </defs>
  <g id="快登_LINE" clip-path="url(#clip-path)">
    <g id="Group_5453" data-name="Group 5453" transform="translate(0 0.002)">
      <path id="Path_9416" data-name="Path 9416" d="M11.336,0A11.336,11.336,0,1,1,0,11.336,11.336,11.336,0,0,1,11.336,0Z" transform="translate(0.648 0.646)" fill="#fff"/>
      <g id="Group_5310" data-name="Group 5310">
        <path id="Path_9360" data-name="Path 9360" d="M980.732,1022.8h-.858v-1.95a.308.308,0,0,0-.308-.308h-.026a.308.308,0,0,0-.307.308v2.284a.309.309,0,0,0,.308.308h1.192a.309.309,0,0,0,.307-.308v-.025a.307.307,0,0,0-.307-.309Z" transform="translate(-971.318 -1010.111)" fill="url(#linear-gradient)"/>
        <rect id="Rectangle_3270" data-name="Rectangle 3270" width="0.642" height="2.902" rx="0.321" transform="translate(10.162 10.426)" fill="url(#linear-gradient)"/>
        <path id="Path_9361" data-name="Path 9361" d="M986.588,1020.54h-.026a.31.31,0,0,0-.307.308v1.341l-1.115-1.494a.31.31,0,0,0-.268-.156h-.025a.309.309,0,0,0-.308.308v2.285a.31.31,0,0,0,.308.308h.025a.31.31,0,0,0,.308-.308v-1.366l1.125,1.533a.338.338,0,0,0,.022.031h0a.26.26,0,0,0,.121.089.3.3,0,0,0,.117.023h.026a.322.322,0,0,0,.145-.036.216.216,0,0,0,.075-.056h0a.3.3,0,0,0,.089-.215v-2.285a.309.309,0,0,0-.312-.309Z" transform="translate(-973.069 -1010.111)" fill="url(#linear-gradient)"/>
        <path id="Path_9362" data-name="Path 9362" d="M979.389,1004.96a12,12,0,1,0,12,12,12,12,0,0,0-12-12Zm5.6,14.585a1.364,1.364,0,0,1-.122.15h0a5.784,5.784,0,0,1-.715.714c-1.82,1.681-4.814,3.682-5.208,3.375-.344-.266.566-1.582-.483-1.8l-.219-.028h0c-3.082-.437-5.422-2.592-5.422-5.187,0-2.908,2.945-5.267,6.578-5.267s6.578,2.359,6.578,5.267a4.5,4.5,0,0,1-.984,2.771Z" transform="translate(-967.389 -1004.96)" fill="url(#linear-gradient-4)"/>
        <path id="Path_9363" data-name="Path 9363" d="M990.626,1020.55h-1.191a.309.309,0,0,0-.307.308v2.28a.309.309,0,0,0,.307.307h1.191a.31.31,0,0,0,.309-.307v-.026a.31.31,0,0,0-.309-.307h-.857v-.488h.857a.31.31,0,0,0,.309-.307v-.025a.31.31,0,0,0-.309-.308h-.857v-.487h.857a.31.31,0,0,0,.309-.309v-.026a.311.311,0,0,0-.309-.3Z" transform="translate(-974.6 -1010.115)" fill="url(#linear-gradient)"/>
      </g>
    </g>
  </g>
</svg>
