<svg xmlns="http://www.w3.org/2000/svg" xmlns:xlink="http://www.w3.org/1999/xlink" width="32" height="32" viewBox="0 0 32 32"><defs><style>.a{clip-path:url(#a);}.b{fill:#fff;}.c{fill:url(#b);}</style><clipPath id="a"><rect width="32" height="32"/></clipPath><linearGradient id="b" x1="0.266" y1="0.18" x2="0.687" y2="0.797" gradientUnits="objectBoundingBox"><stop offset="0" stop-color="#66e989"/><stop offset="1" stop-color="#36d25f"/></linearGradient></defs><g class="a"><path class="b" d="M15.115,0A15.115,15.115,0,1,1,0,15.115,15.115,15.115,0,0,1,15.115,0Z" transform="translate(0.864 0.864)"/><path class="c" d="M981.232,1023.55h-1.144v-2.6a.411.411,0,0,0-.41-.411h-.035a.411.411,0,0,0-.41.411V1024a.412.412,0,0,0,.41.411h1.589a.412.412,0,0,0,.41-.411v-.034a.41.41,0,0,0-.41-.412Z" transform="translate(-968.68 -1006.632)"/><rect class="c" width="0.856" height="3.869" rx="0.428" transform="translate(13.549 13.905)"/><path class="c" d="M987.271,1020.54h-.034a.413.413,0,0,0-.41.411v1.788l-1.486-1.992a.413.413,0,0,0-.357-.208h-.033a.412.412,0,0,0-.411.411V1024a.413.413,0,0,0,.411.411h.033a.413.413,0,0,0,.411-.411v-1.822l1.5,2.044a.409.409,0,0,0,.029.041h0a.349.349,0,0,0,.161.118.4.4,0,0,0,.156.031h.034a.429.429,0,0,0,.193-.048.291.291,0,0,0,.1-.075h0a.407.407,0,0,0,.119-.287v-3.047a.412.412,0,0,0-.416-.412Z" transform="translate(-969.246 -1006.632)"/><path class="c" d="M983.389,1004.96a16,16,0,1,0,16,16A16,16,0,0,0,983.389,1004.96Zm7.461,19.447a1.836,1.836,0,0,1-.163.2v.006a7.7,7.7,0,0,1-.953.952c-2.427,2.242-6.418,4.91-6.944,4.5-.459-.354.754-2.109-.644-2.4l-.292-.037h0c-4.109-.583-7.229-3.456-7.229-6.916,0-3.877,3.926-7.023,8.771-7.023s8.771,3.145,8.771,7.023a6,6,0,0,1-1.312,3.694Z" transform="translate(-967.389 -1004.957)"/><path class="c" d="M991.126,1020.55h-1.588a.412.412,0,0,0-.41.41V1024a.412.412,0,0,0,.41.41h1.588a.413.413,0,0,0,.412-.41v-.034a.413.413,0,0,0-.412-.41h-1.143v-.651h1.143a.413.413,0,0,0,.412-.41v-.034a.414.414,0,0,0-.412-.411h-1.143v-.65h1.143a.414.414,0,0,0,.412-.412v-.035a.414.414,0,0,0-.412-.4Z" transform="translate(-969.758 -1006.633)"/></g></svg>