<svg xmlns="http://www.w3.org/2000/svg" xmlns:xlink="http://www.w3.org/1999/xlink" width="32" height="32" viewBox="0 0 32 32"><defs><style>.a{clip-path:url(#a);}.b{fill:url(#b);}.c{fill:#fff;}</style><clipPath id="a"><rect width="32" height="32"/></clipPath><linearGradient id="b" x1="0.788" y1="0.89" x2="0.195" y2="0.122" gradientUnits="objectBoundingBox"><stop offset="0" stop-color="#268bff"/><stop offset="1" stop-color="#88d3ff"/></linearGradient></defs><g class="a"><g transform="translate(-68.14 -605)"><path class="b" d="M781.765,1022.87a16,16,0,1,1,11.313-4.685h0a15.891,15.891,0,0,1-11.313,4.685Z" transform="translate(-697.624 -385.868)"/><path class="c" d="M1259.763,917.093a3.735,3.735,0,0,1-1.4-1.817,1.876,1.876,0,0,1-.082-.218c-.025-.071-.045-.142-.082-.261-.053.095-.087.147-.114.2a1.7,1.7,0,0,1-.807.854c-.3.142-.375.106-.474-.2a3.271,3.271,0,0,1,.1-2.029,4.928,4.928,0,0,1,1.749-2.4.218.218,0,0,0,.1-.26,1.333,1.333,0,0,1,.2-.987,1.126,1.126,0,0,0,.064-.2c.072-.219.145-.437.216-.656a.462.462,0,0,0,.035-.125,5.02,5.02,0,0,1,1.005-2.674,4.407,4.407,0,0,1,3.168-1.875,6.024,6.024,0,0,1,3.8.592,3.716,3.716,0,0,1,1.795,2.044c.239.642.384,1.319.574,1.98a1.858,1.858,0,0,0,.1.259c.094.2.206.394.286.6a1.175,1.175,0,0,1,.01.91.461.461,0,0,0,.058.478,8.456,8.456,0,0,1,1.092,2.089,3.223,3.223,0,0,1,.052,2.188,1.239,1.239,0,0,1-.169.322.314.314,0,0,1-.516.039,4.839,4.839,0,0,1-.424-.593,3.92,3.92,0,0,1-.182-.354,5.743,5.743,0,0,1-1.149,1.952c.123.081.223.156.331.217a5.253,5.253,0,0,1,.611.336,1.584,1.584,0,0,1,.382.444.48.48,0,0,1-.083.571,1.6,1.6,0,0,1-.833.525,5.307,5.307,0,0,1-2.391.146c-.638-.107-1.26-.3-1.894-.439a7.57,7.57,0,0,0-.822-.1.131.131,0,0,0-.09.031,2.527,2.527,0,0,1-1.426.585,7.669,7.669,0,0,1-3.057-.133,2.245,2.245,0,0,1-.757-.362.85.85,0,0,1-.144-1.164,1.354,1.354,0,0,1,.867-.47C1259.558,917.122,1259.65,917.113,1259.763,917.093Z" transform="translate(-1179.545 -291.371)"/></g></g></svg>