<svg xmlns="http://www.w3.org/2000/svg" xmlns:xlink="http://www.w3.org/1999/xlink" width="24" height="24" viewBox="0 0 24 24">
  <defs>
    <clipPath id="clip-金刚区_联系客服">
      <rect width="24" height="24"/>
    </clipPath>
  </defs>
  <g id="金刚区_联系客服" clip-path="url(#clip-金刚区_联系客服)">
    <rect id="Rectangle_57564" data-name="Rectangle 57564" width="24" height="24" fill="none"/>
    <g id="headphones" transform="translate(-30 1)">
      <g id="Group_14708" data-name="Group 14708" transform="translate(31)">
        <path id="Path_8433" data-name="Path 8433" d="M42,0C35.935,0,31,4.337,31,9.668V14.91a2.082,2.082,0,0,0,2.2,1.934h.859a2.2,2.2,0,0,0,2.074,1.289,2.082,2.082,0,0,0,2.2-1.934V10.957a2.082,2.082,0,0,0-2.2-1.934,2.2,2.2,0,0,0-2.074,1.289H33.2a2.463,2.463,0,0,0-.733.111V9.668c0-4.62,4.277-8.379,9.533-8.379s9.533,3.759,9.533,8.379v.755a2.463,2.463,0,0,0-.733-.111h-.859a2.2,2.2,0,0,0-2.074-1.289,2.082,2.082,0,0,0-2.2,1.934V16.2a2.082,2.082,0,0,0,2.2,1.934,2.473,2.473,0,0,0,.639-.083A2.187,2.187,0,0,1,46.4,19.422H44.074A2.2,2.2,0,0,0,42,18.133a2.082,2.082,0,0,0-2.2,1.934A2.082,2.082,0,0,0,42,22a2.2,2.2,0,0,0,2.074-1.289H46.4a3.47,3.47,0,0,0,3.667-3.223v-.645H50.8A2.082,2.082,0,0,0,53,14.91V9.668C53,4.337,48.065,0,42,0ZM35.4,10.957a.739.739,0,0,1,1.467,0V16.2a.739.739,0,0,1-1.467,0Zm-2.2.645h.733v3.953H33.2a.694.694,0,0,1-.733-.645V12.246A.694.694,0,0,1,33.2,11.6ZM42,20.711a.65.65,0,1,1,.733-.645A.694.694,0,0,1,42,20.711ZM48.6,16.2a.739.739,0,0,1-1.467,0V10.957a.739.739,0,0,1,1.467,0Zm2.933-1.289a.694.694,0,0,1-.733.645h-.733V11.6H50.8a.694.694,0,0,1,.733.645Z" transform="translate(-31)" fill="#0a4273"/>
      </g>
    </g>
  </g>
</svg>
