<svg xmlns="http://www.w3.org/2000/svg" xmlns:xlink="http://www.w3.org/1999/xlink" width="24" height="24" viewBox="0 0 24 24">
  <defs>
    <clipPath id="clip-path">
      <rect id="Rectangle_62140" data-name="Rectangle 62140" width="24" height="24" transform="translate(55 275)" fill="#bdbdbd"/>
    </clipPath>
    <clipPath id="clip-登入_註冊_帳戶頭像">
      <rect width="24" height="24"/>
    </clipPath>
  </defs>
  <g id="登入_註冊_帳戶頭像" clip-path="url(#clip-登入_註冊_帳戶頭像)">
    <g id="Mask_Group_645" data-name="Mask Group 645" transform="translate(-55 -275)" clip-path="url(#clip-path)">
      <g id="Group_38000" data-name="Group 38000" transform="translate(56.014 276)">
        <path id="Path_51249" data-name="Path 51249" d="M-134.029-134.185v.516H-156v-.43c.014-.083.034-.166.042-.249a9.934,9.934,0,0,1,1.2-3.982,10.8,10.8,0,0,1,6.587-5.256,1.854,1.854,0,0,0,.173-.074,6.9,6.9,0,0,1-2.046-1.561,6.178,6.178,0,0,1,.011-8.205,6.757,6.757,0,0,1,8.97-.97,5.954,5.954,0,0,1,2.636,4.881,6.136,6.136,0,0,1-3.317,5.709l-.273.158c.076.028.114.045.154.056a10.385,10.385,0,0,1,2.724,1.195,10.441,10.441,0,0,1,4.965,7.2C-134.116-134.864-134.078-134.524-134.029-134.185Z" transform="translate(156 155.67)" fill="#bdbdbd"/>
      </g>
    </g>
  </g>
</svg>
