<svg xmlns="http://www.w3.org/2000/svg" xmlns:xlink="http://www.w3.org/1999/xlink" width="24" height="24" viewBox="0 0 24 24">
  <defs>
    <clipPath id="clip-path">
      <rect id="Rectangle_61676" data-name="Rectangle 61676" width="24" height="24" transform="translate(-16853.373 -10098.373)" fill="#fff" stroke="#707070" stroke-width="1"/>
    </clipPath>
    <clipPath id="clip-註冊_微信">
      <rect width="24" height="24"/>
    </clipPath>
  </defs>
  <g id="註冊_微信" clip-path="url(#clip-註冊_微信)">
    <g id="Mask_Group_506" data-name="Mask Group 506" transform="translate(16853.373 10098.373)" clip-path="url(#clip-path)">
      <g id="Group_38652" data-name="Group 38652" transform="translate(-16851.779 -10096.859)">
        <path id="Path_51070" data-name="Path 51070" d="M10.6,18.808A8.58,8.58,0,0,1,5.87,17.388l-3.3,1.055,1.071-3.192a8.587,8.587,0,1,1,6.954,3.555h0ZM10.6,0A10.222,10.222,0,0,0,1.844,15.495L0,20.974l5.657-1.813A10.217,10.217,0,1,0,10.6,0Z" transform="translate(-0.001)" fill="#bdbdbd"/>
        <path id="Path_51071" data-name="Path 51071" d="M41.923,39.412c-.167-.4-.293-.414-.545-.424q-.144-.009-.288-.01a1.247,1.247,0,0,0-.879.308,2.743,2.743,0,0,0-.879,2.091,4.91,4.91,0,0,0,1.02,2.591,10.755,10.755,0,0,0,4.278,3.778c1.975.818,2.561.742,3.01.646a2.422,2.422,0,0,0,1.687-1.212,2.132,2.132,0,0,0,.146-1.192c-.061-.106-.227-.166-.48-.293s-1.48-.732-1.712-.813a.479.479,0,0,0-.616.187,10.536,10.536,0,0,1-.672.889.543.543,0,0,1-.606.1,6.333,6.333,0,0,1-2.015-1.242,7.644,7.644,0,0,1-1.394-1.732c-.147-.252-.015-.4.1-.535.126-.157.247-.268.374-.414a1.505,1.505,0,0,0,.278-.394.512.512,0,0,0-.035-.465c-.061-.126-.566-1.359-.773-1.858Z" transform="translate(-33.724 -33.422)" fill="#bdbdbd"/>
      </g>
    </g>
  </g>
</svg>
