<svg xmlns="http://www.w3.org/2000/svg" xmlns:xlink="http://www.w3.org/1999/xlink" width="24" height="24" viewBox="0 0 24 24">
  <defs>
    <clipPath id="clip-path">
      <rect id="Rectangle_57535" data-name="Rectangle 57535" width="24" height="24" fill="#1d3158" stroke="#707070" stroke-width="1"/>
    </clipPath>
  </defs>
  <g id="登录注册页_客服_黑" transform="translate(410.963 -182.074)">
    <g id="Mask_Group_422" data-name="Mask Group 422" transform="translate(-410.963 182.074)" clip-path="url(#clip-path)">
      <g id="Group_37927" data-name="Group 37927" transform="translate(1 0.998)">
        <path id="Path_47282" data-name="Path 47282" d="M-90.638-99.286A7.622,7.622,0,0,0-98.38-106a7.6,7.6,0,0,0-7.4,6.714c.274,0,.546,0,.817,0a.232.232,0,0,1,.254.208q.849,3.19,1.711,6.378c.041.152-.021.223-.129.3a3.833,3.833,0,0,1-6.018-2.389,3.766,3.766,0,0,1,1.23-3.575.464.464,0,0,0,.142-.284,9.553,9.553,0,0,1,7.759-9.1,9.569,9.569,0,0,1,11.2,7.664c.08.47.1.949.163,1.422a.542.542,0,0,0,.149.308,3.826,3.826,0,0,1-.206,5.9,1.1,1.1,0,0,0-.253.3,9.508,9.508,0,0,1-5.75,4.445.465.465,0,0,0-.352.3,2.349,2.349,0,0,1-2.561,1.456,2.4,2.4,0,0,1-2.011-2.105,2.4,2.4,0,0,1,1.541-2.5,2.373,2.373,0,0,1,2.794.884l.121.174c.147-.068.277-.141.414-.19A7.733,7.733,0,0,0-91.679-91.7a1.747,1.747,0,0,1-.217-.064q-.708-.322-1.413-.65c-.133-.062-.155-.162-.117-.305q.857-3.175,1.7-6.352a.247.247,0,0,1,.273-.22C-91.186-99.283-90.922-99.286-90.638-99.286Z" transform="translate(109.211 107.93)" fill="#1d3158"/>
      </g>
    </g>
  </g>
</svg>
