<svg xmlns="http://www.w3.org/2000/svg" xmlns:xlink="http://www.w3.org/1999/xlink" width="24" height="24" viewBox="0 0 24 24">
  <defs>
    <clipPath id="clip-path">
      <rect id="Rectangle_62529" data-name="Rectangle 62529" width="24" height="24" transform="translate(197 -136)" fill="#fff" stroke="#707070" stroke-width="1"/>
    </clipPath>
  </defs>
  <g id="语言" transform="translate(-197 136)" clip-path="url(#clip-path)">
    <g id="global" transform="translate(198 -135)">
      <g id="Group_40004" data-name="Group 40004">
        <path id="Path_51919" data-name="Path 51919" d="M18.778,3.222A11,11,0,0,0,3.222,18.778,11,11,0,0,0,18.778,3.222ZM8.914,1.515A14.076,14.076,0,0,0,7.747,2.8,13.375,13.375,0,0,0,6.033,5.562H2.958A9.737,9.737,0,0,1,8.914,1.515ZM2.221,6.851h3.3a12.933,12.933,0,0,0-.651,3.5H1.311A9.639,9.639,0,0,1,2.221,6.851Zm-.91,4.793h3.56a12.931,12.931,0,0,0,.651,3.5h-3.3A9.639,9.639,0,0,1,1.311,11.645Zm1.647,4.793H6.033A13.376,13.376,0,0,0,7.747,19.2a14.064,14.064,0,0,0,1.167,1.284A9.737,9.737,0,0,1,2.958,16.438Zm7.4,3.62a12.671,12.671,0,0,1-1.6-1.664,12.278,12.278,0,0,1-1.287-1.956h2.89Zm0-4.909H6.884a11.534,11.534,0,0,1-.723-3.5h4.194Zm0-4.793H6.162a11.533,11.533,0,0,1,.723-3.5h3.471Zm0-4.793H7.466A12.273,12.273,0,0,1,8.722,3.644a12.667,12.667,0,0,1,1.633-1.7Zm10.334,4.793h-3.56a12.931,12.931,0,0,0-.651-3.5h3.3A9.638,9.638,0,0,1,20.689,10.355ZM19.042,5.562H15.967A13.376,13.376,0,0,0,14.253,2.8a14.064,14.064,0,0,0-1.167-1.284A9.737,9.737,0,0,1,19.042,5.562Zm-7.4-3.62a12.671,12.671,0,0,1,1.6,1.664,12.281,12.281,0,0,1,1.287,1.956h-2.89Zm0,4.909h3.471a11.533,11.533,0,0,1,.723,3.5H11.645Zm0,4.793h4.194a11.533,11.533,0,0,1-.723,3.5H11.645Zm0,8.412V16.438h2.89a12.271,12.271,0,0,1-1.257,1.918A12.667,12.667,0,0,1,11.645,20.056Zm1.442.428A14.076,14.076,0,0,0,14.253,19.2a13.375,13.375,0,0,0,1.714-2.762h3.075A9.737,9.737,0,0,1,13.086,20.485Zm6.693-5.336h-3.3a12.933,12.933,0,0,0,.651-3.5h3.56A9.638,9.638,0,0,1,19.779,15.149Z" fill="#fff"/>
      </g>
    </g>
  </g>
</svg>
