<?xml version="1.0" encoding="utf-8"?>
<!-- Generator: Adobe Illustrator 25.4.1, SVG Export Plug-In . SVG Version: 6.00 Build 0)  -->
<svg version="1.1" id="圖層_1" xmlns="http://www.w3.org/2000/svg" xmlns:xlink="http://www.w3.org/1999/xlink" x="0px" y="0px"
	 viewBox="0 0 404.6 200" style="enable-background:new 0 0 404.6 200;" xml:space="preserve">
<style type="text/css">
	.st0{fill:url(#SVGID_1_);}
	.st1{fill:url(#SVGID_00000172418305887646408400000011687677501326501032_);}
	.st2{fill:url(#SVGID_00000150075509853458165400000016651290775637951896_);}
	.st3{fill:url(#SVGID_00000054984895855025317960000009241661438886469822_);}
	.st4{fill:url(#SVGID_00000093137403349871665820000013850786805864402050_);}
	.st5{fill:url(#SVGID_00000006688623869192814700000006439540661844073917_);}
	.st6{fill:url(#SVGID_00000181776284940508747170000007264695584234738597_);}
	.st7{fill:url(#SVGID_00000128443685946656995880000012861282884443983007_);}
	.st8{fill:url(#SVGID_00000101085526276196593760000005397231832918265744_);}
	.st9{fill:url(#SVGID_00000172417715953227973670000016317661825782710455_);}
	.st10{fill:url(#SVGID_00000012435463136624233540000016312239506863422868_);}
	.st11{fill:url(#SVGID_00000028286482197264318770000003569102170012273844_);}
	.st12{fill:url(#SVGID_00000152980778640981481430000010784120283956288171_);}
	.st13{fill:url(#SVGID_00000089532467894660064240000014177858210954711226_);}
	.st14{fill:url(#SVGID_00000100349000923147753280000007474910352660440249_);}
	.st15{fill-rule:evenodd;clip-rule:evenodd;}
</style>
<g>
	<g>
		<linearGradient id="SVGID_1_" gradientUnits="userSpaceOnUse" x1="69.9392" y1="5.0349" x2="69.9392" y2="144.4323">
			<stop  offset="0" style="stop-color:#1093C8"/>
			<stop  offset="1" style="stop-color:#0C78AD"/>
		</linearGradient>
		<path class="st0" d="M40.5,101.8c0,1.7,0,3.1,0,4.6c0,13.1,0,28.8,0,41.9c-3.4,0-38.3,0-39.8,0c0.1-14.3,0-31,0.1-45.4
			c0-1,0.5-2.2,1.2-2.8c11.4-10.5,22.9-21,34.3-31.5c1.1-1,2.2-1.4,3.7-1.4c15,0,30,0,45-0.1c4.2,0,8.2-1.1,11.3-4.3
			c6.4-6.4,4.7-15.9-3.6-19.8c-3.6-1.7-7.4-1.8-11.2-1.8c-16.8,0-35.6,0-52.4,0C28.1,39.9,10.6,19,2.1,8.8C1.6,8.2,0.6,7,0,6.3
			c0.7,0,60.5,0,89.2,0c14.1,0,26.6,4,36.8,14c22.7,22.1,16.7,62.2-11.9,76.1c-5,2.4-10.1,4.2-15.5,5.2c-0.8,0.1-1.6,0.1-2.4,0.1
			c-17.7,0-35.4,0-53.1,0C42.4,101.8,41.6,101.8,40.5,101.8z"/>
		
			<linearGradient id="SVGID_00000088118071591368333780000002314196482762897025_" gradientUnits="userSpaceOnUse" x1="242.0621" y1="5.0336" x2="242.0621" y2="144.5754">
			<stop  offset="0" style="stop-color:#1093C8"/>
			<stop  offset="1" style="stop-color:#0C78AD"/>
		</linearGradient>
		<path style="fill:url(#SVGID_00000088118071591368333780000002314196482762897025_);" d="M357.1,40.9c-69.2,0-138.2,0-207.6,0
			c-1.9-14.8-11.1-25.1-22.3-34.5c76.9,0,153.4,0,230,0C357.1,17.9,357.1,29.3,357.1,40.9z"/>
		
			<linearGradient id="SVGID_00000125604541242307057600000010679645747350800307_" gradientUnits="userSpaceOnUse" x1="287.4687" y1="5.0336" x2="287.4687" y2="144.5754">
			<stop  offset="0" style="stop-color:#1093C8"/>
			<stop  offset="1" style="stop-color:#0C78AD"/>
		</linearGradient>
		<path style="fill:url(#SVGID_00000125604541242307057600000010679645747350800307_);" d="M217.8,113.3c1,0,1.7,0,2.4,0
			c44.8,0,92.1,0,136.9,0c0,1.9,0,33,0,34.7c-44.8,0-94.6,0-139.4,0c0-1.8,0-0.6,0-2.5c0.1-10.1,0-20.1,0-30.2
			C217.8,114.7,217.8,114.2,217.8,113.3z"/>
		
			<linearGradient id="SVGID_00000016033537992018359200000018377898506557422987_" gradientUnits="userSpaceOnUse" x1="287.4491" y1="5.0336" x2="287.4491" y2="144.5753">
			<stop  offset="0" style="stop-color:#1093C8"/>
			<stop  offset="1" style="stop-color:#0C78AD"/>
		</linearGradient>
		<path style="fill:url(#SVGID_00000016033537992018359200000018377898506557422987_);" d="M295.5,93.6c-0.7,0.6-1.8,1.1-2.8,1.1
			c-17,0.1-51.7,0-52.6,0c0.8-0.7,26.9-23,39.5-33.6c0.7-0.6,1.7-1.1,2.6-1.1c17-0.1,35.5,0,52.6,0
			C334.7,60.1,306.1,84.5,295.5,93.6z"/>
		
			<linearGradient id="SVGID_00000110444852116260244770000006617013601164356737_" gradientUnits="userSpaceOnUse" x1="176.1505" y1="5.0336" x2="176.1505" y2="144.5754">
			<stop  offset="0" style="stop-color:#1093C8"/>
			<stop  offset="1" style="stop-color:#0C78AD"/>
		</linearGradient>
		<path style="fill:url(#SVGID_00000110444852116260244770000006617013601164356737_);" d="M182.9,146.7c-0.8,0-6.9,0-8.6,0
			c-0.6-1.7-0.9-2.7-1.1-3.5c-6.4,4.6-13,5.3-19.9,2.8c-4.4-1.6-7.3-4.8-8.9-9.2c-3.8-10,0.8-20.7,10.2-23.7
			c11.5-3.7,21,1.9,24.1,14.6c1.2-4.5,3.5-13.4,3.9-14.8c0.8,0,8,0,9.2,0c0.7,2.8,3,11.1,4.3,14.9c1.2-4.4,3.6-13.6,4-14.9
			c2,0,7.5,0,9.4,0c-0.4,1.3-8.9,32.7-9.1,33.7c-2,0-7,0-9,0c-0.3-0.9-3.1-10.7-4.3-15.2C186.9,131.7,183.9,143,182.9,146.7z
			 M168.2,129.7c0-0.5,0-1.3-0.2-2.2c-0.6-3.5-3.1-5.8-6.5-6.1c-4.2-0.3-6.8,1.3-7.9,5c-0.7,2.5-0.7,5.1,0.3,7.5
			c1,2.5,2.9,4,5.7,4.2C165.1,138.6,168.1,135.7,168.2,129.7z"/>
		
			<linearGradient id="SVGID_00000127021833706604239250000010056924920647105923_" gradientUnits="userSpaceOnUse" x1="112.7109" y1="5.0336" x2="112.7109" y2="144.5754">
			<stop  offset="0" style="stop-color:#1093C8"/>
			<stop  offset="1" style="stop-color:#0C78AD"/>
		</linearGradient>
		<path style="fill:url(#SVGID_00000127021833706604239250000010056924920647105923_);" d="M117.6,105.8c3.7,5.9,7.2,11.5,10.8,17.2
			c4.8,7.7,14.8,23.6,16,25.3c-12.2,0-27.9,0-40.1,0c-0.3-0.6-15.6-24.7-23.3-37.1C93.6,111.3,106,111.8,117.6,105.8z"/>
	</g>
	<g>
		
			<linearGradient id="SVGID_00000103243708285731324670000009706605407023248009_" gradientUnits="userSpaceOnUse" x1="331.9469" y1="149.6463" x2="331.9469" y2="194.5373">
			<stop  offset="0" style="stop-color:#646567"/>
			<stop  offset="1" style="stop-color:#48484A"/>
		</linearGradient>
		<path style="fill:url(#SVGID_00000103243708285731324670000009706605407023248009_);" d="M332,174.1c2.5-4.7,7.6-14.1,8.2-15
			c3.3,0.1,10.2,0.1,13.5,0c0,1.7-0.1,27.9,0,39.7c-2.2,0-10.4,0-11.8,0c0.1-5.2,0-20.3,0-21c-0.3,0.5-2.5,4.6-3.5,6.4
			c-1.7,3.1-6.2,10.9-6.5,11.5c-0.4-0.7-6.2-11-8.6-15.4c-0.3-0.6-0.9-1.7-1.3-2.3c0,0.5,0,5.8,0,5.9c-3.2,2.7-11,9.3-11.8,10
			c0-10.3,0-33.2,0-34.9c3.5,0,10,0.1,13.7,0.1c0.4,0.9,5,9.2,7.2,13.1C331.3,172.9,331.6,173.4,332,174.1z"/>
		
			<linearGradient id="SVGID_00000060728012948621479250000005520076423746410174_" gradientUnits="userSpaceOnUse" x1="106.6288" y1="149.6447" x2="106.6288" y2="194.5363">
			<stop  offset="0" style="stop-color:#646567"/>
			<stop  offset="1" style="stop-color:#48484A"/>
		</linearGradient>
		<path style="fill:url(#SVGID_00000060728012948621479250000005520076423746410174_);" d="M87.1,198.8c0-1,0-11.2,0.1-15.4
			c0.6-0.6,10.2-9.3,10.9-10c3.8-0.1,8.4,0,12.2,0c0.3,0,0.7,0,1,0c1.4-0.1,2.9-0.2,2.9-1.9c0-1.5-1.6-1.8-2.9-1.8
			c-4.7,0-11-0.1-15.7-0.1c-1.1-1.2-7.1-8.7-8.5-10.3c8.5,0,18.8-0.4,27.3,0.3c10.8,0.9,14.1,11.4,9.9,18.3c-0.3,0.5-0.2,1.4,0,1.9
			c4.5,8.5-0.3,17.9-9.9,18.8C110,198.9,91,198.7,87.1,198.8z M99.1,188.3c4.4,0,8.8,0.1,13-0.1c0.9,0,2.3-0.5,2.3-2.1
			c0-1.5-1-2.2-2.2-2.2c-4.3-0.1-8.6,0-13.1,0C99.1,185.4,99.1,186.7,99.1,188.3z M98.1,173.4c3.8-0.1,8.4,0,12.2,0"/>
		
			<linearGradient id="SVGID_00000098932409693765703430000015124324822957338795_" gradientUnits="userSpaceOnUse" x1="147.7889" y1="149.6445" x2="147.7889" y2="194.5372">
			<stop  offset="0" style="stop-color:#646567"/>
			<stop  offset="1" style="stop-color:#48484A"/>
		</linearGradient>
		<path style="fill:url(#SVGID_00000098932409693765703430000015124324822957338795_);" d="M142.8,169.6c0,1.4,0,2.5,0,3.8
			c0.8,0,20.9,0.1,21.6,0.1c-0.5,0.6-9.4,9.6-10,10.3c-3.3,0-8,0-11.4,0c0,1.6,0,3,0,4.6c0.8,0,1.5,0,2.2,0c5.8,0,13.7,0,19.5,0
			c0,1.7,0,9.2,0,10.5c-10,0-23.7,0-33.7,0c0-1.2,0-25.8,0-37.8c0-1.4,0-0.7,0-1.9c10,0,23.6,0,33.6,0c0,1.9,0,9.1,0,10.5
			C158.8,169.6,143.7,169.6,142.8,169.6z"/>
		
			<linearGradient id="SVGID_00000167371181097237668010000005390870018113355418_" gradientUnits="userSpaceOnUse" x1="284.4816" y1="149.6444" x2="284.4816" y2="194.5372">
			<stop  offset="0" style="stop-color:#646567"/>
			<stop  offset="1" style="stop-color:#48484A"/>
		</linearGradient>
		<path style="fill:url(#SVGID_00000167371181097237668010000005390870018113355418_);" d="M305.3,179.4
			c-0.1,12.5-8.7,20.8-21.2,20.6c-12.4-0.2-20.6-8.7-20.4-21.2c0.1-12.3,8.7-20.5,21-20.4C297.1,158.5,305.4,167,305.3,179.4z
			 M284.4,189.5c4.5,0,7.8-2.4,8.6-6.8c0.4-2.3,0.4-4.7,0-7c-0.8-4.4-4-6.8-8.4-6.9c-4.6-0.1-7.8,2-8.6,6.4c-0.5,2.6-0.5,5.4,0,8
			C277,187.5,280,189.5,284.4,189.5z"/>
		
			<linearGradient id="SVGID_00000000919255719183679660000012644177793677035680_" gradientUnits="userSpaceOnUse" x1="62.5575" y1="149.6445" x2="62.5575" y2="194.5372">
			<stop  offset="0" style="stop-color:#646567"/>
			<stop  offset="1" style="stop-color:#48484A"/>
		</linearGradient>
		<path style="fill:url(#SVGID_00000000919255719183679660000012644177793677035680_);" d="M51.9,169.5c-0.6-0.6-8.7-9.8-9.1-10.3
			c11.7,0,28,0,39.7,0c0,1.9,0,2.1,0,2.3c0,5.7,0,3.6,0,8c-5.6,4.6-16.6,14-22.2,18.8c1,0,16.2,0.1,22,0c0,2.2,0,9,0,10.5
			c-11.7,0-27.8,0-39.5,0c0-1.3,0-8.1,0-10.5c1.8-1.5,17.7-14.4,23.2-18.8C65.6,169.5,55.7,169.5,51.9,169.5z"/>
		
			<linearGradient id="SVGID_00000131332732075802361130000010049366736648906665_" gradientUnits="userSpaceOnUse" x1="20.1666" y1="149.6868" x2="20.1666" y2="194.5382">
			<stop  offset="0" style="stop-color:#646567"/>
			<stop  offset="1" style="stop-color:#48484A"/>
		</linearGradient>
		<path style="fill:url(#SVGID_00000131332732075802361130000010049366736648906665_);" d="M31.4,184.7c2.4,3.9,7.2,11.6,8.9,14.1
			c-3,0-9.6-0.1-12.1,0c-0.6-0.8-7.4-11.9-7.8-12.7c-2.3,0-6.2,0-8.7,0c0,3.3,0,9.4,0,12.6c-2.4,0-10.9,0-11.7,0c0-3.6,0-9.1,0-12.6
			c0.9-1,9.4-9.5,10.3-10.4c3.2,0,12.7-0.1,13.5-0.1c1.9-0.2,3.1-1.4,3.1-3c0-1.6-1.2-3.1-3.1-3.2c-2.3,0-13.2-0.1-16.1-0.1
			c-1.6-2-7.1-9.2-7.7-10.2c1.4,0,17.5,0,24.3,0c7.5,0.1,12.7,4.2,14.1,11c1.1,5.3-1.2,10.7-5.7,13.7
			C32.3,184.1,31.9,184.4,31.4,184.7z"/>
		
			<linearGradient id="SVGID_00000147906269325562977320000014721669569729786505_" gradientUnits="userSpaceOnUse" x1="241.6096" y1="149.6444" x2="241.6096" y2="194.5372">
			<stop  offset="0" style="stop-color:#646567"/>
			<stop  offset="1" style="stop-color:#48484A"/>
		</linearGradient>
		<path style="fill:url(#SVGID_00000147906269325562977320000014721669569729786505_);" d="M251.7,171.8c-2-2-4.4-3-7.1-3
			c-4.9,0-8.3,2.8-9,7.7c-0.2,1.6-0.2,3.3-0.1,4.9c0.4,3.4,1.8,6.3,5.2,7.5c3.4,1.3,6.9,1.1,9.8-1.4c1.2-1,1.9-1,2.9,0.2
			c1.9,2.3,3.9,4.5,5.9,6.8c-2.1,2.2-4.6,3.5-7.4,4.4c-4.6,1.4-9.2,1.5-13.8,0.3c-9.6-2.6-15.4-11.6-14.3-22.1
			c0.8-7.7,4.1-13.8,11.5-16.8c7.9-3.2,15.6-2.6,22.6,2.4c1.9,1.3,1.9,1.7,0.2,3.3C256.1,167.9,253.9,169.8,251.7,171.8z"/>
		
			<linearGradient id="SVGID_00000052072919388345820480000001755639162403899531_" gradientUnits="userSpaceOnUse" x1="187.9618" y1="149.4485" x2="187.9618" y2="195.2787">
			<stop  offset="0" style="stop-color:#646567"/>
			<stop  offset="1" style="stop-color:#48484A"/>
		</linearGradient>
		<path style="fill:url(#SVGID_00000052072919388345820480000001755639162403899531_);" d="M194.1,169.6c0,6,0,13.4,0,19.1
			c-0.8,0.8-11.3,10.1-11.8,10.5c0-0.7,0-19,0-27.2c0-0.7,0-1.4,0-2.5c-3.2,0-10.8,0-13.8,0c0-3.3,0-8.6,0-10.4
			c5.5,0.1,13.1,0,18.6,0c5.9,0,14.4,0.1,20.3,0c0,2.3,0,9,0,10.5C203.8,169.5,198,169.6,194.1,169.6z"/>
		
			<linearGradient id="SVGID_00000165214858631581526780000011552879823752201387_" gradientUnits="userSpaceOnUse" x1="215.2734" y1="149.6444" x2="215.2734" y2="194.5372">
			<stop  offset="0" style="stop-color:#646567"/>
			<stop  offset="1" style="stop-color:#48484A"/>
		</linearGradient>
		<path style="fill:url(#SVGID_00000165214858631581526780000011552879823752201387_);" d="M221.1,193.6c0,3.6-2.3,6-5.9,6
			c-3.5,0-5.8-2.4-5.8-6c0-3.6,2.3-6,5.9-6C218.8,187.6,221.1,190,221.1,193.6z"/>
	</g>
</g>
<g>
	<path class="st15" d="M380.3,21.3h3.8l6.3,9.9h3.9L387.7,21c3.4-0.4,6.1-2.1,6.1-6.3c0-4.4-2.6-6.6-8.1-6.6h-8.9v23.1h3.6v-9.9
		H380.3z M380.3,11.1h4.8c2.4,0,5.1,0.5,5.1,3.5c0,3.6-2.9,3.8-6.1,3.8h-3.8V11.1z"/>
	<path class="st15" d="M403.9,19.7c0,10.9-8.8,19.7-19.7,19.7c-10.9,0-19.7-8.8-19.7-19.7S373.3,0,384.2,0
		C395,0,403.9,8.8,403.9,19.7z M384.2,2.9c-9.3,0-16.8,7.5-16.8,16.8s7.5,16.8,16.8,16.8S401,29,401,19.7S393.4,2.9,384.2,2.9z"/>
</g>
</svg>
