<svg xmlns="http://www.w3.org/2000/svg" xmlns:xlink="http://www.w3.org/1999/xlink" width="24" height="24" viewBox="0 0 24 24">
  <defs>
    <clipPath id="clip-path">
      <rect id="Rectangle_62675" data-name="Rectangle 62675" width="24" height="24" transform="translate(-1 -1)" fill="#6c82ac"/>
    </clipPath>
    <clipPath id="clip-登入_註冊_生日">
      <rect width="24" height="24"/>
    </clipPath>
  </defs>
  <g id="登入_註冊_生日" clip-path="url(#clip-登入_註冊_生日)">
    <g id="生日" transform="translate(1 1)" clip-path="url(#clip-path)">
      <g id="Group_12390" data-name="Group 12390" transform="translate(1.17 1.197)">
        <g id="Group_39925" data-name="Group 39925">
          <path id="Path_24747" data-name="Path 24747" d="M1472.623,156.1v1.691a2.045,2.045,0,1,0,4.088,0v-1.663h4.952c0,.6-.011,1.18,0,1.765a2.039,2.039,0,0,0,3.006,1.754,1.98,1.98,0,0,0,1.079-1.78c.016-.576,0-1.151,0-1.786a15.146,15.146,0,0,1,2.029.121,2.566,2.566,0,0,1,2.053,2.555q.007,6.787,0,13.575a2.645,2.645,0,0,1-2.718,2.649q-5.284.006-10.567,0h-5.253a2.657,2.657,0,0,1-2.806-2.793V158.9a2.657,2.657,0,0,1,2.758-2.778C1471.692,156.1,1472.139,156.1,1472.623,156.1Zm-2.482,6c-.006.075-.016.121-.016.165v10.166a.8.8,0,0,0,.518.777,1.676,1.676,0,0,0,.66.121q7.866.01,15.728.007h.2a.954.954,0,0,0,.975-1.022V162.11Z" transform="translate(-1469.483 -153.987)" fill="#6c82ac"/>
          <path id="Path_24748" data-name="Path 24748" d="M1473.44,157.8v1.7a1.389,1.389,0,0,1-2.778.024q-.019-1.731,0-3.461a1.389,1.389,0,0,1,2.778,0C1473.452,156.65,1473.44,157.225,1473.44,157.8Z" transform="translate(-1466.874 -155.681)" fill="#6c82ac"/>
          <path id="Path_24749" data-name="Path 24749" d="M1477.541,157.814v1.674a1.389,1.389,0,0,1-2.778.031q-.026-1.731,0-3.461a1.389,1.389,0,1,1,2.778.024C1477.552,156.661,1477.541,157.24,1477.541,157.814Z" transform="translate(-1461.931 -155.681)" fill="#6c82ac"/>
          <path id="Path_24750" data-name="Path 24750" d="M1475.315,165.406l2.714-2.985c.9-.986,1.767-1.943,2.649-2.915a1.368,1.368,0,0,1,1.85-.174,1.336,1.336,0,0,1,.34,1.864,5.528,5.528,0,0,1-.526.631q-2.962,3.213-5.927,6.423a1.375,1.375,0,0,1-2.157.053q-1.668-1.664-3.331-3.334a1.4,1.4,0,1,1,1.974-1.981C1473.7,163.782,1474.494,164.581,1475.315,165.406Z" transform="translate(-1467.102 -150.396)" fill="#6c82ac"/>
        </g>
      </g>
    </g>
  </g>
</svg>
