<svg xmlns="http://www.w3.org/2000/svg" xmlns:xlink="http://www.w3.org/1999/xlink" width="345" height="12" viewBox="0 0 345 12">
  <defs>
    <clipPath id="clip-挖洞分隔线_v2">
      <rect width="345" height="12"/>
    </clipPath>
  </defs>
  <g id="挖洞分隔线_v2" clip-path="url(#clip-挖洞分隔线_v2)">
    <g id="Group_40335" data-name="Group 40335" transform="translate(-76.222 -447.056)">
      <path id="Subtraction_16" data-name="Subtraction 16" d="M421.066,459.056H76.222a6,6,0,0,0,0-12h345a6,6,0,0,0-.156,12Z" fill="#21304e"/>
      <g id="Line_500" data-name="Line 500">
        <path id="Path_52620" data-name="Path 52620" d="M413.222,453.556h-1v-1h1Zm-3,0h-2v-1h2Zm-4,0h-2v-1h2Zm-4,0h-2v-1h2Zm-4,0h-2v-1h2Zm-4,0h-2v-1h2Zm-4,0h-2v-1h2Zm-4,0h-2v-1h2Zm-4,0h-2v-1h2Zm-4,0h-2v-1h2Zm-4,0h-2v-1h2Zm-4,0h-2v-1h2Zm-4,0h-2v-1h2Zm-4,0h-2v-1h2Zm-4,0h-2v-1h2Zm-4,0h-2v-1h2Zm-4,0h-2v-1h2Zm-4,0h-2v-1h2Zm-4,0h-2v-1h2Zm-4,0h-2v-1h2Zm-4,0h-2v-1h2Zm-4,0h-2v-1h2Zm-4,0h-2v-1h2Zm-4,0h-2v-1h2Zm-4,0h-2v-1h2Zm-4,0h-2v-1h2Zm-4,0h-2v-1h2Zm-4,0h-2v-1h2Zm-4,0h-2v-1h2Zm-4,0h-2v-1h2Zm-4,0h-2v-1h2Zm-4,0h-2v-1h2Zm-4,0h-2v-1h2Zm-4,0h-2v-1h2Zm-4,0h-2v-1h2Zm-4,0h-2v-1h2Zm-4,0h-2v-1h2Zm-4,0h-2v-1h2Zm-4,0h-2v-1h2Zm-4,0h-2v-1h2Zm-4,0h-2v-1h2Zm-4,0h-2v-1h2Zm-4,0h-2v-1h2Zm-4,0h-2v-1h2Zm-4,0h-2v-1h2Zm-4,0h-2v-1h2Zm-4,0h-2v-1h2Zm-4,0h-2v-1h2Zm-4,0h-2v-1h2Zm-4,0h-2v-1h2Zm-4,0h-2v-1h2Zm-4,0h-2v-1h2Zm-4,0h-2v-1h2Zm-4,0h-2v-1h2Zm-4,0h-2v-1h2Zm-4,0h-2v-1h2Zm-4,0h-2v-1h2Zm-4,0h-2v-1h2Zm-4,0h-2v-1h2Zm-4,0h-2v-1h2Zm-4,0h-2v-1h2Zm-4,0h-2v-1h2Zm-4,0h-2v-1h2Zm-4,0h-2v-1h2Zm-4,0h-2v-1h2Zm-4,0h-2v-1h2Zm-4,0h-2v-1h2Zm-4,0h-2v-1h2Zm-4,0h-2v-1h2Zm-4,0h-2v-1h2Zm-4,0h-2v-1h2Zm-4,0h-2v-1h2Zm-4,0h-2v-1h2Zm-4,0h-2v-1h2Zm-4,0h-2v-1h2Zm-4,0h-2v-1h2Zm-4,0h-2v-1h2Zm-4,0h-2v-1h2Zm-4,0h-2v-1h2Zm-4,0h-2v-1h2Zm-4,0h-2v-1h2Zm-4,0h-2v-1h2Zm-4,0h-2v-1h2Z" fill="#374e7b"/>
      </g>
    </g>
  </g>
</svg>
