<svg xmlns="http://www.w3.org/2000/svg" xmlns:xlink="http://www.w3.org/1999/xlink" width="24" height="24" viewBox="0 0 24 24">
  <defs>
    <clipPath id="clip-path">
      <rect id="Rectangle_62251" data-name="Rectangle 62251" width="24" height="24" fill="#fff" stroke="#707070" stroke-width="1"/>
    </clipPath>
  </defs>
  <g id="眼睛_关" clip-path="url(#clip-path)">
    <g id="Icon_ionic-ios-eye-off" data-name="Icon ionic-ios-eye-off" transform="translate(1 2.569)">
      <path id="Path_51325" data-name="Path 51325" d="M5.7,4.7a.7.7,0,0,0-.987.987l17.46,17.47a.692.692,0,0,0,.673.177.68.68,0,0,0,.314-.182.7.7,0,0,0,0-.982Z" transform="translate(-2.931 -4.499)" fill="#fff"/>
      <g id="Group_39210" data-name="Group 39210" transform="translate(0 2.358)">
        <path id="Path_51326" data-name="Path 51326" d="M13.458,20.465a4.416,4.416,0,0,1-4.2-6.306L6.636,11.531a34.452,34.452,0,0,0-4.18,3.993.777.777,0,0,0,0,1.046c3.188,3.522,6,6.552,10.79,6.552a9.457,9.457,0,0,0,4.042-.943l-2.136-2.136A4.463,4.463,0,0,1,13.458,20.465Z" transform="translate(-2.252 -8.977)" fill="#fff"/>
        <path id="Path_51327" data-name="Path 51327" d="M27.053,15.439a.77.77,0,0,0,.025-1.017c-2.569-3.119-6.13-6.547-10.83-6.547a9.194,9.194,0,0,0-4.027.933l2.146,2.146a4.328,4.328,0,0,1,1.685-.422,4.416,4.416,0,0,1,4.2,6.306l2.628,2.628A32.488,32.488,0,0,0,27.053,15.439Z" transform="translate(-5.257 -7.875)" fill="#fff"/>
        <path id="Path_51328" data-name="Path 51328" d="M13.51,17.846A3.156,3.156,0,0,0,16.4,20.739a3.07,3.07,0,0,0,1.149-.128l-3.919-3.919A3.213,3.213,0,0,0,13.51,17.846Z" transform="translate(-5.643 -10.533)" fill="#fff"/>
        <path id="Path_51329" data-name="Path 51329" d="M22.046,17.917c0-.064,0-.128,0-.192a2.178,2.178,0,0,1-.894.192c-.054,0-.1,0-.152,0l.914.918A3.14,3.14,0,0,0,22.046,17.917Z" transform="translate(-7.903 -10.845)" fill="#fff"/>
        <path id="Path_51330" data-name="Path 51330" d="M17.608,14.335a2.308,2.308,0,0,1,.152-.83c-.049,0-.1,0-.152,0a3.107,3.107,0,0,0-.909.138l.918.918C17.613,14.482,17.608,14.409,17.608,14.335Z" transform="translate(-6.607 -9.571)" fill="#fff"/>
      </g>
    </g>
  </g>
</svg>
