<svg xmlns="http://www.w3.org/2000/svg" xmlns:xlink="http://www.w3.org/1999/xlink" width="24" height="24" viewBox="0 0 24 24">
  <defs>
    <clipPath id="clip-path">
      <rect id="Rectangle_62250" data-name="Rectangle 62250" width="24" height="24" fill="#fff" stroke="#707070" stroke-width="1"/>
    </clipPath>
  </defs>
  <g id="眼睛_开" clip-path="url(#clip-path)">
    <g id="Icon_ionic-ios-eye" data-name="Icon ionic-ios-eye" transform="translate(1 4.929)">
      <path id="Path_51323" data-name="Path 51323" d="M13.24,7.875c-3.948,0-7.061,2.485-10.783,6.546a.776.776,0,0,0,0,1.046c3.187,3.521,6,6.55,10.788,6.55,4.734,0,8.284-3.815,10.808-6.58a.77.77,0,0,0,.025-1.016C21.5,11.3,17.939,7.875,13.24,7.875Zm.216,11.485a4.419,4.419,0,1,1,4.208-4.208A4.421,4.421,0,0,1,13.456,19.36Z" transform="translate(-2.252 -7.875)" fill="#fff"/>
      <path id="Path_51324" data-name="Path 51324" d="M16.643,14.335a2.307,2.307,0,0,1,.152-.83c-.049,0-.1,0-.152,0a3.142,3.142,0,1,0,3.143,3.143c0-.064,0-.128,0-.192a2.177,2.177,0,0,1-.894.192A2.28,2.28,0,0,1,16.643,14.335Z" transform="translate(-5.645 -9.572)" fill="#fff"/>
    </g>
  </g>
</svg>
