<svg xmlns="http://www.w3.org/2000/svg" xmlns:xlink="http://www.w3.org/1999/xlink" width="24" height="24" viewBox="0 0 24 24">
  <defs>
    <clipPath id="clip-path">
      <rect id="Rectangle_62265" data-name="Rectangle 62265" width="24" height="24" transform="translate(5321 -370)" fill="#fff" stroke="#707070" stroke-width="1"/>
    </clipPath>
  </defs>
  <g id="Mask_Group_688" data-name="Mask Group 688" transform="translate(-5321 370)" clip-path="url(#clip-path)">
    <g id="noun_filter_3212581" transform="translate(5322 -368.13)">
      <g id="Group_39261" data-name="Group 39261" transform="translate(0 0)">
        <path id="Path_51370" data-name="Path 51370" d="M3.45,10.751H5.908a3.521,3.521,0,0,0,6.769,0H23.549a.955.955,0,0,0,.95-.95.97.97,0,0,0-.95-.95H12.677a3.521,3.521,0,0,0-6.769,0H3.45a.955.955,0,0,0-.95.95A.97.97,0,0,0,3.45,10.751ZM9.292,8.178a1.6,1.6,0,1,1-1.6,1.6A1.6,1.6,0,0,1,9.292,8.178Z" transform="translate(-2.5 -6.3)" fill="#fff"/>
        <path id="Path_51371" data-name="Path 51371" d="M23.572,37.45H21.115a3.521,3.521,0,0,0-6.769,0H3.45a.955.955,0,0,0-.95.95.97.97,0,0,0,.95.95H14.323a3.521,3.521,0,0,0,6.769,0h2.457a.951.951,0,0,0,.023-1.9ZM17.73,40a1.6,1.6,0,1,1,1.6-1.6A1.6,1.6,0,0,1,17.73,40Z" transform="translate(-2.5 -28.27)" fill="#fff"/>
        <path id="Path_51372" data-name="Path 51372" d="M23.572,66.05h-10.9a3.521,3.521,0,0,0-6.769,0H3.45a.95.95,0,1,0,0,1.9H5.908a3.521,3.521,0,0,0,6.769,0H23.549A.955.955,0,0,0,24.5,67,.935.935,0,0,0,23.572,66.05ZM9.292,68.623a1.6,1.6,0,1,1,1.6-1.6A1.6,1.6,0,0,1,9.292,68.623Z" transform="translate(-2.5 -50.24)" fill="#fff"/>
      </g>
    </g>
  </g>
</svg>
