<svg xmlns="http://www.w3.org/2000/svg" xmlns:xlink="http://www.w3.org/1999/xlink" width="24" height="24" viewBox="0 0 24 24">
  <defs>
    <clipPath id="clip-path">
      <rect id="Rectangle_62569" data-name="Rectangle 62569" width="24" height="24" transform="translate(-436 270)" fill="#6c82ac" stroke="#707070" stroke-width="1"/>
    </clipPath>
    <clipPath id="clip-path-2">
      <rect id="Rectangle_62568" data-name="Rectangle 62568" width="24" height="24" fill="#6c82ac" stroke="#707070" stroke-width="1"/>
    </clipPath>
  </defs>
  <g id="注册_性别" transform="translate(436 -270)" clip-path="url(#clip-path)">
    <g id="Mask_Group_755" data-name="Mask Group 755" transform="translate(-436 270)" clip-path="url(#clip-path-2)">
      <path id="Path_51951" data-name="Path 51951" d="M25.036,21.214l-.718,2.1L22.668,19.1A7.094,7.094,0,1,0,15.893,6.636,7.1,7.1,0,1,0,11.5,19.851v2.233H9.012v1.79H11.5v3.072h1.79V23.874h2.492v-1.79H13.294V19.851a7.057,7.057,0,0,0,3.269-1.3l.014-.01.129-.1a7.9,7.9,0,0,0,.785-.683l-.011,0a7.083,7.083,0,0,0,1.109-8.417,3.191,3.191,0,0,0-1.576.851,5.292,5.292,0,0,1-1.118,6.6,5.3,5.3,0,1,1,3.685,1.314,10.143,10.143,0,0,1-1.641,1.646,7.125,7.125,0,0,0,3.052-.033l1.76,4.5-2.265-.774-.579,1.694,5.086,1.737,1.738-5.086Zm-12.743-8.4a7.071,7.071,0,0,0,2.017,4.949,5.306,5.306,0,1,1,0-9.9,7.072,7.072,0,0,0-2.016,4.949Z" transform="translate(-4.121 -4.644)" fill="#6c82ac"/>
    </g>
    <path id="Path_51952" data-name="Path 51952" d="M25.036,21.214l-.718,2.1L22.668,19.1A7.094,7.094,0,1,0,15.893,6.636,7.1,7.1,0,1,0,11.5,19.851v2.233H9.012v1.79H11.5v3.072h1.79V23.874h2.492v-1.79H13.294V19.851a7.057,7.057,0,0,0,3.269-1.3l.014-.01.129-.1a7.9,7.9,0,0,0,.785-.683l-.011,0a7.083,7.083,0,0,0,1.109-8.417,3.191,3.191,0,0,0-1.576.851,5.292,5.292,0,0,1-1.118,6.6,5.3,5.3,0,1,1,3.685,1.314,10.143,10.143,0,0,1-1.641,1.646,7.125,7.125,0,0,0,3.052-.033l1.76,4.5-2.265-.774-.579,1.694,5.086,1.737,1.738-5.086Zm-12.743-8.4a7.071,7.071,0,0,0,2.017,4.949,5.306,5.306,0,1,1,0-9.9,7.072,7.072,0,0,0-2.016,4.949Z" transform="translate(-440.121 265.356)" fill="#6c82ac"/>
  </g>
</svg>
