<svg xmlns="http://www.w3.org/2000/svg" xmlns:xlink="http://www.w3.org/1999/xlink" width="24" height="24" viewBox="0 0 24 24">
  <defs>
    <clipPath id="clip-path">
      <rect id="Rectangle_62676" data-name="Rectangle 62676" width="24" height="24" fill="#6c82ac"/>
    </clipPath>
    <clipPath id="clip-登入_註冊_line">
      <rect width="24" height="24"/>
    </clipPath>
  </defs>
  <g id="登入_註冊_line" clip-path="url(#clip-登入_註冊_line)">
    <g id="登入注册_LINE" clip-path="url(#clip-path)">
      <rect id="Rectangle_55277" data-name="Rectangle 55277" width="24" height="24" fill="none"/>
      <path id="Path_24751" data-name="Path 24751" d="M1507.834,144.766c-6.092,0-11.011,3.949-11.011,8.821a7.876,7.876,0,0,0,2.595,5.69,11.894,11.894,0,0,0,6.476,2.979l.368.05c1.758.368.235,2.561.8,3.014.669.518,5.673-2.828,8.72-5.64a10.217,10.217,0,0,0,1.2-1.205l.2-.252a7.463,7.463,0,0,0,1.64-4.637C1518.838,148.715,1513.906,144.766,1507.834,144.766Zm-4.031,10.619a.515.515,0,0,1-.513.515h-2a.516.516,0,0,1-.515-.515v-3.827a.517.517,0,0,1,.514-.515h.044a.516.516,0,0,1,.515.515v3.267h1.442a.512.512,0,0,1,.509.518Zm1.811-.026a.537.537,0,0,1-1.074,0v-3.782a.537.537,0,0,1,1.074,0Zm5.067.029a.5.5,0,0,1-.147.36.344.344,0,0,1-.125.094.556.556,0,0,1-.243.06h-.044a.52.52,0,0,1-.2-.038.444.444,0,0,1-.2-.147.517.517,0,0,1-.037-.051L1507.8,153.1v2.288a.519.519,0,0,1-.516.516h-.041a.518.518,0,0,1-.516-.516v-3.827a.518.518,0,0,1,.515-.515h.041a.517.517,0,0,1,.441.26l1.867,2.5v-2.245a.52.52,0,0,1,.514-.515h.048a.516.516,0,0,1,.518.518Zm4.19-3.778a.515.515,0,0,1-.516.518h-1.433v.815h1.433a.52.52,0,0,1,.517.515v.041a.517.517,0,0,1-.516.514h-1.434v.817h1.434a.518.518,0,0,1,.516.514v.044a.517.517,0,0,1-.516.514h-1.987a.518.518,0,0,1-.514-.514v-3.816a.518.518,0,0,1,.513-.515h1.993v.009a.521.521,0,0,1,.516.5Z" transform="translate(-1495.823 -143.07)" fill="#6c82ac"/>
    </g>
  </g>
</svg>
