<svg xmlns="http://www.w3.org/2000/svg" xmlns:xlink="http://www.w3.org/1999/xlink" width="24" height="24" viewBox="0 0 24 24">
  <defs>
    <clipPath id="clip-path">
      <rect id="Rectangle_62673" data-name="Rectangle 62673" width="24" height="24" transform="translate(243 413)" fill="#6c82ac" stroke="#707070" stroke-width="1"/>
    </clipPath>
    <clipPath id="clip-登入_註冊_信箱">
      <rect width="24" height="24"/>
    </clipPath>
  </defs>
  <g id="登入_註冊_信箱" clip-path="url(#clip-登入_註冊_信箱)">
    <g id="Mask_Group_854" data-name="Mask Group 854" transform="translate(-243 -413)" clip-path="url(#clip-path)">
      <g id="Icon_ionic-ios-mail" data-name="Icon ionic-ios-mail" transform="translate(240.625 409.51)">
        <path id="Path_51881" data-name="Path 51881" d="M25.2,10.346l-5.69,5.8a.1.1,0,0,0,0,.148l3.982,4.241a.686.686,0,0,1,0,.973.689.689,0,0,1-.973,0l-3.966-4.225a.109.109,0,0,0-.153,0l-.968.984a4.258,4.258,0,0,1-3.036,1.28,4.343,4.343,0,0,1-3.1-1.317l-.931-.947a.109.109,0,0,0-.153,0L6.241,21.5a.689.689,0,0,1-.973,0,.686.686,0,0,1,0-.973L9.25,16.291a.113.113,0,0,0,0-.148l-5.7-5.8a.1.1,0,0,0-.18.074v11.6A1.7,1.7,0,0,0,5.067,23.71H23.683a1.7,1.7,0,0,0,1.692-1.692V10.42A.106.106,0,0,0,25.2,10.346Z" transform="translate(0 -0.604)" fill="#6c82ac"/>
        <path id="Path_51882" data-name="Path 51882" d="M14.586,17.558a2.875,2.875,0,0,0,2.068-.867l8.3-8.446a1.662,1.662,0,0,0-1.047-.37H5.273a1.651,1.651,0,0,0-1.047.37l8.3,8.446A2.875,2.875,0,0,0,14.586,17.558Z" transform="translate(-0.211)" fill="#6c82ac"/>
      </g>
    </g>
  </g>
</svg>
