<svg xmlns="http://www.w3.org/2000/svg" xmlns:xlink="http://www.w3.org/1999/xlink" width="24" height="24" viewBox="0 0 24 24">
  <defs>
    <clipPath id="clip-path">
      <rect id="Rectangle_62534" data-name="Rectangle 62534" width="24" height="24" fill="#6c82ac" stroke="#707070" stroke-width="1"/>
    </clipPath>
  </defs>
  <g id="密码" clip-path="url(#clip-path)">
    <path id="Path_51927" data-name="Path 51927" d="M24.2,10.66h-.07a8.16,8.16,0,1,0-16.32,0H7.74A2.043,2.043,0,0,0,5.7,12.7v9.76A2.043,2.043,0,0,0,7.74,24.5H24.2a2.043,2.043,0,0,0,2.04-2.04V12.7A2.014,2.014,0,0,0,24.2,10.66Zm-6.514,9.968a.607.607,0,0,1-.093.487.571.571,0,0,1-.44.209H14.787a.538.538,0,0,1-.44-.209.531.531,0,0,1-.093-.487l.765-2.944a2.04,2.04,0,1,1,1.9,0Zm3.663-9.968H10.591a5.378,5.378,0,1,1,10.757,0Z" transform="translate(-3.97 -1.5)" fill="#6c82ac"/>
  </g>
</svg>
