<svg xmlns="http://www.w3.org/2000/svg" xmlns:xlink="http://www.w3.org/1999/xlink" width="24" height="24" viewBox="0 0 24 24">
  <defs>
    <clipPath id="clip-path">
      <rect id="Rectangle_57490" data-name="Rectangle 57490" width="24" height="24" transform="translate(-21549 -14929)" fill="#6c82ac" stroke="#707070" stroke-width="1"/>
    </clipPath>
    <clipPath id="clip-註冊_手機">
      <rect width="24" height="24"/>
    </clipPath>
  </defs>
  <g id="註冊_手機" clip-path="url(#clip-註冊_手機)">
    <g id="APP下载" transform="translate(21549 14929)" clip-path="url(#clip-path)">
      <g id="noun_Phone_4146485" transform="translate(-21544.67 -14928)">
        <path id="Path_47261" data-name="Path 47261" d="M24.724,23.961h2.028c.422,0,.76.3.76.888s-.339.888-.76.888H24.724c-.422,0-.761-.3-.761-.888S24.3,23.961,24.724,23.961ZM21.841,7.836h7.668A1.057,1.057,0,0,1,30.567,8.9V20.987a1.058,1.058,0,0,1-1.059,1.06H21.841a1.058,1.058,0,0,1-1.06-1.06V8.9a1.058,1.058,0,0,1,1.06-1.064Zm-1.23-2.568A2.276,2.276,0,0,0,18.33,7.549V24.986a2.277,2.277,0,0,0,2.281,2.282H30.866a2.278,2.278,0,0,0,2.282-2.282V7.549a2.277,2.277,0,0,0-2.282-2.281Z" transform="translate(-18.33 -5.268)" fill="#6c82ac"/>
      </g>
    </g>
  </g>
</svg>
