<svg id="注册_QQ" xmlns="http://www.w3.org/2000/svg" xmlns:xlink="http://www.w3.org/1999/xlink" width="24" height="24" viewBox="0 0 24 24">
  <defs>
    <clipPath id="clip-path">
      <rect id="Rectangle_62549" data-name="Rectangle 62549" width="24" height="24" fill="#6c82ac"/>
    </clipPath>
  </defs>
  <g id="Group_40023" data-name="Group 40023" clip-path="url(#clip-path)">
    <g id="登入注册_QQ" data-name="登入注册 QQ">
      <g id="Group_40022" data-name="Group 40022">
        <g id="Group_40021" data-name="Group 40021" clip-path="url(#clip-path)">
          <g id="QQ">
            <g id="Group_12123" data-name="Group 12123">
              <g id="Group_40020" data-name="Group 40020">
                <g id="Group_40019" data-name="Group 40019" clip-path="url(#clip-path)">
                  <g id="QQ-2" transform="translate(1.873 1.009)">
                    <g id="Group_3961" data-name="Group 3961">
                      <path id="Path_24682" data-name="Path 24682" d="M-189.887,457.749a6.362,6.362,0,0,1-3.442-1.008,3.432,3.432,0,0,1-.552-.46,1.647,1.647,0,0,1-.247-2.107,3.866,3.866,0,0,1,1.029-1.1,5.084,5.084,0,0,1-.322-.6,5.767,5.767,0,0,1-.9.481,1.2,1.2,0,0,1-1.112-.034,1.227,1.227,0,0,1-.63-.965,3.47,3.47,0,0,1,.069-1.755,15.012,15.012,0,0,1,1.864-4.545,21.877,21.877,0,0,1,.234-3.111,7.557,7.557,0,0,1,.618-2.386,7.362,7.362,0,0,1,4.82-4.032,8.063,8.063,0,0,1,7.345,1.318,7.065,7.065,0,0,1,2.464,3.376,14.725,14.725,0,0,1,.8,4.874,12.6,12.6,0,0,1,1.649,3.915,15.076,15.076,0,0,1,.257,1.508l.039.271a2.2,2.2,0,0,1-.048.737,1.2,1.2,0,0,1-.528.777,1.239,1.239,0,0,1-.953.177,3.311,3.311,0,0,1-1.247-.495l-.25.51c.1.065.2.133.3.206a2.108,2.108,0,0,1,.414,2.951,2.114,2.114,0,0,1-.565.518,4.425,4.425,0,0,1-1.779.668,9.987,9.987,0,0,1-3.7.016,4.327,4.327,0,0,1-1.1-.378,1.481,1.481,0,0,0-1.23-.045,12.2,12.2,0,0,1-1.972.563A6.227,6.227,0,0,1-189.887,457.749Z" transform="translate(196.144 -435.758)" fill="#6c82ac"/>
                    </g>
                  </g>
                </g>
              </g>
            </g>
          </g>
        </g>
      </g>
    </g>
  </g>
</svg>
