<svg xmlns="http://www.w3.org/2000/svg" xmlns:xlink="http://www.w3.org/1999/xlink" width="24" height="24" viewBox="0 0 24 24">
  <defs>
    <clipPath id="clip-path">
      <rect id="Rectangle_62533" data-name="Rectangle 62533" width="24" height="24" transform="translate(112 611)" fill="#fff" stroke="#707070" stroke-width="1"/>
    </clipPath>
  </defs>
  <g id="账户" transform="translate(-112 -611)" clip-path="url(#clip-path)">
    <g id="noun_User_4216248" transform="translate(114.819 612)">
      <path id="Path_51925" data-name="Path 51925" d="M33.159,15.818a5.3,5.3,0,0,0,5.3-5.3,5.3,5.3,0,0,0-9.046-3.747,5.132,5.132,0,0,0-1.553,3.747,5.3,5.3,0,0,0,5.3,5.3Z" transform="translate(-24.111 -5.22)" fill="#6c82ac"/>
      <path id="Path_51926" data-name="Path 51926" d="M30.922,54.764a13.015,13.015,0,0,0-.179-1.391,10.778,10.778,0,0,0-.341-1.4,6.96,6.96,0,0,0-.575-1.3,4.954,4.954,0,0,0-.867-1.13,3.822,3.822,0,0,0-1.246-.781,4.284,4.284,0,0,0-1.59-.287,1.626,1.626,0,0,0-.862.366c-.258.17-.56.364-.9.577a5.033,5.033,0,0,1-1.162.511,4.527,4.527,0,0,1-2.84,0,5.056,5.056,0,0,1-1.16-.511c-.334-.214-.636-.408-.9-.58a1.619,1.619,0,0,0-.862-.366,4.293,4.293,0,0,0-1.59.287,3.849,3.849,0,0,0-1.246.781,4.9,4.9,0,0,0-.867,1.13,6.959,6.959,0,0,0-.575,1.3,10.778,10.778,0,0,0-.341,1.4,13.677,13.677,0,0,0-.179,1.391c-.029.42-.044.857-.044,1.3a3.652,3.652,0,0,0,1.086,2.764,3.911,3.911,0,0,0,2.8,1.02h10.6a3.907,3.907,0,0,0,2.8-1.02,3.655,3.655,0,0,0,1.086-2.764C30.969,55.622,30.952,55.184,30.922,54.764Z" transform="translate(-12.6 -37.845)" fill="#6c82ac"/>
    </g>
  </g>
</svg>
