<svg xmlns="http://www.w3.org/2000/svg" xmlns:xlink="http://www.w3.org/1999/xlink" width="24" height="24" viewBox="0 0 24 24">
  <defs>
    <clipPath id="clip-path">
      <rect id="Rectangle_62677" data-name="Rectangle 62677" width="24" height="24" transform="translate(779 460)" fill="#6c82ac" stroke="#707070" stroke-width="1"/>
    </clipPath>
    <clipPath id="clip-登入_註冊_zalo">
      <rect width="24" height="24"/>
    </clipPath>
  </defs>
  <g id="登入_註冊_zalo" clip-path="url(#clip-登入_註冊_zalo)">
    <g id="Mask_Group_855" data-name="Mask Group 855" transform="translate(-779 -460)" clip-path="url(#clip-path)">
      <g id="Group_39926" data-name="Group 39926" transform="translate(10.215 65.389)">
        <path id="Path_51883" data-name="Path 51883" d="M123.547,132.176c1.092,0,2.118-.007,3.137,0,.571.007.882.246.94.7a.81.81,0,0,1-.889.961c-1.171.014-2.335.007-3.506.007-.34,0-.672.014-1.012-.007a1.063,1.063,0,0,1-1.034-.542,1.08,1.08,0,0,1,.217-1.178c1.113-1.417,2.234-2.841,3.354-4.258.065-.087.13-.173.2-.253-.072-.123-.173-.065-.26-.072-.781-.007-1.569,0-2.349-.007a2.635,2.635,0,0,1-.535-.058A.758.758,0,0,1,121.79,126a2.212,2.212,0,0,1,.535-.065c1.287-.007,2.581-.007,3.867,0a2.4,2.4,0,0,1,.679.08.788.788,0,0,1,.506,1.1,5.113,5.113,0,0,1-.723,1.12q-1.42,1.811-2.841,3.6C123.735,131.923,123.662,132.017,123.547,132.176Z" transform="translate(648.697 277.316)" fill="#6c82ac"/>
        <path id="Path_51884" data-name="Path 51884" d="M214.789,120.278a1.111,1.111,0,0,1,.651-.492.888.888,0,0,1,1.113.831c.022,1.446.014,2.891,0,4.337a.855.855,0,0,1-.6.817.879.879,0,0,1-1.012-.282c-.123-.152-.173-.181-.347-.043a2.213,2.213,0,0,1-2.2.369,2.85,2.85,0,0,1-1.959-2.646,3,3,0,0,1,1.475-3.144A2.29,2.29,0,0,1,214.789,120.278Zm-2.559,2.638a1.577,1.577,0,0,0,.3.875,1.194,1.194,0,0,0,1.663.239,1.242,1.242,0,0,0,.239-.239,1.8,1.8,0,0,0,0-2,1.086,1.086,0,0,0-.86-.455C212.779,121.283,212.223,121.9,212.23,122.917Zm7.568.043a3.077,3.077,0,1,1,3.354,2.985A2.949,2.949,0,0,1,219.8,122.96Zm1.814-.173a1.6,1.6,0,0,0,.311,1.012,1.179,1.179,0,0,0,1.663.217,1.388,1.388,0,0,0,.21-.2,1.8,1.8,0,0,0,.007-2.024,1.107,1.107,0,0,0-.86-.455A1.289,1.289,0,0,0,221.613,122.786Zm-2.451-1.265c0,1.12.007,2.241,0,3.361a.94.94,0,0,1-.911.954,1.123,1.123,0,0,1-.267-.029.937.937,0,0,1-.636-.932v-5.747c0-.34-.007-.672,0-1.012a.907.907,0,1,1,1.814.014C219.169,119.259,219.162,120.394,219.162,121.521Z" transform="translate(565.84 285.412)" fill="#6c82ac"/>
      </g>
    </g>
  </g>
</svg>
