<svg xmlns="http://www.w3.org/2000/svg" xmlns:xlink="http://www.w3.org/1999/xlink" width="130" height="50" viewBox="0 0 130 50">
  <defs>
    <clipPath id="clip-path">
      <rect id="Rectangle_63000" data-name="Rectangle 63000" width="130" height="50" transform="translate(210 264)" fill="#fff" stroke="#707070" stroke-width="1"/>
    </clipPath>
    <clipPath id="clip-深色好友分享_自身筐">
      <rect width="130" height="50"/>
    </clipPath>
  </defs>
  <g id="深色好友分享_自身筐" clip-path="url(#clip-深色好友分享_自身筐)">
    <g id="Mask_Group_1043" data-name="Mask Group 1043" transform="translate(-210 -264)" clip-path="url(#clip-path)">
      <g id="Path_51773" data-name="Path 51773" transform="translate(-1290.667 1556.738)">
        <path id="Path_55704" data-name="Path 55704" d="M1565.161-1243.267a1.49,1.49,0,0,1-.727-.19,1.491,1.491,0,0,1-.582-.581l-1.758-3.17h-38.927a22.526,22.526,0,0,1-22.5-22.5,22.525,22.525,0,0,1,22.5-22.5h85a22.526,22.526,0,0,1,22.5,22.5,22.526,22.526,0,0,1-22.5,22.5h-39.936l-1.757,3.169a1.491,1.491,0,0,1-.9.714A1.505,1.505,0,0,1,1565.161-1243.267Zm-41.994-47.941a21.525,21.525,0,0,0-21.5,21.5,21.525,21.525,0,0,0,21.5,21.5h39.516l2.043,3.685a.5.5,0,0,0,.193.192.5.5,0,0,0,.381.044.5.5,0,0,0,.3-.237l2.042-3.684h40.525a21.526,21.526,0,0,0,21.5-21.5,21.525,21.525,0,0,0-21.5-21.5Z" fill="#f3ac0a"/>
      </g>
    </g>
  </g>
</svg>
