<svg xmlns="http://www.w3.org/2000/svg" xmlns:xlink="http://www.w3.org/1999/xlink" width="24" height="24" viewBox="0 0 24 24">
  <defs>
    <clipPath id="clip-path">
      <rect id="Rectangle_56006" data-name="Rectangle 56006" width="24" height="24" fill="#666"/>
    </clipPath>
  </defs>
  <g id="复制1" clip-path="url(#clip-path)">
    <g id="Group_13887" data-name="Group 13887" transform="translate(1.318 1.318)">
      <path id="Path_26106" data-name="Path 26106" d="M171,300.5h-9a3,3,0,0,1-3-3v-9a3,3,0,0,1,3-3h9a3,3,0,0,1,3,3v9A3,3,0,0,1,171,300.5Zm-9-13a1,1,0,0,0-1,1v9a1,1,0,0,0,1,1h9a1,1,0,0,0,1-1v-9a1,1,0,0,0-1-1Z" transform="translate(-152.636 -279.137)" fill="#666"/>
      <path id="Path_26107" data-name="Path 26107" d="M152.5,290h-1a3,3,0,0,1-3-3v-9a3,3,0,0,1,3-3h9a3,3,0,0,1,3,3v1a1,1,0,0,1-2,0v-1a1,1,0,0,0-1-1h-9a1,1,0,0,0-1,1v9a1,1,0,0,0,1,1h1a1,1,0,0,1,0,2Z" transform="translate(-148.5 -275)" fill="#666"/>
    </g>
    <rect id="Rectangle_55892" data-name="Rectangle 55892" width="24" height="24" fill="none"/>
  </g>
</svg>
