<svg xmlns="http://www.w3.org/2000/svg" xmlns:xlink="http://www.w3.org/1999/xlink" width="24" height="24" viewBox="0 0 24 24">
  <defs>
    <clipPath id="clip-path">
      <rect id="Rectangle_57400" data-name="Rectangle 57400" width="24" height="24" fill="#333"/>
    </clipPath>
  </defs>
  <g id="自身" transform="translate(-259 -314)">
    <g id="我的" transform="translate(259 314)" clip-path="url(#clip-path)">
      <rect id="Rectangle_56259" width="23" height="22" fill="none"/>
      <g id="Group_13464" transform="translate(2.051 1)">
        <path id="Union_55" data-name="Union 55" d="M18.291,22H1.313a1.558,1.558,0,0,1-1.3-1.707,10.027,10.027,0,0,1,9.943-7.937A9.941,9.941,0,0,1,19.9,20.191v.3A1.563,1.563,0,0,1,18.336,22ZM4.226,5.726a5.726,5.726,0,1,1,5.726,5.726A5.726,5.726,0,0,1,4.226,5.726Z" fill="#333"/>
      </g>
    </g>
  </g>
</svg>
