<svg id="SvgjsSvg1001" width="288" height="288" xmlns="http://www.w3.org/2000/svg" version="1.1" xmlns:xlink="http://www.w3.org/1999/xlink" xmlns:svgjs="http://svgjs.com/svgjs"><defs id="SvgjsDefs1002"></defs><g id="SvgjsG1008" transform="matrix(1,0,0,1,0,0)"><svg xmlns="http://www.w3.org/2000/svg" width="288" height="288" viewBox="0 0 24 24"><defs><clipPath id="a"><rect width="24" height="24" fill="#f3ac0a" data-name="Rectangle 57607" transform="translate(185 204)" class="colorfff svgShape"></rect></clipPath></defs><g clip-path="url(#a)" data-name="Mask Group 14456" transform="translate(-185 -204)" fill="#f3ac0a" class="color000 svgShape"><g data-name="Icon ionic-ios-information-circle-outline" transform="translate(186.714 205.714)" fill="#f3ac0a" class="color000 svgShape"><path fill="#e9ad34" d="M16.552,11.713a1.04,1.04,0,1,1,1.035,1.01A1.011,1.011,0,0,1,16.552,11.713Zm.071,1.8h1.928V20.79H16.622Z" data-name="Path 8400" transform="translate(-7.306 -5.65)" class="color7a9ebe svgShape"></path><path fill="#e9ad34" d="M13.661,4.76a8.9,8.9,0,1,1-6.3,2.606,8.842,8.842,0,0,1,6.3-2.606m0-1.385A10.286,10.286,0,1,0,23.946,13.661,10.284,10.284,0,0,0,13.661,3.375Z" data-name="Path 8401" transform="translate(-3.375 -3.375)" class="color7a9ebe svgShape"></path></g></g></svg></g></svg>