<svg xmlns="http://www.w3.org/2000/svg" xmlns:xlink="http://www.w3.org/1999/xlink" width="36" height="36" viewBox="0 0 36 36">
  <defs>
    <clipPath id="clip-path">
      <rect id="Rectangle_62118" data-name="Rectangle 62118" width="36" height="36" transform="translate(2209 1382)" fill="#e5e5e5" stroke="#707070" stroke-width="1"/>
    </clipPath>
    <clipPath id="clip-下注頁_球門">
      <rect width="36" height="36"/>
    </clipPath>
  </defs>
  <g id="下注頁_球門" clip-path="url(#clip-下注頁_球門)">
    <g id="Mask_Group_637" data-name="Mask Group 637" transform="translate(-2209 -1382)" clip-path="url(#clip-path)">
      <g id="noun_goal_1962934" transform="translate(2209 1389.428)">
        <g id="Layer_51" data-name="Layer 51">
          <path id="Path_51234" data-name="Path 51234" d="M36.258,8.121a.621.621,0,0,0-.621-.621H3.362a.621.621,0,0,0-.621.621L1.5,27.982a.621.621,0,0,0,.943.571L8.5,24.879h22l6.058,3.637a.621.621,0,0,0,.943-.534Zm-4.965.658-.385,4.965-.77,9.931H8.9l-.77-9.931L7.744,8.779ZM2.816,26.84l1.13-18.1h2.57l.472,6.07.7,9.111Zm28.551-2.917.7-9.111.472-6.07H35.1l1.13,18.1Z" transform="translate(-1.499 -7.5)" fill="#e5e5e5"/>
        </g>
      </g>
    </g>
  </g>
</svg>
