<svg xmlns="http://www.w3.org/2000/svg" xmlns:xlink="http://www.w3.org/1999/xlink" width="24" height="24" viewBox="0 0 24 24">
  <defs>
    <clipPath id="clip-path">
      <rect id="Rectangle_61708" data-name="Rectangle 61708" width="24" height="24" fill="#7a5605" stroke="#707070" stroke-width="1"/>
    </clipPath>
    <clipPath id="clip-市場_總成交量統計">
      <rect width="24" height="24"/>
    </clipPath>
  </defs>
  <g id="市場_總成交量統計" clip-path="url(#clip-市場_總成交量統計)">
    <g id="Group_38967" data-name="Group 38967" transform="translate(-310 -261)">
      <g id="Mask_Group_587" data-name="Mask Group 587" transform="translate(310 261)" clip-path="url(#clip-path)">
        <g id="Group_38718" data-name="Group 38718" transform="translate(0.985 0.985)">
          <path id="Path_51092" data-name="Path 51092" d="M18.593,9.015V23.909a1.014,1.014,0,0,1-1.015,1.015H13.515A1.014,1.014,0,0,1,12.5,23.909V9.015A1.018,1.018,0,0,1,13.515,8h4.062A1.018,1.018,0,0,1,18.593,9.015Z" transform="translate(3.071 -3.261)" fill="#f3ac0a"/>
          <path id="Path_51093" data-name="Path 51093" d="M7.093,14.055V25.537a1.014,1.014,0,0,1-1.015,1.015H2.015A1.014,1.014,0,0,1,1,25.537V14.055A1.018,1.018,0,0,1,2.015,13.04H6.077A1.018,1.018,0,0,1,7.093,14.055Z" transform="translate(-1 -4.889)" fill="#f3ac0a"/>
          <path id="Path_51094" data-name="Path 51094" d="M30.093,2.015V21.648a1.014,1.014,0,0,1-1.015,1.015H25.015A1.014,1.014,0,0,1,24,21.648V2.015A1.018,1.018,0,0,1,25.015,1h4.062A1.018,1.018,0,0,1,30.093,2.015Z" transform="translate(-16.215 -1)" fill="#f3ac0a"/>
        </g>
      </g>
    </g>
  </g>
</svg>
