<svg xmlns="http://www.w3.org/2000/svg" xmlns:xlink="http://www.w3.org/1999/xlink" width="24" height="24" viewBox="0 0 24 24">
  <defs>
    <clipPath id="clip-path">
      <rect id="Rectangle_55122" data-name="Rectangle 55122" width="24" height="24" transform="translate(482 541)" fill="#bcc0cb"/>
    </clipPath>
    <clipPath id="clip-footer_帳務">
      <rect width="24" height="24"/>
    </clipPath>
  </defs>
  <g id="footer_帳務" clip-path="url(#clip-footer_帳務)">
    <g id="Mask_Group_579" data-name="Mask Group 579" transform="translate(-482 -541)" clip-path="url(#clip-path)">
      <g id="Group_38681" data-name="Group 38681" transform="translate(483.056 542.503)">
        <path id="Union_4" data-name="Union 4" d="M11.889,15.964a5.055,5.055,0,1,1,5.07,5.03h-.013A5.059,5.059,0,0,1,11.889,15.964Zm3.086,1.015c-.029,0-.059.006-.092.01a1.409,1.409,0,0,0,.275.772,1.861,1.861,0,0,0,1.291.694v.569h1.024v-.563l.438-.119A1.385,1.385,0,0,0,19,17.051a1.344,1.344,0,0,0-.638-1.392,4.221,4.221,0,0,0-.68-.319c-.347-.135-.7-.246-1.054-.373a.314.314,0,0,1-.209-.312A.373.373,0,0,1,16.6,14.3a.625.625,0,0,1,.9.33.111.111,0,0,0,.128.094c.24,0,.481,0,.721,0h.434c.029,0,.058-.006.084-.009a1.356,1.356,0,0,0-.841-1.228c-.168-.068-.347-.114-.521-.167-.055-.017-.08-.041-.078-.1,0-.121,0-.242,0-.365H16.409c0,.11-.007.213,0,.315s-.026.16-.14.181a1.734,1.734,0,0,0-.785.378,1.435,1.435,0,0,0,.163,2.3,5.441,5.441,0,0,0,.925.386c.245.083.492.162.727.268a.4.4,0,0,1,.25.455.39.39,0,0,1-.376.366.727.727,0,0,1-.9-.468c-.01-.026-.07-.052-.107-.052-.238,0-.476,0-.714,0ZM8.723,20.671A20.964,20.964,0,0,1,5,20.249,9.513,9.513,0,0,1,2.094,19.2a9.9,9.9,0,0,1-1.033-.674A2.522,2.522,0,0,1,.027,16.44c-.006-.7,0-1.41,0-2.134.024.021.04.028.048.041A6.672,6.672,0,0,0,3.549,16.8a17.062,17.062,0,0,0,2.372.551,18.278,18.278,0,0,0,3.654.27c.3-.008.6-.026.9-.047.079,0,.118.017.138.094a6.494,6.494,0,0,0,1.476,2.7c.02.021.038.044.076.09l-.876.095a20.153,20.153,0,0,1-2.2.121Q8.9,20.675,8.723,20.671Zm-.416-4.2a18.021,18.021,0,0,1-2.338-.253A13.489,13.489,0,0,1,3.9,15.755a11.829,11.829,0,0,1-1.961-.84,4.25,4.25,0,0,1-.918-.574A3.017,3.017,0,0,1,.014,11.725c.03-.356.017-.716.022-1.075,0-.157,0-.316,0-.492.132.161.251.313.378.456a6.863,6.863,0,0,0,4.168,2.275c.364.058.721.158,1.084.229a17.311,17.311,0,0,0,3.731.317c.48-.011.96-.048,1.439-.073.018,0,.037,0,.058,0-.086.258-.179.506-.253.761a6.317,6.317,0,0,0-.242,2.191c.007.1-.017.143-.125.143-.511,0-1.021.022-1.531.022C8.6,16.479,8.451,16.477,8.306,16.473ZM4.777,11.785a9,9,0,0,1-2.1-.661A7.08,7.08,0,0,1,.614,9.615a1.877,1.877,0,0,1-.533-1.28c-.014-.831,0-1.662,0-2.509.023.035.042.059.058.085a4.913,4.913,0,0,0,2.431,2.08A15.481,15.481,0,0,0,4.578,8.7a13.467,13.467,0,0,0,2.334.366c1.051.083,2.1.1,3.156.089a13.335,13.335,0,0,0,3.749-.5,10.732,10.732,0,0,0,2.522-1.084,8.772,8.772,0,0,0,1.012-.782c.251-.209.482-.443.75-.69,0,.687,0,1.345,0,2,0,.152-.029.3-.028.456a1.69,1.69,0,0,1-.265.8c-.014.03-.078.048-.119.048-.45,0-.9-.038-1.349-.007a6.024,6.024,0,0,0-1.992.507,6.626,6.626,0,0,0-2.682,2.127.271.271,0,0,1-.17.089,19.508,19.508,0,0,1-2.258.15H9.11A20.674,20.674,0,0,1,4.777,11.785ZM8.565,8.071a17.9,17.9,0,0,1-4.524-.727,9.347,9.347,0,0,1-2.07-.81A6.07,6.07,0,0,1,.612,5.46,2.035,2.035,0,0,1,.593,2.644,6.227,6.227,0,0,1,3.078,1.025,14.67,14.67,0,0,1,6.62.161,21.785,21.785,0,0,1,9.108,0a18.578,18.578,0,0,1,5.605.864,7.7,7.7,0,0,1,2.269,1.184,2.938,2.938,0,0,1,.721.661,2.144,2.144,0,0,1,.335,1.961A2.612,2.612,0,0,1,17.029,6a9.484,9.484,0,0,1-3.036,1.452,15.353,15.353,0,0,1-2.1.377c-.733.091-1.469.178-2.206.241-.171.014-.342.019-.515.019C8.969,8.084,8.767,8.078,8.565,8.071Z" fill="#bcc0cb" stroke="rgba(0,0,0,0)" stroke-miterlimit="10" stroke-width="1"/>
      </g>
    </g>
  </g>
</svg>
