<svg xmlns="http://www.w3.org/2000/svg" xmlns:xlink="http://www.w3.org/1999/xlink" width="24" height="24" viewBox="0 0 24 24">
  <defs>
    <clipPath id="clip-path">
      <rect id="Rectangle_57541" data-name="Rectangle 57541" width="24" height="24" transform="translate(104 39.25)" fill="#bcc0cb" stroke="#707070" stroke-width="1"/>
    </clipPath>
    <clipPath id="clip-footer_紀錄">
      <rect width="24" height="24"/>
    </clipPath>
  </defs>
  <g id="footer_紀錄" clip-path="url(#clip-footer_紀錄)">
    <g id="Mask_Group_417" data-name="Mask Group 417" transform="translate(-104 -39.25)" clip-path="url(#clip-path)">
      <g id="Group_36417" data-name="Group 36417" transform="translate(107.653 40.114)">
        <path id="Path_47279" data-name="Path 47279" d="M-39.573-68.082H-55.724a1.436,1.436,0,0,1-.961-1.573c.018-6.244.01-12.487.01-18.731,0-.134,0-.269,0-.4a1.185,1.185,0,0,1,.827-1.131c.061-.022.12-.052.18-.079h6.807a1.3,1.3,0,0,0-.015.142q0,3.286,0,6.571a2.314,2.314,0,0,0,.041.458A2.431,2.431,0,0,0-46.368-80.9q3.675.007,7.35,0h.395c0,.429,0,.82,0,1.212q0,5.159,0,10.318a1.181,1.181,0,0,1-.855,1.227A.625.625,0,0,0-39.573-68.082Zm-8.1-7.967h1.7c1.1,0,2.191,0,3.287,0A.989.989,0,0,0-41.64-77.1a1.014,1.014,0,0,0-1.122-.949q-4.585,0-9.169,0c-.25,0-.5-.01-.75,0a.991.991,0,0,0-.978,1.061,1,1,0,0,0,1.079.932Q-50.129-76.046-47.678-76.05Zm.031,4.975h1.73c1.086,0,2.172.005,3.258,0a.981.981,0,0,0,1.019-1.071,1,1,0,0,0-1.125-.909H-52.51c-.086,0-.173,0-.259.007a.978.978,0,0,0-.891.935.98.98,0,0,0,1.025,1.037C-50.972-71.072-49.31-71.075-47.647-71.075Zm-5.013-12.94c-.336,0-.672-.008-1.008,0a.991.991,0,0,0-1,.98.994.994,0,0,0,1.012,1q.993.013,1.987,0a.993.993,0,0,0,1.013-1,.99.99,0,0,0-1-.982C-51.989-84.023-52.325-84.015-52.661-84.015Z" transform="translate(56.685 90)" fill="#bcc0cb"/>
        <path id="Path_47280" data-name="Path 47280" d="M100.029-90c.249.234.491.477.748.7q3.972,3.488,7.948,6.971c.065.057.127.116.227.208a2.175,2.175,0,0,1-.239.03q-3.717,0-7.434,0A1.2,1.2,0,0,1,99.971-83.4q0-3.3,0-6.6Z" transform="translate(-90.935 90)" fill="#bcc0cb"/>
      </g>
    </g>
  </g>
</svg>
