<svg xmlns="http://www.w3.org/2000/svg" xmlns:xlink="http://www.w3.org/1999/xlink" width="200" height="200" viewBox="0 0 200 200">
  <defs>
    <clipPath id="clip-天盈_LOGO_白">
      <rect width="200" height="200"/>
    </clipPath>
  </defs>
  <g id="天盈_LOGO_白" clip-path="url(#clip-天盈_LOGO_白)">
    <rect id="Rectangle_1325" data-name="Rectangle 1325" width="200" height="200" fill="none"/>
    <g id="首頁logo" transform="translate(2.195 19.832)">
      <g id="Group_1982" data-name="Group 1982" transform="translate(-2.195 22.168)">
        <path id="Path_1215" data-name="Path 1215" d="M-824.5,487.5" transform="translate(882.231 -429.374)" fill="none" stroke="#3a3a3a" stroke-miterlimit="10" stroke-width="1"/>
        <g id="Group_1980" data-name="Group 1980" transform="translate(3.573 47.558)">
          <path id="Path_1216" data-name="Path 1216" d="M-787.056,511.056a29.691,29.691,0,0,0-2.422-8.451,30.87,30.87,0,0,0-5.192-7.859,28.663,28.663,0,0,0-8.616-6.377l-21.621-9.321v28.44l10.439,4.358a5.083,5.083,0,0,1,2.438,2.609,5.707,5.707,0,0,1,.393,3.195,4.285,4.285,0,0,1-1.8,2.66,6.953,6.953,0,0,1-4.155,1.166l-54.677.644.242,25.271,54.383-.644a35.925,35.925,0,0,0,15.251-2.982,27.485,27.485,0,0,0,9.366-7.086,24.48,24.48,0,0,0,4.812-8.948,35.124,35.124,0,0,0,1.453-8.413A43.749,43.749,0,0,0-787.056,511.056Z" transform="translate(872.269 -479.048)" fill="#fff"/>
        </g>
        <path id="Path_1217" data-name="Path 1217" d="M-729.645,469.7l-29.8,47.826-.705-76.53-21.161.245v.029l-63.147.644a34.192,34.192,0,0,0-15.032,3.053,28.021,28.021,0,0,0-9.308,7.224,26.248,26.248,0,0,0-4.883,9.018,39.38,39.38,0,0,0-1.675,8.416,39.9,39.9,0,0,0,.37,8.313,30.853,30.853,0,0,0,2.577,8.529,31.849,31.849,0,0,0,5.269,7.936,32.322,32.322,0,0,0,8.326,6.541l28.092,11.714V484.136l-16.623-7.156a4.728,4.728,0,0,1-2.509-2.448,5.551,5.551,0,0,1-.47-3.272,4.6,4.6,0,0,1,1.8-2.821,6.874,6.874,0,0,1,4.3-1.253l63.128-.644.86,90.73,15.46-.18a11.272,11.272,0,0,0,5.05-1.359,24.985,24.985,0,0,0,5.1-3.543,36.466,36.466,0,0,0,4.831-5.259,62.687,62.687,0,0,0,4.222-6.313l16.349-28.481,10.838,18.162V486.951Z" transform="translate(875.422 -441)" fill="#fff"/>
        <g id="Group_1981" data-name="Group 1981" transform="translate(163.798 1.25)">
          <path id="Path_1218" data-name="Path 1218" d="M-695.823,442l-21.164.245.718,75.273L-730.943,495v44.025l1.118,1.9a53.7,53.7,0,0,0,9.318,11.437,15.1,15.1,0,0,0,10.307,4.6l15.46-.18Z" transform="translate(730.943 -442)" fill="#fff"/>
        </g>
      </g>
    </g>
  </g>
</svg>
