<svg xmlns="http://www.w3.org/2000/svg" xmlns:xlink="http://www.w3.org/1999/xlink" width="24" height="24" viewBox="0 0 24 24">
  <defs>
    <clipPath id="clip-path">
      <rect id="Rectangle_57428" data-name="Rectangle 57428" width="24" height="24" transform="translate(-21757 -8954)" fill="#fff" stroke="#707070" stroke-width="1"/>
    </clipPath>
    <clipPath id="clip-path-2">
      <rect id="Rectangle_57427" data-name="Rectangle 57427" width="22" height="22" fill="#fff"/>
    </clipPath>
  </defs>
  <g id="跑马灯_喇叭" transform="translate(21757 8954)" clip-path="url(#clip-path)">
    <g id="公告" transform="translate(-21756.002 -8952.999)" clip-path="url(#clip-path-2)">
      <g id="Group_4342" data-name="Group 4342" transform="translate(0 3.3)">
        <g id="Group_4341" data-name="Group 4341" transform="translate(14.3)">
          <rect id="Rectangle_1561" data-name="Rectangle 1561" width="6.6" height="2.2" rx="1" transform="translate(0 3.3) rotate(-30)" fill="#fff"/>
          <rect id="Rectangle_1563" data-name="Rectangle 1563" width="6.6" height="2.2" rx="1" transform="translate(1.1 7.15)" fill="#fff"/>
          <rect id="Rectangle_1562" data-name="Rectangle 1562" width="6.6" height="2.2" rx="1" transform="translate(5.716 16.205) rotate(-150)" fill="#fff"/>
        </g>
        <path id="Union_25" data-name="Union 25" d="M9.6,16.016,6.863,13.753H2.2a2.2,2.2,0,0,1-2.2-2.2V6.783a2.2,2.2,0,0,1,2.2-2.2H6.864L9.6,2.322a2.2,2.2,0,0,1,3.6,1.7v10.3a2.2,2.2,0,0,1-2.211,2.2,2.164,2.164,0,0,1-1.39-.5Z" transform="translate(0 -0.713)" fill="#fff"/>
      </g>
    </g>
  </g>
</svg>
