<svg xmlns="http://www.w3.org/2000/svg" xmlns:xlink="http://www.w3.org/1999/xlink" width="30" height="30" viewBox="0 0 30 30">
  <defs>
    <linearGradient id="linear-gradient" x1="0.5" x2="0.5" y2="1.294" gradientUnits="objectBoundingBox">
      <stop offset="0" stop-color="#1ecb75"/>
      <stop offset="1" stop-color="#62d9b5"/>
    </linearGradient>
    <clipPath id="clip-path">
      <rect id="Rectangle_62510" data-name="Rectangle 62510" width="24" height="24" transform="translate(5949 1117)" fill="#fff" stroke="#707070" stroke-width="1"/>
    </clipPath>
  </defs>
  <g id="我要充值" transform="translate(-43 -212)">
    <g id="Group_39744" data-name="Group 39744">
      <path id="Path_51714" data-name="Path 51714" d="M5,0H25a5,5,0,0,1,5,5V25a5,5,0,0,1-5,5H5a5,5,0,0,1-5-5V5A5,5,0,0,1,5,0Z" transform="translate(43 212)" fill="url(#linear-gradient)"/>
    </g>
    <g id="Mask_Group_746" data-name="Mask Group 746" transform="translate(-5903 -902)" clip-path="url(#clip-path)">
      <g id="coin-stack" transform="translate(5950 1099.465)">
        <g id="Group_39745" data-name="Group 39745" transform="translate(0 22.379)">
          <path id="Path_51724" data-name="Path 51724" d="M6.393,118.436a13.7,13.7,0,0,0,1.781-.114v-6.2a13.712,13.712,0,0,0-1.781-.114c-3.53,0-6.392,1.3-6.392,2.9v.629C0,117.138,2.863,118.436,6.393,118.436Z" transform="translate(-0.001 -111.175)" fill="#fff"/>
          <path id="Path_51725" data-name="Path 51725" d="M6.393,217.3a13.724,13.724,0,0,0,1.781-.114v-1.817a13.71,13.71,0,0,1-1.781.115c-3.081,0-5.653-.989-6.257-2.305a1.414,1.414,0,0,0-.134.594v.629C0,216,2.863,217.3,6.393,217.3Z" transform="translate(-0.001 -206.798)" fill="#fff"/>
          <path id="Path_51726" data-name="Path 51726" d="M8.173,274.59v-.141a13.71,13.71,0,0,1-1.781.115c-3.081,0-5.653-.989-6.257-2.305a1.413,1.413,0,0,0-.134.594v.629c0,1.6,2.862,2.9,6.392,2.9a13.574,13.574,0,0,0,2.02-.148,2.287,2.287,0,0,1-.239-1.013Z" transform="translate(0 -262.645)" fill="#fff"/>
          <path id="Path_51727" data-name="Path 51727" d="M174.631,22.379c-3.53,0-6.392,1.3-6.392,2.9v.629c0,1.6,2.862,2.9,6.392,2.9s6.392-1.3,6.392-2.9v-.629C181.023,23.677,178.161,22.379,174.631,22.379Z" transform="translate(-159.023 -22.379)" fill="#fff"/>
          <path id="Path_51728" data-name="Path 51728" d="M174.631,125.849c-3.081,0-5.653-.989-6.257-2.305a1.413,1.413,0,0,0-.134.594v.629c0,1.6,2.862,2.9,6.392,2.9s6.392-1.3,6.392-2.9v-.629a1.413,1.413,0,0,0-.134-.594C180.284,124.86,177.712,125.849,174.631,125.849Z" transform="translate(-159.023 -118.002)" fill="#fff"/>
          <path id="Path_51729" data-name="Path 51729" d="M174.631,184.933c-3.081,0-5.653-.989-6.257-2.305a1.413,1.413,0,0,0-.134.594v.629c0,1.6,2.862,2.9,6.392,2.9s6.392-1.3,6.392-2.9v-.629a1.414,1.414,0,0,0-.134-.594C180.284,183.944,177.712,184.933,174.631,184.933Z" transform="translate(-159.023 -173.849)" fill="#fff"/>
          <path id="Path_51730" data-name="Path 51730" d="M174.631,247.206c-3.081,0-5.653-.989-6.257-2.305a1.413,1.413,0,0,0-.134.594v.629c0,1.6,2.862,2.9,6.392,2.9s6.392-1.3,6.392-2.9v-.629a1.413,1.413,0,0,0-.134-.594C180.284,246.217,177.712,247.206,174.631,247.206Z" transform="translate(-159.023 -232.711)" fill="#fff"/>
        </g>
      </g>
    </g>
  </g>
</svg>
