<svg xmlns="http://www.w3.org/2000/svg" xmlns:xlink="http://www.w3.org/1999/xlink" width="24" height="24" viewBox="0 0 24 24">
  <defs>
    <linearGradient id="linear-gradient" x1="0.5" x2="0.5" y2="1.294" gradientUnits="objectBoundingBox">
      <stop offset="0" stop-color="#f3ac0a"/>
      <stop offset="1" stop-color="#7a5605"/>
    </linearGradient>
    <clipPath id="clip-path">
      <rect id="Rectangle_57540" data-name="Rectangle 57540" width="19" height="19" transform="translate(-0.37 -0.37)" fill="#fff" stroke="#707070" stroke-width="1"/>
    </clipPath>
    <clipPath id="clip-我的_我要充值">
      <rect width="24" height="24"/>
    </clipPath>
  </defs>
  <g id="我的_我要充值" clip-path="url(#clip-我的_我要充值)">
    <g id="Group_38975" data-name="Group 38975" transform="translate(1950 -489)">
      <rect id="Rectangle_57542" data-name="Rectangle 57542" width="24" height="24" rx="5" transform="translate(-1950 489)" fill="url(#linear-gradient)"/>
      <g id="Mask_Group_426" data-name="Mask Group 426" transform="translate(-1947.63 491.37)" clip-path="url(#clip-path)">
        <g id="Group_37938" data-name="Group 37938" transform="translate(0.778 0.778)">
          <path id="Path_47289" data-name="Path 47289" d="M45.289,50.6c.277,0,.5,0,.729,0,.266,0,.349.133.224.371q-.8,1.535-1.612,3.066c-.121.229-.26.229-.385,0-.366-.686-.726-1.376-1.088-2.064-.178-.339-.359-.676-.532-1.018-.112-.221-.034-.345.213-.35.192,0,.384-.006.576,0a.165.165,0,0,0,.189-.139,8.389,8.389,0,0,1,5.181-5.438,8.153,8.153,0,0,1,3.583-.453,8.252,8.252,0,0,1,5.194,2.459,8.135,8.135,0,0,1,1.35,1.785A8.371,8.371,0,0,1,46.259,59.344a7.236,7.236,0,0,1-.711-.679.851.851,0,0,1-.044-.93.81.81,0,0,1,.85-.375,1.236,1.236,0,0,1,.5.284A6.663,6.663,0,0,0,52,59.6a6.53,6.53,0,0,0,1.836-.358,6.755,6.755,0,0,0,4.323-4.9,6.343,6.343,0,0,0-.022-2.952,6.706,6.706,0,0,0-10.96-3.5,6.125,6.125,0,0,0-1.448,1.792C45.576,49.963,45.45,50.262,45.289,50.6Z" transform="translate(-42.575 -44.535)" fill="#fff"/>
          <path id="Path_47290" data-name="Path 47290" d="M82.475,74.394c.206.966.368,1.175.907,1.146v-.26c0-.444,0-.888,0-1.331,0-.128-.041-.177-.163-.2a5.642,5.642,0,0,1-1.608-.593,2.035,2.035,0,0,1-.832-2.635,2.271,2.271,0,0,1,1.621-1.3c.343-.094.7-.126,1.078-.19v-.655h.875v.677A2.764,2.764,0,0,1,86.681,70.1a2.322,2.322,0,0,1,.4,1.33H85.2c-.132-.71-.337-.947-.846-.965v1.592c.454.157.906.294,1.341.471a3.748,3.748,0,0,1,.73.416,1.83,1.83,0,0,1,.763,1.434,2.183,2.183,0,0,1-.76,2.012,3.209,3.209,0,0,1-1.519.6c-.212.035-.427.053-.66.08v.885h-.824v-.88c-.334-.054-.651-.082-.956-.158a2.359,2.359,0,0,1-1.839-1.633,4.172,4.172,0,0,1-.116-.759c0-.038.064-.119.1-.12C81.232,74.392,81.848,74.394,82.475,74.394Zm1.733-.43V75.6a5.794,5.794,0,0,0,.628-.143.66.66,0,0,0,.1-1.167C84.716,74.164,84.473,74.079,84.208,73.964ZM83.54,70.4a4,4,0,0,0-.577.114.635.635,0,0,0-.228,1.02,1.839,1.839,0,0,0,.806.351Z" transform="translate(-74.817 -64.793)" fill="#fff"/>
        </g>
      </g>
    </g>
  </g>
</svg>
