<svg xmlns="http://www.w3.org/2000/svg" xmlns:xlink="http://www.w3.org/1999/xlink" width="24" height="24" viewBox="0 0 24 24">
  <defs>
    <clipPath id="clip-path">
      <rect id="Rectangle_57406" data-name="Rectangle 57406" width="24" height="24" transform="translate(0 0)" fill="#f3ac0a"/>
    </clipPath>
    <linearGradient id="linear-gradient" x1="0.5" x2="0.5" y2="1.487" gradientUnits="objectBoundingBox">
      <stop offset="0" stop-color="#f3ac0a"/>
      <stop offset="1" stop-color="#7a5605"/>
    </linearGradient>
    <clipPath id="clip-我的_登出">
      <rect width="24" height="24"/>
    </clipPath>
  </defs>
  <g id="我的_登出" clip-path="url(#clip-我的_登出)">
    <g id="我的_游戏收藏" transform="translate(410.963 -182.074)">
      <g id="Footer_登录_灰" transform="translate(-410.963 182.074)" clip-path="url(#clip-path)">
        <rect id="Rectangle_56259" data-name="Rectangle 56259" width="24" height="24" transform="translate(0 0)" fill="none"/>
        <g id="Group_34863" data-name="Group 34863" transform="translate(1.001 4.003)">
          <path id="Union_20" data-name="Union 20" d="M0,16.534V0H7.866V1.867h-6v12.8h6v1.866Zm13.549-.677a.493.493,0,0,1-.3-.452V11.732H4.319V4.664h8.935V.939A.41.41,0,0,1,13.5.56a.417.417,0,0,1,.449.072l7.837,7.147a.659.659,0,0,1,0,.973l-7.7,7.021a.5.5,0,0,1-.333.127A.5.5,0,0,1,13.549,15.857Z" fill="url(#linear-gradient)"/>
        </g>
      </g>
    </g>
  </g>
</svg>
