<svg xmlns="http://www.w3.org/2000/svg" xmlns:xlink="http://www.w3.org/1999/xlink" width="24" height="24" viewBox="0 0 24 24">
  <defs>
    <linearGradient id="linear-gradient" x1="0.5" x2="0.5" y2="1" gradientUnits="objectBoundingBox">
      <stop offset="0" stop-color="#f3ac0a"/>
      <stop offset="1" stop-color="#7a5605"/>
    </linearGradient>
    <clipPath id="clip-path">
      <rect id="Rectangle_57400" data-name="Rectangle 57400" width="24" height="24" fill="url(#linear-gradient)"/>
    </clipPath>
    <linearGradient id="linear-gradient-2" y2="1.701" xlink:href="#linear-gradient"/>
  </defs>
  <g id="我的_個人資料" clip-path="url(#clip-path)">
    <g id="我的" clip-path="url(#clip-path)">
      <rect id="Rectangle_56259" width="24" height="24" fill="none"/>
      <g id="Group_13464" transform="translate(2.05 0.999)">
        <path id="Union_14" data-name="Union 14" d="M18.292,22H1.313a1.557,1.557,0,0,1-1.3-1.708,10.027,10.027,0,0,1,9.943-7.937A9.941,9.941,0,0,1,19.9,20.191v.3A1.563,1.563,0,0,1,18.337,22ZM4.227,5.726a5.726,5.726,0,1,1,5.727,5.726A5.726,5.726,0,0,1,4.227,5.726Z" fill="url(#linear-gradient-2)"/>
      </g>
    </g>
  </g>
</svg>
