<svg xmlns="http://www.w3.org/2000/svg" xmlns:xlink="http://www.w3.org/1999/xlink" width="24" height="24" viewBox="0 0 24 24">
  <defs>
    <linearGradient id="linear-gradient" x1="0.5" x2="0.5" y2="1" gradientUnits="objectBoundingBox">
      <stop offset="0" stop-color="#f3ac0a"/>
      <stop offset="1" stop-color="#b58007"/>
    </linearGradient>
    <clipPath id="clip-path">
      <rect id="Rectangle_62941" data-name="Rectangle 62941" width="24" height="24" transform="translate(5744.936 5197.936)" stroke="#707070" stroke-width="1" fill="url(#linear-gradient)"/>
    </clipPath>
    <clipPath id="clip-我的_团队报表">
      <rect width="24" height="24"/>
    </clipPath>
  </defs>
  <g id="我的_团队报表" clip-path="url(#clip-我的_团队报表)">
    <g id="Mask_Group_1021" data-name="Mask Group 1021" transform="translate(-5744.936 -5197.936)" clip-path="url(#clip-path)">
      <g id="Group_40182" data-name="Group 40182" transform="translate(5745.966 5201.203)">
        <path id="Union_129" data-name="Union 129" d="M13.683,17.471H8.108a.514.514,0,0,1-.429-.562A3.3,3.3,0,0,1,10.946,14.3a3.265,3.265,0,0,1,3.266,2.574v.1a.516.516,0,0,1-.514.5ZM9.065,12.126a1.88,1.88,0,1,1,1.881,1.881A1.881,1.881,0,0,1,9.065,12.126ZM21.42,13.791H15.845a.512.512,0,0,1-.429-.562,3.353,3.353,0,0,1,6.53-.032v.1a.514.514,0,0,1-.514.495Zm-15.414,0H.431A.512.512,0,0,1,0,13.229a3.292,3.292,0,0,1,3.264-2.606A3.269,3.269,0,0,1,6.533,13.2v.1a.514.514,0,0,1-.514.495ZM16.8,8.448a1.88,1.88,0,1,1,1.881,1.878A1.881,1.881,0,0,1,16.8,8.448Zm-15.411,0a1.879,1.879,0,1,1,1.878,1.878A1.879,1.879,0,0,1,1.389,8.448Zm12.646-.375H7.8a.57.57,0,0,1-.479-.626,3.68,3.68,0,0,1,3.65-2.912A3.645,3.645,0,0,1,14.624,7.41v.11a.572.572,0,0,1-.573.552ZM8.874,2.1a2.1,2.1,0,1,1,2.1,2.1A2.1,2.1,0,0,1,8.874,2.1Z" fill="url(#linear-gradient)"/>
      </g>
    </g>
  </g>
</svg>
