<svg xmlns="http://www.w3.org/2000/svg" xmlns:xlink="http://www.w3.org/1999/xlink" width="24" height="24" viewBox="0 0 24 24">
  <defs>
    <linearGradient id="linear-gradient" x1="0.5" x2="0.5" y2="1.324" gradientUnits="objectBoundingBox">
      <stop offset="0" stop-color="#f3ac0a"/>
      <stop offset="1" stop-color="#7a5605"/>
    </linearGradient>
    <clipPath id="clip-path">
      <rect id="Rectangle_57404" data-name="Rectangle 57404" width="19" height="20" transform="translate(-0.211 -0.408)" fill="#f3ac0a"/>
    </clipPath>
    <clipPath id="clip-我的_充提記錄">
      <rect width="24" height="24"/>
    </clipPath>
  </defs>
  <g id="我的_充提記錄" clip-path="url(#clip-我的_充提記錄)">
    <g id="Group_38977" data-name="Group 38977" transform="translate(1777 -489)">
      <rect id="Rectangle_57545" data-name="Rectangle 57545" width="24" height="24" rx="5" transform="translate(-1777 489)" fill="url(#linear-gradient)"/>
      <g id="活动" transform="translate(-1773.789 491.408)" clip-path="url(#clip-path)">
        <rect id="Rectangle_56259" width="19" height="20" transform="translate(-0.211 -0.408)" fill="none"/>
        <g id="Group_36442" data-name="Group 36442" transform="translate(0.791 0.849)">
          <path id="Path_50828" data-name="Path 50828" d="M12.907,3.5a5.253,5.253,0,0,0-4.143,9.3H8.633q-3.8,0-7.591,0a3.214,3.214,0,0,1-1.01-.11,2.318,2.318,0,0,1-1.606-2.36c0-.037,0-.074,0-.11q0-6.248,0-12.5a2.483,2.483,0,0,1,.26-1.249A2.27,2.27,0,0,1,.761-4.765c.785-.01,1.571,0,2.357,0q1.218,0,2.437,0,2.517,0,5.034-.007A2.3,2.3,0,0,1,12.84-3a3.147,3.147,0,0,1,.061.675c.009.625.007,1.25.007,1.875q0,1.735,0,3.47ZM5.544-.921v0h-4.4c-.05,0-.1,0-.15,0A.581.581,0,0,0,.48-.558a.606.606,0,0,0,.607.841q4.457,0,8.915,0a.811.811,0,0,0,.237-.032.6.6,0,0,0,.41-.673.6.6,0,0,0-.593-.495ZM2.866,4.96H4.639a.847.847,0,0,0,.179-.012.6.6,0,0,0,.475-.666.606.606,0,0,0-.6-.525c-.254,0-.508,0-.762,0H1.066a.614.614,0,0,0-.586.377.6.6,0,0,0,.542.826C1.636,4.964,2.251,4.96,2.866,4.96Zm.006,3.727h0c-.611,0-1.223,0-1.834,0a.6.6,0,1,0-.006,1.2q1.834,0,3.668,0a.6.6,0,0,0,.006-1.2C4.094,8.684,3.483,8.687,2.871,8.687Z" transform="translate(1.58 4.77)" fill="#fff"/>
          <path id="Path_50829" data-name="Path 50829" d="M120.418,111.371a4.08,4.08,0,1,1-3.957-4.174A4.086,4.086,0,0,1,120.418,111.371Zm-5.6-1.181v.114q0,.782,0,1.563c0,.126.056.179.182.18h.842c.175,0,.218-.043.218-.217q0-.762,0-1.523v-.121c.249,0,.483,0,.716,0a.185.185,0,0,0,.143-.076.18.18,0,0,0-.044-.155c-.435-.443-.876-.881-1.315-1.32a.159.159,0,0,0-.244,0c-.44.439-.88.877-1.316,1.32a.18.18,0,0,0-.045.155.186.186,0,0,0,.143.076c.2.008.407,0,.611,0C114.744,110.185,114.777,110.188,114.82,110.19Zm3.038,2.159c0-.048,0-.084,0-.12q0-.782,0-1.564c0-.121-.02-.141-.139-.141h-.932c-.153,0-.171.017-.171.172q0,.767,0,1.534v.113c-.043,0-.076,0-.108,0-.2,0-.408,0-.611,0a.19.19,0,0,0-.141.079.168.168,0,0,0,.042.147q.668.679,1.345,1.349c.092.092.1.091.2,0,.447-.446.895-.891,1.338-1.341a.18.18,0,0,0,.044-.155.186.186,0,0,0-.143-.075C118.343,112.345,118.109,112.349,117.858,112.349Z" transform="translate(-102.735 -97.828)" fill="#fff"/>
        </g>
      </g>
    </g>
  </g>
</svg>
