<svg xmlns="http://www.w3.org/2000/svg" xmlns:xlink="http://www.w3.org/1999/xlink" width="30" height="30" viewBox="0 0 30 30">
  <defs>
    <linearGradient id="linear-gradient" x1="0.104" y1="0.097" x2="0.891" y2="0.938" gradientUnits="objectBoundingBox">
      <stop offset="0" stop-color="#f5990e"/>
      <stop offset="1" stop-color="#dfb94f"/>
    </linearGradient>
    <clipPath id="clip-path">
      <rect id="Rectangle_62511" data-name="Rectangle 62511" width="22" height="22" transform="translate(-0.282 -0.281)" fill="none"/>
    </clipPath>
  </defs>
  <g id="充提记录" transform="translate(-216 -212)">
    <g id="Group_39748" data-name="Group 39748">
      <rect id="Rectangle_57545" data-name="Rectangle 57545" width="30" height="30" rx="5" transform="translate(216 212)" fill="url(#linear-gradient)"/>
      <g id="Group_39746" data-name="Group 39746" transform="translate(356.837 385.985)">
        <g id="Group_39746-2" data-name="Group 39746" transform="translate(-135.556 -169.704)" clip-path="url(#clip-path)">
          <g id="活动">
            <rect id="Rectangle_56259" data-name="Rectangle 56259" width="22" height="22" transform="translate(-0.282 -0.281)" fill="none"/>
            <g id="Group_36442" data-name="Group 36442" transform="translate(0.88 0.943)">
              <path id="Path_50828" data-name="Path 50828" d="M-118.45-159.444a5.846,5.846,0,0,0-6.744,4.782,5.844,5.844,0,0,0,2.133,5.564h-8.594a3.561,3.561,0,0,1-1.124-.122,2.58,2.58,0,0,1-1.786-2.626v-14.027a2.777,2.777,0,0,1,.289-1.391,2.526,2.526,0,0,1,2.312-1.376c.874-.011,1.748,0,2.622,0h2.712q2.8,0,5.6-.008a2.557,2.557,0,0,1,2.5,1.971,3.479,3.479,0,0,1,.068.751c.01.7.008,1.391.008,2.087v4.395Zm-8.189-4.919v0h-5.07a.649.649,0,0,0-.569.408.675.675,0,0,0,.358.884.669.669,0,0,0,.318.051h9.92a.873.873,0,0,0,.263-.036.665.665,0,0,0,.445-.829.667.667,0,0,0-.648-.473Zm-2.985,4.757h2.867a.927.927,0,0,0,.2-.013.665.665,0,0,0,.529-.741.676.676,0,0,0-.668-.584h-4.93a.684.684,0,0,0-.652.42.667.667,0,0,0,.365.869.661.661,0,0,0,.238.049C-130.992-159.6-130.308-159.606-129.624-159.606Zm.006,1.468h-2.041a.671.671,0,0,0-.673.666.67.67,0,0,0,.666.673q2.042.005,4.081,0a.669.669,0,0,0,.631-.706.67.67,0,0,0-.623-.63c-.68-.008-1.36,0-2.04,0Z" transform="translate(134.57 168.648)" fill="#fff"/>
              <path id="Path_50829" data-name="Path 50829" d="M-113.627-152.327a4.539,4.539,0,0,1-4.645,4.433,4.541,4.541,0,0,1-4.433-4.646,4.541,4.541,0,0,1,4.646-4.433h.029A4.547,4.547,0,0,1-113.627-152.327Zm-6.229-1.315v1.866c0,.14.062.2.2.2h.937c.195,0,.243-.047.243-.241v-1.832c.278,0,.536,0,.8,0a.2.2,0,0,0,.159-.085.2.2,0,0,0-.049-.172c-.484-.493-.975-.983-1.464-1.469a.178.178,0,0,0-.252-.015l-.016.015c-.489.489-.983.976-1.464,1.468a.2.2,0,0,0-.05.172.206.206,0,0,0,.159.084c.226.01.453,0,.68,0l.118.007Zm3.38,2.4v-1.873c0-.135-.022-.156-.155-.156h-1.036c-.171,0-.19.019-.19.192v1.833c-.048,0-.084.005-.121.005-.227,0-.454-.005-.681,0a.215.215,0,0,0-.157.089.191.191,0,0,0,.046.163q.744.756,1.5,1.5c.1.1.114.1.22,0,.5-.5,1-.991,1.489-1.493a.2.2,0,0,0,.049-.172.208.208,0,0,0-.159-.084c-.262-.012-.522-.007-.8-.007Z" transform="translate(133.303 167.401)" fill="#fff"/>
            </g>
          </g>
        </g>
      </g>
    </g>
  </g>
</svg>
