<svg xmlns="http://www.w3.org/2000/svg" xmlns:xlink="http://www.w3.org/1999/xlink" width="15" height="10" viewBox="0 0 15 10">
  <defs>
    <clipPath id="clip-V10_w">
      <rect width="15" height="10"/>
    </clipPath>
  </defs>
  <g id="V10_w" clip-path="url(#clip-V10_w)">
    <g id="Group_5195" data-name="Group 5195" transform="translate(750.703 -10549.096)">
      <path id="Path_8006" data-name="Path 8006" d="M-909.4,10562v.916h1.131V10569l6.92-7h-2.132l-3.446,3.339V10562Z" transform="translate(160 -11.404)" fill="#fff"/>
      <path id="Path_9274" data-name="Path 9274" d="M2.438-4.295V0H1.515V-3.252a1.105,1.105,0,0,1-.18.127,1.86,1.86,0,0,1-.221.108,1.975,1.975,0,0,1-.243.082,1.776,1.776,0,0,1-.249.048v-.779a3.85,3.85,0,0,0,.68-.27,3.868,3.868,0,0,0,.577-.36ZM5.153.073q-1.5,0-1.5-2.106A2.866,2.866,0,0,1,4.059-3.7a1.352,1.352,0,0,1,1.176-.573Q6.7-4.271,6.7-2.13A2.822,2.822,0,0,1,6.3-.5,1.317,1.317,0,0,1,5.153.073Zm.041-3.639q-.6,0-.6,1.509,0,1.421.589,1.421T5.757-2.1Q5.757-3.565,5.194-3.565Z" transform="translate(-743.656 10557.331)" fill="#fff"/>
    </g>
  </g>
</svg>
