<svg xmlns="http://www.w3.org/2000/svg" xmlns:xlink="http://www.w3.org/1999/xlink" width="49.466" height="14" viewBox="0 0 49.466 14">
  <defs>
    <linearGradient id="linear-gradient" x1="0.111" y1="0.092" x2="0.91" y2="0.929" gradientUnits="objectBoundingBox">
      <stop offset="0" stop-color="#ffcd5b"/>
      <stop offset="1" stop-color="#f3ac0a"/>
    </linearGradient>
    <linearGradient id="linear-gradient-2" y1="0.5" x2="1" y2="0.5" gradientUnits="objectBoundingBox">
      <stop offset="0" stop-color="#fbd60a"/>
      <stop offset="1" stop-color="#f3ac0a"/>
    </linearGradient>
  </defs>
  <g id="å°_VIP12" transform="translate(-11085.944 5935.477)">
    <g id="Path_51735" data-name="Path 51735" transform="translate(11085.944 -5935.477)">
      <path id="Path_51736" data-name="Path 51736" d="M11128.444-5921.91h-35.466a6.542,6.542,0,0,1-6.534-6.534,6.541,6.541,0,0,1,6.534-6.533h35.466a6.541,6.541,0,0,1,6.534,6.533A6.542,6.542,0,0,1,11128.444-5921.91Z" transform="translate(-11085.978 5935.444)" fill="#fffbf2"/>
      <path id="Path_51737" data-name="Path 51737" d="M11092.944-5934.543a6.074,6.074,0,0,0-6.067,6.066,6.074,6.074,0,0,0,6.067,6.067h35.466a6.073,6.073,0,0,0,6.067-6.067,6.073,6.073,0,0,0-6.067-6.066h-35.466m0-.934h35.466a7,7,0,0,1,7,7,7,7,0,0,1-7,7h-35.466a7,7,0,0,1-7-7A7,7,0,0,1,11092.944-5935.477Z" transform="translate(-11085.944 5935.477)" fill="url(#linear-gradient)"/>
    </g>
    <g id="VIP10" transform="translate(11098.678 -5934.544)" style="isolation: isolate">
      <path id="Path_51759" data-name="Path 51759" d="M-6.2-5.4A15.161,15.161,0,0,1-8.4-1.3a11.006,11.006,0,0,1-.748-4.1h-1.705A13.585,13.585,0,0,0-9.521,0h1.8A19.451,19.451,0,0,0-4.493-5.4Zm3.916,0h-1.54L-4.769,0h1.54Zm.946,0L-2.283,0h1.54l.308-1.749H.159c1.43,0,2.882-.066,3.19-1.815S2.227-5.4.8-5.4ZM.61-2.871H-.237l.242-1.4H.852c.583.011,1.122,0,1,.7S1.193-2.882.61-2.871ZM4.3-5.159l-.154.88h.924L4.317,0h1.54L6.8-5.4H5.868Zm7.942,1.232c.22-1.232-.737-1.518-2.145-1.518a9.565,9.565,0,0,0-2.1.275L7.793-4a10.769,10.769,0,0,1,2.024-.264c.44,0,.836.055.781.4C10.389-2.7,7.375-1.969,7.111-.484L7.035,0h4.51l.209-1.188H9.323C10.071-1.694,11.984-2.475,12.238-3.927Z" transform="translate(12 9)" fill="#1f2022"/>
    </g>
    <path id="Path_51733" data-name="Path 51733" d="M11094.16-5930.665l.226.412a4.106,4.106,0,0,0,1.636,1.634l.411.226a.259.259,0,0,1,.1.353.264.264,0,0,1-.1.1l-.411.226a4.1,4.1,0,0,0-1.636,1.634l-.226.413a.261.261,0,0,1-.353.1.266.266,0,0,1-.1-.1l-.225-.413a4.106,4.106,0,0,0-1.636-1.634l-.412-.226a.26.26,0,0,1-.1-.353.261.261,0,0,1,.1-.1l.412-.226a4.112,4.112,0,0,0,1.636-1.634l.225-.412a.259.259,0,0,1,.353-.1A.251.251,0,0,1,11094.16-5930.665Z" transform="translate(-0.357 -0.311)" fill="url(#linear-gradient-2)"/>
    <path id="Path_51734" data-name="Path 51734" d="M11130.8-5930.665l.226.412a4.116,4.116,0,0,0,1.635,1.634l.413.226a.26.26,0,0,1,.1.353.264.264,0,0,1-.1.1l-.413.226a4.11,4.11,0,0,0-1.635,1.634l-.226.413a.26.26,0,0,1-.353.1.257.257,0,0,1-.1-.1l-.226-.413a4.11,4.11,0,0,0-1.635-1.634l-.413-.226a.26.26,0,0,1-.1-.353.261.261,0,0,1,.1-.1l.413-.226a4.116,4.116,0,0,0,1.635-1.634l.226-.412a.26.26,0,0,1,.354-.1A.247.247,0,0,1,11130.8-5930.665Z" transform="translate(-2.799 -0.311)" fill="url(#linear-gradient-2)"/>
  </g>
</svg>
