<svg xmlns="http://www.w3.org/2000/svg" xmlns:xlink="http://www.w3.org/1999/xlink" width="15" height="10" viewBox="0 0 15 10">
  <defs>
    <clipPath id="clip-V2_w">
      <rect width="15" height="10"/>
    </clipPath>
  </defs>
  <g id="V2_w" clip-path="url(#clip-V2_w)">
    <g id="Group_5210" data-name="Group 5210" transform="translate(752.403 -10549.096)">
      <path id="Path_8006" data-name="Path 8006" d="M-909.4,10562v.916h1.131V10569l6.92-7h-2.132l-3.446,3.339V10562Z" transform="translate(160 -11.404)" fill="#fff"/>
      <path id="Path_9280" data-name="Path 9280" d="M1.257-.768H3.038V0H.243V-.316A1.473,1.473,0,0,1,.352-.9a1.92,1.92,0,0,1,.272-.46,2.363,2.363,0,0,1,.359-.36q.195-.157.371-.283t.324-.252a1.845,1.845,0,0,0,.234-.239.908.908,0,0,0,.142-.24A.714.714,0,0,0,2.1-2.988.521.521,0,0,0,1.948-3.4a.677.677,0,0,0-.466-.138A1.565,1.565,0,0,0,.445-3.1v-.814a2.226,2.226,0,0,1,1.236-.354,1.826,1.826,0,0,1,.573.083,1.212,1.212,0,0,1,.429.239,1.018,1.018,0,0,1,.268.376,1.27,1.27,0,0,1,.092.494,1.392,1.392,0,0,1-.089.516,1.584,1.584,0,0,1-.237.41,2.153,2.153,0,0,1-.341.338q-.193.154-.4.3-.141.1-.271.2a2.569,2.569,0,0,0-.23.193,1.05,1.05,0,0,0-.158.186A.321.321,0,0,0,1.257-.768Z" transform="translate(-743.656 10557.331)" fill="#fff"/>
    </g>
  </g>
</svg>
