<svg xmlns="http://www.w3.org/2000/svg" xmlns:xlink="http://www.w3.org/1999/xlink" width="42" height="14" viewBox="0 0 42 14">
  <defs>
    <linearGradient id="linear-gradient" x1="0.071" y1="0.141" x2="0.918" y2="0.896" gradientUnits="objectBoundingBox">
      <stop offset="0" stop-color="#fbd60a"/>
      <stop offset="1" stop-color="#f3ac0a"/>
    </linearGradient>
    <linearGradient id="linear-gradient-2" x1="0.196" y1="0.209" x2="0.803" y2="0.853" xlink:href="#linear-gradient"/>
  </defs>
  <g id="å°_VIP3" transform="translate(-6037.902 -994)">
    <g id="Rectangle_62529" data-name="Rectangle 62529" transform="translate(6037.902 994)">
      <g id="Group_39763" data-name="Group 39763">
        <path id="Path_51744" data-name="Path 51744" d="M11120.222-5852.444h28a7,7,0,0,1,7,7h0a7,7,0,0,1-7,7h-28a7,7,0,0,1-7-7h0A7,7,0,0,1,11120.222-5852.444Z" transform="translate(-11113.222 5852.444)" fill="#fffbf2"/>
      </g>
      <g id="Group_39764" data-name="Group 39764">
        <path id="Path_51745" data-name="Path 51745" d="M11148.221-5838.444h-28a7.008,7.008,0,0,1-7-7,7.008,7.008,0,0,1,7-7h28a7.008,7.008,0,0,1,7,7A7.008,7.008,0,0,1,11148.221-5838.444Zm-28-13.066a6.073,6.073,0,0,0-6.066,6.067,6.074,6.074,0,0,0,6.066,6.067h28a6.075,6.075,0,0,0,6.067-6.067,6.074,6.074,0,0,0-6.067-6.067Z" transform="translate(-11113.222 5852.444)" fill="url(#linear-gradient)"/>
      </g>
    </g>
    <path id="Path_51733" data-name="Path 51733" d="M11119.6-5848.062l.227.411a4.108,4.108,0,0,0,1.635,1.635l.411.226a.259.259,0,0,1,.1.353h0a.267.267,0,0,1-.1.1l-.411.227a4.09,4.09,0,0,0-1.635,1.635l-.227.412a.261.261,0,0,1-.354.1.252.252,0,0,1-.1-.1l-.226-.412a4.1,4.1,0,0,0-1.635-1.635l-.412-.227a.256.256,0,0,1-.1-.352h0a.277.277,0,0,1,.1-.1l.412-.226a4.1,4.1,0,0,0,1.635-1.635l.226-.411a.258.258,0,0,1,.351-.1h0A.253.253,0,0,1,11119.6-5848.062Z" transform="translate(-5075.221 6846.563)" fill="url(#linear-gradient-2)"/>
    <path id="Path_51733-2" data-name="Path 51733" d="M11119.6-5848.062l.227.411a4.108,4.108,0,0,0,1.635,1.635l.411.226a.259.259,0,0,1,.1.353h0a.267.267,0,0,1-.1.1l-.411.227a4.09,4.09,0,0,0-1.635,1.635l-.227.412a.261.261,0,0,1-.354.1.252.252,0,0,1-.1-.1l-.226-.412a4.1,4.1,0,0,0-1.635-1.635l-.412-.227a.256.256,0,0,1-.1-.352h0a.277.277,0,0,1,.1-.1l.412-.226a4.1,4.1,0,0,0,1.635-1.635l.226-.411a.258.258,0,0,1,.351-.1h0A.253.253,0,0,1,11119.6-5848.062Z" transform="translate(-5045.722 6846.563)" fill="url(#linear-gradient-2)"/>
    <g id="VIP10" transform="translate(-4951.296 6817.286)" style="isolation: isolate">
      <path id="Path_51764" data-name="Path 51764" d="M-4.346-5.416A15.2,15.2,0,0,1-6.552-1.3,11.037,11.037,0,0,1-7.3-5.416h-1.71A13.623,13.623,0,0,0-7.677,0h1.809A19.506,19.506,0,0,0-2.636-5.416Zm3.927,0H-1.963L-2.912,0h1.544Zm.949,0L-.419,0H1.125l.309-1.754h.6c1.434,0,2.89-.066,3.2-1.82S4.1-5.416,2.669-5.416ZM2.482-2.879H1.633l.243-1.4h.849c.585.011,1.125,0,1,.706S3.067-2.89,2.482-2.879Zm7.865-1.059c.221-1.235-.816-1.522-2.228-1.522a7.968,7.968,0,0,0-1.941.276l-.2,1.169A9.3,9.3,0,0,1,7.843-4.28c.441,0,.893.055.838.4-.11.629-.695.629-1.644.629l-.165.938c1.026,0,1.633.044,1.522.684-.066.342-.563.507-1,.507A9.859,9.859,0,0,1,5.405-1.39L5.2-.221A8.779,8.779,0,0,0,7.258.055c1.412,0,2.548-.287,2.769-1.522a1.1,1.1,0,0,0-.75-1.28A1.436,1.436,0,0,0,10.347-3.938Z" transform="translate(11009.698 -5813.286)" fill="#1f2022"/>
    </g>
  </g>
</svg>
