<svg xmlns="http://www.w3.org/2000/svg" xmlns:xlink="http://www.w3.org/1999/xlink" width="15" height="10" viewBox="0 0 15 10">
  <defs>
    <clipPath id="clip-V3_w">
      <rect width="15" height="10"/>
    </clipPath>
  </defs>
  <g id="V3_w" clip-path="url(#clip-V3_w)">
    <g id="Group_5211" data-name="Group 5211" transform="translate(752.403 -10549.096)">
      <path id="Path_8006" data-name="Path 8006" d="M-909.4,10562v.916h1.131V10569l6.92-7h-2.132l-3.446,3.339V10562Z" transform="translate(160 -11.404)" fill="#fff"/>
      <path id="Path_9281" data-name="Path 9281" d="M.343-.138V-.943a1.626,1.626,0,0,0,.984.308.886.886,0,0,0,.552-.152.506.506,0,0,0,.2-.425.483.483,0,0,0-.245-.434A1.267,1.267,0,0,0,1.16-1.8H.771v-.709h.36q.82,0,.82-.545,0-.513-.63-.513a1.436,1.436,0,0,0-.82.272v-.756a2.266,2.266,0,0,1,1.031-.223,1.556,1.556,0,0,1,1,.29.923.923,0,0,1,.359.753A.979.979,0,0,1,2.06-2.2v.015a1.135,1.135,0,0,1,.7.324.913.913,0,0,1,.258.658A1.127,1.127,0,0,1,2.59-.27,1.862,1.862,0,0,1,1.4.073,2.3,2.3,0,0,1,.343-.138Z" transform="translate(-743.656 10557.331)" fill="#fff"/>
    </g>
  </g>
</svg>
