<svg xmlns="http://www.w3.org/2000/svg" xmlns:xlink="http://www.w3.org/1999/xlink" width="15" height="10" viewBox="0 0 15 10">
  <defs>
    <clipPath id="clip-V6_w">
      <rect width="15" height="10"/>
    </clipPath>
  </defs>
  <g id="V6_w" clip-path="url(#clip-V6_w)">
    <g id="Group_5199" data-name="Group 5199" transform="translate(752.404 -10548.596)">
      <path id="Path_8006" data-name="Path 8006" d="M-909.4,10562v.916h1.131V10569l6.92-7h-2.132l-3.446,3.339V10562Z" transform="translate(160 -11.404)" fill="#fff"/>
      <path id="Path_9278" data-name="Path 9278" d="M3.252-1.4a1.54,1.54,0,0,1-.108.58,1.416,1.416,0,0,1-.3.467,1.4,1.4,0,0,1-.46.311A1.481,1.481,0,0,1,1.8.073a1.471,1.471,0,0,1-.634-.132A1.28,1.28,0,0,1,.691-.441a1.788,1.788,0,0,1-.3-.614,3.033,3.033,0,0,1-.1-.823,3.389,3.389,0,0,1,.133-.983,2.257,2.257,0,0,1,.381-.754,1.711,1.711,0,0,1,.6-.485A1.782,1.782,0,0,1,2.2-4.271a2,2,0,0,1,.756.114v.773a1.386,1.386,0,0,0-.7-.182.974.974,0,0,0-.425.091.939.939,0,0,0-.327.258,1.247,1.247,0,0,0-.214.4,1.793,1.793,0,0,0-.083.526h.018A1.019,1.019,0,0,1,2.106-2.7a1.149,1.149,0,0,1,.472.094,1.023,1.023,0,0,1,.36.265,1.216,1.216,0,0,1,.231.412A1.642,1.642,0,0,1,3.252-1.4Zm-.905.059q0-.677-.554-.677a.543.543,0,0,0-.229.047.508.508,0,0,0-.176.132.6.6,0,0,0-.113.2.789.789,0,0,0-.04.256.991.991,0,0,0,.041.29.77.77,0,0,0,.116.236.573.573,0,0,0,.177.16A.452.452,0,0,0,1.8-.636a.5.5,0,0,0,.227-.051A.508.508,0,0,0,2.2-.831a.66.66,0,0,0,.11-.223A1.016,1.016,0,0,0,2.347-1.339Z" transform="translate(-743.656 10557.331)" fill="#fff"/>
    </g>
  </g>
</svg>
