<svg xmlns="http://www.w3.org/2000/svg" xmlns:xlink="http://www.w3.org/1999/xlink" width="42" height="14" viewBox="0 0 42 14">
  <defs>
    <linearGradient id="linear-gradient" x1="0.071" y1="0.141" x2="0.918" y2="0.896" gradientUnits="objectBoundingBox">
      <stop offset="0" stop-color="#fbd60a"/>
      <stop offset="1" stop-color="#f3ac0a"/>
    </linearGradient>
    <linearGradient id="linear-gradient-2" x1="0.196" y1="0.209" x2="0.803" y2="0.853" xlink:href="#linear-gradient"/>
  </defs>
  <g id="å°_VIP8" transform="translate(-6037.902 -994)">
    <g id="Rectangle_62529" data-name="Rectangle 62529" transform="translate(6037.902 994)">
      <g id="Group_39763" data-name="Group 39763">
        <path id="Path_51744" data-name="Path 51744" d="M11120.222-5852.444h28a7,7,0,0,1,7,7h0a7,7,0,0,1-7,7h-28a7,7,0,0,1-7-7h0A7,7,0,0,1,11120.222-5852.444Z" transform="translate(-11113.222 5852.444)" fill="#fffbf2"/>
      </g>
      <g id="Group_39764" data-name="Group 39764">
        <path id="Path_51745" data-name="Path 51745" d="M11148.221-5838.444h-28a7.008,7.008,0,0,1-7-7,7.008,7.008,0,0,1,7-7h28a7.008,7.008,0,0,1,7,7A7.008,7.008,0,0,1,11148.221-5838.444Zm-28-13.066a6.073,6.073,0,0,0-6.066,6.067,6.074,6.074,0,0,0,6.066,6.067h28a6.075,6.075,0,0,0,6.067-6.067,6.074,6.074,0,0,0-6.067-6.067Z" transform="translate(-11113.222 5852.444)" fill="url(#linear-gradient)"/>
      </g>
    </g>
    <path id="Path_51733" data-name="Path 51733" d="M11119.6-5848.062l.227.411a4.108,4.108,0,0,0,1.635,1.635l.411.226a.259.259,0,0,1,.1.353h0a.267.267,0,0,1-.1.1l-.411.227a4.09,4.09,0,0,0-1.635,1.635l-.227.412a.261.261,0,0,1-.354.1.252.252,0,0,1-.1-.1l-.226-.412a4.1,4.1,0,0,0-1.635-1.635l-.412-.227a.256.256,0,0,1-.1-.352h0a.277.277,0,0,1,.1-.1l.412-.226a4.1,4.1,0,0,0,1.635-1.635l.226-.411a.258.258,0,0,1,.351-.1h0A.253.253,0,0,1,11119.6-5848.062Z" transform="translate(-5075.221 6846.563)" fill="url(#linear-gradient-2)"/>
    <path id="Path_51733-2" data-name="Path 51733" d="M11119.6-5848.062l.227.411a4.108,4.108,0,0,0,1.635,1.635l.411.226a.259.259,0,0,1,.1.353h0a.267.267,0,0,1-.1.1l-.411.227a4.09,4.09,0,0,0-1.635,1.635l-.227.412a.261.261,0,0,1-.354.1.252.252,0,0,1-.1-.1l-.226-.412a4.1,4.1,0,0,0-1.635-1.635l-.412-.227a.256.256,0,0,1-.1-.352h0a.277.277,0,0,1,.1-.1l.412-.226a4.1,4.1,0,0,0,1.635-1.635l.226-.411a.258.258,0,0,1,.351-.1h0A.253.253,0,0,1,11119.6-5848.062Z" transform="translate(-5045.722 6846.563)" fill="url(#linear-gradient-2)"/>
    <g id="VIP10" transform="translate(-4951.296 6817.286)" style="isolation: isolate">
      <path id="Path_51769" data-name="Path 51769" d="M-4.5-5.416A15.2,15.2,0,0,1-6.707-1.3a11.037,11.037,0,0,1-.75-4.114h-1.71A13.623,13.623,0,0,0-7.832,0h1.809A19.506,19.506,0,0,0-2.791-5.416Zm3.927,0H-2.118L-3.067,0h1.544Zm.949,0L-.574,0H.971L1.28-1.754h.6c1.434,0,2.89-.066,3.2-1.82S3.949-5.416,2.515-5.416ZM2.327-2.879H1.478l.243-1.4H2.57c.585.011,1.125,0,1,.706S2.912-2.89,2.327-2.879Zm8.1-1.048c.21-1.18-1-1.533-2-1.533C7.3-5.46,6.089-5.1,5.868-3.817c-.088.463.232.772.673,1.015A1.853,1.853,0,0,0,5.162-1.511C4.975-.463,5.813.055,7.457.055s2.658-.518,2.857-1.677c.11-.629-.4-.982-1-1.246A1.507,1.507,0,0,0,10.424-3.927ZM8.67-1.555c-.066.386-.607.485-1.015.485s-.927-.11-.86-.485c.077-.441.408-.662.882-.794C8.262-2.129,8.736-1.908,8.67-1.555ZM7.49-3.85c.066-.353.4-.474.739-.474s.629.121.563.474a.952.952,0,0,1-.529.607C7.8-3.409,7.446-3.585,7.49-3.85Z" transform="translate(11009.698 -5813.286)" fill="#1f2022"/>
    </g>
  </g>
</svg>
