<svg xmlns="http://www.w3.org/2000/svg" xmlns:xlink="http://www.w3.org/1999/xlink" width="15" height="10" viewBox="0 0 15 10">
  <defs>
    <clipPath id="clip-V8_w">
      <rect width="15" height="10"/>
    </clipPath>
  </defs>
  <g id="V8_w" clip-path="url(#clip-V8_w)">
    <g id="Group_5197" data-name="Group 5197" transform="translate(752.404 -10549.096)">
      <path id="Path_8006" data-name="Path 8006" d="M-909.4,10562v.916h1.131V10569l6.92-7h-2.132l-3.446,3.339V10562Z" transform="translate(160 -11.404)" fill="#fff"/>
      <path id="Path_9276" data-name="Path 9276" d="M.234-1.131a1.119,1.119,0,0,1,.051-.338,1.025,1.025,0,0,1,.154-.3A1.132,1.132,0,0,1,.7-2.02a1.377,1.377,0,0,1,.362-.18,1.3,1.3,0,0,1-.5-.406.927.927,0,0,1-.176-.549.993.993,0,0,1,.1-.445,1.08,1.08,0,0,1,.28-.354,1.309,1.309,0,0,1,.426-.233,1.682,1.682,0,0,1,.541-.083,1.715,1.715,0,0,1,.548.083,1.34,1.34,0,0,1,.429.231,1.05,1.05,0,0,1,.28.35.981.981,0,0,1,.1.439.872.872,0,0,1-.187.543,1.4,1.4,0,0,1-.519.4,1.413,1.413,0,0,1,.36.18,1.16,1.16,0,0,1,.261.25,1.026,1.026,0,0,1,.158.306,1.127,1.127,0,0,1,.053.344,1.1,1.1,0,0,1-.108.491A1.117,1.117,0,0,1,2.8-.268a1.445,1.445,0,0,1-.472.248,1.972,1.972,0,0,1-.6.088,1.983,1.983,0,0,1-.6-.086A1.44,1.44,0,0,1,.655-.264,1.135,1.135,0,0,1,.346-.643,1.069,1.069,0,0,1,.234-1.131ZM1.11-1.21a.714.714,0,0,0,.044.258.527.527,0,0,0,.126.193.563.563,0,0,0,.195.122.715.715,0,0,0,.253.042.676.676,0,0,0,.248-.044.581.581,0,0,0,.195-.123A.56.56,0,0,0,2.3-.955a.666.666,0,0,0,.047-.255A.663.663,0,0,0,2.3-1.45a.571.571,0,0,0-.126-.2.622.622,0,0,0-.195-.133.621.621,0,0,0-.253-.05.66.66,0,0,0-.246.045.563.563,0,0,0-.2.129.608.608,0,0,0-.129.2A.65.65,0,0,0,1.11-1.21Zm.129-1.86a.555.555,0,0,0,.04.209.541.541,0,0,0,.107.17.489.489,0,0,0,.16.113.474.474,0,0,0,.195.041.471.471,0,0,0,.2-.041.5.5,0,0,0,.16-.114.549.549,0,0,0,.108-.17.544.544,0,0,0,.04-.208.582.582,0,0,0-.038-.212.508.508,0,0,0-.107-.17.505.505,0,0,0-.161-.113.481.481,0,0,0-.2-.041.481.481,0,0,0-.2.042.491.491,0,0,0-.158.114.513.513,0,0,0-.1.17A.594.594,0,0,0,1.239-3.07Z" transform="translate(-743.656 10557.331)" fill="#fff"/>
    </g>
  </g>
</svg>
