<svg xmlns="http://www.w3.org/2000/svg" xmlns:xlink="http://www.w3.org/1999/xlink" width="42" height="14" viewBox="0 0 42 14">
  <defs>
    <linearGradient id="linear-gradient" x1="0.071" y1="0.141" x2="0.918" y2="0.896" gradientUnits="objectBoundingBox">
      <stop offset="0" stop-color="#fbd60a"/>
      <stop offset="1" stop-color="#f3ac0a"/>
    </linearGradient>
    <linearGradient id="linear-gradient-2" x1="0.196" y1="0.209" x2="0.803" y2="0.853" xlink:href="#linear-gradient"/>
  </defs>
  <g id="å°_VIP9" transform="translate(-6037.902 -994)">
    <g id="Rectangle_62529" data-name="Rectangle 62529" transform="translate(6037.902 994)">
      <g id="Group_39763" data-name="Group 39763">
        <path id="Path_51744" data-name="Path 51744" d="M11120.222-5852.444h28a7,7,0,0,1,7,7h0a7,7,0,0,1-7,7h-28a7,7,0,0,1-7-7h0A7,7,0,0,1,11120.222-5852.444Z" transform="translate(-11113.222 5852.444)" fill="#fffbf2"/>
      </g>
      <g id="Group_39764" data-name="Group 39764">
        <path id="Path_51745" data-name="Path 51745" d="M11148.221-5838.444h-28a7.008,7.008,0,0,1-7-7,7.008,7.008,0,0,1,7-7h28a7.008,7.008,0,0,1,7,7A7.008,7.008,0,0,1,11148.221-5838.444Zm-28-13.066a6.073,6.073,0,0,0-6.066,6.067,6.074,6.074,0,0,0,6.066,6.067h28a6.075,6.075,0,0,0,6.067-6.067,6.074,6.074,0,0,0-6.067-6.067Z" transform="translate(-11113.222 5852.444)" fill="url(#linear-gradient)"/>
      </g>
    </g>
    <path id="Path_51733" data-name="Path 51733" d="M11119.6-5848.062l.227.411a4.108,4.108,0,0,0,1.635,1.635l.411.226a.259.259,0,0,1,.1.353h0a.267.267,0,0,1-.1.1l-.411.227a4.09,4.09,0,0,0-1.635,1.635l-.227.412a.261.261,0,0,1-.354.1.252.252,0,0,1-.1-.1l-.226-.412a4.1,4.1,0,0,0-1.635-1.635l-.412-.227a.256.256,0,0,1-.1-.352h0a.277.277,0,0,1,.1-.1l.412-.226a4.1,4.1,0,0,0,1.635-1.635l.226-.411a.258.258,0,0,1,.351-.1h0A.253.253,0,0,1,11119.6-5848.062Z" transform="translate(-5075.221 6846.563)" fill="url(#linear-gradient-2)"/>
    <path id="Path_51733-2" data-name="Path 51733" d="M11119.6-5848.062l.227.411a4.108,4.108,0,0,0,1.635,1.635l.411.226a.259.259,0,0,1,.1.353h0a.267.267,0,0,1-.1.1l-.411.227a4.09,4.09,0,0,0-1.635,1.635l-.227.412a.261.261,0,0,1-.354.1.252.252,0,0,1-.1-.1l-.226-.412a4.1,4.1,0,0,0-1.635-1.635l-.412-.227a.256.256,0,0,1-.1-.352h0a.277.277,0,0,1,.1-.1l.412-.226a4.1,4.1,0,0,0,1.635-1.635l.226-.411a.258.258,0,0,1,.351-.1h0A.253.253,0,0,1,11119.6-5848.062Z" transform="translate(-5045.722 6846.563)" fill="url(#linear-gradient-2)"/>
    <g id="VIP10" transform="translate(-4951.296 6817.286)" style="isolation: isolate">
      <path id="Path_51770" data-name="Path 51770" d="M-4.467-5.416A15.2,15.2,0,0,1-6.674-1.3a11.037,11.037,0,0,1-.75-4.114h-1.71A13.623,13.623,0,0,0-7.8,0H-5.99A19.506,19.506,0,0,0-2.758-5.416Zm3.927,0H-2.085L-3.033,0h1.544Zm.949,0L-.541,0H1l.309-1.754h.6c1.434,0,2.89-.066,3.2-1.82S3.982-5.416,2.548-5.416ZM2.361-2.879H1.511l.243-1.4H2.6c.585.011,1.125,0,1,.706S2.945-2.89,2.361-2.879ZM7.28-1.125A9.173,9.173,0,0,1,5.372-1.39L5.162-.221A8.041,8.041,0,0,0,7.148.055c2.846,0,3.144-1.776,3.342-2.923C10.8-4.611,10.237-5.46,8.416-5.46c-1.765,0-2.647.684-2.857,1.886-.221,1.224.563,1.754,2,1.754a2.991,2.991,0,0,0,1.4-.408C8.747-1.445,8.24-1.125,7.28-1.125Zm.673-1.743c-.695,0-1.026-.188-.927-.706s.507-.816,1.2-.816a.813.813,0,0,1,.882.783A1.2,1.2,0,0,1,7.953-2.868Z" transform="translate(11009.698 -5813.286)" fill="#1f2022"/>
    </g>
  </g>
</svg>
