<svg xmlns="http://www.w3.org/2000/svg" xmlns:xlink="http://www.w3.org/1999/xlink" width="15" height="10" viewBox="0 0 15 10">
  <defs>
    <clipPath id="clip-V9_w">
      <rect width="15" height="10"/>
    </clipPath>
  </defs>
  <g id="V9_w" clip-path="url(#clip-V9_w)">
    <g id="Group_5196" data-name="Group 5196" transform="translate(752.403 -10549.096)">
      <path id="Path_8006" data-name="Path 8006" d="M-909.4,10562v.916h1.131V10569l6.92-7h-2.132l-3.446,3.339V10562Z" transform="translate(160 -11.404)" fill="#fff"/>
      <path id="Path_9275" data-name="Path 9275" d="M3.185-2.3a3.727,3.727,0,0,1-.123,1A2.146,2.146,0,0,1,2.7-.557a1.585,1.585,0,0,1-.576.467,1.764,1.764,0,0,1-.771.163A2.189,2.189,0,0,1,.469-.091V-.853a1.422,1.422,0,0,0,.8.217.917.917,0,0,0,.747-.325,1.451,1.451,0,0,0,.272-.94l-.018-.006a.951.951,0,0,1-.847.413,1.162,1.162,0,0,1-.476-.1,1.144,1.144,0,0,1-.378-.268,1.225,1.225,0,0,1-.249-.409,1.469,1.469,0,0,1-.089-.521,1.619,1.619,0,0,1,.108-.6,1.382,1.382,0,0,1,.3-.469,1.338,1.338,0,0,1,.467-.3,1.639,1.639,0,0,1,.6-.107,1.382,1.382,0,0,1,.615.133,1.293,1.293,0,0,1,.464.385,1.8,1.8,0,0,1,.293.618A3.132,3.132,0,0,1,3.185-2.3ZM2.25-2.795a1.089,1.089,0,0,0-.041-.3.8.8,0,0,0-.114-.245.556.556,0,0,0-.179-.163.46.46,0,0,0-.231-.06.471.471,0,0,0-.221.053.539.539,0,0,0-.174.145.687.687,0,0,0-.114.221.913.913,0,0,0-.041.278.951.951,0,0,0,.041.292.622.622,0,0,0,.116.215.485.485,0,0,0,.18.133.587.587,0,0,0,.234.045.5.5,0,0,0,.223-.048.536.536,0,0,0,.171-.13.59.59,0,0,0,.111-.193A.713.713,0,0,0,2.25-2.795Z" transform="translate(-743.656 10557.331)" fill="#fff"/>
    </g>
  </g>
</svg>
