<svg xmlns="http://www.w3.org/2000/svg" xmlns:xlink="http://www.w3.org/1999/xlink" width="24" height="24" viewBox="0 0 24 24">
  <defs>
    <clipPath id="clip-path">
      <rect id="Rectangle_55757" data-name="Rectangle 55757" width="24" height="24" transform="translate(0 0)" fill="#f3ac0a"/>
    </clipPath>
    <linearGradient id="linear-gradient" x1="0.5" x2="0.5" y2="1.532" gradientUnits="objectBoundingBox">
      <stop offset="0" stop-color="#f3ac0a"/>
      <stop offset="1" stop-color="#7a5605"/>
    </linearGradient>
    <clipPath id="clip-我的_認證">
      <rect width="24" height="24"/>
    </clipPath>
  </defs>
  <g id="我的_認證" clip-path="url(#clip-我的_認證)">
    <g id="我的_游戏收藏" transform="translate(410.963 -182.074)">
      <g id="登入注册_密码" transform="translate(-410.963 182.074)">
        <g id="密码" clip-path="url(#clip-path)">
          <path id="Path_50926" data-name="Path 50926" d="M26.625,17.453a3.666,3.666,0,0,1,0-2.786l.122-.293a3.676,3.676,0,0,0-1.979-4.789L24.5,9.463A3.578,3.578,0,0,1,22.52,7.483l-.1-.244A3.724,3.724,0,0,0,17.609,5.26l-.244.1a3.728,3.728,0,0,1-2.81,0l-.22-.1a3.689,3.689,0,0,0-4.765,2l-.1.2A3.578,3.578,0,0,1,7.493,9.438l-.22.1a3.685,3.685,0,0,0-1.955,4.789l.1.22a3.666,3.666,0,0,1,0,2.786l-.1.269A3.62,3.62,0,0,0,7.3,22.364l.244.1a3.578,3.578,0,0,1,1.979,1.979l.122.269a3.651,3.651,0,0,0,4.765,2l.269-.122a3.728,3.728,0,0,1,2.81,0l.22.1A3.676,3.676,0,0,0,22.5,24.71l.1-.2a3.578,3.578,0,0,1,1.979-1.979l.2-.073a3.647,3.647,0,0,0,1.979-4.789Zm-11.631,3.3h0l-4.765-4.007L11.7,15.009l3.03,2.566,5.351-6.353,1.735,1.466-6.817,8.064Z" transform="translate(-4.033 -3.987)" fill="url(#linear-gradient)"/>
        </g>
      </g>
    </g>
  </g>
</svg>
