<svg xmlns="http://www.w3.org/2000/svg" xmlns:xlink="http://www.w3.org/1999/xlink" width="30" height="30" viewBox="0 0 30 30">
  <defs>
    <linearGradient id="linear-gradient" x1="0.134" y1="0.163" x2="0.878" y2="0.943" gradientUnits="objectBoundingBox">
      <stop offset="0" stop-color="#f66234"/>
      <stop offset="1" stop-color="#df804f"/>
    </linearGradient>
    <clipPath id="clip-path">
      <rect id="Rectangle_57014" data-name="Rectangle 57014" width="24" height="24" fill="#f3ac0a"/>
    </clipPath>
    <clipPath id="clip-path-2">
      <rect id="Rectangle_61822" data-name="Rectangle 61822" width="22" height="22" fill="#f3ac0a" stroke="#707070" stroke-width="1"/>
    </clipPath>
  </defs>
  <g id="钱包管理" transform="translate(-302 -212)">
    <rect id="Rectangle_57544" data-name="Rectangle 57544" width="30" height="30" rx="5" transform="translate(302 212)" fill="url(#linear-gradient)"/>
    <g id="我的优惠" transform="translate(305 215)" clip-path="url(#clip-path)">
      <g id="余额" transform="translate(1 1)" clip-path="url(#clip-path-2)">
        <g id="noun_Purse_1614242" transform="translate(0.917 2.682)">
          <g id="Group_37979" data-name="Group 37979" transform="translate(0)">
            <path id="Path_49632" data-name="Path 49632" d="M11.512,969.362a1.008,1.008,0,0,0,0,2.017H27.142v-2.017ZM10,971.7v13.038A1.258,1.258,0,0,0,11.26,986H28.906a1.258,1.258,0,0,0,1.26-1.26V982.47H22.352a1.269,1.269,0,0,1-1.26-1.26v-4.033a1.269,1.269,0,0,1,1.26-1.26h7.815v-2.269a1.258,1.258,0,0,0-1.26-1.26l-17.63-.016A2.017,2.017,0,0,1,10,971.7Zm12.352,5.225a.241.241,0,0,0-.252.252v4.033a.241.241,0,0,0,.252.252h7.815v-4.538Zm2.521,1.513a.753.753,0,1,1-.535.22.756.756,0,0,1,.535-.22Z" transform="translate(-10 -969.362)" fill="#fff"/>
          </g>
        </g>
      </g>
    </g>
  </g>
</svg>
