<svg xmlns="http://www.w3.org/2000/svg" xmlns:xlink="http://www.w3.org/1999/xlink" width="30" height="30" viewBox="0 0 30 30">
  <defs>
    <linearGradient id="linear-gradient" x1="0.061" y1="0.053" x2="0.935" y2="0.927" gradientUnits="objectBoundingBox">
      <stop offset="0" stop-color="#0e88f5"/>
      <stop offset="1" stop-color="#4fa1df"/>
    </linearGradient>
    <clipPath id="clip-path">
      <rect id="Rectangle_62513" data-name="Rectangle 62513" width="24" height="24" transform="translate(5974 1163)" fill="#fff" stroke="#707070" stroke-width="1"/>
    </clipPath>
  </defs>
  <g id="马上提现" transform="translate(-129 -212)">
    <path id="Path_51713" data-name="Path 51713" d="M5,0H25a5,5,0,0,1,5,5V25a5,5,0,0,1-5,5H5a5,5,0,0,1-5-5V5A5,5,0,0,1,5,0Z" transform="translate(129 212)" fill="url(#linear-gradient)"/>
    <g id="Mask_Group_748" data-name="Mask Group 748" transform="translate(-5841 -948)" clip-path="url(#clip-path)">
      <g id="Mask_Group_742" data-name="Mask Group 742" transform="translate(6036.816 1331.885)">
        <g id="Group_39738" data-name="Group 39738" transform="translate(-61.816 -164.964)">
          <path id="Path_51709" data-name="Path 51709" d="M-47.754-154.29a4.634,4.634,0,0,1,.675-1.091,4.559,4.559,0,0,1,3.551-1.716,4.444,4.444,0,0,1,1.32.22v-6.294a1.65,1.65,0,0,0-1.493-1.786,1.749,1.749,0,0,0-.2-.006H-60.023a1.786,1.786,0,0,0-1.793,1.776v12.164a1.785,1.785,0,0,0,1.775,1.793H-47.3a.265.265,0,0,0,.268-.262.262.262,0,0,0-.056-.166,4.513,4.513,0,0,1-1.017-2.86A4.579,4.579,0,0,1-47.754-154.29Zm.871-6.49v-1.091a.682.682,0,0,1,.668-.694H-45.1a.682.682,0,0,1,.694.669v1.116a.68.68,0,0,1-.667.694h-1.119a.682.682,0,0,1-.694-.668h0Zm-6.44,7.87h-6a.7.7,0,0,1-.7-.7h0a.7.7,0,0,1,.7-.7h6a.7.7,0,0,1,.7.7h0a.7.7,0,0,1-.692.7Zm1.98-2.693h-7.979a.7.7,0,0,1-.7-.7h0a.7.7,0,0,1,.7-.7h7.979a.7.7,0,0,1,.7.7h0a.7.7,0,0,1-.689.7Z" transform="translate(61.816 164.964)" fill="#fff"/>
          <path id="Path_51710" data-name="Path 51710" d="M-48.557-153.31A3.708,3.708,0,0,0-44.85-149.6a3.678,3.678,0,0,0,2.168-.712,3.694,3.694,0,0,0,1.54-3,3.687,3.687,0,0,0-.289-1.437,3.728,3.728,0,0,0-.55-.88,3.688,3.688,0,0,0-2.872-1.389,3.693,3.693,0,0,0-1.156.2A3.7,3.7,0,0,0-48.557-153.31Zm1.922-.812a.161.161,0,0,1,.158-.158H-45.2v-.835a.158.158,0,0,1,.16-.158h.036a.174.174,0,0,1,.075.035l.81.73.88.8a.539.539,0,0,1,.039.761.423.423,0,0,1-.039.039l-1.086.98-.606.55a.163.163,0,0,1-.229-.012.162.162,0,0,1-.041-.108v-.834h-1.275a.159.159,0,0,1-.158-.16Z" transform="translate(63.142 165.759)" fill="#fff"/>
        </g>
      </g>
    </g>
  </g>
</svg>
