<svg xmlns="http://www.w3.org/2000/svg" xmlns:xlink="http://www.w3.org/1999/xlink" width="24" height="24" viewBox="0 0 24 24">
  <defs>
    <clipPath id="clip-path">
      <rect id="Rectangle_57206" data-name="Rectangle 57206" width="24" height="24" transform="translate(-409 -31)" fill="#fff" stroke="#707070" stroke-width="1"/>
    </clipPath>
    <clipPath id="clip-我的">
      <rect width="24" height="24"/>
    </clipPath>
  </defs>
  <g id="我的" clip-path="url(#clip-我的)">
    <g id="Mask_Group_46" data-name="Mask Group 46" transform="translate(409 31)" clip-path="url(#clip-path)">
      <g id="icons8-user-male" transform="translate(-406.002 -29.8)">
        <path id="Path_8257" data-name="Path 8257" d="M24.588,43.5a.636.636,0,0,1-.337-.089A.677.677,0,0,1,24,42.5a10.28,10.28,0,0,1,17.828,0,.682.682,0,0,1-.247.916.69.69,0,0,1-.92-.24,8.928,8.928,0,0,0-15.493,0,.671.671,0,0,1-.583.329ZM35.972,23.508l-.09-.134A3.528,3.528,0,0,0,33.031,21.9H31.123a5.152,5.152,0,0,0-5.16,5.137h0a.66.66,0,0,0,.673.67h1.212c2.582,0,5.209,0,7.1-1.68v.023a2.554,2.554,0,0,0,.247-.24.674.674,0,0,1,.988.916l-.314.313a.576.576,0,0,0,.2.938h0a2.579,2.579,0,0,0,.72.156.678.678,0,0,1,.606.67v1.519a4.48,4.48,0,1,1-8.959.112.674.674,0,0,0-1.348-.023,5.843,5.843,0,0,0,11.676.29V26.614a3.127,3.127,0,0,0-2.789-3.106Z" transform="translate(-23.916 -21.9)" fill="#0a4273"/>
      </g>
    </g>
  </g>
</svg>
