<svg xmlns="http://www.w3.org/2000/svg" xmlns:xlink="http://www.w3.org/1999/xlink" width="24" height="24" viewBox="0 0 24 24">
  <defs>
    <clipPath id="clip-path">
      <rect id="Rectangle_62262" data-name="Rectangle 62262" width="24" height="24" fill="#ffb83d"/>
    </clipPath>
    <clipPath id="clip-path-2">
      <rect id="Rectangle_57537" data-name="Rectangle 57537" width="24" height="24" fill="#ffb83d" stroke="#707070" stroke-width="1"/>
    </clipPath>
  </defs>
  <g id="footer_赛程_选中" clip-path="url(#clip-path)">
    <g id="Mask_Group_424" data-name="Mask Group 424" clip-path="url(#clip-path-2)">
      <g id="Group_37930" data-name="Group 37930" transform="translate(0.603 1.2)">
        <path id="Path_47287" data-name="Path 47287" d="M-95.587-69.413v-1.739c-.626-.186-1.249-.326-1.837-.553A6.974,6.974,0,0,1-100.8-74.46a.514.514,0,0,0-.413-.254,5.523,5.523,0,0,1-4.868-5.378,10.433,10.433,0,0,1,.05-1.662,1.976,1.976,0,0,1,1.959-1.655c.681-.009,1.363,0,2.075,0V-84.74a.89.89,0,0,1,.252-.756.89.89,0,0,1,.757-.251h12.55a.9.9,0,0,1,.769.257.9.9,0,0,1,.249.771c0,.422,0,.852,0,1.31.662,0,1.3.006,1.932,0a1.924,1.924,0,0,1,1.676.755,2.165,2.165,0,0,1,.445,1.031,7.523,7.523,0,0,1-.216,3.058,5.468,5.468,0,0,1-4.64,3.871.6.6,0,0,0-.365.22,7.277,7.277,0,0,1-4.963,3.213c-.072.013-.143.026-.211.042a.328.328,0,0,0-.057.026v1.778h1.357a3.311,3.311,0,0,1,1.582.369,3.143,3.143,0,0,1,1.653,3.36,2,2,0,0,1-1.888,1.514c-2.388.014-4.775.02-7.163,0a2.054,2.054,0,0,1-1.554-.8,2.054,2.054,0,0,1-.372-1.709A3.208,3.208,0,0,1-97-69.411C-96.543-69.417-96.082-69.413-95.587-69.413Zm-6.428-12.252H-104a.3.3,0,0,0-.249.092.3.3,0,0,0-.08.254c0,.382-.006.765,0,1.146a3.732,3.732,0,0,0,1.231,2.759,3.405,3.405,0,0,0,1.319.777,30.386,30.386,0,0,1-.23-5.028Zm14.383,5.029a1.872,1.872,0,0,0,.2-.062A3.78,3.78,0,0,0-85.281-79a6.815,6.815,0,0,0,.187-2.407.349.349,0,0,0-.235-.247c-.688-.02-1.371-.012-2.069-.012a30.035,30.035,0,0,1-.231,5.024Z" transform="translate(106.093 85.757)" fill="#ffb83d"/>
      </g>
    </g>
  </g>
</svg>
