<svg xmlns="http://www.w3.org/2000/svg" xmlns:xlink="http://www.w3.org/1999/xlink" width="24" height="24" viewBox="0 0 24 24">
  <defs>
    <clipPath id="clip-path">
      <rect id="Rectangle_62260" data-name="Rectangle 62260" width="24" height="24" transform="translate(2168 702)" fill="#fff4d9" stroke="#707070" stroke-width="1"/>
    </clipPath>
  </defs>
  <g id="footer_财务" transform="translate(-2168 -702)" clip-path="url(#clip-path)">
    <g id="Group_39233" data-name="Group 39233" transform="translate(2169 703.27)">
      <g id="Mask_Group_425" data-name="Mask Group 425" transform="translate(0 0)">
        <g id="Group_38226" data-name="Group 38226">
          <g id="Path_50956" data-name="Path 50956" transform="translate(0.036)">
            <path id="Path_51350" data-name="Path 51350" d="M-841.084,69.212c-.207,0-.388-.006-.576-.013a17.7,17.7,0,0,1-4.484-.713,9.6,9.6,0,0,1-2.148-.848,6.678,6.678,0,0,1-1.5-1.184,2.93,2.93,0,0,1-.815-2,2.962,2.962,0,0,1,.784-2.011,6.817,6.817,0,0,1,2.711-1.776,14.637,14.637,0,0,1,3.538-.862,20.737,20.737,0,0,1,2.346-.162l.066-.006a18.379,18.379,0,0,1,5.54.85,8.179,8.179,0,0,1,2.406,1.261,3.639,3.639,0,0,1,.9.858,3.023,3.023,0,0,1,.444,2.728,3.454,3.454,0,0,1-1.323,1.754,9.889,9.889,0,0,1-3.146,1.5,15.757,15.757,0,0,1-2.1.378c-.625.077-1.355.164-2.085.227C-840.691,69.2-840.875,69.212-841.084,69.212Zm-.016-8.441h-.062a20.05,20.05,0,0,0-2.279.149,13.523,13.523,0,0,0-3.267.8,5.706,5.706,0,0,0-2.271,1.478,1.787,1.787,0,0,0,.016,2.477,5.433,5.433,0,0,0,1.242.98,8.5,8.5,0,0,0,1.9.742,16.532,16.532,0,0,0,4.181.672c.158.008.313.012.468.012q.283,0,.564-.018c.682-.059,1.363-.139,2.044-.224a13.965,13.965,0,0,0,1.939-.348,8.691,8.691,0,0,0,2.787-1.333,2.333,2.333,0,0,0,.9-1.182,1.888,1.888,0,0,0-.295-1.731,2.626,2.626,0,0,0-.645-.59,7.034,7.034,0,0,0-2.085-1.09,17.154,17.154,0,0,0-5.136-.8Z" transform="translate(850.605 -59.632)" fill="#fff4d9"/>
            <path id="Path_51350-2" data-name="Path 51350" d="M-841.164,60.668a20.117,20.117,0,0,0-2.29.15,13.63,13.63,0,0,0-3.291.8,5.772,5.772,0,0,0-2.309,1.5,1.892,1.892,0,0,0,.017,2.617,5.6,5.6,0,0,0,1.264,1,8.682,8.682,0,0,0,1.926.752,16.6,16.6,0,0,0,4.2.675,8.936,8.936,0,0,0,1.042-.006c.685-.059,1.367-.139,2.049-.224a14.177,14.177,0,0,0,1.952-.351,8.805,8.805,0,0,0,2.821-1.349A2.423,2.423,0,0,0-832.842,65a1.99,1.99,0,0,0-.31-1.825,2.727,2.727,0,0,0-.671-.614,7.182,7.182,0,0,0-2.108-1.1,17.29,17.29,0,0,0-5.208-.8h-.022m0-.929h.023a18.221,18.221,0,0,1,5.487.846,8.021,8.021,0,0,1,2.376,1.245l.035.026a3.423,3.423,0,0,1,.846.811,2.917,2.917,0,0,1,.43,2.635,3.334,3.334,0,0,1-1.283,1.7,9.823,9.823,0,0,1-3.117,1.488,15.24,15.24,0,0,1-2.08.375c-.625.077-1.354.164-2.083.228-.171.014-.353.021-.558.021s-.386-.006-.572-.012h-.022a17.658,17.658,0,0,1-4.438-.71,9.461,9.461,0,0,1-2.129-.84,6.547,6.547,0,0,1-1.472-1.164,2.844,2.844,0,0,1-.787-1.936,2.866,2.866,0,0,1,.758-1.942,6.658,6.658,0,0,1,2.67-1.748,14.594,14.594,0,0,1,3.515-.858,20.608,20.608,0,0,1,2.4-.161Z" transform="translate(850.606 -59.631)" fill="#fff4d9"/>
          </g>
          <g id="Path_50957" data-name="Path 50957" transform="translate(10.546 10.008)">
            <path id="Path_51351" data-name="Path 51351" d="M-834.509,80.958a5.734,5.734,0,0,1-5.727-5.725,5.689,5.689,0,0,1,1.677-4.049,5.686,5.686,0,0,1,4.049-1.678,5.76,5.76,0,0,1,4.083,1.708,5.712,5.712,0,0,1,1.645,4.079,5.651,5.651,0,0,1-1.695,4,5.674,5.674,0,0,1-4.017,1.663Zm0-10.342a4.577,4.577,0,0,0-3.254,1.353,4.572,4.572,0,0,0-1.345,3.259,4.611,4.611,0,0,0,4.6,4.6,4.578,4.578,0,0,0,3.266-1.353,4.57,4.57,0,0,0,1.345-3.259,4.611,4.611,0,0,0-4.606-4.6v-.1Z" transform="translate(840.236 -69.506)" fill="#fff4d9"/>
            <path id="Path_51351-2" data-name="Path 51351" d="M-834.508,79.927h.012a4.707,4.707,0,0,0,4.7-4.712,4.705,4.705,0,0,0-4.712-4.7,4.706,4.706,0,0,0-4.7,4.712,4.707,4.707,0,0,0,4.7,4.7m0,.929a5.627,5.627,0,0,1-5.628-5.625,5.626,5.626,0,0,1,5.625-5.627,5.621,5.621,0,0,1,4.011,1.68,5.65,5.65,0,0,1,1.616,4.007,5.519,5.519,0,0,1-1.664,3.93,5.607,5.607,0,0,1-3.946,1.635Z" transform="translate(840.237 -69.505)" fill="#fff4d9"/>
          </g>
          <g id="Path_50958" data-name="Path 50958" transform="translate(0.035 4.34)">
            <path id="Path_51352" data-name="Path 51352" d="M-841.14,73.045a20.161,20.161,0,0,1-4.238-.476,9.348,9.348,0,0,1-2.179-.694,7.589,7.589,0,0,1-2.225-1.626,2.756,2.756,0,0,1-.777-1.879c-.009-.553-.007-1.116-.005-1.655V66.02l-.042-1.9,1.629,1.75-.032.08a3.548,3.548,0,0,0,.389.343,1.972,1.972,0,0,0,1.269.848c.177.06.366.123.564.2a12.692,12.692,0,0,0,1.685.349,11.651,11.651,0,0,0,2,.313c.705.056,1.478.082,2.361.082h.619a11.238,11.238,0,0,0,3.062-.425,8.993,8.993,0,0,0,2.1-.9,5.7,5.7,0,0,0,.658-.507l.157-.132c.135-.113.273-.243.419-.382l1.968-1.826V68.14c0,.1-.008.194-.015.273l-.009.143a2.514,2.514,0,0,1-.363,1.225,1.151,1.151,0,0,1-1.009.6c-.175,0-.324,0-.473-.01-.121-.008-.238-.009-.352-.009a3.452,3.452,0,0,0-.369.01,4.533,4.533,0,0,0-1.513.386,5.108,5.108,0,0,0-2.082,1.653,1.277,1.277,0,0,1-.855.486,19.649,19.649,0,0,1-2.217.147Zm-8.293-6.236c0,.518,0,1.031,0,1.545a1.63,1.63,0,0,0,.466,1.118,6.439,6.439,0,0,0,1.9,1.383,8.234,8.234,0,0,0,1.921.6,18.967,18.967,0,0,0,4.123.453,18.253,18.253,0,0,0,2.087-.138.161.161,0,0,0,.1-.051,6.26,6.26,0,0,1,2.527-2,5.616,5.616,0,0,1,1.882-.476c.138-.01.275-.014.411-.014.165,0,.329.006.495.011l.357.008a1.271,1.271,0,0,0,.255-.7c0-.067.006-.143.013-.218s.012-.134.012-.2V66.507l-.07.066c-.155.146-.3.287-.46.419a8.336,8.336,0,0,1-.949.733,10.086,10.086,0,0,1-2.373,1.02,12.469,12.469,0,0,1-3.4.471l-.6,0c-.933,0-1.713-.026-2.454-.085a12.53,12.53,0,0,1-2.184-.344,14.32,14.32,0,0,1-1.885-.663,4.693,4.693,0,0,1-2.178-1.771Z" transform="translate(850.606 -63.914)" fill="#fff4d9"/>
            <path id="Path_51352-2" data-name="Path 51352" d="M-849.534,66.02c0,.787-.009,1.559,0,2.331a1.741,1.741,0,0,0,.5,1.189,6.586,6.586,0,0,0,1.926,1.4,8.4,8.4,0,0,0,1.946.613,19.1,19.1,0,0,0,4.142.454,18.407,18.407,0,0,0,2.1-.139.26.26,0,0,0,.158-.083,6.164,6.164,0,0,1,2.493-1.979,5.571,5.571,0,0,1,1.85-.469c.416-.029.835,0,1.254.006h0a.148.148,0,0,0,.111-.044,1.6,1.6,0,0,0,.246-.747c0-.141.024-.283.025-.425V66.27c-.248.229-.463.446-.7.641a8.168,8.168,0,0,1-.94.727,9.981,9.981,0,0,1-2.345,1.008,12.411,12.411,0,0,1-3.483.466c-.979.009-1.956-.006-2.932-.082a12.537,12.537,0,0,1-2.168-.341,14.346,14.346,0,0,1-1.869-.659,4.566,4.566,0,0,1-2.258-1.932c-.015-.025-.032-.048-.054-.079m-.967-1.64,1.4,1.506c.018.026-.275-.069.413.481.422.71,1.06.739,1.858,1.067a12.751,12.751,0,0,0,1.709.355,11.593,11.593,0,0,0,2.008.314c.71.055,1.48.082,2.368.082h.485a11.4,11.4,0,0,0,3.224-.428,9.088,9.088,0,0,0,2.129-.912,5.866,5.866,0,0,0,.674-.518l.154-.129c.137-.115.277-.247.425-.388l.235-.221,1.561-1.446v3.995c0,.108-.009.2-.016.285,0,.05-.009.1-.008.128a2.421,2.421,0,0,1-.348,1.176l-.005.01a1.049,1.049,0,0,1-.934.541c-.157,0-.3,0-.451-.009s-.29-.008-.428-.008c-.117,0-.218,0-.31.009a4.631,4.631,0,0,0-1.544.4,5.2,5.2,0,0,0-2.123,1.685,1.178,1.178,0,0,1-.786.446,19.573,19.573,0,0,1-2.206.146h-.128a19.994,19.994,0,0,1-4.216-.474,9.285,9.285,0,0,1-2.159-.686,7.541,7.541,0,0,1-2.194-1.6,2.671,2.671,0,0,1-.749-1.811c-.009-.552-.007-1.115-.005-1.653v-.694Z" transform="translate(850.608 -63.911)" fill="#fff4d9"/>
          </g>
          <g id="Path_50959" data-name="Path 50959" transform="translate(0.029 12.052)">
            <path id="Path_51353" data-name="Path 51353" d="M-841.52,80.745a20.4,20.4,0,0,1-3.642-.408,9.771,9.771,0,0,1-3.011-1.1,9.846,9.846,0,0,1-1.069-.7,3.377,3.377,0,0,1-1.368-2.748V71.522l1.537,2.23a2.044,2.044,0,0,1,.331.33,2.214,2.214,0,0,0,1.658.807,7.964,7.964,0,0,1,1.1.255,15.186,15.186,0,0,0,2.061.476,16.248,16.248,0,0,0,2.767.241h0c.137,0,.279,0,.418-.005.224-.005.446-.02.672-.034l.232-.008a1.117,1.117,0,0,1,1.088.854,4.973,4.973,0,0,0,1.142,2.084l1.32,1.593-2.718.294a19.983,19.983,0,0,1-2.07.107Zm.416-1.131a18.26,18.26,0,0,0,1.982-.11l.619-.067a6.155,6.155,0,0,1-1.337-2.482,2.287,2.287,0,0,0-.143-.515.5.5,0,0,1-.221.03h-.443c-.441.036-.887.056-1.334.056a16.335,16.335,0,0,1-2-.124,17.3,17.3,0,0,1-2.257-.607l-.362-.118a5.582,5.582,0,0,1-2.878-1.6v1.706a2.24,2.24,0,0,0,.918,1.851,8.9,8.9,0,0,0,.951.621,8.7,8.7,0,0,0,2.67.966,19.583,19.583,0,0,0,3.441.392h.4Z" transform="translate(850.611 -71.522)" fill="#fff4d9"/>
            <path id="Path_51353-2" data-name="Path 51353" d="M-841.154,79.712a18.814,18.814,0,0,0,2.041-.112l.811-.088c-.034-.042-.051-.064-.07-.084a6.014,6.014,0,0,1-1.372-2.5c-.019-.073-.114-.573-.187-.568-.279.018-.442,0-.722.01a16.308,16.308,0,0,1-3.321-.069,16.891,16.891,0,0,1-2.236-.6c-1.312-.43-2.516-.727-3.329-1.861a.322.322,0,0,0-.046-.038v1.983a2.344,2.344,0,0,0,.96,1.934,9.064,9.064,0,0,0,.961.626,8.832,8.832,0,0,0,2.7.978,19.528,19.528,0,0,0,3.458.392h.347m0,.929h-.364a20.322,20.322,0,0,1-3.622-.405,9.721,9.721,0,0,1-2.982-1.085,9.979,9.979,0,0,1-1.058-.691,3.27,3.27,0,0,1-1.328-2.666V71.844l1.352,1.961a2.231,2.231,0,0,1,.336.336c.653.912,1.6.7,2.8,1.1a15.174,15.174,0,0,0,2.076.48,16.324,16.324,0,0,0,2.783.242c.141,0,.285,0,.427-.006.265-.006.53-.024.8-.042h.081a1.019,1.019,0,0,1,1.006.777,5.071,5.071,0,0,0,1.166,2.129c.02.023.04.047.068.08l.027.033,1.1,1.331-1.984.214-.546.06a19.9,19.9,0,0,1-2.143.105Z" transform="translate(850.613 -71.518)" fill="#fff4d9"/>
          </g>
          <g id="Path_50960" data-name="Path 50960" transform="translate(0 7.816)">
            <path id="Path_51354" data-name="Path 51354" d="M-841.914,76.9a17.536,17.536,0,0,1-2.309-.247,13.463,13.463,0,0,1-2.076-.469,12.16,12.16,0,0,1-1.992-.853l-.125-.064a4.182,4.182,0,0,1-.932-.615,3.809,3.809,0,0,1-1.27-3.282c.015-.189.015-.4.015-.613v-.748l.036-2.62.192-.045,1.231,2.444a1.287,1.287,0,0,1,.151.079.86.86,0,0,1,.215.142c.033.043.079.107.127.174s.114.161.15.2a3.706,3.706,0,0,0,2.606,1.037c.23.028.467.059.712.1.226.035.439.084.645.131.169.04.285.066.4.086a15.049,15.049,0,0,0,2.891.281l.354,0c.284-.006.568-.024.869-.043l.437-.025h1.543l-.659,1.959a4.886,4.886,0,0,0-.207,1.748,1.1,1.1,0,0,1-.242.814,1.11,1.11,0,0,1-.75.408c-.04,0-.082.007-.124.007l-1.462.018Zm-7.555-6.273c0,.28,0,.561-.021.84a2.7,2.7,0,0,0,.9,2.347,3.89,3.89,0,0,0,.829.517,11.077,11.077,0,0,0,1.813.776,12.523,12.523,0,0,0,1.9.429,16.649,16.649,0,0,0,2.161.234c.137,0,.275.005.412.005.263,0,.526-.006.789-.011l.618-.01a6.471,6.471,0,0,1,.244-2.1c.046-.155.1-.308.152-.463l.037-.109-.349.018c-.3.018-.6.036-.9.043l-.394.005a16.012,16.012,0,0,1-3.094-.3c-.147-.027-.294-.062-.44-.1-.187-.043-.375-.086-.565-.117a6.473,6.473,0,0,1-3.932-2.147c-.06-.067-.117-.135-.174-.2Z" transform="translate(850.64 -67.343)" fill="#fff4d9"/>
            <path id="Path_51354-2" data-name="Path 51354" d="M-849.571,70v.457c0,.332.007.667-.021,1a2.809,2.809,0,0,0,.939,2.433,3.975,3.975,0,0,0,.854.532,11.051,11.051,0,0,0,1.824.78,12.672,12.672,0,0,0,1.92.433,16.79,16.79,0,0,0,2.171.235c.608.016,1.216-.011,1.825-.016.1,0,.122-.038.117-.133a5.9,5.9,0,0,1,.224-2.035c.07-.236.156-.467.236-.71h-.053c-.446.023-.891.059-1.337.069a16.041,16.041,0,0,1-3.467-.295c-.337-.065-.669-.158-1.008-.213a6.382,6.382,0,0,1-3.872-2.113c-.119-.134-.229-.275-.352-.424m-.9-2.612,1.23,2.443c.041.05.34.193.378.24.073.091.213.3.28.379.9,1.006,2.034.953,3.377,1.167.229.038.445.086.654.134.134.031.261.061.385.084a15.217,15.217,0,0,0,3.266.278c.287-.006.575-.024.88-.043l.43-.025h1.4l-.413,1.224c-.026.079-.053.157-.08.234-.054.153-.1.3-.145.439a4.983,4.983,0,0,0-.189,1.716,1.015,1.015,0,0,1-.9,1.115,1.207,1.207,0,0,1-.136.005c-.208,0-.421.006-.628.01-.264,0-.536.01-.811.01h-.422a17.755,17.755,0,0,1-2.292-.246,13.316,13.316,0,0,1-2.063-.466,12.125,12.125,0,0,1-1.974-.845l-.126-.066a4.109,4.109,0,0,1-.912-.6,3.711,3.711,0,0,1-1.236-3.195c.016-.194.016-.405.016-.624v-.747Z" transform="translate(850.642 -67.342)" fill="#fff4d9"/>
          </g>
        </g>
      </g>
      <path id="Path_51355" data-name="Path 51355" d="M-834.575,78.462a.445.445,0,0,1-.444-.444V77.7a1.521,1.521,0,0,1-1.2-1.4.446.446,0,0,1,.444-.449.444.444,0,0,1,.444.444.611.611,0,0,0,.479.591.621.621,0,0,0,.13.014.612.612,0,0,0,.594-.48.611.611,0,0,0-.466-.723h-.01a1.578,1.578,0,0,1-1.615-1.453,1.526,1.526,0,0,1,1.2-1.419V72.5a.445.445,0,0,1,.444-.444.444.444,0,0,1,.444.444v.319a1.52,1.52,0,0,1,1.2,1.407.445.445,0,0,1-.444.448.444.444,0,0,1-.444-.443.61.61,0,0,0-.479-.592.618.618,0,0,0-.129-.014.611.611,0,0,0-.6.481.61.61,0,0,0,.467.722h.009a1.577,1.577,0,0,1,1.615,1.455,1.52,1.52,0,0,1-1.2,1.417v.32A.444.444,0,0,1-834.575,78.462Z" transform="translate(850.837 -59.463)" fill="#fff4d9"/>
    </g>
  </g>
</svg>
