<svg xmlns="http://www.w3.org/2000/svg" xmlns:xlink="http://www.w3.org/1999/xlink" width="24" height="24" viewBox="0 0 24 24">
  <defs>
    <clipPath id="clip-path">
      <rect id="Rectangle_62531" data-name="Rectangle 62531" width="24" height="24" fill="#fff4d9"/>
    </clipPath>
    <clipPath id="clip-path-2">
      <rect id="Rectangle_57537" data-name="Rectangle 57537" width="24" height="24" fill="#fff4d9" stroke="#707070" stroke-width="1"/>
    </clipPath>
  </defs>
  <g id="footer_赛程" clip-path="url(#clip-path)">
    <g id="Mask_Group_424" data-name="Mask Group 424" clip-path="url(#clip-path-2)">
      <g id="Group_37930" data-name="Group 37930" transform="translate(1.193 2.396)">
        <path id="Path_47287" data-name="Path 47287" d="M-96.131-70.259v-1.649c-.594-.176-1.184-.309-1.742-.524a6.613,6.613,0,0,1-3.2-2.613.487.487,0,0,0-.392-.241,5.237,5.237,0,0,1-4.616-5.1,9.892,9.892,0,0,1,.047-1.576,1.874,1.874,0,0,1,1.858-1.569c.646-.009,1.292,0,1.968,0v-1.262a.844.844,0,0,1,.239-.717.844.844,0,0,1,.718-.238h11.9a.852.852,0,0,1,.729.244.852.852,0,0,1,.236.731c0,.4,0,.808,0,1.242.628,0,1.23.006,1.832,0a1.824,1.824,0,0,1,1.589.716,2.053,2.053,0,0,1,.422.978,7.134,7.134,0,0,1-.205,2.9,5.185,5.185,0,0,1-4.4,3.671.565.565,0,0,0-.346.209A6.9,6.9,0,0,1-94.2-72.01c-.068.012-.136.025-.2.04a.312.312,0,0,0-.054.025v1.686h1.287a3.14,3.14,0,0,1,1.5.35A2.98,2.98,0,0,1-90.1-66.723a1.9,1.9,0,0,1-1.79,1.436c-2.264.013-4.528.019-6.792,0a1.948,1.948,0,0,1-1.474-.761,1.948,1.948,0,0,1-.353-1.621,3.042,3.042,0,0,1,3.037-2.588C-97.037-70.263-96.6-70.259-96.131-70.259Zm-4.4-13.821c0,.1-.011.164-.011.232v5a6.269,6.269,0,0,0,.061.826,5.262,5.262,0,0,0,2.132,3.453,5.262,5.262,0,0,0,3.954.909,5.227,5.227,0,0,0,4.351-5.232c.009-1.642,0-3.283,0-4.925,0-.084-.007-.168-.012-.266ZM-95.3-66.94h3.211c.315,0,.4-.095.378-.409a1.352,1.352,0,0,0-1.3-1.243q-2.278-.023-4.557,0a1.36,1.36,0,0,0-1.305,1.184c-.042.372.043.469.416.47Zm-6.926-14.937h-1.886a.286.286,0,0,0-.237.087.286.286,0,0,0-.075.241c0,.362-.006.725,0,1.087a3.539,3.539,0,0,0,1.167,2.616,3.229,3.229,0,0,0,1.251.737,28.814,28.814,0,0,1-.218-4.768Zm13.639,4.769a1.774,1.774,0,0,0,.187-.059,3.584,3.584,0,0,0,2.042-2.178,6.463,6.463,0,0,0,.177-2.282.331.331,0,0,0-.223-.234c-.652-.019-1.3-.011-1.962-.011a28.482,28.482,0,0,1-.219,4.764Z" transform="translate(106.093 85.757)" fill="#fff4d9"/>
      </g>
    </g>
  </g>
</svg>
