<svg xmlns="http://www.w3.org/2000/svg" xmlns:xlink="http://www.w3.org/1999/xlink" width="24" height="24" viewBox="0 0 24 24">
  <defs>
    <clipPath id="clip-path">
      <rect id="Rectangle_62257" data-name="Rectangle 62257" width="24" height="24" transform="translate(1907 599)" fill="#fff4d9" stroke="#707070" stroke-width="1"/>
    </clipPath>
  </defs>
  <g id="footer_首页" transform="translate(-1907 -599)" clip-path="url(#clip-path)">
    <g id="Group_39231" data-name="Group 39231" transform="translate(1908.755 600)">
      <path id="Path_51345" data-name="Path 51345" d="M-853.848,154.756A.752.752,0,0,1-854.6,154v-5.02a2.154,2.154,0,0,0-2.151-2.151,2.154,2.154,0,0,0-2.151,2.151V154a.752.752,0,0,1-.751.751A.752.752,0,0,1-860.4,154v-5.02a3.658,3.658,0,0,1,3.654-3.654,3.658,3.658,0,0,1,3.654,3.654V154A.752.752,0,0,1-853.848,154.756Z" transform="translate(866.995 -136.137)" fill="#fff4d9"/>
      <path id="Path_51346" data-name="Path 51346" d="M-878.953,140.406a.752.752,0,0,1-.751-.751V126.781a.687.687,0,0,1,.267-.568l9.495-7.651a.813.813,0,0,1,.482-.157.815.815,0,0,1,.486.159l9.49,7.646a.687.687,0,0,1,.269.566v12.877a.752.752,0,0,1-.751.751Zm.751-13.264V138.9h17.484V127.142l-8.742-7.014Z" transform="translate(879.705 -118.406)" fill="#fff4d9"/>
    </g>
  </g>
</svg>
