<svg xmlns="http://www.w3.org/2000/svg" xmlns:xlink="http://www.w3.org/1999/xlink" width="24" height="24" viewBox="0 0 24 24">
  <defs>
    <clipPath id="clip-path">
      <rect id="Rectangle_55122" data-name="Rectangle 55122" width="24" height="24" transform="translate(482 541)" fill="#ffb83d"/>
    </clipPath>
  </defs>
  <g id="footer_财务_选中" transform="translate(-482 -541)" clip-path="url(#clip-path)">
    <g id="Group_39242" data-name="Group 39242" transform="translate(483 542.503)">
      <path id="Path_51361" data-name="Path 51361" d="M-370.472-344.8a18.591,18.591,0,0,1,5.6.864,7.731,7.731,0,0,1,2.27,1.185,2.957,2.957,0,0,1,.721.661,2.143,2.143,0,0,1,.334,1.96,2.606,2.606,0,0,1-1.009,1.325,9.472,9.472,0,0,1-3.036,1.452,15.219,15.219,0,0,1-2.1.377c-.734.091-1.469.178-2.205.241a9.485,9.485,0,0,1-1.121.006,17.884,17.884,0,0,1-4.525-.727,9.3,9.3,0,0,1-2.069-.81,6.04,6.04,0,0,1-1.36-1.074,2.035,2.035,0,0,1-.019-2.817,6.218,6.218,0,0,1,2.485-1.618,14.679,14.679,0,0,1,3.542-.865A21.827,21.827,0,0,1-370.472-344.8Z" transform="translate(379.581 344.8)" fill="#ffb83d"/>
      <path id="Path_51362" data-name="Path 51362" d="M138.11,135.769a5.056,5.056,0,1,1,5.071,5.031A5.044,5.044,0,0,1,138.11,135.769Zm5.584,2.5.438-.12a1.384,1.384,0,0,0,1.086-1.29,1.347,1.347,0,0,0-.639-1.392,4.28,4.28,0,0,0-.679-.319c-.347-.134-.7-.245-1.054-.373a.317.317,0,0,1-.21-.312.374.374,0,0,1,.189-.355.626.626,0,0,1,.9.33.111.111,0,0,0,.127.093c.385,0,.771,0,1.156,0a.759.759,0,0,0,.085-.009,1.357,1.357,0,0,0-.841-1.227c-.169-.069-.347-.115-.522-.167-.055-.017-.081-.04-.078-.1.005-.121,0-.242,0-.365h-1.021c0,.111-.007.215,0,.316s-.027.159-.141.182a1.733,1.733,0,0,0-.785.377,1.436,1.436,0,0,0,.163,2.3,5.466,5.466,0,0,0,.926.386c.245.083.492.162.727.268a.4.4,0,0,1,.249.455.391.391,0,0,1-.376.366.728.728,0,0,1-.9-.468c-.009-.027-.069-.051-.106-.051-.4,0-.794,0-1.19,0-.029,0-.058.005-.093.009a1.408,1.408,0,0,0,.274.771,1.865,1.865,0,0,0,1.291.694v.569h1.024Z" transform="translate(-126.221 -119.805)" fill="#ffb83d"/>
      <path id="Path_51363" data-name="Path 51363" d="M-359.891-90.052c0,.687,0,1.345,0,2,0,.152-.029.3-.028.456a1.7,1.7,0,0,1-.265.8c-.015.029-.079.047-.12.047-.45,0-.9-.038-1.349-.007a6.009,6.009,0,0,0-1.992.506,6.631,6.631,0,0,0-2.682,2.128.273.273,0,0,1-.17.089,19.56,19.56,0,0,1-2.259.149,20.531,20.531,0,0,1-4.457-.488,9,9,0,0,1-2.1-.66,7.088,7.088,0,0,1-2.068-1.509,1.876,1.876,0,0,1-.533-1.28c-.014-.831,0-1.662,0-2.509.024.034.043.059.058.085a4.911,4.911,0,0,0,2.431,2.079,15.41,15.41,0,0,0,2.012.709,13.51,13.51,0,0,0,2.334.367c1.051.082,2.1.1,3.156.088a13.327,13.327,0,0,0,3.749-.5,10.755,10.755,0,0,0,2.522-1.084,8.756,8.756,0,0,0,1.011-.782C-360.389-89.571-360.157-89.8-359.891-90.052Z" transform="translate(377.991 96.149)" fill="#ffb83d"/>
      <path id="Path_51364" data-name="Path 51364" d="M-367.94,286.222l-.876.095a20.116,20.116,0,0,1-2.57.117,20.942,20.942,0,0,1-3.721-.422,9.511,9.511,0,0,1-2.907-1.053,9.717,9.717,0,0,1-1.033-.674,2.522,2.522,0,0,1-1.034-2.082c-.006-.705,0-1.411,0-2.134a.308.308,0,0,1,.049.04,6.661,6.661,0,0,0,3.475,2.456,17.066,17.066,0,0,0,2.373.551,18.324,18.324,0,0,0,3.654.27c.3-.008.6-.027.9-.047.079-.005.117.017.137.094a6.487,6.487,0,0,0,1.477,2.7C-368,286.154-367.977,286.177-367.94,286.222Z" transform="translate(380.108 -265.763)" fill="#ffb83d"/>
      <path id="Path_51365" data-name="Path 51365" d="M-381.116,98.884c.133.16.251.312.379.456a6.866,6.866,0,0,0,4.167,2.275c.364.058.721.158,1.084.229a17.268,17.268,0,0,0,3.731.318c.48-.011.96-.049,1.439-.074h.058c-.087.258-.18.507-.254.762a6.323,6.323,0,0,0-.241,2.191c.007.1-.018.142-.125.143-.656,0-1.312.033-1.967.017a17.987,17.987,0,0,1-2.337-.254,13.471,13.471,0,0,1-2.067-.466,11.9,11.9,0,0,1-1.961-.84,4.3,4.3,0,0,1-.918-.573,3.019,3.019,0,0,1-1.009-2.617c.03-.356.017-.716.023-1.074C-381.114,99.218-381.116,99.06-381.116,98.884Z" transform="translate(381.153 -88.725)" fill="#ffb83d"/>
    </g>
  </g>
</svg>
