<svg xmlns="http://www.w3.org/2000/svg" width="24" height="24" viewBox="0 0 24 24">
  <g id="我的VIP_皇冠" transform="translate(-8067.197 -1362)">
    <path id="Union_27" data-name="Union 27" d="M17.778,19.082H4.231a.263.263,0,0,1-.263-.263V17.152a.264.264,0,0,1,.263-.263H17.778a.263.263,0,0,1,.263.263v1.67a.26.26,0,0,1-.26.26ZM4.249,15.908a.324.324,0,0,1-.315-.263L2.382,7.1A1.134,1.134,0,0,1,3.844,5.816a.426.426,0,0,1,.148.082S5.881,7.746,6.514,8.356c.235.225.438.334.616.306.3-.039.574-.475.75-.762.043-.071.082-.134.115-.186,1.072-1.589,1.288-1.966,1.479-2.3.088-.153.172-.295.325-.538a1.421,1.421,0,0,1,.762-.6,1.366,1.366,0,0,1,.251-.054l.254-.008a1.418,1.418,0,0,1,.325.047,1.446,1.446,0,0,1,.8.61c.132.2.3.457.481.733.489.738,1.047,1.577,1.337,2.135a1.329,1.329,0,0,0,.766.755.964.964,0,0,0,.741-.18,26.611,26.611,0,0,0,2.471-2.411.339.339,0,0,1,.1-.076l.066-.024a1.132,1.132,0,0,1,1.428.719,1.143,1.143,0,0,1,.039.574l-1.551,8.541a.326.326,0,0,1-.315.266Zm16.34-9.7a1.885,1.885,0,0,1-.173-3.762,1.652,1.652,0,0,1,.2-.011h.095a1.792,1.792,0,0,1,1.783,1.69A1.889,1.889,0,0,1,20.813,6.2q-.1.009-.2.009ZM1.978,5.881H1.884c-.066,0-.132,0-.2-.009A1.886,1.886,0,1,1,3.76,4.194a1.791,1.791,0,0,1-1.78,1.69ZM9.818,3.357A1.887,1.887,0,0,1,10.812.013,1.67,1.67,0,0,1,11.01,0H11.1l0,0a1.788,1.788,0,0,1,1.783,1.69A1.886,1.886,0,0,1,9.818,3.357Z" transform="translate(8067.948 1364.722)" fill="#4d5772"/>
    <rect id="Rectangle_57325" data-name="Rectangle 57325" width="24" height="24" transform="translate(8067.197 1362)" fill="none"/>
  </g>
</svg>
