<svg xmlns="http://www.w3.org/2000/svg" width="24" height="24" viewBox="0 0 24 24">
  <g id="我的VIP_皇冠_灰" transform="translate(-8067 -1362)">
    <path id="Union_27" data-name="Union 27" d="M17.4,18.673H4.141a.257.257,0,0,1-.258-.258V16.785a.258.258,0,0,1,.258-.258H17.4a.257.257,0,0,1,.258.258v1.634a.255.255,0,0,1-.255.255ZM4.158,15.567a.317.317,0,0,1-.309-.258L2.331,6.952a1.11,1.11,0,0,1,1.43-1.261.417.417,0,0,1,.145.08S5.755,7.58,6.375,8.177c.23.221.429.327.6.3.3-.039.562-.464.734-.745.042-.069.08-.131.113-.182C8.874,5.994,9.086,5.625,9.272,5.3c.086-.15.168-.289.318-.526a1.39,1.39,0,0,1,.745-.586,1.336,1.336,0,0,1,.245-.052l.248-.008a1.387,1.387,0,0,1,.318.046,1.415,1.415,0,0,1,.785.6c.13.2.292.447.471.717.478.722,1.024,1.543,1.308,2.089a1.3,1.3,0,0,0,.75.739.944.944,0,0,0,.725-.176A26.042,26.042,0,0,0,17.6,5.781a.332.332,0,0,1,.1-.074l.065-.023a1.108,1.108,0,0,1,1.4.7,1.119,1.119,0,0,1,.039.562l-1.518,8.358a.319.319,0,0,1-.309.261Zm15.99-9.49a1.845,1.845,0,0,1-.17-3.681,1.616,1.616,0,0,1,.193-.011h.093a1.754,1.754,0,0,1,1.745,1.654,1.848,1.848,0,0,1-1.642,2.029q-.1.009-.2.009ZM1.936,5.755H1.843c-.065,0-.13,0-.193-.009A1.845,1.845,0,1,1,3.679,4.1,1.752,1.752,0,0,1,1.938,5.758Zm7.671-2.47A1.847,1.847,0,0,1,10.581.012,1.634,1.634,0,0,1,10.774,0h.086l0,0a1.75,1.75,0,0,1,1.745,1.654,1.846,1.846,0,0,1-3,1.631Z" transform="translate(8067.992 1364.663)" fill="#bcc0cb"/>
    <rect id="Rectangle_57325" data-name="Rectangle 57325" width="24" height="24" transform="translate(8067 1362)" fill="none"/>
  </g>
</svg>
