<svg xmlns="http://www.w3.org/2000/svg" xmlns:xlink="http://www.w3.org/1999/xlink" width="24" height="24" viewBox="0 0 24 24">
  <defs>
    <clipPath id="clip-path">
      <rect id="Rectangle_62678" data-name="Rectangle 62678" width="24" height="24" fill="#0e88f5"/>
    </clipPath>
  </defs>
  <g id="我的VIP_問號" clip-path="url(#clip-path)">
    <g id="noun_Question_634559" transform="translate(1 1)">
      <g id="Group_39927" data-name="Group 39927">
        <path id="Path_51885" data-name="Path 51885" d="M15.9,4.9a11,11,0,1,0,11,11A11,11,0,0,0,15.9,4.9Zm0,19.951A8.951,8.951,0,1,1,24.851,15.9,8.957,8.957,0,0,1,15.9,24.851Z" transform="translate(-4.9 -4.9)" fill="#0e88f5"/>
        <path id="Path_51886" data-name="Path 51886" d="M37.239,24.976a4.586,4.586,0,0,0-3.39,1.171A3.262,3.262,0,0,0,32.8,28.512a1.024,1.024,0,1,0,2.049,0,1.253,1.253,0,0,1,.415-.878,2.54,2.54,0,0,1,1.878-.61,1.973,1.973,0,0,1,2,1.415c.049.659-.537,1.268-1.439,1.488a2.162,2.162,0,0,0-1.732,2.024v.634a1.024,1.024,0,0,0,2.049,0V32a.342.342,0,0,1,.171-.1,3.593,3.593,0,0,0,2.976-3.634A3.872,3.872,0,0,0,37.239,24.976Z" transform="translate(-26.02 -20.073)" fill="#0e88f5"/>
        <circle id="Ellipse_6213" data-name="Ellipse 6213" cx="1.22" cy="1.22" r="1.22" transform="translate(9.78 14.659)" fill="#0e88f5"/>
      </g>
    </g>
  </g>
</svg>
