<svg xmlns="http://www.w3.org/2000/svg" xmlns:xlink="http://www.w3.org/1999/xlink" width="55" height="18" viewBox="0 0 55 18">
  <defs>
    <linearGradient id="linear-gradient" x1="1.398" y1="1.927" x2="-0.293" y2="-0.764" gradientUnits="objectBoundingBox">
      <stop offset="0" stop-color="#ff9f3d"/>
      <stop offset="1" stop-color="#ffd166"/>
    </linearGradient>
    <linearGradient id="linear-gradient-2" x1="-2.24" y1="-2.187" x2="0.454" y2="0.44" xlink:href="#linear-gradient"/>
    <linearGradient id="linear-gradient-3" x1="0.707" y1="0.969" x2="0.339" y2="0.107" xlink:href="#linear-gradient"/>
    <linearGradient id="linear-gradient-4" x1="0.253" y1="0.135" x2="0.617" y2="0.691" xlink:href="#linear-gradient"/>
    <linearGradient id="linear-gradient-5" x1="0.494" y1="0.433" x2="0.044" y2="-4.118" xlink:href="#linear-gradient"/>
    <linearGradient id="linear-gradient-6" x1="-0.123" y1="-13.297" x2="0.334" y2="-3.178" xlink:href="#linear-gradient"/>
    <linearGradient id="linear-gradient-7" x1="2.406" y1="3.514" x2="0.723" y2="0.846" xlink:href="#linear-gradient"/>
    <linearGradient id="linear-gradient-8" x1="0.65" y1="0.633" x2="3.325" y2="3.254" xlink:href="#linear-gradient"/>
    <linearGradient id="linear-gradient-9" x1="2.834" y1="4.218" x2="1.151" y2="1.537" xlink:href="#linear-gradient"/>
    <linearGradient id="linear-gradient-10" x1="2.323" y1="2.291" x2="4.997" y2="4.918" xlink:href="#linear-gradient"/>
    <linearGradient id="linear-gradient-11" x1="0.71" y1="0.792" x2="0.272" y2="0.159" xlink:href="#linear-gradient"/>
    <linearGradient id="linear-gradient-12" x1="0.245" y1="0.044" x2="0.678" y2="0.797" xlink:href="#linear-gradient"/>
    <linearGradient id="linear-gradient-13" x1="0.18" y1="0.169" x2="0.892" y2="0.885" gradientUnits="objectBoundingBox">
      <stop offset="0" stop-color="#10192e"/>
      <stop offset="1" stop-color="#293a61"/>
    </linearGradient>
  </defs>
  <g id="v1" transform="translate(-7963.759 593)">
    <path id="Path_52422" data-name="Path 52422" d="M-473.811,185.674a1.643,1.643,0,0,0-1.228-1.5,1.625,1.625,0,0,0-.4-.052h-.088a1.443,1.443,0,0,0-.18,0,1.725,1.725,0,0,0-1.525,1.683,1.723,1.723,0,0,0,1.685,1.75h.017a1.5,1.5,0,0,0,.185,0,1.5,1.5,0,0,0,.3-.062,1.73,1.73,0,0,0,1.228-1.817Z" transform="translate(8458.103 -774.889)" fill="url(#linear-gradient)"/>
    <path id="Path_52423" data-name="Path 52423" d="M-473.288,189.15a.975.975,0,0,1-.684-.3.975.975,0,0,1-.269-.7.98.98,0,0,1,.862-.95h.182a.84.84,0,0,1,.215.03.888.888,0,0,1,.662.808.166.166,0,0,1,0,.035.972.972,0,0,1-.69,1.037,1.3,1.3,0,0,1-.175.038h-.108Z" transform="translate(8455.86 -777.2)" fill="url(#linear-gradient-2)"/>
    <path id="Path_52424" data-name="Path 52424" d="M-522.6,192.13l-.06.022a.282.282,0,0,0-.093.07,24.281,24.281,0,0,1-2.265,2.215.875.875,0,0,1-.672.165,1.21,1.21,0,0,1-.7-.693c-.263-.5-.773-1.283-1.22-1.958l-.437-.675a1.325,1.325,0,0,0-.732-.562,1.339,1.339,0,0,0-.3-.045h-.23a1.13,1.13,0,0,0-.225.05,1.3,1.3,0,0,0-.7.55c-.14.223-.215.352-.295.5-.175.305-.367.658-1.355,2.1l-.1.173c-.16.262-.408.66-.685.7-.16.028-.345-.072-.56-.28-.578-.555-2.3-2.25-2.3-2.25a.375.375,0,0,0-.135-.075,1.017,1.017,0,0,0-.5-.033,1.037,1.037,0,0,0-.827,1.212l1.415,7.835a.3.3,0,0,0,.287.25h12.328a.3.3,0,0,0,.287-.25l1.415-7.835a1.04,1.04,0,0,0-.032-.525,1.035,1.035,0,0,0-.516-.6,1.035,1.035,0,0,0-.791-.06Z" transform="translate(8502.937 -779.803)" fill="url(#linear-gradient-3)"/>
    <path id="Path_52425" data-name="Path 52425" d="M-532.671,202.95l-1.345-7.455a.29.29,0,0,1,.227-.34h.073c.367.36,1.71,1.68,2.215,2.165a1.5,1.5,0,0,0,1.025.5,1.154,1.154,0,0,0,.162-.012,1.9,1.9,0,0,0,1.215-1.05l.1-.155c.945-1.382,1.167-1.778,1.347-2.092l.028-.045c.075-.133.148-.25.28-.465a.55.55,0,0,1,.3-.25h.215a.5.5,0,0,1,.108.017.56.56,0,0,1,.292.235l.448.688c.36.545.9,1.357,1.165,1.862a1.965,1.965,0,0,0,1.115,1.08.7.7,0,0,0,.142.037,1.579,1.579,0,0,0,.265.023,1.632,1.632,0,0,0,.98-.327l.035-.03a24.565,24.565,0,0,0,2.25-2.178h.015a.285.285,0,0,1,.27.195.312.312,0,0,1,0,.145l-1.35,7.468Z" transform="translate(8500.693 -782.113)" fill="url(#linear-gradient-4)"/>
    <path id="Path_52426" data-name="Path 52426" d="M-518.592,237.16H-530.96a.25.25,0,0,0-.25.25v1.528h0a.25.25,0,0,0,.25.25h12.37a.25.25,0,0,0,.25-.25v-1.53h0A.25.25,0,0,0-518.592,237.16Z" transform="translate(8498.584 -814.67)" fill="url(#linear-gradient-5)"/>
    <rect id="Rectangle_62723" data-name="Rectangle 62723" width="11.348" height="0.505" transform="translate(7968.132 -576.758)" fill="url(#linear-gradient-6)"/>
    <path id="Path_52427" data-name="Path 52427" d="M-511.731,178.278h0a1.715,1.715,0,0,0,1.273.38,1.73,1.73,0,0,0,1.525-1.908,1.635,1.635,0,0,0-1.628-1.55h-.08a1.463,1.463,0,0,0-.182.012,1.718,1.718,0,0,0-1.16.633A1.735,1.735,0,0,0-511.731,178.278Z" transform="translate(8484.454 -768.2)" fill="url(#linear-gradient-7)"/>
    <path id="Path_52428" data-name="Path 52428" d="M-508.4,180.188a.967.967,0,0,1-.595-.2l-.02-.018a.968.968,0,0,1-.355-.658.967.967,0,0,1,.212-.717.98.98,0,0,1,.655-.357.866.866,0,0,1,.108,0h.078a.885.885,0,0,1,.88.837.234.234,0,0,0,0,.04.975.975,0,0,1-.845,1.063.752.752,0,0,1-.118.013Z" transform="translate(8482.208 -770.475)" fill="url(#linear-gradient-8)"/>
    <path id="Path_52429" data-name="Path 52429" d="M-542.235,184.873a1.73,1.73,0,0,0-.391-1.284,1.73,1.73,0,0,0-1.192-.618,1.75,1.75,0,0,0-1.85,1.638,1.728,1.728,0,0,0,1.54,1.807,1.089,1.089,0,0,0,.18,0h.088A1.64,1.64,0,0,0-542.235,184.873Z" transform="translate(8509.429 -774.026)" fill="url(#linear-gradient-9)"/>
    <path id="Path_52430" data-name="Path 52430" d="M-541.767,187.938h-.03a.973.973,0,0,1-.867-1.02,1,1,0,0,1,.973-.928h.07a.97.97,0,0,1,.672.35.975.975,0,0,1,.223.725c0,.012,0,.023,0,.035a.885.885,0,0,1-.877.84h-.158Z" transform="translate(8507.176 -776.292)" fill="url(#linear-gradient-10)"/>
    <path id="Path_52431" data-name="Path 52431" d="M-468.879,193.207a3.467,3.467,0,0,1-2.7-1.25,3.12,3.12,0,0,1-.66-2.585l.345-1.75.575-2.9a2.885,2.885,0,0,1,1.185-1.807,6.925,6.925,0,0,0,1.292-1.167,5.952,5.952,0,0,0,1.463-4.475,1.877,1.877,0,0,1,.55-1.5,1.953,1.953,0,0,1,1.388-.565h27.22a2.61,2.61,0,0,1,1.982.893,2.4,2.4,0,0,1,.57,1.91l-1.3,9.265a7.181,7.181,0,0,1-7.25,5.93Z" transform="translate(8454.408 -768.207)" fill="url(#linear-gradient-11)"/>
    <path id="Path_52432" data-name="Path 52432" d="M-467.38,194.2a2.975,2.975,0,0,1-2.318-1.07,2.625,2.625,0,0,1-.555-2.17l.345-1.75.575-2.9a2.385,2.385,0,0,1,.982-1.5,7.415,7.415,0,0,0,1.383-1.25,6.455,6.455,0,0,0,1.583-4.85,1.367,1.367,0,0,1,.41-1.085,1.465,1.465,0,0,1,1.038-.423h27.213a2.113,2.113,0,0,1,1.605.72,1.892,1.892,0,0,1,.453,1.5l-1.3,9.267a6.678,6.678,0,0,1-6.75,5.5Z" transform="translate(8452.908 -769.707)" fill="url(#linear-gradient-12)"/>
    <path id="Path_52433" data-name="Path 52433" d="M-465.136,195.674a2.051,2.051,0,0,1-2.138-2.342h0l.345-1.75.575-2.9a1.648,1.648,0,0,1,.675-1.022,8.079,8.079,0,0,0,1.522-1.38,7.207,7.207,0,0,0,1.763-5.4.612.612,0,0,1,.182-.5.723.723,0,0,1,.5-.2h27.23a1.25,1.25,0,0,1,.974.383,1.25,1.25,0,0,1,.341.989l-1.3,9.267a5.913,5.913,0,0,1-6.018,4.85Z" transform="translate(8450.664 -771.929)" fill="url(#linear-gradient-13)"/>
    <path id="Path_52434" data-name="Path 52434" d="M-423.413,206.44h-1.64q-.172,0-.2-.112a.135.135,0,0,1-.015-.04l-.805-7.155a.067.067,0,0,0,0-.03l-.015-.03a.617.617,0,0,0-.105-.158,1.715,1.715,0,0,0-.15-.153l-.06-.047-.1-.08-.112-.1-.1-.1a.25.25,0,0,1-.08-.165c0-.045.04-.068.118-.068h3.262a.185.185,0,0,1,.2.128.133.133,0,0,0,.015.037l.713,5.955,3.083-5.9a.35.35,0,0,1,.317-.21h2.4q.113,0,.113.105a.265.265,0,0,1-.022.1l-4.09,7.8a.345.345,0,0,1-.315.205Z" transform="translate(8420.281 -785.455)" fill="#fff"/>
    <path id="Path_52435" data-name="Path 52435" d="M-387.475,204.238c-.158,0-.235-.055-.235-.165v-.05l2.05-7.708v-.092a.837.837,0,0,0-.307-.512c-.212-.193-.318-.308-.318-.348s.055-.092.163-.092h4.53c.145,0,.215.06.215.182v.053l-2.25,8.518a.337.337,0,0,1-.35.215Z" transform="translate(8390.965 -783.253)" fill="#fff"/>
  </g>
</svg>
