<svg xmlns="http://www.w3.org/2000/svg" xmlns:xlink="http://www.w3.org/1999/xlink" width="55" height="18" viewBox="0 0 55 18">
  <defs>
    <linearGradient id="linear-gradient" x1="1.398" y1="1.929" x2="-0.293" y2="-0.765" gradientUnits="objectBoundingBox">
      <stop offset="0" stop-color="#ff9f3d"/>
      <stop offset="1" stop-color="#ffd166"/>
    </linearGradient>
    <linearGradient id="linear-gradient-2" x1="-2.24" y1="-2.183" x2="0.454" y2="0.442" xlink:href="#linear-gradient"/>
    <linearGradient id="linear-gradient-3" x1="0.707" y1="0.969" x2="0.339" y2="0.108" xlink:href="#linear-gradient"/>
    <linearGradient id="linear-gradient-4" x1="0.254" y1="0.134" x2="0.617" y2="0.689" xlink:href="#linear-gradient"/>
    <linearGradient id="linear-gradient-5" x1="0.494" y1="0.432" x2="0.045" y2="-4.113" xlink:href="#linear-gradient"/>
    <linearGradient id="linear-gradient-6" x1="-0.123" y1="-13.297" x2="0.334" y2="-3.178" xlink:href="#linear-gradient"/>
    <linearGradient id="linear-gradient-7" x1="2.406" y1="3.516" x2="0.723" y2="0.847" xlink:href="#linear-gradient"/>
    <linearGradient id="linear-gradient-8" x1="0.65" y1="0.632" x2="3.323" y2="3.252" xlink:href="#linear-gradient"/>
    <linearGradient id="linear-gradient-9" x1="2.834" y1="4.218" x2="1.151" y2="1.537" xlink:href="#linear-gradient"/>
    <linearGradient id="linear-gradient-10" x1="2.323" y1="2.291" x2="4.997" y2="4.917" xlink:href="#linear-gradient"/>
    <linearGradient id="linear-gradient-11" x1="0.71" y1="0.792" x2="0.271" y2="0.159" xlink:href="#linear-gradient"/>
    <linearGradient id="linear-gradient-12" x1="0.245" y1="0.045" x2="0.678" y2="0.797" xlink:href="#linear-gradient"/>
    <linearGradient id="linear-gradient-13" x1="0.18" y1="0.169" x2="0.892" y2="0.885" gradientUnits="objectBoundingBox">
      <stop offset="0" stop-color="#10192e"/>
      <stop offset="1" stop-color="#293a61"/>
    </linearGradient>
  </defs>
  <g id="v10" transform="translate(-7962.5 -334.49)">
    <path id="Path_52513" data-name="Path 52513" d="M-475.071,1113.184a1.64,1.64,0,0,0-1.227-1.5,1.621,1.621,0,0,0-.4-.052h-.087a1.428,1.428,0,0,0-.18,0,1.725,1.725,0,0,0-1.525,1.682,1.723,1.723,0,0,0,1.685,1.75h.2a1.688,1.688,0,0,0,.305-.063,1.732,1.732,0,0,0,1.228-1.817Z" transform="translate(8458.1 -774.904)" fill="url(#linear-gradient)"/>
    <path id="Path_52514" data-name="Path 52514" d="M-474.548,1116.63a.975.975,0,0,1-.684-.3.975.975,0,0,1-.269-.7.977.977,0,0,1,.862-.95h.183a.842.842,0,0,1,.215.03.882.882,0,0,1,.663.807s0,.022,0,.035a.977.977,0,0,1-.693,1.037.982.982,0,0,1-.175.035h-.087Z" transform="translate(8455.857 -777.194)" fill="url(#linear-gradient-2)"/>
    <path id="Path_52515" data-name="Path 52515" d="M-523.862,1119.62l-.06.022a.278.278,0,0,0-.092.068,24.629,24.629,0,0,1-2.265,2.218.875.875,0,0,1-.672.165,1.223,1.223,0,0,1-.7-.693,21.241,21.241,0,0,0-1.22-1.958c-.165-.25-.318-.5-.437-.675a1.325,1.325,0,0,0-.732-.563,1.215,1.215,0,0,0-.3-.045h-.23a1.127,1.127,0,0,0-.225.05,1.3,1.3,0,0,0-.7.55c-.14.222-.215.35-.295.5-.175.3-.367.655-1.355,2.1l-.1.17c-.16.265-.408.663-.685.7-.16.025-.345-.075-.56-.28-.578-.555-2.3-2.25-2.3-2.25a.343.343,0,0,0-.135-.075,1.019,1.019,0,0,0-.5-.032,1.038,1.038,0,0,0-.827,1.213l1.415,7.835a.3.3,0,0,0,.29.25h12.325a.3.3,0,0,0,.288-.25l1.415-7.835a1.041,1.041,0,0,0-.032-.525,1.031,1.031,0,0,0-.515-.6,1.031,1.031,0,0,0-.792-.058Z" transform="translate(8502.937 -779.808)" fill="url(#linear-gradient-3)"/>
    <path id="Path_52516" data-name="Path 52516" d="M-533.939,1130.5l-1.347-7.458a.287.287,0,0,1,.044-.216.287.287,0,0,1,.184-.122h.073c.367.36,1.71,1.68,2.215,2.165a1.5,1.5,0,0,0,1.025.5,1.184,1.184,0,0,0,.163,0,1.9,1.9,0,0,0,1.215-1.05l.1-.155c.945-1.385,1.167-1.777,1.347-2.093l.028-.045c.075-.133.147-.25.28-.465a.551.551,0,0,1,.3-.25h.215a.5.5,0,0,1,.107.018.559.559,0,0,1,.293.235l.448.688c.36.545.9,1.358,1.165,1.863a1.973,1.973,0,0,0,1.115,1.08.746.746,0,0,0,.143.037,1.58,1.58,0,0,0,.265.023,1.65,1.65,0,0,0,.98-.328l.035-.03a24.551,24.551,0,0,0,2.25-2.177h.015a.288.288,0,0,1,.27.2.313.313,0,0,1,0,.145l-1.35,7.468Z" transform="translate(8500.7 -782.17)" fill="url(#linear-gradient-4)"/>
    <path id="Path_52517" data-name="Path 52517" d="M-519.852,1164.67H-532.22a.25.25,0,0,0-.25.25v1.53h0a.25.25,0,0,0,.25.25h12.367a.25.25,0,0,0,.237-.25v-1.532h0A.25.25,0,0,0-519.852,1164.67Z" transform="translate(8498.584 -814.695)" fill="url(#linear-gradient-5)"/>
    <rect id="Rectangle_62729" data-name="Rectangle 62729" width="11.347" height="0.505" transform="translate(7966.875 350.728)" fill="url(#linear-gradient-6)"/>
    <path id="Path_52518" data-name="Path 52518" d="M-512.991,1105.768h0a1.715,1.715,0,0,0,1.273.38,1.73,1.73,0,0,0,1.525-1.907,1.633,1.633,0,0,0-1.628-1.55h-.26a1.718,1.718,0,0,0-1.163.633A1.75,1.75,0,0,0-512.991,1105.768Z" transform="translate(8484.453 -768.2)" fill="url(#linear-gradient-7)"/>
    <path id="Path_52519" data-name="Path 52519" d="M-509.657,1107.7a.982.982,0,0,1-.6-.2l-.02-.017a.973.973,0,0,1-.355-.657.967.967,0,0,1,.213-.718.98.98,0,0,1,.655-.358h.185a.887.887,0,0,1,.88.838.2.2,0,0,0,0,.04.975.975,0,0,1-.86,1.077Z" transform="translate(8482.207 -770.495)" fill="url(#linear-gradient-8)"/>
    <path id="Path_52520" data-name="Path 52520" d="M-543.494,1112.383a1.727,1.727,0,0,0-.39-1.285,1.727,1.727,0,0,0-1.193-.617,1.75,1.75,0,0,0-1.85,1.637,1.73,1.73,0,0,0,1.54,1.807,1.427,1.427,0,0,0,.18,0h.088A1.635,1.635,0,0,0-543.494,1112.383Z" transform="translate(8509.429 -774.041)" fill="url(#linear-gradient-9)"/>
    <path id="Path_52521" data-name="Path 52521" d="M-543.027,1115.448h-.03a.975.975,0,0,1-.867-1.02,1,1,0,0,1,.972-.927h.07a.967.967,0,0,1,.673.348.985.985,0,0,1,.222.728v.035a.888.888,0,0,1-.878.84h-.157Z" transform="translate(8507.176 -776.309)" fill="url(#linear-gradient-10)"/>
    <path id="Path_52522" data-name="Path 52522" d="M-470.139,1120.715a3.468,3.468,0,0,1-2.7-1.249,3.117,3.117,0,0,1-.66-2.583l.345-1.749.575-2.893a2.876,2.876,0,0,1,1.185-1.807,7.017,7.017,0,0,0,1.293-1.167,5.949,5.949,0,0,0,1.462-4.472,1.876,1.876,0,0,1,.55-1.5,1.953,1.953,0,0,1,1.388-.565h27.228a2.61,2.61,0,0,1,1.982.892,2.4,2.4,0,0,1,.57,1.909l-1.3,9.262a7.18,7.18,0,0,1-7.25,5.927Z" transform="translate(8454.4 -768.23)" fill="url(#linear-gradient-11)"/>
    <path id="Path_52523" data-name="Path 52523" d="M-468.64,1121.667a2.973,2.973,0,0,1-2.317-1.072,2.617,2.617,0,0,1-.555-2.166l.345-1.749.575-2.9a2.384,2.384,0,0,1,.982-1.5,7.41,7.41,0,0,0,1.383-1.249,6.449,6.449,0,0,0,1.582-4.847,1.374,1.374,0,0,1,.4-1.1,1.465,1.465,0,0,1,1.038-.42h27.228a2.113,2.113,0,0,1,1.6.72,1.891,1.891,0,0,1,.453,1.5l-1.3,9.262a6.677,6.677,0,0,1-6.75,5.5Z" transform="translate(8452.901 -769.685)" fill="url(#linear-gradient-12)"/>
    <path id="Path_52524" data-name="Path 52524" d="M-466.4,1123.137a2.051,2.051,0,0,1-2.138-2.341h0l.345-1.749.575-2.9a1.642,1.642,0,0,1,.675-1.022,8.078,8.078,0,0,0,1.522-1.379,7.2,7.2,0,0,0,1.75-5.411.6.6,0,0,1,.183-.5.71.71,0,0,1,.5-.2h27.228a1.25,1.25,0,0,1,.974.383,1.249,1.249,0,0,1,.341.989l-1.3,9.262a5.912,5.912,0,0,1-6.018,4.847Z" transform="translate(8450.657 -771.906)" fill="url(#linear-gradient-13)"/>
    <path id="Path_52525" data-name="Path 52525" d="M-441.268,1132.919h-1.53c-.107,0-.172-.035-.19-.105a.128.128,0,0,1-.015-.035l-.75-6.69a.065.065,0,0,0,0-.027l-.015-.027a.5.5,0,0,0-.1-.148,1.847,1.847,0,0,0-.14-.14l-.058-.047-.095-.073c-.035-.027-.07-.06-.105-.092l-.1-.09a.25.25,0,0,1-.073-.155c0-.042.038-.062.107-.062h3.05a.173.173,0,0,1,.182.118.106.106,0,0,0,.015.035l.668,5.565,2.88-5.5a.323.323,0,0,1,.3-.2h2.25c.073,0,.107.032.107.1a.23.23,0,0,1-.022.1l-3.823,7.292a.323.323,0,0,1-.295.19Z" transform="translate(8432.554 -785.107)" fill="#fff"/>
    <path id="Path_52526" data-name="Path 52526" d="M-408.872,1131.167c-.145,0-.217-.05-.217-.152v-.047l1.9-7.137v-.085a.775.775,0,0,0-.285-.475q-.293-.268-.293-.323c0-.057.05-.088.15-.088h4.2c.133,0,.2.057.2.172v.047l-2.08,7.888a.31.31,0,0,1-.322.2Z" transform="translate(8406.049 -783.333)" fill="#fff"/>
    <path id="Path_52527" data-name="Path 52527" d="M-385.613,1131.163a1.75,1.75,0,0,1-1.1-.332,1.025,1.025,0,0,1-.435-.855,1.041,1.041,0,0,1,.055-.323l1.368-5.21.162-.618v-.085a.71.71,0,0,0-.295-.475c-.182-.177-.275-.285-.275-.323s.047-.088.142-.088h8.25a1.66,1.66,0,0,1,1.082.343,1.047,1.047,0,0,1,.445.865,1,1,0,0,1,0,.15,1.385,1.385,0,0,1-.027.162l-1.415,5.277a1.865,1.865,0,0,1-.825,1.073,3.307,3.307,0,0,1-.712.333.623.623,0,0,1-.36.1Zm2.182-1.147h1.89l1.6-6h-1.88Z" transform="translate(8389.595 -783.328)" fill="#fff"/>
  </g>
</svg>
