<svg xmlns="http://www.w3.org/2000/svg" xmlns:xlink="http://www.w3.org/1999/xlink" width="55" height="18" viewBox="0 0 55 18">
  <defs>
    <linearGradient id="linear-gradient" x1="1.398" y1="1.929" x2="-0.293" y2="-0.765" gradientUnits="objectBoundingBox">
      <stop offset="0" stop-color="#ff9f3d"/>
      <stop offset="1" stop-color="#ffd166"/>
    </linearGradient>
    <linearGradient id="linear-gradient-2" x1="-2.24" y1="-2.183" x2="0.454" y2="0.442" xlink:href="#linear-gradient"/>
    <linearGradient id="linear-gradient-3" x1="0.707" y1="0.969" x2="0.339" y2="0.108" xlink:href="#linear-gradient"/>
    <linearGradient id="linear-gradient-4" x1="0.254" y1="0.134" x2="0.617" y2="0.689" xlink:href="#linear-gradient"/>
    <linearGradient id="linear-gradient-5" x1="0.494" y1="0.432" x2="0.044" y2="-4.113" xlink:href="#linear-gradient"/>
    <linearGradient id="linear-gradient-6" x1="-0.123" y1="-13.297" x2="0.334" y2="-3.178" xlink:href="#linear-gradient"/>
    <linearGradient id="linear-gradient-7" x1="2.406" y1="3.516" x2="0.723" y2="0.847" xlink:href="#linear-gradient"/>
    <linearGradient id="linear-gradient-8" x1="0.65" y1="0.632" x2="3.323" y2="3.252" xlink:href="#linear-gradient"/>
    <linearGradient id="linear-gradient-9" x1="2.834" y1="4.218" x2="1.151" y2="1.537" xlink:href="#linear-gradient"/>
    <linearGradient id="linear-gradient-10" x1="2.324" y1="2.291" x2="4.998" y2="4.917" xlink:href="#linear-gradient"/>
    <linearGradient id="linear-gradient-11" x1="0.71" y1="0.792" x2="0.272" y2="0.159" xlink:href="#linear-gradient"/>
    <linearGradient id="linear-gradient-12" x1="0.245" y1="0.045" x2="0.678" y2="0.797" xlink:href="#linear-gradient"/>
    <linearGradient id="linear-gradient-13" x1="0.18" y1="0.169" x2="0.892" y2="0.885" gradientUnits="objectBoundingBox">
      <stop offset="0" stop-color="#10192e"/>
      <stop offset="1" stop-color="#293a61"/>
    </linearGradient>
  </defs>
  <g id="v11" transform="translate(-7963.76 -427.49)">
    <path id="Path_52500" data-name="Path 52500" d="M-473.811,1206.184a1.64,1.64,0,0,0-1.227-1.5,1.626,1.626,0,0,0-.4-.052h-.087a1.428,1.428,0,0,0-.18,0,1.725,1.725,0,0,0-1.525,1.682,1.723,1.723,0,0,0,1.685,1.75h.2a1.7,1.7,0,0,0,.305-.062A1.733,1.733,0,0,0-473.811,1206.184Z" transform="translate(8458.103 -774.904)" fill="url(#linear-gradient)"/>
    <path id="Path_52501" data-name="Path 52501" d="M-473.288,1209.63a.975.975,0,0,1-.684-.3.975.975,0,0,1-.269-.7.977.977,0,0,1,.862-.95h.183a.842.842,0,0,1,.215.03.885.885,0,0,1,.662.807.164.164,0,0,1,0,.035.973.973,0,0,1-.69,1.037.983.983,0,0,1-.175.035h-.087Z" transform="translate(8455.86 -777.194)" fill="url(#linear-gradient-2)"/>
    <path id="Path_52502" data-name="Path 52502" d="M-522.6,1212.62l-.06.022a.28.28,0,0,0-.092.068,24.613,24.613,0,0,1-2.265,2.218.875.875,0,0,1-.673.165,1.217,1.217,0,0,1-.7-.693c-.263-.513-.773-1.285-1.22-1.958-.165-.25-.318-.5-.437-.675a1.325,1.325,0,0,0-.732-.563,1.208,1.208,0,0,0-.3-.045h-.23a1.136,1.136,0,0,0-.225.05,1.3,1.3,0,0,0-.7.55c-.14.222-.215.35-.295.5-.175.3-.367.655-1.355,2.1l-.105.17c-.16.265-.407.663-.685.7-.16.025-.345-.075-.56-.28-.577-.555-2.3-2.25-2.3-2.25a.343.343,0,0,0-.135-.075,1.019,1.019,0,0,0-.5-.032,1.038,1.038,0,0,0-.827,1.213l1.415,7.835a.3.3,0,0,0,.287.25h12.328a.3.3,0,0,0,.287-.25l1.415-7.835a1.04,1.04,0,0,0-.033-.525,1.03,1.03,0,0,0-.515-.6A1.031,1.031,0,0,0-522.6,1212.62Z" transform="translate(8502.937 -779.806)" fill="url(#linear-gradient-3)"/>
    <path id="Path_52503" data-name="Path 52503" d="M-532.679,1223.5l-1.347-7.458a.288.288,0,0,1,.044-.216.288.288,0,0,1,.184-.121h.073c.367.36,1.71,1.68,2.215,2.165a1.5,1.5,0,0,0,1.025.5,1.129,1.129,0,0,0,.163,0,1.9,1.9,0,0,0,1.215-1.05l.1-.155c.945-1.385,1.167-1.777,1.347-2.093l.028-.045c.075-.132.147-.25.28-.465a.551.551,0,0,1,.295-.25h.215a.508.508,0,0,1,.107.017.56.56,0,0,1,.293.235l.448.688c.36.545.9,1.357,1.165,1.862a1.972,1.972,0,0,0,1.115,1.08.71.71,0,0,0,.143.038,1.58,1.58,0,0,0,.265.022,1.65,1.65,0,0,0,.98-.328l.035-.03a24.551,24.551,0,0,0,2.25-2.177h.015a.288.288,0,0,1,.27.2.313.313,0,0,1,0,.145l-1.35,7.467Z" transform="translate(8500.7 -782.169)" fill="url(#linear-gradient-4)"/>
    <path id="Path_52504" data-name="Path 52504" d="M-518.592,1257.67H-530.96a.25.25,0,0,0-.25.25v1.53h0a.25.25,0,0,0,.25.25h12.37a.25.25,0,0,0,.25-.25v-1.532h0A.25.25,0,0,0-518.592,1257.67Z" transform="translate(8498.584 -814.693)" fill="url(#linear-gradient-5)"/>
    <rect id="Rectangle_62728" data-name="Rectangle 62728" width="11.347" height="0.505" transform="translate(7968.132 443.73)" fill="url(#linear-gradient-6)"/>
    <path id="Path_52505" data-name="Path 52505" d="M-511.731,1198.768h0a1.715,1.715,0,0,0,1.273.38,1.73,1.73,0,0,0,1.525-1.907,1.633,1.633,0,0,0-1.628-1.55h-.263a1.718,1.718,0,0,0-1.16.633A1.75,1.75,0,0,0-511.731,1198.768Z" transform="translate(8484.454 -768.2)" fill="url(#linear-gradient-7)"/>
    <path id="Path_52506" data-name="Path 52506" d="M-508.4,1200.7a.982.982,0,0,1-.6-.2l-.02-.017a.973.973,0,0,1-.355-.657.967.967,0,0,1,.213-.718.98.98,0,0,1,.655-.358h.185a.887.887,0,0,1,.88.838.2.2,0,0,0,0,.04.975.975,0,0,1-.86,1.077Z" transform="translate(8482.208 -770.495)" fill="url(#linear-gradient-8)"/>
    <path id="Path_52507" data-name="Path 52507" d="M-542.234,1205.383a1.727,1.727,0,0,0-.39-1.285,1.727,1.727,0,0,0-1.193-.617,1.75,1.75,0,0,0-1.85,1.637,1.73,1.73,0,0,0,1.54,1.807,1.428,1.428,0,0,0,.18,0h.087a1.635,1.635,0,0,0,1.625-1.543Z" transform="translate(8509.429 -774.041)" fill="url(#linear-gradient-9)"/>
    <path id="Path_52508" data-name="Path 52508" d="M-541.766,1208.448h-.03a.975.975,0,0,1-.867-1.02,1,1,0,0,1,.972-.927h.07a.968.968,0,0,1,.672.348.985.985,0,0,1,.223.728v.035a.888.888,0,0,1-.878.84h-.158Z" transform="translate(8507.176 -776.309)" fill="url(#linear-gradient-10)"/>
    <path id="Path_52509" data-name="Path 52509" d="M-468.879,1213.717a3.468,3.468,0,0,1-2.7-1.25,3.117,3.117,0,0,1-.66-2.584l.345-1.749.575-2.894a2.877,2.877,0,0,1,1.185-1.807,7.1,7.1,0,0,0,1.292-1.167,5.951,5.951,0,0,0,1.463-4.473,1.876,1.876,0,0,1,.55-1.5,1.953,1.953,0,0,1,1.388-.565h27.22a2.611,2.611,0,0,1,1.983.892,2.4,2.4,0,0,1,.57,1.909l-1.3,9.261a7.18,7.18,0,0,1-7.25,5.928Z" transform="translate(8454.408 -768.23)" fill="url(#linear-gradient-11)"/>
    <path id="Path_52510" data-name="Path 52510" d="M-467.38,1214.67a2.968,2.968,0,0,1-2.318-1.072,2.618,2.618,0,0,1-.555-2.167l.345-1.749.575-2.9a2.384,2.384,0,0,1,.982-1.5,7.42,7.42,0,0,0,1.383-1.25,6.45,6.45,0,0,0,1.582-4.848,1.374,1.374,0,0,1,.4-1.1,1.465,1.465,0,0,1,1.038-.42h27.22a2.113,2.113,0,0,1,1.6.72,1.891,1.891,0,0,1,.453,1.5l-1.3,9.263a6.677,6.677,0,0,1-6.75,5.5Z" transform="translate(8452.909 -769.685)" fill="url(#linear-gradient-12)"/>
    <path id="Path_52511" data-name="Path 52511" d="M-465.136,1216.139a2.051,2.051,0,0,1-2.138-2.341h0l.345-1.749.575-2.9a1.641,1.641,0,0,1,.675-1.022,8.078,8.078,0,0,0,1.522-1.379,7.207,7.207,0,0,0,1.762-5.412.6.6,0,0,1,.183-.5.71.71,0,0,1,.5-.2h27.23a1.25,1.25,0,0,1,.974.383,1.249,1.249,0,0,1,.341.989l-1.3,9.263a5.913,5.913,0,0,1-6.018,4.848Z" transform="translate(8450.665 -771.906)" fill="url(#linear-gradient-13)"/>
    <path id="Path_52512" data-name="Path 52512" d="M-433.845,1225.919h-1.53c-.108,0-.173-.035-.19-.105a.129.129,0,0,1-.015-.035l-.75-6.69a.058.058,0,0,0,0-.028l-.015-.027a.5.5,0,0,0-.1-.148,1.847,1.847,0,0,0-.14-.14l-.057-.047-.1-.073c-.035-.027-.07-.06-.105-.092l-.1-.09a.25.25,0,0,1-.075-.155c0-.042.04-.062.11-.062h3.05a.173.173,0,0,1,.182.118.147.147,0,0,0,.013.035l.667,5.565,2.883-5.5a.323.323,0,0,1,.295-.2h2.25c.07,0,.105.032.105.1a.227.227,0,0,1-.02.1l-3.823,7.292a.323.323,0,0,1-.295.19Z" transform="translate(8427.938 -785.106)" fill="#fff"/>
    <path id="Path_52528" data-name="Path 52528" d="M-399.645,1223.738c-.145,0-.215-.05-.215-.15v-.047l1.885-7.09v-.083a.785.785,0,0,0-.283-.472c-.2-.175-.293-.282-.293-.32s.05-.085.15-.085h4.168c.133,0,.2.057.2.17v.047l-2.065,7.835a.3.3,0,0,1-.32.2Z" transform="translate(8400.077 -783.054)" fill="#fff"/>
    <path id="Path_52529" data-name="Path 52529" d="M-377.082,1223.738q-.218,0-.218-.15v-.047l1.885-7.09v-.083a.785.785,0,0,0-.283-.472c-.195-.175-.293-.282-.293-.32s.05-.085.15-.085h4.167c.133,0,.2.057.2.17v.047l-2.065,7.835a.308.308,0,0,1-.323.2Z" transform="translate(8383.159 -783.054)" fill="#fff"/>
  </g>
</svg>
