<svg xmlns="http://www.w3.org/2000/svg" xmlns:xlink="http://www.w3.org/1999/xlink" width="55" height="18" viewBox="0 0 55 18">
  <defs>
    <linearGradient id="linear-gradient" x1="1.398" y1="1.928" x2="-0.293" y2="-0.764" gradientUnits="objectBoundingBox">
      <stop offset="0" stop-color="#ff9f3d"/>
      <stop offset="1" stop-color="#ffd166"/>
    </linearGradient>
    <linearGradient id="linear-gradient-2" x1="-2.24" y1="-2.183" x2="0.454" y2="0.442" xlink:href="#linear-gradient"/>
    <linearGradient id="linear-gradient-3" x1="0.706" y1="0.969" x2="0.339" y2="0.108" xlink:href="#linear-gradient"/>
    <linearGradient id="linear-gradient-4" x1="0.253" y1="0.135" x2="0.617" y2="0.69" xlink:href="#linear-gradient"/>
    <linearGradient id="linear-gradient-5" x1="0.494" y1="0.432" x2="0.044" y2="-4.113" xlink:href="#linear-gradient"/>
    <linearGradient id="linear-gradient-6" x1="-0.123" y1="-13.297" x2="0.334" y2="-3.178" xlink:href="#linear-gradient"/>
    <linearGradient id="linear-gradient-7" x1="2.405" y1="3.514" x2="0.723" y2="0.846" xlink:href="#linear-gradient"/>
    <linearGradient id="linear-gradient-8" x1="0.65" y1="0.632" x2="3.323" y2="3.252" xlink:href="#linear-gradient"/>
    <linearGradient id="linear-gradient-9" x1="2.834" y1="4.218" x2="1.151" y2="1.537" xlink:href="#linear-gradient"/>
    <linearGradient id="linear-gradient-10" x1="2.324" y1="2.297" x2="4.998" y2="4.923" xlink:href="#linear-gradient"/>
    <linearGradient id="linear-gradient-11" x1="0.71" y1="0.792" x2="0.271" y2="0.159" xlink:href="#linear-gradient"/>
    <linearGradient id="linear-gradient-12" x1="0.245" y1="0.045" x2="0.678" y2="0.797" xlink:href="#linear-gradient"/>
    <linearGradient id="linear-gradient-13" x1="0.18" y1="0.169" x2="0.892" y2="0.885" gradientUnits="objectBoundingBox">
      <stop offset="0" stop-color="#10192e"/>
      <stop offset="1" stop-color="#293a61"/>
    </linearGradient>
  </defs>
  <g id="v12" transform="translate(-7963.759 -539.259)">
    <path id="Path_52530" data-name="Path 52530" d="M-473.811,1317.941a1.637,1.637,0,0,0-1.227-1.5,1.626,1.626,0,0,0-.4-.052h-.087a1.081,1.081,0,0,0-.18,0,1.723,1.723,0,0,0-1.525,1.682,1.722,1.722,0,0,0,1.685,1.75h.2a1.688,1.688,0,0,0,.305-.062A1.732,1.732,0,0,0-473.811,1317.941Z" transform="translate(8458.096 -774.895)" fill="url(#linear-gradient)"/>
    <path id="Path_52531" data-name="Path 52531" d="M-473.288,1321.39a.975.975,0,0,1-.684-.3.975.975,0,0,1-.269-.7.977.977,0,0,1,.862-.95h.182a.842.842,0,0,1,.215.03.885.885,0,0,1,.662.807.156.156,0,0,1,0,.032.975.975,0,0,1-.69,1.04.983.983,0,0,1-.175.035h-.087Z" transform="translate(8455.854 -777.187)" fill="url(#linear-gradient-2)"/>
    <path id="Path_52532" data-name="Path 52532" d="M-522.572,1324.393l-.06.022a.278.278,0,0,0-.092.068,24.639,24.639,0,0,1-2.255,2.215.875.875,0,0,1-.672.165,1.218,1.218,0,0,1-.7-.693c-.263-.513-.773-1.285-1.22-1.96l-.437-.672a1.325,1.325,0,0,0-.733-.562,1.208,1.208,0,0,0-.3-.045h-.23a1.127,1.127,0,0,0-.225.05,1.3,1.3,0,0,0-.7.55c-.14.222-.215.35-.295.5-.175.3-.367.655-1.355,2.1l-.105.17c-.16.25-.407.663-.685.7-.16.025-.345-.075-.56-.28-.577-.555-2.3-2.25-2.3-2.25a.343.343,0,0,0-.135-.075,1.019,1.019,0,0,0-.5-.032,1.038,1.038,0,0,0-.827,1.213l1.415,7.833a.3.3,0,0,0,.287.25h12.328a.3.3,0,0,0,.287-.25l1.415-7.835a1.04,1.04,0,0,0-.032-.525,1.03,1.03,0,0,0-.521-.606A1.03,1.03,0,0,0-522.572,1324.393Z" transform="translate(8502.906 -779.805)" fill="url(#linear-gradient-3)"/>
    <path id="Path_52533" data-name="Path 52533" d="M-532.671,1335.228l-1.345-7.455a.287.287,0,0,1,.044-.216.287.287,0,0,1,.184-.122h.073c.367.362,1.71,1.682,2.215,2.167a1.5,1.5,0,0,0,1.025.5,1.165,1.165,0,0,0,.163,0,1.9,1.9,0,0,0,1.215-1.05l.1-.155c.945-1.385,1.167-1.777,1.347-2.093l.028-.045c.075-.132.147-.25.28-.465a.55.55,0,0,1,.3-.25l.055-.015h.16a.382.382,0,0,1,.107.018.547.547,0,0,1,.293.235l.448.688c.36.545.9,1.358,1.165,1.863a1.98,1.98,0,0,0,1.115,1.08.7.7,0,0,0,.143.037,1.567,1.567,0,0,0,.265.022,1.65,1.65,0,0,0,.98-.327l.035-.03a24.6,24.6,0,0,0,2.25-2.18h.015a.285.285,0,0,1,.27.2.325.325,0,0,1,0,.147l-1.35,7.468Z" transform="translate(8500.692 -782.13)" fill="url(#linear-gradient-4)"/>
    <path id="Path_52534" data-name="Path 52534" d="M-518.592,1369.43H-530.96a.25.25,0,0,0-.25.25v1.53h0a.25.25,0,0,0,.25.25h12.37a.25.25,0,0,0,.25-.25v-1.532h0A.25.25,0,0,0-518.592,1369.43Z" transform="translate(8498.584 -814.682)" fill="url(#linear-gradient-5)"/>
    <rect id="Rectangle_62730" data-name="Rectangle 62730" width="11.347" height="0.505" transform="translate(7968.131 555.501)" fill="url(#linear-gradient-6)"/>
    <path id="Path_52535" data-name="Path 52535" d="M-511.731,1310.539h0a1.713,1.713,0,0,0,1.273.377,1.725,1.725,0,0,0,1.525-1.905,1.632,1.632,0,0,0-1.628-1.55h-.08a1.493,1.493,0,0,0-.183,0,1.718,1.718,0,0,0-1.16.633A1.75,1.75,0,0,0-511.731,1310.539Z" transform="translate(8484.451 -768.2)" fill="url(#linear-gradient-7)"/>
    <path id="Path_52536" data-name="Path 52536" d="M-508.4,1312.462a.982.982,0,0,1-.6-.2l-.02-.017a.972.972,0,0,1-.355-.657.967.967,0,0,1,.213-.718.98.98,0,0,1,.655-.358h.185a.888.888,0,0,1,.88.838.2.2,0,0,0,0,.04.975.975,0,0,1-.86,1.077Z" transform="translate(8482.204 -770.488)" fill="url(#linear-gradient-8)"/>
    <path id="Path_52537" data-name="Path 52537" d="M-542.235,1317.141a1.725,1.725,0,0,0-.39-1.284,1.724,1.724,0,0,0-1.192-.616,1.75,1.75,0,0,0-1.85,1.635,1.73,1.73,0,0,0,1.54,1.81,1.429,1.429,0,0,0,.18,0h.087A1.635,1.635,0,0,0-542.235,1317.141Z" transform="translate(8509.429 -774.034)" fill="url(#linear-gradient-9)"/>
    <path id="Path_52538" data-name="Path 52538" d="M-541.766,1320.158h-.03a.975.975,0,0,1-.867-1.02,1,1,0,0,1,.972-.927h.07a.967.967,0,0,1,.672.348.985.985,0,0,1,.223.728v.035a.888.888,0,0,1-.878.84h-.158Z" transform="translate(8507.175 -776.264)" fill="url(#linear-gradient-10)"/>
    <path id="Path_52539" data-name="Path 52539" d="M-468.879,1325.481a3.468,3.468,0,0,1-2.7-1.25,3.119,3.119,0,0,1-.66-2.584l.345-1.75.575-2.895a2.877,2.877,0,0,1,1.185-1.807,7.03,7.03,0,0,0,1.293-1.17,5.943,5.943,0,0,0,1.462-4.472,1.877,1.877,0,0,1,.55-1.5,1.953,1.953,0,0,1,1.388-.565h27.22a2.61,2.61,0,0,1,2,.877,2.4,2.4,0,0,1,.57,1.91l-1.3,9.266a7.181,7.181,0,0,1-7.25,5.929Z" transform="translate(8454.39 -768.222)" fill="url(#linear-gradient-11)"/>
    <path id="Path_52540" data-name="Path 52540" d="M-467.38,1326.434a2.968,2.968,0,0,1-2.318-1.072,2.619,2.619,0,0,1-.555-2.167l.345-1.75.575-2.9a2.377,2.377,0,0,1,.982-1.5,7.413,7.413,0,0,0,1.383-1.25,6.453,6.453,0,0,0,1.582-4.849,1.375,1.375,0,0,1,.4-1.1,1.465,1.465,0,0,1,1.038-.42h27.22a2.113,2.113,0,0,1,1.605.72,1.892,1.892,0,0,1,.452,1.5l-1.3,9.266a6.678,6.678,0,0,1-6.75,5.5Z" transform="translate(8452.891 -769.678)" fill="url(#linear-gradient-12)"/>
    <path id="Path_52541" data-name="Path 52541" d="M-465.136,1327.9a2.051,2.051,0,0,1-2.138-2.342h0l.345-1.75.575-2.9a1.642,1.642,0,0,1,.675-1.022,8.081,8.081,0,0,0,1.522-1.38,7.21,7.21,0,0,0,1.762-5.414.6.6,0,0,1,.182-.5.71.71,0,0,1,.5-.2h27.23a1.25,1.25,0,0,1,.974.383,1.25,1.25,0,0,1,.341.989l-1.3,9.266a5.913,5.913,0,0,1-6.018,4.849Z" transform="translate(8450.646 -771.9)" fill="url(#linear-gradient-13)"/>
    <path id="Path_52542" data-name="Path 52542" d="M-441.277,1337.622h-1.533c-.107,0-.17-.035-.19-.1a.2.2,0,0,1-.012-.035l-.75-6.69a.057.057,0,0,0,0-.027l-.013-.027a.567.567,0,0,0-.1-.147,1.871,1.871,0,0,0-.14-.143l-.055-.045c-.03-.02-.06-.045-.1-.073l-.108-.093-.092-.09a.25.25,0,0,1-.075-.155c0-.042.038-.065.11-.065h3.048a.172.172,0,0,1,.182.12.106.106,0,0,0,.015.035l.667,5.565,2.88-5.5a.325.325,0,0,1,.295-.2h2.25q.105,0,.105.1a.276.276,0,0,1-.02.1l-3.84,7.3a.325.325,0,0,1-.295.19Z" transform="translate(8433.5 -785.052)" fill="#fff"/>
    <path id="Path_52543" data-name="Path 52543" d="M-409.11,1335.713c-.148,0-.22-.05-.22-.152v-.047l1.905-7.16v-.088a.783.783,0,0,0-.285-.475c-.2-.177-.3-.285-.3-.325s.05-.085.152-.085h4.207c.133,0,.2.057.2.172v.047l-2.085,7.912a.312.312,0,0,1-.325.2Z" transform="translate(8407.166 -783.143)" fill="#fff"/>
    <path id="Path_52544" data-name="Path 52544" d="M-388.342,1335.739c-.15,0-.228-.055-.228-.162v-.057l.79-2.912a1.882,1.882,0,0,1,.837-1.068,2.533,2.533,0,0,1,1.467-.448h3.513a.292.292,0,0,0,.325-.228c.062-.23.125-.458.185-.685s.118-.445.173-.648.1-.387.147-.552.08-.3.105-.41h-1.9l-.325,1.228a.29.29,0,0,1-.322.21h-3.25c-.152,0-.228-.05-.228-.153a.109.109,0,0,0,0-.032.02.02,0,0,1,0-.025l.39-1.41a.065.065,0,0,0,0-.037.133.133,0,0,1,0-.048.687.687,0,0,0-.285-.465c-.2-.18-.3-.288-.3-.325s.055-.1.163-.1h8.25a1.751,1.751,0,0,1,1.1.333,1.048,1.048,0,0,1,.427.865v.163a.822.822,0,0,1-.022.16l-.535,1.958a1.823,1.823,0,0,1-.828,1.075,2.657,2.657,0,0,1-1.457.438h-3.525a.3.3,0,0,0-.325.218q-.18.664-.312,1.175c-.087.34-.16.6-.21.787h1.865l.277-1.057a.29.29,0,0,1,.323-.21h3.25c.152,0,.228.055.228.162v.047l-.4,1.485-.065.305a.43.43,0,0,1-.163.277.528.528,0,0,1-.39.142h-8.75Z" transform="translate(8391.594 -783.169)" fill="#fff"/>
  </g>
</svg>
