<svg xmlns="http://www.w3.org/2000/svg" xmlns:xlink="http://www.w3.org/1999/xlink" width="55" height="18" viewBox="0 0 55 18">
  <defs>
    <linearGradient id="linear-gradient" x1="0.494" y1="0.432" x2="0.044" y2="-4.113" gradientUnits="objectBoundingBox">
      <stop offset="0" stop-color="#ff9f3d"/>
      <stop offset="1" stop-color="#ffd166"/>
    </linearGradient>
    <linearGradient id="linear-gradient-2" x1="-0.123" y1="-13.297" x2="0.334" y2="-3.178" xlink:href="#linear-gradient"/>
    <linearGradient id="linear-gradient-3" x1="2.406" y1="3.512" x2="0.723" y2="0.846" xlink:href="#linear-gradient"/>
    <linearGradient id="linear-gradient-4" x1="0.65" y1="0.632" x2="3.323" y2="3.252" xlink:href="#linear-gradient"/>
    <linearGradient id="linear-gradient-5" x1="1.398" y1="1.929" x2="-0.293" y2="-0.765" xlink:href="#linear-gradient"/>
    <linearGradient id="linear-gradient-6" x1="-2.24" y1="-2.183" x2="0.454" y2="0.442" xlink:href="#linear-gradient"/>
    <linearGradient id="linear-gradient-7" x1="0.707" y1="0.969" x2="0.339" y2="0.107" xlink:href="#linear-gradient"/>
    <linearGradient id="linear-gradient-8" x1="0.254" y1="0.134" x2="0.617" y2="0.689" xlink:href="#linear-gradient"/>
    <linearGradient id="linear-gradient-9" x1="2.834" y1="4.218" x2="1.151" y2="1.537" xlink:href="#linear-gradient"/>
    <linearGradient id="linear-gradient-10" x1="2.324" y1="2.292" x2="4.998" y2="4.918" xlink:href="#linear-gradient"/>
    <linearGradient id="linear-gradient-11" x1="0.71" y1="0.792" x2="0.272" y2="0.159" xlink:href="#linear-gradient"/>
    <linearGradient id="linear-gradient-12" x1="0.245" y1="0.044" x2="0.678" y2="0.797" xlink:href="#linear-gradient"/>
    <linearGradient id="linear-gradient-13" x1="0.18" y1="0.169" x2="0.892" y2="0.885" gradientUnits="objectBoundingBox">
      <stop offset="0" stop-color="#10192e"/>
      <stop offset="1" stop-color="#293a61"/>
    </linearGradient>
  </defs>
  <g id="v13" transform="translate(-7963.76 -633.099)">
    <path id="Path_52549" data-name="Path 52549" d="M-518.592,1463.27H-530.96a.25.25,0,0,0-.25.25v1.53h0a.25.25,0,0,0,.25.25h12.37a.25.25,0,0,0,.25-.25v-1.532h0A.25.25,0,0,0-518.592,1463.27Z" transform="translate(8498.584 -814.686)" fill="url(#linear-gradient)"/>
    <rect id="Rectangle_62731" data-name="Rectangle 62731" width="11.347" height="0.505" transform="translate(7968.132 649.336)" fill="url(#linear-gradient-2)"/>
    <path id="Path_52550" data-name="Path 52550" d="M-511.731,1404.379h0a1.716,1.716,0,0,0,1.273.38,1.73,1.73,0,0,0,1.525-1.907,1.632,1.632,0,0,0-1.628-1.55h-.08a1.469,1.469,0,0,0-.183,0,1.718,1.718,0,0,0-1.16.632A1.75,1.75,0,0,0-511.731,1404.379Z" transform="translate(8484.454 -768.2)" fill="url(#linear-gradient-3)"/>
    <path id="Path_52551" data-name="Path 52551" d="M-508.4,1406.3a.983.983,0,0,1-.6-.2l-.02-.017a.973.973,0,0,1-.355-.658.967.967,0,0,1,.212-.717.98.98,0,0,1,.655-.358h.185a.887.887,0,0,1,.88.838.2.2,0,0,0,0,.04.975.975,0,0,1-.86,1.078Z" transform="translate(8482.208 -770.488)" fill="url(#linear-gradient-4)"/>
    <g id="Group_40312" data-name="Group 40312" transform="translate(7963.76 633.106)">
      <path id="Path_52545" data-name="Path 52545" d="M-473.811,1411.784a1.64,1.64,0,0,0-1.227-1.5,1.626,1.626,0,0,0-.4-.052h-.087a1.452,1.452,0,0,0-.18,0,1.725,1.725,0,0,0-1.525,1.682,1.723,1.723,0,0,0,1.685,1.75h.2a1.688,1.688,0,0,0,.305-.062A1.732,1.732,0,0,0-473.811,1411.784Z" transform="translate(494.343 -1408.004)" fill="url(#linear-gradient-5)"/>
      <path id="Path_52546" data-name="Path 52546" d="M-473.288,1415.23a.975.975,0,0,1-.684-.3.975.975,0,0,1-.269-.7.977.977,0,0,1,.862-.95h.182a.842.842,0,0,1,.215.03.885.885,0,0,1,.662.807.166.166,0,0,1,0,.035.972.972,0,0,1-.69,1.037.983.983,0,0,1-.175.035h-.087Z" transform="translate(492.101 -1410.294)" fill="url(#linear-gradient-6)"/>
      <path id="Path_52547" data-name="Path 52547" d="M-522.6,1418.24l-.06.022a.278.278,0,0,0-.093.068,24.637,24.637,0,0,1-2.265,2.218.875.875,0,0,1-.672.165,1.218,1.218,0,0,1-.7-.693c-.263-.5-.772-1.285-1.22-1.96l-.437-.672a1.325,1.325,0,0,0-.733-.562,1.208,1.208,0,0,0-.3-.045h-.23a1.127,1.127,0,0,0-.225.05,1.3,1.3,0,0,0-.695.55c-.14.222-.215.35-.3.5-.175.305-.367.655-1.355,2.1l-.1.17c-.16.265-.408.662-.685.7-.16.025-.345-.075-.56-.28-.578-.555-2.3-2.25-2.3-2.25a.344.344,0,0,0-.135-.075,1.017,1.017,0,0,0-.5-.032,1.038,1.038,0,0,0-.828,1.213l1.415,7.835a.3.3,0,0,0,.288.25h12.328a.3.3,0,0,0,.287-.25l1.415-7.835a1.04,1.04,0,0,0-.032-.525,1.03,1.03,0,0,0-.515-.6A1.03,1.03,0,0,0-522.6,1418.24Z" transform="translate(539.177 -1412.922)" fill="url(#linear-gradient-7)"/>
      <path id="Path_52548" data-name="Path 52548" d="M-532.679,1429.1l-1.347-7.458a.288.288,0,0,1,.044-.216.287.287,0,0,1,.184-.121h.073c.367.36,1.71,1.68,2.215,2.165a1.5,1.5,0,0,0,1.025.5,1.165,1.165,0,0,0,.163,0,1.9,1.9,0,0,0,1.215-1.05l.1-.155c.945-1.385,1.167-1.778,1.347-2.093l.028-.045c.075-.132.147-.25.28-.465a.551.551,0,0,1,.3-.25h.215a.5.5,0,0,1,.107.017.56.56,0,0,1,.293.235l.448.688c.36.545.9,1.358,1.165,1.863a1.972,1.972,0,0,0,1.115,1.08.7.7,0,0,0,.143.037,1.58,1.58,0,0,0,.265.022,1.65,1.65,0,0,0,.98-.327l.035-.03a24.251,24.251,0,0,0,2.25-2.18h.015a.288.288,0,0,1,.27.2.325.325,0,0,1,0,.147l-1.35,7.468Z" transform="translate(536.941 -1415.269)" fill="url(#linear-gradient-8)"/>
      <path id="Path_52552" data-name="Path 52552" d="M-542.234,1410.981a1.725,1.725,0,0,0-.39-1.284,1.725,1.725,0,0,0-1.192-.616,1.75,1.75,0,0,0-1.85,1.638,1.73,1.73,0,0,0,1.54,1.807,1.453,1.453,0,0,0,.18,0h.087A1.635,1.635,0,0,0-542.234,1410.981Z" transform="translate(545.669 -1407.141)" fill="url(#linear-gradient-9)"/>
      <path id="Path_52553" data-name="Path 52553" d="M-541.766,1414.038h-.03a.975.975,0,0,1-.867-1.02,1,1,0,0,1,.972-.927h.07a.968.968,0,0,1,.672.348.985.985,0,0,1,.223.727v.035a.887.887,0,0,1-.878.84h-.158Z" transform="translate(543.416 -1409.4)" fill="url(#linear-gradient-10)"/>
      <path id="Path_52554" data-name="Path 52554" d="M-468.879,1419.317a3.468,3.468,0,0,1-2.7-1.25,3.117,3.117,0,0,1-.66-2.584l.345-1.749.575-2.894a2.877,2.877,0,0,1,1.185-1.807,7.027,7.027,0,0,0,1.293-1.169,5.941,5.941,0,0,0,1.462-4.471,1.876,1.876,0,0,1,.55-1.5,1.953,1.953,0,0,1,1.388-.565h27.22a2.61,2.61,0,0,1,1.982.892,2.4,2.4,0,0,1,.57,1.909l-1.3,9.263a7.18,7.18,0,0,1-7.25,5.927Z" transform="translate(490.649 -1401.33)" fill="url(#linear-gradient-11)"/>
      <path id="Path_52555" data-name="Path 52555" d="M-467.38,1420.307a2.968,2.968,0,0,1-2.318-1.072,2.618,2.618,0,0,1-.555-2.167l.345-1.749.575-2.9a2.377,2.377,0,0,1,.982-1.5,7.41,7.41,0,0,0,1.383-1.249,6.45,6.45,0,0,0,1.582-4.848,1.374,1.374,0,0,1,.41-1.087,1.465,1.465,0,0,1,1.038-.42h27.212a2.114,2.114,0,0,1,1.605.72,1.891,1.891,0,0,1,.452,1.5l-1.3,9.263a6.677,6.677,0,0,1-6.75,5.5Z" transform="translate(489.149 -1402.822)" fill="url(#linear-gradient-12)"/>
      <path id="Path_52556" data-name="Path 52556" d="M-465.136,1421.776a2.051,2.051,0,0,1-2.138-2.341h0l.345-1.749.575-2.9a1.641,1.641,0,0,1,.675-1.022,8.083,8.083,0,0,0,1.523-1.379,7.207,7.207,0,0,0,1.762-5.412.6.6,0,0,1,.182-.487.71.71,0,0,1,.5-.2h27.23a1.25,1.25,0,0,1,.974.383,1.249,1.249,0,0,1,.341.989l-1.3,9.263a5.913,5.913,0,0,1-6.018,4.848Z" transform="translate(486.905 -1405.044)" fill="url(#linear-gradient-13)"/>
      <path id="Path_52557" data-name="Path 52557" d="M-441.277,1431.469h-1.533c-.107,0-.17-.035-.19-.1a.2.2,0,0,1-.012-.035l-.75-6.69a.057.057,0,0,0,0-.027l-.013-.028a.571.571,0,0,0-.1-.147,1.5,1.5,0,0,0-.14-.14l-.055-.047c-.03-.02-.06-.045-.1-.073l-.108-.093-.092-.09a.25.25,0,0,1-.075-.155c0-.043.038-.062.11-.062h3.048a.17.17,0,0,1,.182.117.105.105,0,0,0,.015.035l.667,5.565,2.88-5.5a.325.325,0,0,1,.295-.2h2.25c.07,0,.105.033.105.1a.273.273,0,0,1-.02.1l-3.822,7.293a.325.325,0,0,1-.295.19Z" transform="translate(469.751 -1418.168)" fill="#fff"/>
      <path id="Path_52558" data-name="Path 52558" d="M-409.283,1429.56c-.145,0-.217-.05-.217-.152v-.047l1.9-7.16v-.085a.775.775,0,0,0-.285-.475c-.2-.18-.295-.287-.295-.325s.05-.085.152-.085h4.208c.133,0,.2.057.2.17v.047l-2.085,7.912a.31.31,0,0,1-.323.2Z" transform="translate(443.547 -1416.259)" fill="#fff"/>
      <path id="Path_52559" data-name="Path 52559" d="M-384.013,1425.657a.38.38,0,0,1-.068-.147.41.41,0,0,1,0-.195l.143-.5a.5.5,0,0,1,.177-.25.577.577,0,0,1,.365-.1h1.458a.293.293,0,0,0,.322-.22c.065-.235.118-.443.163-.62l.12-.475c.035-.14.065-.267.1-.38s.055-.225.08-.335h-1.9l-.325,1.22a.285.285,0,0,1-.315.2h-3.25c-.145,0-.22-.047-.22-.142a.055.055,0,0,0,0-.03.043.043,0,0,1,0-.028l.39-1.4a.05.05,0,0,0,0-.043.314.314,0,0,1,0-.052.75.75,0,0,0-.285-.475c-.2-.18-.3-.287-.3-.325s.053-.075.152-.075h8.25a1.749,1.749,0,0,1,1.1.323,1.062,1.062,0,0,1,.438.858,1.171,1.171,0,0,1,0,.165,1.038,1.038,0,0,1-.027.158l-.372,1.478a1.838,1.838,0,0,1-.818,1.065l.075.095a1.307,1.307,0,0,1,.135.22,1.151,1.151,0,0,1,.1.305.75.75,0,0,1-.013.343l-.552,1.943a2.189,2.189,0,0,1-.647.837,3.147,3.147,0,0,1-1.5.533h-7.415a.273.273,0,0,1-.19-.047.272.272,0,0,1-.028-.052.15.15,0,0,1,0-.062.068.068,0,0,0,0-.028.035.035,0,0,1,0-.03l.637-2.35.085-.325a.3.3,0,0,1,.325-.218h3.25c.147,0,.22.057.22.17v.047l-.43,1.573-.047.17h1.857l.763-2.665H-383.8A.472.472,0,0,1-384.013,1425.657Z" transform="translate(427.937 -1416.299)" fill="#fff"/>
    </g>
  </g>
</svg>
