<svg xmlns="http://www.w3.org/2000/svg" xmlns:xlink="http://www.w3.org/1999/xlink" width="55" height="18" viewBox="0 0 55 18">
  <defs>
    <linearGradient id="linear-gradient" x1="-2.24" y1="-2.183" x2="0.454" y2="0.442" gradientUnits="objectBoundingBox">
      <stop offset="0" stop-color="#ff9f3d"/>
      <stop offset="1" stop-color="#ffd166"/>
    </linearGradient>
    <linearGradient id="linear-gradient-2" x1="2.406" y1="3.514" x2="0.723" y2="0.846" xlink:href="#linear-gradient"/>
    <linearGradient id="linear-gradient-3" x1="0.65" y1="0.632" x2="3.323" y2="3.252" xlink:href="#linear-gradient"/>
    <linearGradient id="linear-gradient-4" x1="2.324" y1="2.291" x2="4.998" y2="4.917" xlink:href="#linear-gradient"/>
    <linearGradient id="linear-gradient-5" x1="1.398" y1="1.929" x2="-0.293" y2="-0.765" xlink:href="#linear-gradient"/>
    <linearGradient id="linear-gradient-6" x1="0.707" y1="0.969" x2="0.34" y2="0.107" xlink:href="#linear-gradient"/>
    <linearGradient id="linear-gradient-7" x1="0.254" y1="0.134" x2="0.617" y2="0.689" xlink:href="#linear-gradient"/>
    <linearGradient id="linear-gradient-8" x1="0.494" y1="0.434" x2="0.044" y2="-4.134" xlink:href="#linear-gradient"/>
    <linearGradient id="linear-gradient-9" x1="-0.123" y1="-13.297" x2="0.334" y2="-3.178" xlink:href="#linear-gradient"/>
    <linearGradient id="linear-gradient-10" x1="2.834" y1="4.218" x2="1.151" y2="1.537" xlink:href="#linear-gradient"/>
    <linearGradient id="linear-gradient-11" x1="0.71" y1="0.791" x2="0.272" y2="0.158" xlink:href="#linear-gradient"/>
    <linearGradient id="linear-gradient-12" x1="0.245" y1="0.044" x2="0.678" y2="0.796" xlink:href="#linear-gradient"/>
    <linearGradient id="linear-gradient-13" x1="0.18" y1="0.169" x2="0.892" y2="0.885" gradientUnits="objectBoundingBox">
      <stop offset="0" stop-color="#10192e"/>
      <stop offset="1" stop-color="#293a61"/>
    </linearGradient>
  </defs>
  <g id="v14" transform="translate(-7963.76 -722.76)">
    <path id="Path_52561" data-name="Path 52561" d="M-473.288,1504.88a.975.975,0,0,1-.684-.3.975.975,0,0,1-.269-.7.977.977,0,0,1,.862-.95h.182a.842.842,0,0,1,.215.03.885.885,0,0,1,.663.807.166.166,0,0,1,0,.035.972.972,0,0,1-.69,1.037.983.983,0,0,1-.175.035h-.087Z" transform="translate(8455.86 -777.18)" fill="url(#linear-gradient)"/>
    <path id="Path_52565" data-name="Path 52565" d="M-511.731,1494.038h0a1.716,1.716,0,0,0,1.273.38,1.73,1.73,0,0,0,1.525-1.907,1.633,1.633,0,0,0-1.628-1.55h-.263a1.718,1.718,0,0,0-1.16.633A1.75,1.75,0,0,0-511.731,1494.038Z" transform="translate(8484.454 -768.2)" fill="url(#linear-gradient-2)"/>
    <path id="Path_52566" data-name="Path 52566" d="M-508.4,1495.952a.982.982,0,0,1-.6-.2l-.02-.017a.973.973,0,0,1-.355-.657.967.967,0,0,1,.213-.718.98.98,0,0,1,.655-.358h.185a.887.887,0,0,1,.88.838.2.2,0,0,0,0,.04.975.975,0,0,1-.86,1.078Z" transform="translate(8482.208 -770.48)" fill="url(#linear-gradient-3)"/>
    <path id="Path_52568" data-name="Path 52568" d="M-541.766,1503.7h-.03a.975.975,0,0,1-.867-1.02,1,1,0,0,1,.972-.927h.07a.968.968,0,0,1,.672.348.985.985,0,0,1,.223.728v.035a.888.888,0,0,1-.878.84h-.158Z" transform="translate(8507.176 -776.293)" fill="url(#linear-gradient-4)"/>
    <g id="Group_40313" data-name="Group 40313" transform="translate(7963.76 722.775)">
      <path id="Path_52560" data-name="Path 52560" d="M-473.811,1501.434a1.64,1.64,0,0,0-1.227-1.5,1.621,1.621,0,0,0-.4-.052h-.087a1.428,1.428,0,0,0-.18,0,1.725,1.725,0,0,0-1.525,1.682,1.723,1.723,0,0,0,1.685,1.75h.2a1.688,1.688,0,0,0,.305-.063A1.732,1.732,0,0,0-473.811,1501.434Z" transform="translate(494.343 -1497.664)" fill="url(#linear-gradient-5)"/>
      <path id="Path_52562" data-name="Path 52562" d="M-522.643,1507.89l-.06.022a.28.28,0,0,0-.092.068,24.613,24.613,0,0,1-2.265,2.218.875.875,0,0,1-.672.165,1.218,1.218,0,0,1-.7-.693c-.262-.513-.772-1.285-1.22-1.958-.165-.25-.318-.5-.437-.675a1.325,1.325,0,0,0-.733-.562,1.208,1.208,0,0,0-.3-.045h-.23a1.134,1.134,0,0,0-.225.05,1.3,1.3,0,0,0-.7.55c-.14.222-.215.35-.3.5-.175.3-.367.655-1.355,2.1l-.1.17c-.16.265-.408.663-.685.7-.16.025-.345-.075-.56-.28-.578-.555-2.3-2.25-2.3-2.25a.343.343,0,0,0-.135-.075,1.019,1.019,0,0,0-.5-.032,1.038,1.038,0,0,0-.673.428,1.038,1.038,0,0,0-.17.779l1.415,7.835a.3.3,0,0,0,.288.25h12.327a.3.3,0,0,0,.288-.25l1.432-7.835a1.039,1.039,0,0,0-.033-.525,1.03,1.03,0,0,0-.518-.6,1.03,1.03,0,0,0-.792-.055Z" transform="translate(539.217 -1502.585)" fill="url(#linear-gradient-6)"/>
      <path id="Path_52563" data-name="Path 52563" d="M-532.679,1518.748l-1.347-7.458a.288.288,0,0,1,.044-.216.288.288,0,0,1,.184-.121h.073c.367.36,1.71,1.68,2.215,2.165a1.5,1.5,0,0,0,1.025.5,1.129,1.129,0,0,0,.163,0,1.9,1.9,0,0,0,1.215-1.05l.1-.155c.945-1.385,1.167-1.777,1.347-2.093l.028-.045c.075-.132.147-.25.28-.465a.55.55,0,0,1,.3-.25h.215a.508.508,0,0,1,.107.017.561.561,0,0,1,.293.235l.448.688c.36.545.9,1.357,1.165,1.862a1.972,1.972,0,0,0,1.115,1.08.7.7,0,0,0,.143.037,1.568,1.568,0,0,0,.265.023,1.649,1.649,0,0,0,.98-.328l.035-.03a24.551,24.551,0,0,0,2.25-2.177h.015a.288.288,0,0,1,.27.2.325.325,0,0,1,0,.147l-1.35,7.467Z" transform="translate(536.941 -1504.933)" fill="url(#linear-gradient-7)"/>
      <path id="Path_52564" data-name="Path 52564" d="M-518.592,1552.92H-530.96a.25.25,0,0,0-.25.25v1.52h0a.25.25,0,0,0,.25.25h12.37a.25.25,0,0,0,.25-.25v-1.532h0A.25.25,0,0,0-518.592,1552.92Z" transform="translate(534.825 -1537.46)" fill="url(#linear-gradient-8)"/>
      <rect id="Rectangle_62732" data-name="Rectangle 62732" width="11.347" height="0.505" transform="translate(4.372 16.213)" fill="url(#linear-gradient-9)"/>
      <path id="Path_52567" data-name="Path 52567" d="M-542.234,1500.633a1.727,1.727,0,0,0-.39-1.285,1.727,1.727,0,0,0-1.193-.617,1.75,1.75,0,0,0-1.85,1.637,1.73,1.73,0,0,0,1.54,1.807,1.429,1.429,0,0,0,.18,0h.087a1.635,1.635,0,0,0,1.625-1.543Z" transform="translate(545.669 -1496.801)" fill="url(#linear-gradient-10)"/>
      <path id="Path_52569" data-name="Path 52569" d="M-468.879,1509a3.469,3.469,0,0,1-2.7-1.249,3.115,3.115,0,0,1-.66-2.583l.345-1.749.575-2.893a2.875,2.875,0,0,1,1.185-1.806,7.1,7.1,0,0,0,1.293-1.167,5.947,5.947,0,0,0,1.462-4.471,1.875,1.875,0,0,1,.55-1.5,1.953,1.953,0,0,1,1.387-.564h27.22a2.611,2.611,0,0,1,1.982.892,2.4,2.4,0,0,1,.57,1.908l-1.3,9.26a7.18,7.18,0,0,1-7.25,5.925Z" transform="translate(490.649 -1491.02)" fill="url(#linear-gradient-11)"/>
      <path id="Path_52570" data-name="Path 52570" d="M-467.38,1509.962a2.968,2.968,0,0,1-2.318-1.072,2.616,2.616,0,0,1-.555-2.166l.345-1.749.575-2.895a2.382,2.382,0,0,1,.982-1.5,7.418,7.418,0,0,0,1.383-1.249,6.445,6.445,0,0,0,1.582-4.846,1.373,1.373,0,0,1,.4-1.1,1.466,1.466,0,0,1,1.038-.42h27.22a2.114,2.114,0,0,1,1.605.719,1.89,1.89,0,0,1,.452,1.5l-1.3,9.259a6.676,6.676,0,0,1-6.75,5.5Z" transform="translate(489.149 -1492.482)" fill="url(#linear-gradient-12)"/>
      <path id="Path_52571" data-name="Path 52571" d="M-465.136,1511.381a2.05,2.05,0,0,1-2.138-2.34h0l.345-1.748.575-2.895a1.64,1.64,0,0,1,.675-1.021,8.076,8.076,0,0,0,1.522-1.379,7.2,7.2,0,0,0,1.762-5.41.6.6,0,0,1,.182-.5.71.71,0,0,1,.5-.2h27.23a1.25,1.25,0,0,1,.974.383,1.248,1.248,0,0,1,.341.988l-1.3,9.259a5.912,5.912,0,0,1-6.018,4.845Z" transform="translate(486.905 -1494.666)" fill="url(#linear-gradient-13)"/>
      <path id="Path_52572" data-name="Path 52572" d="M-443.105,1521.119h-1.533c-.107,0-.172-.035-.19-.105a.129.129,0,0,1-.015-.035l-.75-6.69a.057.057,0,0,0,0-.028l-.015-.027a.5.5,0,0,0-.1-.148,1.871,1.871,0,0,0-.14-.14l-.057-.047-.1-.073c-.035-.027-.07-.06-.105-.092l-.095-.09a.25.25,0,0,1-.073-.155c0-.042.037-.062.107-.062h3.05a.173.173,0,0,1,.183.118.105.105,0,0,0,.015.035l.667,5.565,2.88-5.5a.323.323,0,0,1,.3-.2h2.25c.072,0,.107.032.107.1a.23.23,0,0,1-.022.1l-3.823,7.292a.323.323,0,0,1-.3.19Z" transform="translate(471.124 -1507.832)" fill="#fff"/>
      <path id="Path_52573" data-name="Path 52573" d="M-410.112,1519.413q-.218,0-.217-.15v-.048l1.887-7.092v-.085a.777.777,0,0,0-.282-.472c-.2-.175-.293-.282-.293-.32s.05-.085.15-.085h4.17c.13,0,.2.055.2.17v.047l-2.065,7.837a.31.31,0,0,1-.323.2Z" transform="translate(444.17 -1506.133)" fill="#fff"/>
      <path id="Path_52574" data-name="Path 52574" d="M-386.182,1516.314c-.152,0-.228-.052-.228-.16v-.047l1.085-3.953a.06.06,0,0,0,0-.042.308.308,0,0,1,0-.05.687.687,0,0,0-.283-.462c-.2-.183-.293-.29-.293-.32s.05-.085.15-.085h4.193c.133,0,.2.052.2.16a.068.068,0,0,0,0,.028.04.04,0,0,1,0,.027l-1.02,3.765h1.793l1-3.765a.3.3,0,0,1,.32-.215h3.21c.15,0,.225.052.225.16v.055l-1,3.765h.8c.207,0,.313.088.313.262q0,.878-.622.878h-.783l-.775,2.915a.29.29,0,0,1-.31.208h-3.25c-.137,0-.207-.052-.207-.16v-.047l.783-2.915Z" transform="translate(426.232 -1506.157)" fill="#fff"/>
    </g>
  </g>
</svg>
