<svg xmlns="http://www.w3.org/2000/svg" xmlns:xlink="http://www.w3.org/1999/xlink" width="55" height="18" viewBox="0 0 55 18">
  <defs>
    <linearGradient id="linear-gradient" x1="1.397" y1="1.919" x2="-0.293" y2="-0.761" gradientUnits="objectBoundingBox">
      <stop offset="0" stop-color="#ff9f3d"/>
      <stop offset="1" stop-color="#ffd166"/>
    </linearGradient>
    <linearGradient id="linear-gradient-2" x1="-2.24" y1="-2.187" x2="0.454" y2="0.443" xlink:href="#linear-gradient"/>
    <linearGradient id="linear-gradient-3" x1="0.707" y1="0.969" x2="0.339" y2="0.107" xlink:href="#linear-gradient"/>
    <linearGradient id="linear-gradient-4" x1="0.254" y1="0.135" x2="0.617" y2="0.69" xlink:href="#linear-gradient"/>
    <linearGradient id="linear-gradient-5" x1="0.494" y1="0.433" x2="0.044" y2="-4.118" xlink:href="#linear-gradient"/>
    <linearGradient id="linear-gradient-6" x1="-0.123" y1="-13.297" x2="0.334" y2="-3.178" xlink:href="#linear-gradient"/>
    <linearGradient id="linear-gradient-7" x1="2.405" y1="3.509" x2="0.723" y2="0.842" xlink:href="#linear-gradient"/>
    <linearGradient id="linear-gradient-8" x1="0.65" y1="0.632" x2="3.323" y2="3.252" xlink:href="#linear-gradient"/>
    <linearGradient id="linear-gradient-9" x1="2.834" y1="4.219" x2="1.151" y2="1.538" xlink:href="#linear-gradient"/>
    <linearGradient id="linear-gradient-10" x1="2.323" y1="2.291" x2="4.997" y2="4.918" xlink:href="#linear-gradient"/>
    <linearGradient id="linear-gradient-11" x1="0.71" y1="0.792" x2="0.272" y2="0.159" xlink:href="#linear-gradient"/>
    <linearGradient id="linear-gradient-12" x1="0.245" y1="0.045" x2="0.678" y2="0.797" xlink:href="#linear-gradient"/>
    <linearGradient id="linear-gradient-13" x1="0.18" y1="0.169" x2="0.892" y2="0.886" gradientUnits="objectBoundingBox">
      <stop offset="0" stop-color="#10192e"/>
      <stop offset="1" stop-color="#293a61"/>
    </linearGradient>
  </defs>
  <g id="v15" transform="translate(-7963.759 -817.43)">
    <path id="Path_52575" data-name="Path 52575" d="M-473.811,1596.114a1.643,1.643,0,0,0-1.228-1.5,1.626,1.626,0,0,0-.4-.052h-.088a1.428,1.428,0,0,0-.18,0,1.725,1.725,0,0,0-1.525,1.682,1.722,1.722,0,0,0,.477,1.231,1.723,1.723,0,0,0,1.208.532h.017a1.462,1.462,0,0,0,.185,0,1.5,1.5,0,0,0,.305-.062A1.73,1.73,0,0,0-473.811,1596.114Z" transform="translate(8458.104 -774.897)" fill="url(#linear-gradient)"/>
    <path id="Path_52576" data-name="Path 52576" d="M-473.288,1599.557a.975.975,0,0,1-.684-.3.975.975,0,0,1-.269-.7.975.975,0,0,1,.863-.947h.182a.842.842,0,0,1,.215.03.888.888,0,0,1,.663.808.165.165,0,0,1,0,.035.973.973,0,0,1-.69,1.038,1,1,0,0,1-.175.037h-.107Z" transform="translate(8455.86 -777.185)" fill="url(#linear-gradient-2)"/>
    <path id="Path_52577" data-name="Path 52577" d="M-522.6,1602.56l-.06.022a.283.283,0,0,0-.093.07,24.278,24.278,0,0,1-2.265,2.215.875.875,0,0,1-.673.165,1.209,1.209,0,0,1-.7-.693c-.263-.5-.773-1.282-1.22-1.957l-.437-.675a1.325,1.325,0,0,0-.732-.562,1.34,1.34,0,0,0-.3-.045h-.23a1.135,1.135,0,0,0-.225.05,1.3,1.3,0,0,0-.7.55c-.14.223-.215.353-.295.5-.175.305-.367.657-1.355,2.1l-.1.172c-.16.263-.407.662-.685.7-.16.027-.345-.073-.56-.28-.578-.555-2.3-2.25-2.3-2.25a.377.377,0,0,0-.135-.075,1.049,1.049,0,0,0-.5-.033,1.038,1.038,0,0,0-.828,1.213l1.415,7.835a.3.3,0,0,0,.288.25h12.328a.3.3,0,0,0,.287-.25l1.415-7.835a1.04,1.04,0,0,0-.033-.525,1.035,1.035,0,0,0-.516-.6A1.035,1.035,0,0,0-522.6,1602.56Z" transform="translate(8502.937 -779.803)" fill="url(#linear-gradient-3)"/>
    <path id="Path_52578" data-name="Path 52578" d="M-532.679,1613.4l-1.348-7.455a.29.29,0,0,1,.227-.34h.073c.367.363,1.71,1.68,2.215,2.165a1.5,1.5,0,0,0,1.025.5,1.15,1.15,0,0,0,.163-.013,1.889,1.889,0,0,0,1.215-1.05l.1-.155c.945-1.383,1.167-1.777,1.347-2.093l.028-.045c.075-.133.147-.25.28-.465a.551.551,0,0,1,.3-.25h.215a.5.5,0,0,1,.108.018.559.559,0,0,1,.292.235l.448.688c.36.545.9,1.358,1.165,1.863a1.965,1.965,0,0,0,1.115,1.08.919.919,0,0,0,.143.04,1.888,1.888,0,0,0,.265.02,1.632,1.632,0,0,0,.98-.327l.035-.03a24.566,24.566,0,0,0,2.25-2.177h.015a.285.285,0,0,1,.27.2.312.312,0,0,1,0,.145l-1.35,7.468Z" transform="translate(8500.7 -782.128)" fill="url(#linear-gradient-4)"/>
    <path id="Path_52579" data-name="Path 52579" d="M-518.592,1647.59H-530.96a.25.25,0,0,0-.25.25v1.527h0a.25.25,0,0,0,.25.25h12.37a.25.25,0,0,0,.25-.25v-1.53h0A.25.25,0,0,0-518.592,1647.59Z" transform="translate(8498.584 -814.67)" fill="url(#linear-gradient-5)"/>
    <rect id="Rectangle_62733" data-name="Rectangle 62733" width="11.348" height="0.505" transform="translate(7968.132 833.672)" fill="url(#linear-gradient-6)"/>
    <path id="Path_52580" data-name="Path 52580" d="M-511.735,1588.752h0a1.723,1.723,0,0,0,1.273.377,1.727,1.727,0,0,0,1.525-1.907,1.635,1.635,0,0,0-1.628-1.55h-.08a1.468,1.468,0,0,0-.182,0,1.718,1.718,0,0,0-1.16.632A1.75,1.75,0,0,0-511.735,1588.752Z" transform="translate(8484.458 -768.229)" fill="url(#linear-gradient-7)"/>
    <path id="Path_52581" data-name="Path 52581" d="M-508.4,1590.625a.97.97,0,0,1-.6-.2l-.02-.018a.967.967,0,0,1-.355-.657.968.968,0,0,1,.212-.718.968.968,0,0,1,.655-.355.575.575,0,0,1,.107,0h.078a.885.885,0,0,1,.88.838.234.234,0,0,0,0,.04.975.975,0,0,1-.86,1.075Z" transform="translate(8482.208 -770.48)" fill="url(#linear-gradient-8)"/>
    <path id="Path_52582" data-name="Path 52582" d="M-542.235,1595.283a1.73,1.73,0,0,0-.391-1.284,1.729,1.729,0,0,0-1.192-.618,1.75,1.75,0,0,0-1.85,1.637,1.728,1.728,0,0,0,1.54,1.807,1.081,1.081,0,0,0,.18,0h.088A1.64,1.64,0,0,0-542.235,1595.283Z" transform="translate(8509.429 -774.011)" fill="url(#linear-gradient-9)"/>
    <path id="Path_52583" data-name="Path 52583" d="M-541.767,1598.367h-.03a.972.972,0,0,1-.867-1.02,1,1,0,0,1,.972-.927h.07a.97.97,0,0,1,.673.35.975.975,0,0,1,.222.725v.035a.885.885,0,0,1-.878.84h-.157Z" transform="translate(8507.176 -776.293)" fill="url(#linear-gradient-10)"/>
    <path id="Path_52584" data-name="Path 52584" d="M-468.879,1603.63a3.468,3.468,0,0,1-2.7-1.25,3.12,3.12,0,0,1-.66-2.585l.345-1.75.575-2.9a2.885,2.885,0,0,1,1.185-1.807,6.926,6.926,0,0,0,1.292-1.167,5.952,5.952,0,0,0,1.463-4.475,1.868,1.868,0,0,1,.55-1.5,1.955,1.955,0,0,1,1.388-.568h27.22a2.611,2.611,0,0,1,1.982.893,2.4,2.4,0,0,1,.57,1.91l-1.3,9.267a7.179,7.179,0,0,1-7.25,5.93Z" transform="translate(8454.408 -768.2)" fill="url(#linear-gradient-11)"/>
    <path id="Path_52585" data-name="Path 52585" d="M-467.38,1604.6a2.975,2.975,0,0,1-2.318-1.07,2.625,2.625,0,0,1-.555-2.17l.345-1.75.575-2.9a2.384,2.384,0,0,1,.982-1.5,7.418,7.418,0,0,0,1.383-1.25,6.455,6.455,0,0,0,1.583-4.85,1.37,1.37,0,0,1,.4-1.1,1.465,1.465,0,0,1,1.038-.422h27.22a2.113,2.113,0,0,1,1.605.72,1.892,1.892,0,0,1,.453,1.5l-1.3,9.267a6.678,6.678,0,0,1-6.75,5.5Z" transform="translate(8452.908 -769.67)" fill="url(#linear-gradient-12)"/>
    <path id="Path_52586" data-name="Path 52586" d="M-465.136,1606.081a2.051,2.051,0,0,1-2.138-2.343h0l.345-1.75.575-2.9a1.648,1.648,0,0,1,.675-1.023,8.077,8.077,0,0,0,1.522-1.38,7.207,7.207,0,0,0,1.763-5.412.613.613,0,0,1,.182-.5.722.722,0,0,1,.5-.2h27.23a1.25,1.25,0,0,1,.973.382,1.25,1.25,0,0,1,.342.988l-1.3,9.267a5.913,5.913,0,0,1-6.018,4.85Z" transform="translate(8450.664 -771.907)" fill="url(#linear-gradient-13)"/>
    <path id="Path_52587" data-name="Path 52587" d="M-441.365,1615.79h-1.54c-.108,0-.173-.035-.19-.1a.1.1,0,0,1-.015-.035l-.75-6.687a.124.124,0,0,0,0-.03l-.015-.027a.54.54,0,0,0-.1-.147,1.9,1.9,0,0,0-.143-.14.323.323,0,0,0-.055-.045l-.1-.075a1.153,1.153,0,0,1-.105-.093l-.1-.09a.25.25,0,0,1-.075-.155c0-.042.04-.062.11-.062h3.05a.175.175,0,0,1,.182.12l.013.035.668,5.565,2.883-5.5a.325.325,0,0,1,.295-.2h2.25a.092.092,0,0,1,.077.025.093.093,0,0,1,.028.075.227.227,0,0,1-.02.1l-3.823,7.292a.323.323,0,0,1-.3.19Z" transform="translate(8433.586 -785.051)" fill="#fff"/>
    <path id="Path_52588" data-name="Path 52588" d="M-408.335,1614.115c-.142,0-.215-.05-.215-.15v-.04l1.88-7.068v-.082a.768.768,0,0,0-.283-.47c-.2-.177-.293-.282-.293-.32s.05-.085.15-.085h4.155c.13,0,.2.057.2.17v.045l-2.057,7.81a.31.31,0,0,1-.32.2Z" transform="translate(8406.595 -783.403)" fill="#fff"/>
    <path id="Path_52589" data-name="Path 52589" d="M-382.262,1607.88c-.07.25-.13.5-.182.705s-.115.435-.185.685c0,.113.067.17.2.17h5.085q.225,0,.225.15v.047l-.32,1.212a.309.309,0,0,0-.02.093l-.47,1.73a1.827,1.827,0,0,1-.818,1.052,2.543,2.543,0,0,1-1.117.413.173.173,0,0,1-.08.02H-387.4q-.217,0-.217-.143a.085.085,0,0,0,0-.027v-.027l.443-1.588.038-.142c.037-.13.145-.2.32-.2h3.205a.367.367,0,0,1,.163.032.085.085,0,0,1,.043.108.844.844,0,0,0-.018.09v.03a.914.914,0,0,1-.027.122c-.015.063-.047.177-.09.345-.012.055-.025.1-.033.147a.689.689,0,0,1-.033.112h1.84l.65-2.415h-4.92a.638.638,0,0,1-.422-.15.5.5,0,0,1-.112-.415l.487-1.83.357-1.307v-.085a.687.687,0,0,0-.292-.47c-.187-.175-.28-.287-.28-.337s.05-.065.15-.065h9.688a.535.535,0,0,1,.283.055.2.2,0,0,1,.065.218l-.133.535-.337,1.25c-.038.137-.143.2-.32.2h-3.213c-.145,0-.215-.05-.215-.15V1608l.25-.93h-1.955C-382.122,1607.347-382.195,1607.617-382.262,1607.88Z" transform="translate(8390.898 -783.435)" fill="#fff"/>
  </g>
</svg>
