<svg xmlns="http://www.w3.org/2000/svg" xmlns:xlink="http://www.w3.org/1999/xlink" width="55" height="18" viewBox="0 0 55 18">
  <defs>
    <linearGradient id="linear-gradient" x1="1.397" y1="1.918" x2="-0.293" y2="-0.764" gradientUnits="objectBoundingBox">
      <stop offset="0" stop-color="#ff9f3d"/>
      <stop offset="1" stop-color="#ffd166"/>
    </linearGradient>
    <linearGradient id="linear-gradient-2" x1="-2.24" y1="-2.183" x2="0.454" y2="0.444" xlink:href="#linear-gradient"/>
    <linearGradient id="linear-gradient-3" x1="0.707" y1="0.969" x2="0.339" y2="0.107" xlink:href="#linear-gradient"/>
    <linearGradient id="linear-gradient-4" x1="0.253" y1="0.135" x2="0.617" y2="0.691" xlink:href="#linear-gradient"/>
    <linearGradient id="linear-gradient-5" x1="0.494" y1="0.433" x2="0.044" y2="-4.118" xlink:href="#linear-gradient"/>
    <linearGradient id="linear-gradient-6" x1="-0.123" y1="-13.297" x2="0.334" y2="-3.178" xlink:href="#linear-gradient"/>
    <linearGradient id="linear-gradient-7" x1="2.406" y1="3.514" x2="0.723" y2="0.846" xlink:href="#linear-gradient"/>
    <linearGradient id="linear-gradient-8" x1="0.65" y1="0.631" x2="3.323" y2="3.251" xlink:href="#linear-gradient"/>
    <linearGradient id="linear-gradient-9" x1="2.834" y1="4.217" x2="1.151" y2="1.537" xlink:href="#linear-gradient"/>
    <linearGradient id="linear-gradient-10" x1="2.323" y1="2.294" x2="4.997" y2="4.924" xlink:href="#linear-gradient"/>
    <linearGradient id="linear-gradient-11" x1="0.71" y1="0.792" x2="0.271" y2="0.159" xlink:href="#linear-gradient"/>
    <linearGradient id="linear-gradient-12" x1="0.245" y1="0.045" x2="0.678" y2="0.797" xlink:href="#linear-gradient"/>
    <linearGradient id="linear-gradient-13" x1="0.18" y1="0.169" x2="0.892" y2="0.885" gradientUnits="objectBoundingBox">
      <stop offset="0" stop-color="#10192e"/>
      <stop offset="1" stop-color="#293a61"/>
    </linearGradient>
  </defs>
  <g id="v2" transform="translate(-7963.76 470.37)">
    <path id="Path_52374" data-name="Path 52374" d="M-473.811,308.334a1.643,1.643,0,0,0-1.228-1.5,1.626,1.626,0,0,0-.4-.052h-.088a1.44,1.44,0,0,0-.18,0,1.725,1.725,0,0,0-1.525,1.682,1.723,1.723,0,0,0,.477,1.231,1.722,1.722,0,0,0,1.208.532h.017a1.5,1.5,0,0,0,.185,0,1.5,1.5,0,0,0,.3-.062,1.73,1.73,0,0,0,1.228-1.83Z" transform="translate(8458.098 -774.912)" fill="url(#linear-gradient)"/>
    <path id="Path_52375" data-name="Path 52375" d="M-473.288,311.75a.975.975,0,0,1-.684-.3.975.975,0,0,1-.269-.7.98.98,0,0,1,.862-.95h.182a.839.839,0,0,1,.215.03.887.887,0,0,1,.662.807.166.166,0,0,1,0,.035.972.972,0,0,1-.69,1.037,1.3,1.3,0,0,1-.175.038h-.107Z" transform="translate(8455.854 -777.178)" fill="url(#linear-gradient-2)"/>
    <path id="Path_52376" data-name="Path 52376" d="M-522.6,314.76l-.06.023a.282.282,0,0,0-.093.07,24.282,24.282,0,0,1-2.265,2.215.875.875,0,0,1-.672.165,1.218,1.218,0,0,1-.7-.692c-.263-.513-.773-1.283-1.22-1.958l-.437-.675a1.325,1.325,0,0,0-.732-.562,1.206,1.206,0,0,0-.3-.045h-.23a1.129,1.129,0,0,0-.225.05,1.3,1.3,0,0,0-.7.55c-.14.223-.215.353-.295.5-.175.3-.367.658-1.355,2.1l-.1.17c-.16.265-.408.662-.685.7-.16.027-.345-.073-.56-.28-.578-.555-2.3-2.25-2.3-2.25a.342.342,0,0,0-.135-.075,1.017,1.017,0,0,0-.5-.033,1.037,1.037,0,0,0-.827,1.212l1.415,7.835a.3.3,0,0,0,.287.25h12.328a.3.3,0,0,0,.287-.25l1.415-7.835a1.04,1.04,0,0,0-.032-.525,1.03,1.03,0,0,0-.515-.6A1.03,1.03,0,0,0-522.6,314.76Z" transform="translate(8502.937 -779.803)" fill="url(#linear-gradient-3)"/>
    <path id="Path_52377" data-name="Path 52377" d="M-532.671,325.58l-1.345-7.458a.288.288,0,0,1,.044-.216.288.288,0,0,1,.184-.122h.073c.367.36,1.71,1.68,2.215,2.165a1.5,1.5,0,0,0,1.025.5,1.154,1.154,0,0,0,.162-.013,1.9,1.9,0,0,0,1.215-1.05l.1-.155c.945-1.383,1.167-1.777,1.347-2.092l.028-.045c.075-.133.148-.25.28-.465a.55.55,0,0,1,.3-.238l.055-.012h.16a.5.5,0,0,1,.108.018.56.56,0,0,1,.292.235l.448.687c.36.545.9,1.358,1.165,1.863a1.965,1.965,0,0,0,1.115,1.08.7.7,0,0,0,.142.038,1.58,1.58,0,0,0,.265.023,1.632,1.632,0,0,0,.98-.328l.035-.03a24.559,24.559,0,0,0,2.25-2.178h.015a.285.285,0,0,1,.27.2.312.312,0,0,1,0,.145l-1.35,7.467Z" transform="translate(8500.693 -782.113)" fill="url(#linear-gradient-4)"/>
    <path id="Path_52378" data-name="Path 52378" d="M-518.592,359.79H-530.96a.25.25,0,0,0-.25.25v1.527h0a.25.25,0,0,0,.25.25h12.37a.25.25,0,0,0,.25-.25v-1.53h0A.25.25,0,0,0-518.592,359.79Z" transform="translate(8498.585 -814.67)" fill="url(#linear-gradient-5)"/>
    <rect id="Rectangle_62719" data-name="Rectangle 62719" width="11.348" height="0.505" transform="translate(7968.132 -454.128)" fill="url(#linear-gradient-6)"/>
    <path id="Path_52379" data-name="Path 52379" d="M-511.731,300.908h0a1.715,1.715,0,0,0,1.273.38,1.73,1.73,0,0,0,1.525-1.908,1.635,1.635,0,0,0-1.627-1.55h-.08a1.466,1.466,0,0,0-.182.013,1.708,1.708,0,0,0-1.16.632A1.735,1.735,0,0,0-511.731,300.908Z" transform="translate(8484.451 -768.2)" fill="url(#linear-gradient-7)"/>
    <path id="Path_52380" data-name="Path 52380" d="M-508.4,302.823a.968.968,0,0,1-.6-.2l-.02-.017a.973.973,0,0,1-.355-.658.968.968,0,0,1,.213-.718.98.98,0,0,1,.655-.357h.185a.888.888,0,0,1,.88.838.253.253,0,0,0,0,.042.975.975,0,0,1-.86,1.075A.751.751,0,0,1-508.4,302.823Z" transform="translate(8482.205 -770.48)" fill="url(#linear-gradient-8)"/>
    <path id="Path_52381" data-name="Path 52381" d="M-542.234,307.5a1.73,1.73,0,0,0-.391-1.284,1.73,1.73,0,0,0-1.192-.618,1.75,1.75,0,0,0-1.85,1.637,1.73,1.73,0,0,0,1.54,1.808,1.087,1.087,0,0,0,.18,0h.088A1.64,1.64,0,0,0-542.234,307.5Z" transform="translate(8509.429 -774.026)" fill="url(#linear-gradient-9)"/>
    <path id="Path_52382" data-name="Path 52382" d="M-541.767,310.568h-.03a.972.972,0,0,1-.867-1.02,1,1,0,0,1,.973-.927h.07a.968.968,0,0,1,.672.345.985.985,0,0,1,.222.727v.035a.887.887,0,0,1-.878.84h-.157Z" transform="translate(8507.177 -776.293)" fill="url(#linear-gradient-10)"/>
    <path id="Path_52383" data-name="Path 52383" d="M-468.879,315.844a3.467,3.467,0,0,1-2.7-1.25,3.12,3.12,0,0,1-.66-2.585l.345-1.75.575-2.895a2.885,2.885,0,0,1,1.185-1.807,7,7,0,0,0,1.292-1.167,5.952,5.952,0,0,0,1.463-4.475,1.877,1.877,0,0,1,.55-1.5,1.953,1.953,0,0,1,1.388-.565h27.22a2.61,2.61,0,0,1,2,.887,2.4,2.4,0,0,1,.57,1.91l-1.32,9.267a7.181,7.181,0,0,1-7.25,5.93Z" transform="translate(8454.391 -768.214)" fill="url(#linear-gradient-11)"/>
    <path id="Path_52384" data-name="Path 52384" d="M-467.38,316.8a2.967,2.967,0,0,1-2.318-1.072,2.618,2.618,0,0,1-.555-2.168l.345-1.75.575-2.9a2.385,2.385,0,0,1,.983-1.5,7.415,7.415,0,0,0,1.382-1.25,6.455,6.455,0,0,0,1.582-4.85,1.375,1.375,0,0,1,.4-1.1,1.475,1.475,0,0,1,1.037-.42h27.22a2.113,2.113,0,0,1,1.605.72,1.892,1.892,0,0,1,.452,1.5l-1.3,9.267a6.678,6.678,0,0,1-6.75,5.5Z" transform="translate(8452.893 -769.67)" fill="url(#linear-gradient-12)"/>
    <path id="Path_52385" data-name="Path 52385" d="M-465.136,318.274a2.051,2.051,0,0,1-2.138-2.342h0l.345-1.75.575-2.9a1.648,1.648,0,0,1,.675-1.022,8.078,8.078,0,0,0,1.522-1.38,7.207,7.207,0,0,0,1.763-5.412.612.612,0,0,1,.182-.5.723.723,0,0,1,.5-.205h27.23a1.25,1.25,0,0,1,.974.383,1.25,1.25,0,0,1,.341.989l-1.3,9.267a5.913,5.913,0,0,1-6.018,4.85Z" transform="translate(8450.647 -771.899)" fill="url(#linear-gradient-13)"/>
    <path id="Path_52436" data-name="Path 52436" d="M-433.52,330.62h-1.638c-.117,0-.185-.037-.2-.112a.132.132,0,0,1-.015-.037l-.805-7.158a.067.067,0,0,0,0-.03l-.015-.03a.618.618,0,0,0-.105-.158c-.048-.05-.1-.1-.152-.15l-.06-.05-.1-.077-.113-.1-.1-.1a.273.273,0,0,1-.08-.168c0-.045.043-.068.117-.068h3.25a.185.185,0,0,1,.195.128.132.132,0,0,0,.015.038l.715,5.955,3.082-5.893a.345.345,0,0,1,.315-.212h2.4c.078,0,.115.035.115.105a.285.285,0,0,1-.022.108l-4.09,7.8a.348.348,0,0,1-.318.2Z" transform="translate(8427.854 -786.617)" fill="#fff"/>
    <path id="Path_52437" data-name="Path 52437" d="M-398.48,328.436c-.165,0-.25-.057-.25-.175v-.06l.85-3.138a2.033,2.033,0,0,1,.9-1.148,2.715,2.715,0,0,1,1.578-.48h3.783a.318.318,0,0,0,.35-.25c.068-.25.133-.5.2-.738s.128-.478.185-.7.112-.415.16-.6.085-.323.112-.44h-2.05l-.347,1.32a.315.315,0,0,1-.35.228h-3.5c-.162,0-.25-.055-.25-.163a.151.151,0,0,0,0-.038.02.02,0,0,1,0-.025l.42-1.518a.057.057,0,0,0,0-.04.285.285,0,0,1,0-.052.75.75,0,0,0-.307-.5c-.212-.193-.318-.308-.318-.35s.057-.1.175-.1h8.885a1.9,1.9,0,0,1,1.177.357,1.13,1.13,0,0,1,.463.933v.172a.949.949,0,0,1-.027.175l-.573,2.107a1.973,1.973,0,0,1-.893,1.155,2.857,2.857,0,0,1-1.568.47h-3.793a.315.315,0,0,0-.348.235c-.13.478-.25.9-.337,1.265s-.172.65-.228.848h2l.3-1.14a.312.312,0,0,1,.348-.222h3.5c.165,0,.25.058.25.175v.05l-.432,1.6-.07.327a.475.475,0,0,1-.175.3.567.567,0,0,1-.42.152H-398.5Z" transform="translate(8399.215 -784.434)" fill="#fff"/>
  </g>
</svg>
