<svg xmlns="http://www.w3.org/2000/svg" xmlns:xlink="http://www.w3.org/1999/xlink" width="55" height="18" viewBox="0 0 55 18">
  <defs>
    <linearGradient id="linear-gradient" x1="1.397" y1="1.92" x2="-0.293" y2="-0.761" gradientUnits="objectBoundingBox">
      <stop offset="0" stop-color="#ff9f3d"/>
      <stop offset="1" stop-color="#ffd166"/>
    </linearGradient>
    <linearGradient id="linear-gradient-2" x1="-2.24" y1="-2.183" x2="0.454" y2="0.444" xlink:href="#linear-gradient"/>
    <linearGradient id="linear-gradient-3" x1="0.706" y1="0.969" x2="0.339" y2="0.107" xlink:href="#linear-gradient"/>
    <linearGradient id="linear-gradient-4" x1="0.253" y1="0.135" x2="0.617" y2="0.69" xlink:href="#linear-gradient"/>
    <linearGradient id="linear-gradient-5" x1="0.494" y1="0.433" x2="0.044" y2="-4.118" xlink:href="#linear-gradient"/>
    <linearGradient id="linear-gradient-6" x1="-0.123" y1="-13.297" x2="0.334" y2="-3.178" xlink:href="#linear-gradient"/>
    <linearGradient id="linear-gradient-7" x1="2.406" y1="3.514" x2="0.723" y2="0.846" xlink:href="#linear-gradient"/>
    <linearGradient id="linear-gradient-8" x1="0.65" y1="0.631" x2="3.323" y2="3.251" xlink:href="#linear-gradient"/>
    <linearGradient id="linear-gradient-9" x1="2.834" y1="4.224" x2="1.151" y2="1.539" xlink:href="#linear-gradient"/>
    <linearGradient id="linear-gradient-10" x1="2.324" y1="2.296" x2="4.997" y2="4.923" xlink:href="#linear-gradient"/>
    <linearGradient id="linear-gradient-11" x1="0.71" y1="0.792" x2="0.271" y2="0.159" xlink:href="#linear-gradient"/>
    <linearGradient id="linear-gradient-12" x1="0.245" y1="0.045" x2="0.678" y2="0.797" xlink:href="#linear-gradient"/>
    <linearGradient id="linear-gradient-13" x1="0.18" y1="0.169" x2="0.892" y2="0.885" gradientUnits="objectBoundingBox">
      <stop offset="0" stop-color="#10192e"/>
      <stop offset="1" stop-color="#293a61"/>
    </linearGradient>
  </defs>
  <g id="v3" transform="translate(-7963.761 347.74)">
    <path id="Path_52386" data-name="Path 52386" d="M-473.811,430.934a1.64,1.64,0,0,0-1.228-1.5,1.625,1.625,0,0,0-.4-.053h-.088a1.446,1.446,0,0,0-.18,0,1.725,1.725,0,0,0-1.525,1.683,1.723,1.723,0,0,0,.477,1.231,1.722,1.722,0,0,0,1.208.532h.017a1.5,1.5,0,0,0,.185,0,1.5,1.5,0,0,0,.3-.062,1.73,1.73,0,0,0,1.228-1.83Z" transform="translate(8458.099 -774.889)" fill="url(#linear-gradient)"/>
    <path id="Path_52387" data-name="Path 52387" d="M-473.288,434.38a.975.975,0,0,1-.684-.3.975.975,0,0,1-.269-.7.977.977,0,0,1,.862-.95h.182a.839.839,0,0,1,.215.03.887.887,0,0,1,.662.807.166.166,0,0,1,0,.035.972.972,0,0,1-.69,1.038,1.3,1.3,0,0,1-.175.038h-.107Z" transform="translate(8455.855 -777.178)" fill="url(#linear-gradient-2)"/>
    <path id="Path_52388" data-name="Path 52388" d="M-522.572,437.39l-.06.022a.282.282,0,0,0-.092.07,24.6,24.6,0,0,1-2.255,2.215.875.875,0,0,1-.672.165,1.217,1.217,0,0,1-.7-.693c-.263-.512-.773-1.283-1.22-1.957l-.437-.675a1.325,1.325,0,0,0-.732-.563,1.207,1.207,0,0,0-.3-.045h-.23a1.13,1.13,0,0,0-.225.05,1.3,1.3,0,0,0-.7.55c-.14.223-.215.35-.295.5-.175.3-.367.655-1.355,2.1l-.1.17c-.16.265-.407.663-.685.7-.16.027-.345-.073-.56-.28-.578-.555-2.3-2.25-2.3-2.25a.342.342,0,0,0-.135-.075,1.017,1.017,0,0,0-.5-.032,1.038,1.038,0,0,0-.828,1.212l1.415,7.835a.3.3,0,0,0,.287.25h12.328a.3.3,0,0,0,.288-.25l1.415-7.835a1.04,1.04,0,0,0-.032-.525,1.03,1.03,0,0,0-.519-.609,1.03,1.03,0,0,0-.8-.054Z" transform="translate(8502.907 -779.803)" fill="url(#linear-gradient-3)"/>
    <path id="Path_52389" data-name="Path 52389" d="M-532.671,448.225l-1.345-7.453a.288.288,0,0,1,.044-.216.288.288,0,0,1,.184-.122h.073c.367.36,1.71,1.68,2.215,2.165a1.5,1.5,0,0,0,1.025.5,1.154,1.154,0,0,0,.162-.013,1.9,1.9,0,0,0,1.215-1.05l.1-.155c.945-1.383,1.167-1.777,1.347-2.092l.028-.045c.075-.132.148-.25.28-.465a.55.55,0,0,1,.3-.25h.215a.5.5,0,0,1,.108.018.56.56,0,0,1,.292.235l.448.688c.36.545.9,1.358,1.165,1.863a1.973,1.973,0,0,0,1.115,1.08.7.7,0,0,0,.142.037,1.577,1.577,0,0,0,.265.022,1.632,1.632,0,0,0,.98-.327l.035-.03a24.555,24.555,0,0,0,2.25-2.178h.015a.285.285,0,0,1,.27.195.312.312,0,0,1,0,.145l-1.35,7.467Z" transform="translate(8500.694 -782.128)" fill="url(#linear-gradient-4)"/>
    <path id="Path_52390" data-name="Path 52390" d="M-518.592,482.42H-530.96a.25.25,0,0,0-.25.25V484.2h0a.25.25,0,0,0,.25.25h12.37a.25.25,0,0,0,.25-.25v-1.53h0A.25.25,0,0,0-518.592,482.42Z" transform="translate(8498.585 -814.67)" fill="url(#linear-gradient-5)"/>
    <rect id="Rectangle_62720" data-name="Rectangle 62720" width="11.348" height="0.505" transform="translate(7968.133 -331.498)" fill="url(#linear-gradient-6)"/>
    <path id="Path_52391" data-name="Path 52391" d="M-511.731,423.537h0a1.715,1.715,0,0,0,1.273.38,1.73,1.73,0,0,0,1.525-1.908,1.635,1.635,0,0,0-1.628-1.55h-.08a1.46,1.46,0,0,0-.182.012,1.7,1.7,0,0,0-1.16.633A1.735,1.735,0,0,0-511.731,423.537Z" transform="translate(8484.452 -768.2)" fill="url(#linear-gradient-7)"/>
    <path id="Path_52392" data-name="Path 52392" d="M-508.4,425.453a.968.968,0,0,1-.595-.2l-.02-.018a.972.972,0,0,1-.355-.657.968.968,0,0,1,.213-.718.98.98,0,0,1,.655-.357h.185a.887.887,0,0,1,.88.837.254.254,0,0,0,0,.043.975.975,0,0,1-.86,1.075A.746.746,0,0,1-508.4,425.453Z" transform="translate(8482.206 -770.48)" fill="url(#linear-gradient-8)"/>
    <path id="Path_52393" data-name="Path 52393" d="M-542.234,430.133a1.728,1.728,0,0,0-.39-1.285,1.728,1.728,0,0,0-1.193-.617,1.75,1.75,0,0,0-1.85,1.638,1.73,1.73,0,0,0,1.54,1.8,1.091,1.091,0,0,0,.18,0h.088A1.64,1.64,0,0,0-542.234,430.133Z" transform="translate(8509.429 -774.026)" fill="url(#linear-gradient-9)"/>
    <path id="Path_52394" data-name="Path 52394" d="M-541.767,433.158h-.03a.975.975,0,0,1-.867-1.02,1,1,0,0,1,.972-.928h.07a.968.968,0,0,1,.673.348.985.985,0,0,1,.222.727v.035a.887.887,0,0,1-.878.84h-.157Z" transform="translate(8507.177 -776.263)" fill="url(#linear-gradient-10)"/>
    <path id="Path_52395" data-name="Path 52395" d="M-468.879,438.474a3.467,3.467,0,0,1-2.7-1.25,3.12,3.12,0,0,1-.66-2.585l.345-1.75.575-2.895a2.885,2.885,0,0,1,1.185-1.807,7,7,0,0,0,1.292-1.167,5.955,5.955,0,0,0,1.462-4.475,1.877,1.877,0,0,1,.55-1.5,1.953,1.953,0,0,1,1.388-.565h27.22a2.61,2.61,0,0,1,2,.88,2.4,2.4,0,0,1,.57,1.91l-1.32,9.275a7.181,7.181,0,0,1-7.25,5.93Z" transform="translate(8454.392 -768.214)" fill="url(#linear-gradient-11)"/>
    <path id="Path_52396" data-name="Path 52396" d="M-467.38,439.427a2.968,2.968,0,0,1-2.318-1.073,2.618,2.618,0,0,1-.555-2.167l.345-1.75.575-2.9a2.385,2.385,0,0,1,.982-1.5,7.414,7.414,0,0,0,1.383-1.25,6.455,6.455,0,0,0,1.583-4.85,1.375,1.375,0,0,1,.4-1.1,1.475,1.475,0,0,1,1.038-.42h27.22a2.112,2.112,0,0,1,1.605.72,1.892,1.892,0,0,1,.453,1.5l-1.3,9.267a6.678,6.678,0,0,1-6.75,5.5Z" transform="translate(8452.893 -769.67)" fill="url(#linear-gradient-12)"/>
    <path id="Path_52397" data-name="Path 52397" d="M-465.136,440.934a2.051,2.051,0,0,1-2.138-2.342h0l.345-1.75.575-2.9a1.643,1.643,0,0,1,.675-1.022,8.078,8.078,0,0,0,1.522-1.38,7.21,7.21,0,0,0,1.763-5.415.61.61,0,0,1,.182-.487.723.723,0,0,1,.5-.205h27.23a1.25,1.25,0,0,1,.974.383,1.25,1.25,0,0,1,.341.989l-1.295,9.267a5.913,5.913,0,0,1-6.018,4.85Z" transform="translate(8450.648 -771.929)" fill="url(#linear-gradient-13)"/>
    <path id="Path_52438" data-name="Path 52438" d="M-433.515,451.519h-1.638c-.115,0-.182-.038-.2-.115a.132.132,0,0,1-.015-.038l-.805-7.145a.067.067,0,0,0,0-.03l-.015-.03a.678.678,0,0,0-.105-.16q-.068-.075-.15-.15l-.06-.047-.1-.08q-.058-.045-.113-.1l-.1-.1a.25.25,0,0,1-.078-.165c0-.045.04-.067.115-.067h3.263a.187.187,0,0,1,.2.128.133.133,0,0,0,.015.037l.712,5.955,3.083-5.9a.347.347,0,0,1,.318-.21h2.4q.113,0,.113.105a.265.265,0,0,1-.023.105l-4.09,7.8a.345.345,0,0,1-.315.2Z" transform="translate(8427.847 -785.327)" fill="#fff"/>
    <path id="Path_52439" data-name="Path 52439" d="M-393.652,445.081a.412.412,0,0,1-.073-.158.44.44,0,0,1,0-.21l.152-.533a.545.545,0,0,1,.19-.282.63.63,0,0,1,.395-.108h1.568a.318.318,0,0,0,.35-.235q.1-.377.173-.667c.047-.19.092-.363.13-.513s.07-.288.1-.41.06-.25.085-.358h-2.048l-.35,1.31a.305.305,0,0,1-.337.218h-3.5c-.157,0-.235-.053-.235-.155a.093.093,0,0,0,0-.03v-.033l.42-1.5a.1.1,0,0,0,0-.047.189.189,0,0,1,0-.055.8.8,0,0,0-.307-.513c-.212-.193-.318-.307-.318-.348s.055-.082.163-.082h8.885a1.875,1.875,0,0,1,1.18.348,1.143,1.143,0,0,1,.47.923,1.4,1.4,0,0,1,0,.18,1.167,1.167,0,0,1-.03.167l-.4,1.59a1.978,1.978,0,0,1-.88,1.147l.08.1a1.485,1.485,0,0,1,.145.235,1.36,1.36,0,0,1,.107.328.84.84,0,0,1-.015.37l-.6,2.09a2.34,2.34,0,0,1-.7.9,3.39,3.39,0,0,1-1.608.575h-7.975a.293.293,0,0,1-.205-.053c-.012-.02-.022-.04-.03-.055a.176.176,0,0,1,0-.067.073.073,0,0,0,0-.03v-.032l.688-2.53.09-.35a.318.318,0,0,1,.35-.235h3.5c.157,0,.235.063.235.185v.05l-.46,1.693-.053.185h2l.82-2.87H-393.4A.5.5,0,0,1-393.652,445.081Z" transform="translate(8399.165 -783.134)" fill="#fff"/>
  </g>
</svg>
