<svg xmlns="http://www.w3.org/2000/svg" xmlns:xlink="http://www.w3.org/1999/xlink" width="55" height="18" viewBox="0 0 55 18">
  <defs>
    <linearGradient id="linear-gradient" x1="1.398" y1="1.929" x2="-0.293" y2="-0.765" gradientUnits="objectBoundingBox">
      <stop offset="0" stop-color="#ff9f3d"/>
      <stop offset="1" stop-color="#ffd166"/>
    </linearGradient>
    <linearGradient id="linear-gradient-2" x1="-2.24" y1="-2.182" x2="0.454" y2="0.443" xlink:href="#linear-gradient"/>
    <linearGradient id="linear-gradient-3" x1="0.707" y1="0.969" x2="0.339" y2="0.107" xlink:href="#linear-gradient"/>
    <linearGradient id="linear-gradient-4" x1="0.253" y1="0.134" x2="0.617" y2="0.689" xlink:href="#linear-gradient"/>
    <linearGradient id="linear-gradient-5" x1="0.494" y1="0.43" x2="0.044" y2="-4.116" xlink:href="#linear-gradient"/>
    <linearGradient id="linear-gradient-6" x1="-0.123" y1="-13.297" x2="0.334" y2="-3.178" xlink:href="#linear-gradient"/>
    <linearGradient id="linear-gradient-7" x1="2.406" y1="3.514" x2="0.723" y2="0.846" xlink:href="#linear-gradient"/>
    <linearGradient id="linear-gradient-8" x1="0.65" y1="0.632" x2="3.323" y2="3.251" xlink:href="#linear-gradient"/>
    <linearGradient id="linear-gradient-9" x1="2.834" y1="4.218" x2="1.151" y2="1.537" xlink:href="#linear-gradient"/>
    <linearGradient id="linear-gradient-10" x1="2.323" y1="2.291" x2="4.997" y2="4.918" xlink:href="#linear-gradient"/>
    <linearGradient id="linear-gradient-11" x1="0.71" y1="0.792" x2="0.272" y2="0.159" xlink:href="#linear-gradient"/>
    <linearGradient id="linear-gradient-12" x1="0.245" y1="0.045" x2="0.678" y2="0.797" xlink:href="#linear-gradient"/>
    <linearGradient id="linear-gradient-13" x1="0.18" y1="0.169" x2="0.892" y2="0.885" gradientUnits="objectBoundingBox">
      <stop offset="0" stop-color="#10192e"/>
      <stop offset="1" stop-color="#293a61"/>
    </linearGradient>
  </defs>
  <g id="v4" transform="translate(-7963.759 248.191)">
    <path id="Path_52398" data-name="Path 52398" d="M-473.811,530.495a1.638,1.638,0,0,0-1.228-1.5,1.625,1.625,0,0,0-.4-.055h-.268a1.725,1.725,0,0,0-1.525,1.685,1.722,1.722,0,0,0,1.685,1.75h.2a1.93,1.93,0,0,0,.3-.062A1.735,1.735,0,0,0-473.811,530.495Z" transform="translate(8458.103 -774.899)" fill="url(#linear-gradient)"/>
    <path id="Path_52399" data-name="Path 52399" d="M-473.288,533.935a.978.978,0,0,1-.953-1,.977.977,0,0,1,.862-.95.5.5,0,0,1,.085,0h.1a.842.842,0,0,1,.215.03.883.883,0,0,1,.662.807.143.143,0,0,1,0,.033.975.975,0,0,1-.69,1.04.982.982,0,0,1-.175.035h-.087Z" transform="translate(8455.86 -777.181)" fill="url(#linear-gradient-2)"/>
    <path id="Path_52400" data-name="Path 52400" d="M-522.6,536.95l-.06.02a.323.323,0,0,0-.093.07,24.286,24.286,0,0,1-2.265,2.215.888.888,0,0,1-.672.167,1.22,1.22,0,0,1-.7-.695c-.263-.5-.772-1.283-1.22-1.958l-.437-.675a1.338,1.338,0,0,0-.733-.562,1.338,1.338,0,0,0-.3-.042h-.23a1.333,1.333,0,0,0-.225.05,1.308,1.308,0,0,0-.695.55c-.14.223-.215.353-.3.5-.175.307-.367.658-1.355,2.105l-.1.17c-.16.25-.408.662-.685.7-.16.027-.345-.073-.56-.28-.578-.552-2.3-2.25-2.3-2.25a.384.384,0,0,0-.135-.078,1.018,1.018,0,0,0-.5-.03,1.038,1.038,0,0,0-.828,1.212l1.415,7.833a.3.3,0,0,0,.288.25h12.328a.3.3,0,0,0,.287-.25l1.415-7.833a1.05,1.05,0,0,0-.032-.527,1.03,1.03,0,0,0-.516-.6A1.03,1.03,0,0,0-522.6,536.95Z" transform="translate(8502.937 -779.813)" fill="url(#linear-gradient-3)"/>
    <path id="Path_52401" data-name="Path 52401" d="M-532.672,547.807l-1.345-7.458a.285.285,0,0,1,.043-.216.285.285,0,0,1,.185-.121h.073c.367.362,1.71,1.682,2.215,2.165a1.482,1.482,0,0,0,1.025.5.871.871,0,0,0,.163,0,1.886,1.886,0,0,0,1.215-1.047l.1-.158c.945-1.383,1.167-1.775,1.347-2.092l.028-.045c.075-.13.147-.25.28-.465a.573.573,0,0,1,.295-.237l.055-.013h.16a.744.744,0,0,1,.107.018.565.565,0,0,1,.293.237l.448.685c.36.547.9,1.36,1.165,1.865a1.968,1.968,0,0,0,1.115,1.078.578.578,0,0,0,.143.04,1.58,1.58,0,0,0,.265.023,1.65,1.65,0,0,0,.98-.328l.035-.03a24.917,24.917,0,0,0,2.25-2.18h.015a.285.285,0,0,1,.27.2.315.315,0,0,1,0,.145l-1.35,7.47Z" transform="translate(8500.694 -782.16)" fill="url(#linear-gradient-4)"/>
    <path id="Path_52402" data-name="Path 52402" d="M-518.592,582H-530.96a.25.25,0,0,0-.25.25v1.53h0a.25.25,0,0,0,.25.25h12.37a.25.25,0,0,0,.25-.238V582.26h0a.25.25,0,0,0-.07-.184A.25.25,0,0,0-518.592,582Z" transform="translate(8498.584 -814.696)" fill="url(#linear-gradient-5)"/>
    <rect id="Rectangle_62721" data-name="Rectangle 62721" width="11.347" height="0.505" transform="translate(7968.132 -231.949)" fill="url(#linear-gradient-6)"/>
    <path id="Path_52403" data-name="Path 52403" d="M-511.731,523.089h0a1.713,1.713,0,0,0,1.273.378,1.728,1.728,0,0,0,1.525-1.905,1.633,1.633,0,0,0-1.628-1.55h-.08a1.469,1.469,0,0,0-.183,0,1.717,1.717,0,0,0-1.16.633A1.75,1.75,0,0,0-511.731,523.089Z" transform="translate(8484.454 -768.2)" fill="url(#linear-gradient-7)"/>
    <path id="Path_52404" data-name="Path 52404" d="M-508.4,525.012a.97.97,0,0,1-.6-.2l-.02-.015a.972.972,0,0,1-.355-.657.967.967,0,0,1,.212-.718.98.98,0,0,1,.655-.357h.185a.885.885,0,0,1,.88.837.216.216,0,0,0,0,.04.977.977,0,0,1-.86,1.078Z" transform="translate(8482.208 -770.489)" fill="url(#linear-gradient-8)"/>
    <path id="Path_52405" data-name="Path 52405" d="M-542.235,529.683a1.73,1.73,0,0,0-.391-1.284,1.73,1.73,0,0,0-1.192-.618,1.75,1.75,0,0,0-1.85,1.638,1.728,1.728,0,0,0,1.54,1.807,1.094,1.094,0,0,0,.18,0h.088A1.64,1.64,0,0,0-542.235,529.683Z" transform="translate(8509.429 -774.027)" fill="url(#linear-gradient-9)"/>
    <path id="Path_52406" data-name="Path 52406" d="M-541.767,532.747h-.03a.975.975,0,0,1-.867-1.02,1,1,0,0,1,.972-.927h.07a.957.957,0,0,1,.673.347.978.978,0,0,1,.222.725v.037a.888.888,0,0,1-.878.84h-.157Z" transform="translate(8507.176 -776.294)" fill="url(#linear-gradient-10)"/>
    <path id="Path_52407" data-name="Path 52407" d="M-468.878,538.012a3.468,3.468,0,0,1-2.7-1.25,3.124,3.124,0,0,1-.66-2.585l.345-1.75.575-2.9a2.877,2.877,0,0,1,1.185-1.8,7.025,7.025,0,0,0,1.293-1.17,5.943,5.943,0,0,0,1.462-4.472,1.877,1.877,0,0,1,.55-1.5,1.952,1.952,0,0,1,1.387-.565h27.22a2.61,2.61,0,0,1,1.982.892,2.4,2.4,0,0,1,.57,1.91l-1.3,9.266a7.181,7.181,0,0,1-7.25,5.929Z" transform="translate(8454.407 -768.208)" fill="url(#linear-gradient-11)"/>
    <path id="Path_52408" data-name="Path 52408" d="M-467.38,538.982a2.977,2.977,0,0,1-2.318-1.072,2.624,2.624,0,0,1-.555-2.17l.345-1.75.575-2.895a2.382,2.382,0,0,1,.983-1.5,7.328,7.328,0,0,0,1.383-1.25,6.448,6.448,0,0,0,1.582-4.849,1.372,1.372,0,0,1,.4-1.1,1.465,1.465,0,0,1,1.038-.42h27.22a2.112,2.112,0,0,1,1.605.72,1.889,1.889,0,0,1,.452,1.5l-1.3,9.284a6.68,6.68,0,0,1-6.75,5.5Z" transform="translate(8452.908 -769.678)" fill="url(#linear-gradient-12)"/>
    <path id="Path_52409" data-name="Path 52409" d="M-465.136,540.5a2.05,2.05,0,0,1-2.138-2.342h0l.345-1.75.575-2.894a1.642,1.642,0,0,1,.675-1.022,8.167,8.167,0,0,0,1.522-1.38,7.213,7.213,0,0,0,1.762-5.414.6.6,0,0,1,.182-.487.71.71,0,0,1,.5-.205h27.23a1.25,1.25,0,0,1,.973.382,1.249,1.249,0,0,1,.342.987l-1.3,9.266a5.911,5.911,0,0,1-6.018,4.849Z" transform="translate(8450.664 -771.945)" fill="url(#linear-gradient-13)"/>
    <path id="Path_52440" data-name="Path 52440" d="M-434.025,549.7h-1.637q-.173,0-.2-.113a.08.08,0,0,1-.015-.037l-.8-7.158a.067.067,0,0,0,0-.03l-.015-.03a.617.617,0,0,0-.105-.157,1.751,1.751,0,0,0-.152-.15l-.06-.05-.1-.078q-.057-.045-.112-.1c-.038-.035-.073-.068-.1-.1a.25.25,0,0,1-.077-.165c0-.045.04-.068.115-.068h3.262a.185.185,0,0,1,.2.128.134.134,0,0,0,.015.038l.715,5.955,3.082-5.9a.347.347,0,0,1,.315-.21h2.4q.113,0,.112.1a.265.265,0,0,1-.022.1l-4.088,7.805a.347.347,0,0,1-.315.2Z" transform="translate(8428.238 -784.295)" fill="#fff"/>
    <path id="Path_52441" data-name="Path 52441" d="M-396.36,544.136c-.165,0-.25-.057-.25-.175v-.05l1.177-4.3a.055.055,0,0,0,0-.045.385.385,0,0,1,0-.057.75.75,0,0,0-.307-.5c-.212-.2-.318-.312-.318-.347s.055-.093.165-.093h4.54c.142,0,.215.057.215.175a.055.055,0,0,0,0,.03.047.047,0,0,1,0,.03l-1.107,4.09h1.948l1.1-4.09a.323.323,0,0,1,.348-.235h3.5c.163,0,.25.057.25.175v.06l-1.105,4.088h.87c.225,0,.337.095.337.287q0,.953-.675.953h-.853l-.84,3.167a.315.315,0,0,1-.337.225h-3.535c-.15,0-.225-.057-.225-.175v-.05l.85-3.167h-5.75Z" transform="translate(8397.642 -782.124)" fill="#fff"/>
  </g>
</svg>
