<svg xmlns="http://www.w3.org/2000/svg" xmlns:xlink="http://www.w3.org/1999/xlink" width="55" height="18" viewBox="0 0 55 18">
  <defs>
    <linearGradient id="linear-gradient" x1="1.398" y1="1.929" x2="-0.293" y2="-0.765" gradientUnits="objectBoundingBox">
      <stop offset="0" stop-color="#ff9f3d"/>
      <stop offset="1" stop-color="#ffd166"/>
    </linearGradient>
    <linearGradient id="linear-gradient-2" x1="-2.24" y1="-2.183" x2="0.454" y2="0.444" xlink:href="#linear-gradient"/>
    <linearGradient id="linear-gradient-3" x1="0.707" y1="0.969" x2="0.339" y2="0.107" xlink:href="#linear-gradient"/>
    <linearGradient id="linear-gradient-4" x1="0.254" y1="0.134" x2="0.618" y2="0.691" xlink:href="#linear-gradient"/>
    <linearGradient id="linear-gradient-5" x1="0.494" y1="0.433" x2="0.044" y2="-4.118" xlink:href="#linear-gradient"/>
    <linearGradient id="linear-gradient-6" x1="-0.123" y1="-13.297" x2="0.334" y2="-3.178" xlink:href="#linear-gradient"/>
    <linearGradient id="linear-gradient-7" x1="2.403" y1="3.512" x2="0.724" y2="0.846" xlink:href="#linear-gradient"/>
    <linearGradient id="linear-gradient-8" x1="0.65" y1="0.631" x2="3.323" y2="3.251" xlink:href="#linear-gradient"/>
    <linearGradient id="linear-gradient-9" x1="2.834" y1="4.218" x2="1.151" y2="1.537" xlink:href="#linear-gradient"/>
    <linearGradient id="linear-gradient-10" x1="2.324" y1="2.291" x2="4.997" y2="4.917" xlink:href="#linear-gradient"/>
    <linearGradient id="linear-gradient-11" x1="0.71" y1="0.792" x2="0.272" y2="0.159" xlink:href="#linear-gradient"/>
    <linearGradient id="linear-gradient-12" x1="0.245" y1="0.045" x2="0.678" y2="0.797" xlink:href="#linear-gradient"/>
    <linearGradient id="linear-gradient-13" x1="0.18" y1="0.169" x2="0.892" y2="0.885" gradientUnits="objectBoundingBox">
      <stop offset="0" stop-color="#10192e"/>
      <stop offset="1" stop-color="#293a61"/>
    </linearGradient>
  </defs>
  <g id="v5" transform="translate(-7963.76 158.121)">
    <path id="Path_52410" data-name="Path 52410" d="M-473.811,620.564a1.64,1.64,0,0,0-1.227-1.5,1.629,1.629,0,0,0-.4-.052h-.087a1.452,1.452,0,0,0-.18,0,1.725,1.725,0,0,0-1.525,1.682,1.722,1.722,0,0,0,1.685,1.75h.2a1.5,1.5,0,0,0,.3-.062,1.73,1.73,0,0,0,1.228-1.817Z" transform="translate(8458.103 -774.898)" fill="url(#linear-gradient)"/>
    <path id="Path_52411" data-name="Path 52411" d="M-473.288,624.01a.975.975,0,0,1-.684-.3.975.975,0,0,1-.269-.7.977.977,0,0,1,.862-.95h.182a.839.839,0,0,1,.215.03.887.887,0,0,1,.663.807.165.165,0,0,1,0,.035.972.972,0,0,1-.69,1.038,1.3,1.3,0,0,1-.175.037h-.108Z" transform="translate(8455.86 -777.187)" fill="url(#linear-gradient-2)"/>
    <path id="Path_52412" data-name="Path 52412" d="M-522.6,627.02l-.06.022a.283.283,0,0,0-.092.07,24.609,24.609,0,0,1-2.265,2.215.875.875,0,0,1-.673.165,1.218,1.218,0,0,1-.7-.693c-.263-.5-.773-1.283-1.22-1.958-.165-.25-.318-.5-.437-.675a1.325,1.325,0,0,0-.732-.562,1.206,1.206,0,0,0-.3-.045h-.23a1.128,1.128,0,0,0-.225.05,1.3,1.3,0,0,0-.7.55c-.14.222-.215.35-.295.5-.175.3-.367.655-1.355,2.1l-.105.17c-.16.265-.407.662-.685.7-.16.028-.345-.072-.56-.28-.577-.555-2.3-2.25-2.3-2.25a.342.342,0,0,0-.135-.075,1.017,1.017,0,0,0-.5-.032,1.037,1.037,0,0,0-.827,1.212l1.415,7.835a.3.3,0,0,0,.287.25h12.328a.3.3,0,0,0,.288-.25l1.415-7.835a1.04,1.04,0,0,0-.033-.525,1.03,1.03,0,0,0-.515-.6A1.03,1.03,0,0,0-522.6,627.02Z" transform="translate(8502.937 -779.813)" fill="url(#linear-gradient-3)"/>
    <path id="Path_52413" data-name="Path 52413" d="M-532.671,637.877l-1.345-7.457a.287.287,0,0,1,.044-.216.287.287,0,0,1,.184-.122h.073c.367.36,1.71,1.68,2.215,2.165a1.5,1.5,0,0,0,1.025.5,1.165,1.165,0,0,0,.163,0,1.9,1.9,0,0,0,1.215-1.05l.1-.155c.945-1.385,1.167-1.777,1.347-2.092l.028-.045c.075-.133.147-.25.28-.465a.55.55,0,0,1,.295-.25h.215a.5.5,0,0,1,.107.018.56.56,0,0,1,.293.235l.448.688c.36.545.9,1.358,1.165,1.863a1.972,1.972,0,0,0,1.115,1.08.706.706,0,0,0,.143.038,1.58,1.58,0,0,0,.265.023,1.65,1.65,0,0,0,.98-.328l.035-.03a24.551,24.551,0,0,0,2.25-2.177h.015a.287.287,0,0,1,.258.17.313.313,0,0,1,0,.145l-1.35,7.467Z" transform="translate(8500.693 -782.16)" fill="url(#linear-gradient-4)"/>
    <path id="Path_52414" data-name="Path 52414" d="M-518.592,672.05H-530.96a.25.25,0,0,0-.25.25v1.528h0a.25.25,0,0,0,.25.25h12.37a.25.25,0,0,0,.25-.25v-1.54h0A.25.25,0,0,0-518.592,672.05Z" transform="translate(8498.584 -814.682)" fill="url(#linear-gradient-5)"/>
    <rect id="Rectangle_62722" data-name="Rectangle 62722" width="11.347" height="0.505" transform="translate(7968.132 -141.879)" fill="url(#linear-gradient-6)"/>
    <path id="Path_52415" data-name="Path 52415" d="M-511.749,613.159h0a1.715,1.715,0,0,0,1.273.38,1.73,1.73,0,0,0,1.525-1.907,1.635,1.635,0,0,0-1.628-1.55h-.08a1.445,1.445,0,0,0-.183,0,1.7,1.7,0,0,0-1.16.633,1.735,1.735,0,0,0-.381,1.275A1.735,1.735,0,0,0-511.749,613.159Z" transform="translate(8484.473 -768.2)" fill="url(#linear-gradient-7)"/>
    <path id="Path_52416" data-name="Path 52416" d="M-508.4,615.083a.983.983,0,0,1-.6-.2l-.02-.018a.973.973,0,0,1-.355-.657.968.968,0,0,1,.213-.718.98.98,0,0,1,.655-.357h.185a.887.887,0,0,1,.88.838.247.247,0,0,0,0,.042.975.975,0,0,1-.86,1.075A.746.746,0,0,1-508.4,615.083Z" transform="translate(8482.208 -770.489)" fill="url(#linear-gradient-8)"/>
    <path id="Path_52417" data-name="Path 52417" d="M-542.234,619.763a1.728,1.728,0,0,0-.39-1.285,1.727,1.727,0,0,0-1.193-.617,1.75,1.75,0,0,0-1.85,1.638,1.73,1.73,0,0,0,1.54,1.807,1.429,1.429,0,0,0,.18,0h.087A1.635,1.635,0,0,0-542.234,619.763Z" transform="translate(8509.429 -774.034)" fill="url(#linear-gradient-9)"/>
    <path id="Path_52418" data-name="Path 52418" d="M-541.767,622.827h-.03a.975.975,0,0,1-.867-1.02,1,1,0,0,1,.972-.927h.07a.968.968,0,0,1,.673.348.985.985,0,0,1,.222.727v.035a.888.888,0,0,1-.878.84h-.157Z" transform="translate(8507.176 -776.301)" fill="url(#linear-gradient-10)"/>
    <path id="Path_52419" data-name="Path 52419" d="M-468.879,628.1a3.468,3.468,0,0,1-2.7-1.25,3.119,3.119,0,0,1-.66-2.585l.345-1.75.575-2.895a2.885,2.885,0,0,1,1.185-1.807,7,7,0,0,0,1.293-1.167,5.953,5.953,0,0,0,1.462-4.474,1.877,1.877,0,0,1,.55-1.5,1.953,1.953,0,0,1,1.388-.565h27.22a2.61,2.61,0,0,1,1.983.892,2.4,2.4,0,0,1,.57,1.91l-1.3,9.261a7.181,7.181,0,0,1-7.25,5.929Z" transform="translate(8454.408 -768.223)" fill="url(#linear-gradient-11)"/>
    <path id="Path_52420" data-name="Path 52420" d="M-467.38,629.054a2.968,2.968,0,0,1-2.318-1.072,2.617,2.617,0,0,1-.555-2.167l.345-1.75.575-2.9a2.384,2.384,0,0,1,.982-1.5,7.413,7.413,0,0,0,1.383-1.25,6.453,6.453,0,0,0,1.582-4.849,1.375,1.375,0,0,1,.4-1.1,1.465,1.465,0,0,1,1.038-.42h27.22a2.113,2.113,0,0,1,1.605.72,1.892,1.892,0,0,1,.452,1.5l-1.3,9.266a6.678,6.678,0,0,1-6.75,5.5Z" transform="translate(8452.909 -769.678)" fill="url(#linear-gradient-12)"/>
    <path id="Path_52421" data-name="Path 52421" d="M-465.136,630.523a2.051,2.051,0,0,1-2.138-2.342h0l.345-1.75.575-2.9a1.642,1.642,0,0,1,.675-1.022,8.079,8.079,0,0,0,1.522-1.38,7.21,7.21,0,0,0,1.762-5.414.61.61,0,0,1,.182-.5.723.723,0,0,1,.5-.2h27.23a1.25,1.25,0,0,1,.974.383,1.25,1.25,0,0,1,.341.989l-1.3,9.266a5.913,5.913,0,0,1-6.018,4.849Z" transform="translate(8450.665 -771.9)" fill="url(#linear-gradient-13)"/>
    <path id="Path_52442" data-name="Path 52442" d="M-433.943,640.227h-1.637c-.118,0-.185-.037-.205-.112a.133.133,0,0,1-.015-.037l-.8-7.158a.068.068,0,0,0,0-.03l-.015-.03a.617.617,0,0,0-.105-.157c-.047-.05-.1-.1-.152-.15l-.06-.047-.1-.08-.113-.1-.1-.1a.25.25,0,0,1-.08-.165c0-.045.043-.068.118-.068h3.262a.185.185,0,0,1,.2.128.132.132,0,0,0,.015.037l.715,5.953,3.082-5.893a.348.348,0,0,1,.315-.21h2.38c.078,0,.115.035.115.105a.265.265,0,0,1-.022.1l-4.09,7.8a.348.348,0,0,1-.318.2Z" transform="translate(8428.179 -784.64)" fill="#fff"/>
    <path id="Path_52443" data-name="Path 52443" d="M-393.327,631.283c-.075.287-.142.542-.2.767s-.125.475-.2.75c0,.123.072.185.215.185h5.55q.25,0,.25.165v.052l-.35,1.32a.381.381,0,0,0-.02.1l-.513,1.887a2,2,0,0,1-.892,1.148,2.787,2.787,0,0,1-1.217.45.179.179,0,0,1-.087.02h-8.133c-.158,0-.235-.05-.235-.152a.042.042,0,0,0,0-.03.045.045,0,0,1,0-.033l.48-1.732.043-.153c.04-.143.155-.215.348-.215h3.5a.406.406,0,0,1,.18.035.1.1,0,0,1,.045.117l-.02.1v.037l-.033.13c-.015.068-.047.2-.1.378-.015.06-.027.115-.038.163a.88.88,0,0,1-.035.12h2l.707-2.633h-5.37a.7.7,0,0,1-.46-.165.535.535,0,0,1-.122-.45l.532-2,.388-1.422v-.092a.75.75,0,0,0-.318-.5c-.205-.193-.307-.315-.307-.37s.055-.073.165-.073h10.555a.577.577,0,0,1,.307.063.212.212,0,0,1,.073.235l-.143.585-.37,1.372a.315.315,0,0,1-.348.227h-3.5c-.158,0-.237-.055-.237-.165v-.062l.277-1.015h-2.132C-393.172,630.7-393.252,631-393.327,631.283Z" transform="translate(8399.556 -782.531)" fill="#fff"/>
  </g>
</svg>
