<svg xmlns="http://www.w3.org/2000/svg" xmlns:xlink="http://www.w3.org/1999/xlink" width="55" height="18" viewBox="0 0 55 18">
  <defs>
    <linearGradient id="linear-gradient" x1="0.494" y1="0.434" x2="0.044" y2="-4.134" gradientUnits="objectBoundingBox">
      <stop offset="0" stop-color="#ff9f3d"/>
      <stop offset="1" stop-color="#ffd166"/>
    </linearGradient>
    <linearGradient id="linear-gradient-2" x1="-0.123" y1="-13.297" x2="0.334" y2="-3.178" xlink:href="#linear-gradient"/>
    <linearGradient id="linear-gradient-3" x1="1.397" y1="1.921" x2="-0.293" y2="-0.762" xlink:href="#linear-gradient"/>
    <linearGradient id="linear-gradient-4" x1="-2.24" y1="-2.183" x2="0.454" y2="0.442" xlink:href="#linear-gradient"/>
    <linearGradient id="linear-gradient-5" x1="0.707" y1="0.968" x2="0.34" y2="0.107" xlink:href="#linear-gradient"/>
    <linearGradient id="linear-gradient-6" x1="0.253" y1="0.135" x2="0.617" y2="0.691" xlink:href="#linear-gradient"/>
    <linearGradient id="linear-gradient-7" x1="2.405" y1="3.514" x2="0.723" y2="0.846" xlink:href="#linear-gradient"/>
    <linearGradient id="linear-gradient-8" x1="0.65" y1="0.632" x2="3.323" y2="3.252" xlink:href="#linear-gradient"/>
    <linearGradient id="linear-gradient-9" x1="2.834" y1="4.218" x2="1.151" y2="1.537" xlink:href="#linear-gradient"/>
    <linearGradient id="linear-gradient-10" x1="2.324" y1="2.291" x2="4.998" y2="4.918" xlink:href="#linear-gradient"/>
    <linearGradient id="linear-gradient-11" x1="0.71" y1="0.792" x2="0.272" y2="0.159" xlink:href="#linear-gradient"/>
    <linearGradient id="linear-gradient-12" x1="0.245" y1="0.044" x2="0.678" y2="0.797" xlink:href="#linear-gradient"/>
    <linearGradient id="linear-gradient-13" x1="0.18" y1="0.169" x2="0.892" y2="0.885" gradientUnits="objectBoundingBox">
      <stop offset="0" stop-color="#10192e"/>
      <stop offset="1" stop-color="#293a61"/>
    </linearGradient>
  </defs>
  <g id="v6" transform="translate(-7963.759 60.301)">
    <path id="Path_52448" data-name="Path 52448" d="M-518.592,769.87H-530.96a.25.25,0,0,0-.25.25v1.532h0a.25.25,0,0,0,.25.238h12.37a.25.25,0,0,0,.25-.238V770.12h0a.25.25,0,0,0-.074-.178A.25.25,0,0,0-518.592,769.87Z" transform="translate(8498.584 -814.682)" fill="url(#linear-gradient)"/>
    <rect id="Rectangle_62724" data-name="Rectangle 62724" width="11.348" height="0.505" transform="translate(7968.131 -44.059)" fill="url(#linear-gradient-2)"/>
    <g id="Group_40305" data-name="Group 40305" transform="translate(7963.759 -60.301)">
      <path id="Path_52444" data-name="Path 52444" d="M-473.811,718.381a1.637,1.637,0,0,0-1.228-1.5,1.624,1.624,0,0,0-.4-.052h-.087a1.094,1.094,0,0,0-.18,0,1.72,1.72,0,0,0-1.525,1.682,1.722,1.722,0,0,0,.477,1.231,1.722,1.722,0,0,0,1.208.532h.2a1.693,1.693,0,0,0,.3-.062,1.733,1.733,0,0,0,1.227-1.83Z" transform="translate(494.344 -714.593)" fill="url(#linear-gradient-3)"/>
      <path id="Path_52445" data-name="Path 52445" d="M-473.288,721.83a.977.977,0,0,1-.953-1,.978.978,0,0,1,.863-.95h.182a.839.839,0,0,1,.215.03.882.882,0,0,1,.663.807.141.141,0,0,1,0,.032.975.975,0,0,1-.69,1.04.983.983,0,0,1-.175.035h-.087Z" transform="translate(492.101 -716.885)" fill="url(#linear-gradient-4)"/>
      <path id="Path_52446" data-name="Path 52446" d="M-522.651,724.84l-.06.02a.322.322,0,0,0-.093.07,24.621,24.621,0,0,1-2.265,2.218.885.885,0,0,1-.672.165,1.223,1.223,0,0,1-.7-.693c-.263-.513-.773-1.285-1.22-1.96l-.437-.675a1.348,1.348,0,0,0-.732-.562,1.335,1.335,0,0,0-.3-.042h-.23a1.128,1.128,0,0,0-.225.047,1.318,1.318,0,0,0-.7.55c-.14.223-.215.353-.295.5-.175.307-.367.658-1.355,2.105l-.1.17c-.16.25-.408.662-.685.7-.16.027-.345-.073-.56-.28-.578-.552-2.3-2.25-2.3-2.25a.342.342,0,0,0-.135-.075,1.017,1.017,0,0,0-.5-.033,1.037,1.037,0,0,0-.679.434,1.037,1.037,0,0,0-.164.789l1.415,7.833a.3.3,0,0,0,.287.25h12.328a.3.3,0,0,0,.287-.25l1.432-7.833a1.051,1.051,0,0,0-.032-.528,1.03,1.03,0,0,0-.515-.609A1.03,1.03,0,0,0-522.651,724.84Z" transform="translate(539.226 -719.511)" fill="url(#linear-gradient-5)"/>
      <path id="Path_52447" data-name="Path 52447" d="M-532.671,735.66l-1.345-7.458a.288.288,0,0,1,.044-.216.288.288,0,0,1,.184-.122h.073c.367.363,1.71,1.682,2.215,2.168a1.5,1.5,0,0,0,1.025.5,1.15,1.15,0,0,0,.163-.013,1.9,1.9,0,0,0,1.215-1.05l.1-.158c.945-1.383,1.167-1.775,1.347-2.09l.028-.047c.075-.13.147-.25.28-.465a.555.555,0,0,1,.295-.235l.055-.015h.16a.5.5,0,0,1,.107.015.565.565,0,0,1,.293.237l.447.688c.36.545.9,1.357,1.165,1.862a1.98,1.98,0,0,0,1.115,1.08.706.706,0,0,0,.143.038,1.58,1.58,0,0,0,.265.023,1.65,1.65,0,0,0,.98-.328l.035-.03a24.917,24.917,0,0,0,2.25-2.18h.015a.285.285,0,0,1,.27.2.325.325,0,0,1,0,.147l-1.35,7.468Z" transform="translate(536.934 -721.821)" fill="url(#linear-gradient-6)"/>
      <path id="Path_52449" data-name="Path 52449" d="M-511.731,710.979h0a1.712,1.712,0,0,0,1.272.378,1.725,1.725,0,0,0,1.525-1.905,1.632,1.632,0,0,0-1.628-1.55h-.08a1.445,1.445,0,0,0-.182,0,1.717,1.717,0,0,0-1.16.633A1.75,1.75,0,0,0-511.731,710.979Z" transform="translate(520.695 -707.899)" fill="url(#linear-gradient-7)"/>
      <path id="Path_52450" data-name="Path 52450" d="M-508.4,712.9a.982.982,0,0,1-.595-.2l-.02-.018a.972.972,0,0,1-.355-.657.968.968,0,0,1,.212-.718.98.98,0,0,1,.655-.358h.185a.885.885,0,0,1,.88.837.2.2,0,0,0,0,.04.978.978,0,0,1-.86,1.078Z" transform="translate(518.448 -710.187)" fill="url(#linear-gradient-8)"/>
      <path id="Path_52451" data-name="Path 52451" d="M-542.235,717.581a1.725,1.725,0,0,0-.39-1.284,1.725,1.725,0,0,0-1.192-.616,1.75,1.75,0,0,0-1.85,1.635,1.73,1.73,0,0,0,1.54,1.81,1.453,1.453,0,0,0,.18,0h.087A1.638,1.638,0,0,0-542.235,717.581Z" transform="translate(545.67 -713.733)" fill="url(#linear-gradient-9)"/>
      <path id="Path_52452" data-name="Path 52452" d="M-541.767,720.637h-.03a.975.975,0,0,1-.867-1.02,1,1,0,0,1,.972-.927h.07a.957.957,0,0,1,.673.347.98.98,0,0,1,.222.725v.037a.887.887,0,0,1-.878.84h-.157Z" transform="translate(543.416 -715.992)" fill="url(#linear-gradient-10)"/>
      <path id="Path_52453" data-name="Path 52453" d="M-468.879,725.922a3.468,3.468,0,0,1-2.7-1.25,3.122,3.122,0,0,1-.66-2.585l.345-1.75.575-2.895a2.877,2.877,0,0,1,1.185-1.807,7.023,7.023,0,0,0,1.292-1.17,5.943,5.943,0,0,0,1.463-4.472,1.877,1.877,0,0,1,.55-1.5,1.953,1.953,0,0,1,1.388-.565h27.22a2.61,2.61,0,0,1,1.983.892,2.4,2.4,0,0,1,.57,1.91l-1.3,9.261a7.181,7.181,0,0,1-7.25,5.929Z" transform="translate(490.648 -707.922)" fill="url(#linear-gradient-11)"/>
      <path id="Path_52454" data-name="Path 52454" d="M-467.38,726.912a2.968,2.968,0,0,1-2.318-1.072,2.619,2.619,0,0,1-.555-2.167l.345-1.75.575-2.9a2.369,2.369,0,0,1,.983-1.5,7.342,7.342,0,0,0,1.382-1.25,6.448,6.448,0,0,0,1.583-4.849,1.372,1.372,0,0,1,.41-1.087,1.465,1.465,0,0,1,1.038-.42h27.213a2.113,2.113,0,0,1,1.605.72,1.892,1.892,0,0,1,.452,1.5l-1.3,9.266a6.68,6.68,0,0,1-6.75,5.5Z" transform="translate(489.149 -709.414)" fill="url(#linear-gradient-12)"/>
      <path id="Path_52455" data-name="Path 52455" d="M-465.136,728.343A2.051,2.051,0,0,1-467.273,726h0l.345-1.75.575-2.9a1.642,1.642,0,0,1,.675-1.022,8.08,8.08,0,0,0,1.522-1.38,7.213,7.213,0,0,0,1.763-5.414.6.6,0,0,1,.182-.5.71.71,0,0,1,.5-.205h27.23a1.25,1.25,0,0,1,.973.382,1.25,1.25,0,0,1,.342.987l-1.3,9.268a5.913,5.913,0,0,1-6.018,4.849Z" transform="translate(486.905 -711.599)" fill="url(#linear-gradient-13)"/>
      <path id="Path_52456" data-name="Path 52456" d="M-433.943,738.04h-1.637c-.118,0-.185-.038-.205-.112a.133.133,0,0,1-.015-.038l-.8-7.158a.068.068,0,0,0,0-.03l-.015-.03a.618.618,0,0,0-.105-.158c-.047-.05-.1-.1-.152-.15l-.06-.05-.1-.078-.113-.1-.1-.1a.25.25,0,0,1-.08-.165c0-.045.043-.068.117-.068h3.263a.185.185,0,0,1,.195.128.131.131,0,0,0,.015.037l.715,5.955,3.082-5.9a.348.348,0,0,1,.315-.21h2.38c.077,0,.115.035.115.1a.265.265,0,0,1-.022.105l-4.09,7.8a.347.347,0,0,1-.318.2Z" transform="translate(464.419 -724.331)" fill="#fff"/>
      <path id="Path_52457" data-name="Path 52457" d="M-390.809,728.214c-.08.307-.162.6-.25.893s-.147.54-.2.763-.125.47-.2.75c0,.125.072.185.215.185h5.55c.158,0,.235.055.235.165v.05l-.348,1.322a.3.3,0,0,0-.02.1l-.5,1.885a2.1,2.1,0,0,1-.9,1.158,2.65,2.65,0,0,1-1.22.453,1.036,1.036,0,0,1-.182.02h-6.283a1.782,1.782,0,0,1-1.333-.5,1.377,1.377,0,0,1-.307-.962l.133-.482h0l.645-2.44.545-2.09.378-1.435v-.093a.77.77,0,0,0-.318-.513c-.2-.19-.3-.312-.3-.367s.053-.073.155-.073h10.555a.555.555,0,0,1,.308.063.215.215,0,0,1,.073.235l-.133.585-.38,1.372a.312.312,0,0,1-.348.225h-3.5q-.25,0-.25-.165v-.06l.278-1.015Zm-.777,3.843a.4.4,0,0,0-.175.032.25.25,0,0,0-.122.153l-.522,2-.043.172a.218.218,0,0,0,.052.205.293.293,0,0,0,.215.083h1.465a.2.2,0,0,0,.165-.052.3.3,0,0,0,.083-.133l.582-2.212a.25.25,0,0,0-.05-.185.368.368,0,0,0-.185-.062Z" transform="translate(433.846 -722.228)" fill="#fff"/>
    </g>
  </g>
</svg>
