<svg xmlns="http://www.w3.org/2000/svg" xmlns:xlink="http://www.w3.org/1999/xlink" width="55" height="18" viewBox="0 0 55 18">
  <defs>
    <linearGradient id="linear-gradient" x1="1.398" y1="1.928" x2="-0.293" y2="-0.763" gradientUnits="objectBoundingBox">
      <stop offset="0" stop-color="#ff9f3d"/>
      <stop offset="1" stop-color="#ffd166"/>
    </linearGradient>
    <linearGradient id="linear-gradient-2" x1="-2.24" y1="-2.18" x2="0.454" y2="0.444" xlink:href="#linear-gradient"/>
    <linearGradient id="linear-gradient-3" x1="0.707" y1="0.969" x2="0.339" y2="0.108" xlink:href="#linear-gradient"/>
    <linearGradient id="linear-gradient-4" x1="0.253" y1="0.134" x2="0.617" y2="0.688" xlink:href="#linear-gradient"/>
    <linearGradient id="linear-gradient-5" x1="0.494" y1="0.434" x2="0.044" y2="-4.118" xlink:href="#linear-gradient"/>
    <linearGradient id="linear-gradient-6" x1="-0.123" y1="-13.297" x2="0.334" y2="-3.178" xlink:href="#linear-gradient"/>
    <linearGradient id="linear-gradient-7" x1="2.405" y1="3.517" x2="0.723" y2="0.849" xlink:href="#linear-gradient"/>
    <linearGradient id="linear-gradient-8" x1="0.65" y1="0.632" x2="3.323" y2="3.251" xlink:href="#linear-gradient"/>
    <linearGradient id="linear-gradient-9" x1="2.834" y1="4.218" x2="1.151" y2="1.537" xlink:href="#linear-gradient"/>
    <linearGradient id="linear-gradient-10" x1="2.323" y1="2.291" x2="4.997" y2="4.918" xlink:href="#linear-gradient"/>
    <linearGradient id="linear-gradient-11" x1="0.71" y1="0.792" x2="0.271" y2="0.159" xlink:href="#linear-gradient"/>
    <linearGradient id="linear-gradient-12" x1="0.245" y1="0.045" x2="0.678" y2="0.797" xlink:href="#linear-gradient"/>
    <linearGradient id="linear-gradient-13" x1="0.18" y1="0.169" x2="0.892" y2="0.885" gradientUnits="objectBoundingBox">
      <stop offset="0" stop-color="#10192e"/>
      <stop offset="1" stop-color="#293a61"/>
    </linearGradient>
  </defs>
  <g id="v7" transform="translate(-7963.759 -37.48)">
    <path id="Path_52458" data-name="Path 52458" d="M-473.811,816.2a1.637,1.637,0,0,0-1.228-1.5,1.517,1.517,0,0,0-.4-.055h-.087a1.452,1.452,0,0,0-.18,0,1.725,1.725,0,0,0-1.525,1.685,1.722,1.722,0,0,0,1.685,1.75h.2a1.939,1.939,0,0,0,.3-.062A1.735,1.735,0,0,0-473.811,816.2Z" transform="translate(8458.097 -774.919)" fill="url(#linear-gradient)"/>
    <path id="Path_52459" data-name="Path 52459" d="M-473.288,819.635a.975.975,0,0,1-.684-.3.975.975,0,0,1-.269-.7.978.978,0,0,1,.863-.95.494.494,0,0,1,.085,0h.1a.956.956,0,0,1,.215.027.888.888,0,0,1,.663.81.141.141,0,0,1,0,.033.97.97,0,0,1-.69,1.038.817.817,0,0,1-.175.037h-.087Z" transform="translate(8455.854 -777.204)" fill="url(#linear-gradient-2)"/>
    <path id="Path_52460" data-name="Path 52460" d="M-522.6,822.62l-.06.02a.322.322,0,0,0-.092.07,24.286,24.286,0,0,1-2.265,2.215.875.875,0,0,1-.673.165,1.21,1.21,0,0,1-.7-.693c-.263-.5-.773-1.282-1.22-1.958l-.437-.675a1.325,1.325,0,0,0-.732-.562,1.335,1.335,0,0,0-.3-.042h-.23a1.338,1.338,0,0,0-.225.05,1.3,1.3,0,0,0-.7.55c-.14.222-.215.352-.295.5-.175.307-.368.657-1.355,2.1l-.1.172c-.16.25-.408.663-.685.7-.16.027-.345-.073-.56-.28-.578-.555-2.3-2.25-2.3-2.25a.418.418,0,0,0-.135-.075,1.048,1.048,0,0,0-.5-.032,1.04,1.04,0,0,0-.828,1.215l1.415,7.833a.3.3,0,0,0,.288.25h12.328a.3.3,0,0,0,.288-.25l1.415-7.833a1.05,1.05,0,0,0-.033-.527,1.03,1.03,0,0,0-.515-.6A1.03,1.03,0,0,0-522.6,822.62Z" transform="translate(8502.937 -779.815)" fill="url(#linear-gradient-3)"/>
    <path id="Path_52461" data-name="Path 52461" d="M-532.672,833.515l-1.345-7.455a.285.285,0,0,1,.043-.217.285.285,0,0,1,.185-.121.189.189,0,0,1,.052,0h.02c.367.363,1.71,1.682,2.215,2.165a1.482,1.482,0,0,0,1.025.5.882.882,0,0,0,.163,0,1.886,1.886,0,0,0,1.215-1.048l.095-.157c.945-1.383,1.167-1.775,1.348-2.093l.027-.045c.075-.13.148-.25.28-.465a.559.559,0,0,1,.295-.25h.215a.5.5,0,0,1,.108.017.565.565,0,0,1,.292.25l.448.685c.36.548.9,1.36,1.165,1.865a1.967,1.967,0,0,0,1.115,1.077.71.71,0,0,0,.143.04,1.575,1.575,0,0,0,.265.023,1.635,1.635,0,0,0,.98-.33l.035-.027a24.925,24.925,0,0,0,2.25-2.18h.015a.285.285,0,0,1,.27.2.312.312,0,0,1,0,.145l-1.35,7.468Z" transform="translate(8500.694 -782.193)" fill="url(#linear-gradient-4)"/>
    <path id="Path_52462" data-name="Path 52462" d="M-518.592,867.68H-530.96a.25.25,0,0,0-.25.25v1.528h0a.25.25,0,0,0,.25.25h12.37a.25.25,0,0,0,.25-.25v-1.533h0A.25.25,0,0,0-518.592,867.68Z" transform="translate(8498.584 -814.71)" fill="url(#linear-gradient-5)"/>
    <rect id="Rectangle_62725" data-name="Rectangle 62725" width="11.348" height="0.505" transform="translate(7968.132 53.725)" fill="url(#linear-gradient-6)"/>
    <path id="Path_52463" data-name="Path 52463" d="M-511.735,808.76h0a1.713,1.713,0,0,0,1.272.378,1.728,1.728,0,0,0,1.525-1.908,1.635,1.635,0,0,0-1.628-1.55h-.263a1.717,1.717,0,0,0-1.16.633A1.75,1.75,0,0,0-511.735,808.76Z" transform="translate(8484.455 -768.2)" fill="url(#linear-gradient-7)"/>
    <path id="Path_52464" data-name="Path 52464" d="M-508.4,810.723a.97.97,0,0,1-.6-.2l-.02-.015a.978.978,0,0,1-.355-.658.968.968,0,0,1,.212-.717.96.96,0,0,1,.655-.358h.185a.885.885,0,0,1,.88.838.216.216,0,0,0,0,.04.977.977,0,0,1-.86,1.078Z" transform="translate(8482.205 -770.518)" fill="url(#linear-gradient-8)"/>
    <path id="Path_52465" data-name="Path 52465" d="M-542.235,815.393a1.73,1.73,0,0,0-.391-1.284,1.73,1.73,0,0,0-1.192-.618,1.75,1.75,0,0,0-1.85,1.637,1.727,1.727,0,0,0,1.54,1.807,1.081,1.081,0,0,0,.18,0h.088A1.64,1.64,0,0,0-542.235,815.393Z" transform="translate(8509.429 -774.056)" fill="url(#linear-gradient-9)"/>
    <path id="Path_52466" data-name="Path 52466" d="M-541.767,818.458h-.03a.975.975,0,0,1-.867-1.02,1,1,0,0,1,.972-.927h.07a.958.958,0,0,1,.673.347.975.975,0,0,1,.222.725v.038a.887.887,0,0,1-.878.84h-.157Z" transform="translate(8507.176 -776.324)" fill="url(#linear-gradient-10)"/>
    <path id="Path_52467" data-name="Path 52467" d="M-468.879,823.717a3.466,3.466,0,0,1-2.7-1.249,3.124,3.124,0,0,1-.66-2.586l.345-1.749.575-2.9a2.876,2.876,0,0,1,1.185-1.8,7.025,7.025,0,0,0,1.293-1.169,5.945,5.945,0,0,0,1.462-4.468,1.876,1.876,0,0,1,.55-1.5,1.955,1.955,0,0,1,1.387-.567h27.22a2.613,2.613,0,0,1,2,.892,2.4,2.4,0,0,1,.57,1.909l-1.32,9.26a7.178,7.178,0,0,1-7.25,5.924Z" transform="translate(8454.39 -768.237)" fill="url(#linear-gradient-11)"/>
    <path id="Path_52468" data-name="Path 52468" d="M-467.38,824.687a2.978,2.978,0,0,1-2.318-1.072,2.622,2.622,0,0,1-.555-2.169l.345-1.749.575-2.893a2.381,2.381,0,0,1,.982-1.5,7.329,7.329,0,0,0,1.383-1.249,6.446,6.446,0,0,0,1.583-4.847,1.371,1.371,0,0,1,.4-1.1,1.466,1.466,0,0,1,1.038-.422h27.22a2.106,2.106,0,0,1,1.605.722,1.888,1.888,0,0,1,.452,1.5l-1.3,9.262a6.677,6.677,0,0,1-6.75,5.5Z" transform="translate(8452.891 -769.707)" fill="url(#linear-gradient-12)"/>
    <path id="Path_52469" data-name="Path 52469" d="M-465.136,826.191a2.049,2.049,0,0,1-2.138-2.341h0l.345-1.749.575-2.893a1.642,1.642,0,0,1,.675-1.022,8.166,8.166,0,0,0,1.522-1.379,7.207,7.207,0,0,0,1.763-5.411.6.6,0,0,1,.182-.487.711.711,0,0,1,.5-.2h27.23a1.25,1.25,0,0,1,.973.382,1.249,1.249,0,0,1,.342.987l-1.3,9.261a5.91,5.91,0,0,1-6.018,4.847Z" transform="translate(8450.646 -771.967)" fill="url(#linear-gradient-13)"/>
    <path id="Path_52470" data-name="Path 52470" d="M-433.943,835.847h-1.638c-.117,0-.185-.038-.205-.112a.134.134,0,0,1-.015-.038l-.8-7.158a.067.067,0,0,0,0-.03l-.015-.03a.618.618,0,0,0-.105-.157c-.047-.05-.1-.1-.152-.15l-.06-.047-.1-.08-.112-.1-.1-.1a.25.25,0,0,1-.08-.165c0-.045.042-.068.117-.068h3.263a.185.185,0,0,1,.195.128.133.133,0,0,0,.015.038l.715,5.953,3.083-5.893a.347.347,0,0,1,.315-.21h2.38c.077,0,.115.035.115.1a.265.265,0,0,1-.022.1l-4.09,7.8a.347.347,0,0,1-.318.2Z" transform="translate(8428.168 -784.658)" fill="#fff"/>
    <path id="Path_52471" data-name="Path 52471" d="M-388.005,827.163a1.062,1.062,0,0,1-.182.4.437.437,0,0,1-.25.107c-.1,0-.235.015-.4.015h-2.725a.661.661,0,0,1-.25-.04.366.366,0,0,1-.158-.122.708.708,0,0,1-.052-.565l.307-1.168V825.7a.837.837,0,0,0-.307-.5c-.21-.19-.318-.307-.318-.348s.055-.092.165-.092H-381.3c.15,0,.225.06.225.185v.06l-.275,1.035-3.568,7.473a.427.427,0,0,1-.128.157.372.372,0,0,1-.22.058h-3.5c-.158,0-.235-.055-.235-.165v-.05l3.575-7.513h-2.25Z" transform="translate(8394.421 -782.516)" fill="#fff"/>
  </g>
</svg>
