<svg xmlns="http://www.w3.org/2000/svg" xmlns:xlink="http://www.w3.org/1999/xlink" width="55" height="18" viewBox="0 0 55 18">
  <defs>
    <linearGradient id="linear-gradient" x1="1.397" y1="1.921" x2="-0.293" y2="-0.761" gradientUnits="objectBoundingBox">
      <stop offset="0" stop-color="#ff9f3d"/>
      <stop offset="1" stop-color="#ffd166"/>
    </linearGradient>
    <linearGradient id="linear-gradient-2" x1="-2.24" y1="-2.18" x2="0.454" y2="0.444" xlink:href="#linear-gradient"/>
    <linearGradient id="linear-gradient-3" x1="0.707" y1="0.968" x2="0.339" y2="0.107" xlink:href="#linear-gradient"/>
    <linearGradient id="linear-gradient-4" x1="0.253" y1="0.135" x2="0.617" y2="0.69" xlink:href="#linear-gradient"/>
    <linearGradient id="linear-gradient-5" x1="0.494" y1="0.434" x2="0.044" y2="-4.118" xlink:href="#linear-gradient"/>
    <linearGradient id="linear-gradient-6" x1="-0.123" y1="-13.297" x2="0.334" y2="-3.178" xlink:href="#linear-gradient"/>
    <linearGradient id="linear-gradient-7" x1="2.407" y1="3.514" x2="0.723" y2="0.846" xlink:href="#linear-gradient"/>
    <linearGradient id="linear-gradient-8" x1="0.65" y1="0.633" x2="3.324" y2="3.255" xlink:href="#linear-gradient"/>
    <linearGradient id="linear-gradient-9" x1="2.834" y1="4.214" x2="1.151" y2="1.533" xlink:href="#linear-gradient"/>
    <linearGradient id="linear-gradient-10" x1="2.323" y1="2.291" x2="4.997" y2="4.918" xlink:href="#linear-gradient"/>
    <linearGradient id="linear-gradient-11" x1="0.71" y1="0.792" x2="0.272" y2="0.159" xlink:href="#linear-gradient"/>
    <linearGradient id="linear-gradient-12" x1="0.245" y1="0.045" x2="0.678" y2="0.797" xlink:href="#linear-gradient"/>
    <linearGradient id="linear-gradient-13" x1="0.18" y1="0.169" x2="0.892" y2="0.886" gradientUnits="objectBoundingBox">
      <stop offset="0" stop-color="#10192e"/>
      <stop offset="1" stop-color="#293a61"/>
    </linearGradient>
  </defs>
  <g id="v8" transform="translate(-7963.759 -140.36)">
    <path id="Path_52472" data-name="Path 52472" d="M-473.811,919.037a1.637,1.637,0,0,0-1.228-1.5,1.517,1.517,0,0,0-.4-.055h-.088a1.452,1.452,0,0,0-.18,0,1.725,1.725,0,0,0-1.525,1.685,1.722,1.722,0,0,0,.477,1.231,1.722,1.722,0,0,0,1.208.532h.2a1.937,1.937,0,0,0,.3-.062A1.735,1.735,0,0,0-473.811,919.037Z" transform="translate(8458.103 -774.889)" fill="url(#linear-gradient)"/>
    <path id="Path_52473" data-name="Path 52473" d="M-473.288,922.475a.975.975,0,0,1-.684-.3.975.975,0,0,1-.269-.7.978.978,0,0,1,.862-.95.494.494,0,0,1,.085,0h.1a.956.956,0,0,1,.215.027.888.888,0,0,1,.662.81.143.143,0,0,1,0,.033.97.97,0,0,1-.69,1.038.817.817,0,0,1-.175.037h-.087Z" transform="translate(8455.86 -777.172)" fill="url(#linear-gradient-2)"/>
    <path id="Path_52474" data-name="Path 52474" d="M-522.573,925.5l-.06.02a.323.323,0,0,0-.093.07,24.284,24.284,0,0,1-2.255,2.215.875.875,0,0,1-.672.165,1.21,1.21,0,0,1-.7-.693c-.263-.5-.773-1.283-1.22-1.958l-.437-.675a1.325,1.325,0,0,0-.732-.562,1.334,1.334,0,0,0-.3-.042h-.23a1.332,1.332,0,0,0-.225.05,1.3,1.3,0,0,0-.695.55c-.14.223-.215.352-.3.5-.175.307-.367.657-1.355,2.1l-.1.173c-.16.262-.408.662-.685.7-.16.028-.345-.072-.56-.28-.578-.555-2.3-2.25-2.3-2.25a.416.416,0,0,0-.135-.075,1.047,1.047,0,0,0-.5-.033,1.04,1.04,0,0,0-.828,1.215l1.4,7.84a.3.3,0,0,0,.288.25h12.328a.3.3,0,0,0,.287-.25l1.415-7.833a1.05,1.05,0,0,0-.032-.527,1.03,1.03,0,0,0-.511-.607A1.03,1.03,0,0,0-522.573,925.5Z" transform="translate(8502.906 -779.81)" fill="url(#linear-gradient-3)"/>
    <path id="Path_52475" data-name="Path 52475" d="M-532.672,936.317l-1.345-7.455a.285.285,0,0,1,.043-.217.285.285,0,0,1,.185-.121.184.184,0,0,1,.052,0h.02c.367.362,1.71,1.682,2.215,2.165a1.482,1.482,0,0,0,1.025.5.868.868,0,0,0,.163-.012,1.886,1.886,0,0,0,1.215-1.047l.1-.158c.945-1.383,1.167-1.775,1.347-2.092l.028-.045c.075-.13.147-.25.28-.465a.55.55,0,0,1,.295-.25h.215a.5.5,0,0,1,.107.017.565.565,0,0,1,.293.25l.448.685c.36.547.9,1.36,1.165,1.865a1.967,1.967,0,0,0,1.115,1.077.708.708,0,0,0,.143.04,1.58,1.58,0,0,0,.265.023,1.635,1.635,0,0,0,.98-.33l.035-.028a24.909,24.909,0,0,0,2.25-2.18h.015a.285.285,0,0,1,.27.2.313.313,0,0,1,0,.145l-1.35,7.468Z" transform="translate(8500.694 -782.12)" fill="url(#linear-gradient-4)"/>
    <path id="Path_52476" data-name="Path 52476" d="M-518.592,970.52H-530.96a.25.25,0,0,0-.25.25V972.3h0a.25.25,0,0,0,.25.25h12.37a.25.25,0,0,0,.25-.25v-1.533h0A.25.25,0,0,0-518.592,970.52Z" transform="translate(8498.584 -814.67)" fill="url(#linear-gradient-5)"/>
    <rect id="Rectangle_62726" data-name="Rectangle 62726" width="11.347" height="0.505" transform="translate(7968.132 156.605)" fill="url(#linear-gradient-6)"/>
    <path id="Path_52477" data-name="Path 52477" d="M-511.717,911.64h0a1.713,1.713,0,0,0,1.272.378,1.728,1.728,0,0,0,1.525-1.908,1.635,1.635,0,0,0-1.628-1.55h-.08a.888.888,0,0,0-.182.012,1.718,1.718,0,0,0-1.16.633,1.75,1.75,0,0,0,.253,2.435Z" transform="translate(8484.439 -768.2)" fill="url(#linear-gradient-7)"/>
    <path id="Path_52478" data-name="Path 52478" d="M-508.4,913.563a.97.97,0,0,1-.6-.2l-.02-.015a.978.978,0,0,1-.355-.658.968.968,0,0,1,.212-.717.96.96,0,0,1,.655-.357h.185a.885.885,0,0,1,.88.838.216.216,0,0,0,0,.04.977.977,0,0,1-.845,1.07Z" transform="translate(8482.208 -770.488)" fill="url(#linear-gradient-8)"/>
    <path id="Path_52479" data-name="Path 52479" d="M-542.235,918.283a1.73,1.73,0,0,0-.391-1.284,1.73,1.73,0,0,0-1.192-.618,1.75,1.75,0,0,0-1.85,1.637,1.728,1.728,0,0,0,1.54,1.807,1.094,1.094,0,0,0,.18,0h.088A1.64,1.64,0,0,0-542.235,918.283Z" transform="translate(8509.429 -774.063)" fill="url(#linear-gradient-9)"/>
    <path id="Path_52480" data-name="Path 52480" d="M-541.767,921.3h-.03a.975.975,0,0,1-.867-1.02,1,1,0,0,1,.972-.927h.07a.957.957,0,0,1,.673.347.975.975,0,0,1,.222.725v.037a.887.887,0,0,1-.878.84h-.157Z" transform="translate(8507.176 -776.293)" fill="url(#linear-gradient-10)"/>
    <path id="Path_52481" data-name="Path 52481" d="M-468.879,926.567a3.46,3.46,0,0,1-2.7-1.25,3.12,3.12,0,0,1-.66-2.585l.345-1.75.575-2.9a2.877,2.877,0,0,1,1.185-1.8,7.025,7.025,0,0,0,1.293-1.17,5.95,5.95,0,0,0,1.462-4.472,1.877,1.877,0,0,1,.55-1.5,1.955,1.955,0,0,1,1.387-.568h27.22a2.612,2.612,0,0,1,1.982.9,2.4,2.4,0,0,1,.57,1.91l-1.3,9.265a7.179,7.179,0,0,1-7.25,5.927Z" transform="translate(8454.408 -768.207)" fill="url(#linear-gradient-11)"/>
    <path id="Path_52482" data-name="Path 52482" d="M-467.38,927.537a2.978,2.978,0,0,1-2.318-1.073,2.625,2.625,0,0,1-.555-2.17l.345-1.75.575-2.895a2.382,2.382,0,0,1,.983-1.5,7.329,7.329,0,0,0,1.383-1.25,6.452,6.452,0,0,0,1.582-4.85,1.372,1.372,0,0,1,.4-1.1,1.465,1.465,0,0,1,1.037-.422h27.22a2.105,2.105,0,0,1,1.605.722,1.89,1.89,0,0,1,.452,1.5l-1.3,9.267a6.678,6.678,0,0,1-6.75,5.5Z" transform="translate(8452.908 -769.677)" fill="url(#linear-gradient-12)"/>
    <path id="Path_52483" data-name="Path 52483" d="M-465.136,929.019a2.05,2.05,0,0,1-2.138-2.342h0l.345-1.75.575-2.895a1.642,1.642,0,0,1,.675-1.023,8.167,8.167,0,0,0,1.522-1.375,7.215,7.215,0,0,0,1.763-5.415.6.6,0,0,1,.182-.5.71.71,0,0,1,.5-.205h27.23a1.25,1.25,0,0,1,.973.382,1.25,1.25,0,0,1,.342.988l-1.3,9.267a5.911,5.911,0,0,1-6.018,4.85Z" transform="translate(8450.664 -771.914)" fill="url(#linear-gradient-13)"/>
    <path id="Path_52484" data-name="Path 52484" d="M-433.943,938.45h-1.637c-.118,0-.185-.038-.205-.113a.133.133,0,0,1-.015-.037l-.8-7.158a.068.068,0,0,0,0-.03l-.015-.03a.618.618,0,0,0-.105-.157c-.047-.05-.1-.1-.152-.15l-.06-.05-.1-.078q-.055-.045-.113-.1c-.038-.035-.073-.068-.1-.1a.25.25,0,0,1-.08-.165c0-.045.043-.068.117-.068h3.262a.185.185,0,0,1,.2.128.134.134,0,0,0,.015.038l.715,5.955,3.082-5.9a.347.347,0,0,1,.315-.21h2.38c.078,0,.115.035.115.1a.265.265,0,0,1-.022.1l-4.09,7.8a.348.348,0,0,1-.318.2Z" transform="translate(8428.179 -784.442)" fill="#fff"/>
    <path id="Path_52485" data-name="Path 52485" d="M-394.353,937.042a1.732,1.732,0,0,1-1.117-.5,1.307,1.307,0,0,1-.25-.87l.18-.708.35-1.318a2.594,2.594,0,0,1,.367-.53,2.107,2.107,0,0,1,.25-.25,2.612,2.612,0,0,1,.31-.215c-.068-.065-.128-.133-.185-.2a.883.883,0,0,1-.135-.217,1.125,1.125,0,0,1-.08-.587l.63-2.323a.055.055,0,0,0,0-.04.249.249,0,0,1,0-.05.75.75,0,0,0-.31-.5,1.664,1.664,0,0,1-.3-.338c0-.06.055-.09.16-.09h8.658a1.9,1.9,0,0,1,1.16.348,1.08,1.08,0,0,1,.457.9,1.282,1.282,0,0,1-.04.34l-.517,1.905a1.958,1.958,0,0,1-.85,1.117s.033.04.075.1a1.757,1.757,0,0,1,.135.23,1.178,1.178,0,0,1,.105.313.825.825,0,0,1-.015.365l-.45,1.665a2.033,2.033,0,0,1-.295.5,2.368,2.368,0,0,1-.393.383,3.25,3.25,0,0,1-1.56.56h-6.33Zm3.56-3.655-.15.02a.232.232,0,0,0-.12.05.307.307,0,0,0-.16.17l-.5,1.945a.218.218,0,0,0,.08.19.115.115,0,0,0,.075.05.774.774,0,0,0,.113.02h1.39a.28.28,0,0,0,.2-.075.57.57,0,0,0,.107-.205l.54-1.975a.192.192,0,0,0-.05-.14.108.108,0,0,0-.07-.03l-.1-.02Zm.94-3.865a.424.424,0,0,0-.17.03.235.235,0,0,0-.14.16l-.53,1.867a.415.415,0,0,0,.03.3.25.25,0,0,0,.21.13h1.388a.328.328,0,0,0,.34-.23l.55-2.047a.392.392,0,0,0-.04-.14.27.27,0,0,0-.2-.07Z" transform="translate(8396.977 -783.01)" fill="#fff"/>
  </g>
</svg>
