<svg xmlns="http://www.w3.org/2000/svg" xmlns:xlink="http://www.w3.org/1999/xlink" width="55" height="18" viewBox="0 0 55 18">
  <defs>
    <linearGradient id="linear-gradient" x1="1.398" y1="1.928" x2="-0.293" y2="-0.763" gradientUnits="objectBoundingBox">
      <stop offset="0" stop-color="#ff9f3d"/>
      <stop offset="1" stop-color="#ffd166"/>
    </linearGradient>
    <linearGradient id="linear-gradient-2" x1="-2.24" y1="-2.18" x2="0.454" y2="0.444" xlink:href="#linear-gradient"/>
    <linearGradient id="linear-gradient-3" x1="0.707" y1="0.968" x2="0.339" y2="0.107" xlink:href="#linear-gradient"/>
    <linearGradient id="linear-gradient-4" x1="0.254" y1="0.134" x2="0.617" y2="0.688" xlink:href="#linear-gradient"/>
    <linearGradient id="linear-gradient-5" x1="0.494" y1="0.434" x2="0.044" y2="-4.118" xlink:href="#linear-gradient"/>
    <linearGradient id="linear-gradient-6" x1="-0.123" y1="-13.297" x2="0.334" y2="-3.178" xlink:href="#linear-gradient"/>
    <linearGradient id="linear-gradient-7" x1="2.407" y1="3.514" x2="0.723" y2="0.846" xlink:href="#linear-gradient"/>
    <linearGradient id="linear-gradient-8" x1="0.65" y1="0.632" x2="3.323" y2="3.251" xlink:href="#linear-gradient"/>
    <linearGradient id="linear-gradient-9" x1="2.834" y1="4.218" x2="1.151" y2="1.537" xlink:href="#linear-gradient"/>
    <linearGradient id="linear-gradient-10" x1="2.323" y1="2.288" x2="4.997" y2="4.915" xlink:href="#linear-gradient"/>
    <linearGradient id="linear-gradient-11" x1="0.71" y1="0.792" x2="0.271" y2="0.159" xlink:href="#linear-gradient"/>
    <linearGradient id="linear-gradient-12" x1="0.245" y1="0.045" x2="0.678" y2="0.797" xlink:href="#linear-gradient"/>
    <linearGradient id="linear-gradient-13" x1="0.18" y1="0.169" x2="0.892" y2="0.886" gradientUnits="objectBoundingBox">
      <stop offset="0" stop-color="#10192e"/>
      <stop offset="1" stop-color="#293a61"/>
    </linearGradient>
  </defs>
  <g id="v9" transform="translate(-7963.759 -243.2)">
    <path id="Path_52486" data-name="Path 52486" d="M-473.811,1021.877a1.638,1.638,0,0,0-1.228-1.5,1.515,1.515,0,0,0-.4-.055h-.087a1.452,1.452,0,0,0-.18,0,1.725,1.725,0,0,0-1.525,1.685,1.722,1.722,0,0,0,1.685,1.75h.2a1.946,1.946,0,0,0,.3-.062A1.735,1.735,0,0,0-473.811,1021.877Z" transform="translate(8458.097 -774.889)" fill="url(#linear-gradient)"/>
    <path id="Path_52487" data-name="Path 52487" d="M-473.288,1025.315a.975.975,0,0,1-.684-.3.975.975,0,0,1-.269-.7.977.977,0,0,1,.862-.95.494.494,0,0,1,.085,0h.1a.957.957,0,0,1,.215.027.887.887,0,0,1,.662.81.141.141,0,0,1,0,.032.97.97,0,0,1-.69,1.037.817.817,0,0,1-.175.038h-.087Z" transform="translate(8455.854 -777.173)" fill="url(#linear-gradient-2)"/>
    <path id="Path_52488" data-name="Path 52488" d="M-522.6,1028.34l-.06.02a.323.323,0,0,0-.092.07,24.28,24.28,0,0,1-2.265,2.215.875.875,0,0,1-.673.165,1.21,1.21,0,0,1-.7-.693c-.263-.5-.773-1.282-1.22-1.957l-.437-.675a1.325,1.325,0,0,0-.732-.562,1.338,1.338,0,0,0-.3-.042h-.23a1.338,1.338,0,0,0-.225.05,1.3,1.3,0,0,0-.7.55c-.14.223-.215.353-.295.5-.175.307-.368.657-1.355,2.1l-.1.172c-.16.262-.408.662-.685.7-.16.027-.345-.073-.56-.28-.578-.555-2.3-2.25-2.3-2.25a.416.416,0,0,0-.135-.075,1.049,1.049,0,0,0-.5-.032,1.04,1.04,0,0,0-.828,1.215l1.415,7.833a.3.3,0,0,0,.288.25h12.328a.3.3,0,0,0,.287-.25l1.415-7.833a1.05,1.05,0,0,0-.033-.528,1.03,1.03,0,0,0-.515-.6A1.03,1.03,0,0,0-522.6,1028.34Z" transform="translate(8502.937 -779.813)" fill="url(#linear-gradient-3)"/>
    <path id="Path_52489" data-name="Path 52489" d="M-532.68,1039.2l-1.347-7.455a.285.285,0,0,1,.043-.217.285.285,0,0,1,.185-.121.189.189,0,0,1,.053,0h.02c.367.363,1.71,1.682,2.215,2.165a1.483,1.483,0,0,0,1.025.5.871.871,0,0,0,.163,0,1.886,1.886,0,0,0,1.215-1.047l.095-.157c.945-1.383,1.167-1.775,1.348-2.093l.027-.045c.075-.132.148-.25.28-.465a.55.55,0,0,1,.295-.25h.215a.5.5,0,0,1,.108.017.565.565,0,0,1,.292.25l.448.685c.36.547.9,1.36,1.165,1.865a1.968,1.968,0,0,0,1.115,1.078.713.713,0,0,0,.143.04,1.568,1.568,0,0,0,.265.022,1.634,1.634,0,0,0,.98-.33l.035-.027a24.924,24.924,0,0,0,2.25-2.18h.015a.285.285,0,0,1,.27.195.312.312,0,0,1,0,.145l-1.35,7.468Z" transform="translate(8500.701 -782.16)" fill="url(#linear-gradient-4)"/>
    <path id="Path_52490" data-name="Path 52490" d="M-518.592,1073.36H-530.96a.25.25,0,0,0-.25.25v1.527h0a.25.25,0,0,0,.25.25h12.37a.25.25,0,0,0,.25-.25V1073.6h0A.25.25,0,0,0-518.592,1073.36Z" transform="translate(8498.584 -814.675)" fill="url(#linear-gradient-5)"/>
    <rect id="Rectangle_62727" data-name="Rectangle 62727" width="11.348" height="0.505" transform="translate(7968.132 259.44)" fill="url(#linear-gradient-6)"/>
    <path id="Path_52491" data-name="Path 52491" d="M-511.717,1014.48h0a1.713,1.713,0,0,0,1.272.378,1.727,1.727,0,0,0,1.525-1.908,1.635,1.635,0,0,0-1.627-1.55h-.08a.884.884,0,0,0-.182.013,1.717,1.717,0,0,0-1.16.633A1.75,1.75,0,0,0-511.717,1014.48Z" transform="translate(8484.437 -768.2)" fill="url(#linear-gradient-7)"/>
    <path id="Path_52492" data-name="Path 52492" d="M-508.4,1016.4a.97.97,0,0,1-.6-.205l-.02-.015a.978.978,0,0,1-.355-.658.968.968,0,0,1,.212-.717.96.96,0,0,1,.655-.357h.185a.885.885,0,0,1,.88.837.216.216,0,0,0,0,.04.977.977,0,0,1-.86,1.078Z" transform="translate(8482.205 -770.488)" fill="url(#linear-gradient-8)"/>
    <path id="Path_52493" data-name="Path 52493" d="M-542.235,1021.073a1.73,1.73,0,0,0-.391-1.284,1.73,1.73,0,0,0-1.192-.618,1.75,1.75,0,0,0-1.85,1.637,1.728,1.728,0,0,0,1.54,1.807,1.081,1.081,0,0,0,.18,0h.088A1.64,1.64,0,0,0-542.235,1021.073Z" transform="translate(8509.429 -774.026)" fill="url(#linear-gradient-9)"/>
    <path id="Path_52494" data-name="Path 52494" d="M-541.766,1024.157h-.03a.975.975,0,0,1-.867-1.02,1,1,0,0,1,.972-.927h.07a.957.957,0,0,1,.673.347.975.975,0,0,1,.222.725v.038a.888.888,0,0,1-.878.84h-.158Z" transform="translate(8507.176 -776.308)" fill="url(#linear-gradient-10)"/>
    <path id="Path_52495" data-name="Path 52495" d="M-468.879,1029.4a3.46,3.46,0,0,1-2.7-1.25,3.119,3.119,0,0,1-.66-2.584l.345-1.75.575-2.9a2.877,2.877,0,0,1,1.185-1.8,7.025,7.025,0,0,0,1.293-1.17,5.947,5.947,0,0,0,1.462-4.471,1.877,1.877,0,0,1,.55-1.5,1.955,1.955,0,0,1,1.388-.567h27.22a2.613,2.613,0,0,1,2,.9,2.4,2.4,0,0,1,.57,1.909l-1.3,9.265a7.179,7.179,0,0,1-7.25,5.926Z" transform="translate(8454.391 -768.207)" fill="url(#linear-gradient-11)"/>
    <path id="Path_52496" data-name="Path 52496" d="M-467.38,1030.372a2.978,2.978,0,0,1-2.318-1.072,2.623,2.623,0,0,1-.555-2.169l.345-1.75.575-2.894a2.382,2.382,0,0,1,.983-1.5,7.332,7.332,0,0,0,1.383-1.25,6.45,6.45,0,0,0,1.582-4.849,1.372,1.372,0,0,1,.4-1.1,1.465,1.465,0,0,1,1.037-.422h27.22a2.105,2.105,0,0,1,1.605.722,1.889,1.889,0,0,1,.452,1.5l-1.3,9.265a6.677,6.677,0,0,1-6.75,5.5Z" transform="translate(8452.891 -769.677)" fill="url(#linear-gradient-12)"/>
    <path id="Path_52497" data-name="Path 52497" d="M-465.136,1031.839a2.05,2.05,0,0,1-2.138-2.342h0l.345-1.749.575-2.894a1.642,1.642,0,0,1,.675-1.022,8.166,8.166,0,0,0,1.522-1.38,7.211,7.211,0,0,0,1.763-5.413.6.6,0,0,1,.182-.5.71.71,0,0,1,.5-.2h27.23a1.25,1.25,0,0,1,.973.382,1.249,1.249,0,0,1,.342.987l-1.3,9.265a5.911,5.911,0,0,1-6.018,4.849Z" transform="translate(8450.646 -771.899)" fill="url(#linear-gradient-13)"/>
    <path id="Path_52498" data-name="Path 52498" d="M-433.943,1041.22h-1.637c-.118,0-.185-.037-.205-.112a.133.133,0,0,1-.015-.038l-.8-7.157a.068.068,0,0,0,0-.03l-.015-.03a.621.621,0,0,0-.105-.157c-.047-.05-.1-.1-.152-.15l-.06-.05-.1-.078-.113-.1-.1-.1a.25.25,0,0,1-.08-.168c0-.045.043-.068.117-.068h3.263a.185.185,0,0,1,.195.13.131.131,0,0,0,.015.037l.715,5.953,3.082-5.893a.345.345,0,0,1,.315-.212h2.38c.077,0,.115.035.115.107a.265.265,0,0,1-.022.1l-4.09,7.8a.348.348,0,0,1-.318.2Z" transform="translate(8428.168 -784.393)" fill="#fff"/>
    <path id="Path_52499" data-name="Path 52499" d="M-396.19,1039.568q0-.957.682-.958h5.4c.052-.2.11-.415.172-.655s.122-.463.178-.67.1-.378.137-.517.055-.21.055-.215c0-.112-.068-.167-.207-.167h-3.67a1.767,1.767,0,0,1-1.137-.358,1.06,1.06,0,0,1-.455-.9.519.519,0,0,1,0-.068.127.127,0,0,1,.015-.07h-.02l.188-.682.408-1.57a1.282,1.282,0,0,1,.077-.25l.09-.328a.331.331,0,0,0,0-.088.75.75,0,0,0-.307-.5c-.2-.185-.3-.3-.3-.338s.052-.078.158-.078h8.783a.444.444,0,0,1,.1,0,.479.479,0,0,1,.092.028,1.676,1.676,0,0,1,.723.307,1.1,1.1,0,0,1,.445.9,1.232,1.232,0,0,1,0,.162.778.778,0,0,1-.04.173l-1.452,5.5a1.947,1.947,0,0,1-.87,1.117,2.749,2.749,0,0,1-1.515.455h-7.378C-396.07,1039.808-396.19,1039.728-396.19,1039.568ZM-391.1,1035l-.05.188h1.97l.75-2.83h-1.957Z" transform="translate(8397.309 -783.021)" fill="#fff"/>
  </g>
</svg>
