<svg xmlns="http://www.w3.org/2000/svg" xmlns:xlink="http://www.w3.org/1999/xlink" width="24" height="24" viewBox="0 0 24 24">
  <defs>
    <clipPath id="clip-VIP_已达成">
      <rect width="24" height="24"/>
    </clipPath>
  </defs>
  <g id="VIP_已达成" clip-path="url(#clip-VIP_已达成)">
    <g id="Group_40237" data-name="Group 40237" transform="translate(-72 -161)">
      <g id="Group_40236" data-name="Group 40236" transform="translate(73.334 162.333)">
        <ellipse id="Ellipse_6275" data-name="Ellipse 6275" cx="6.985" cy="6.321" rx="6.985" ry="6.321" transform="translate(4 4)" fill="#21304e"/>
        <path id="noun_Approve_50338" d="M21.229,11.3,19.972,9.318l.746-2.226a.673.673,0,0,0-.3-.8L18.381,5.123l-.374-2.318a.675.675,0,0,0-.638-.565l-2.347-.092L13.614.269a.671.671,0,0,0-.827-.2l-2.12,1.008L8.546.064a.675.675,0,0,0-.827.2L6.311,2.148,3.964,2.24a.673.673,0,0,0-.637.565L2.953,5.122.918,6.3a.673.673,0,0,0-.3.8l.746,2.226L.1,11.3a.673.673,0,0,0,.1.846L1.9,13.773l-.19,2.339a.674.674,0,0,0,.483.7l2.256.65.918,2.161a.671.671,0,0,0,.754.4l2.3-.472,1.816,1.488a.673.673,0,0,0,.853,0l1.816-1.488,2.3.472a.671.671,0,0,0,.754-.4l.918-2.161,2.256-.65a.673.673,0,0,0,.483-.7l-.19-2.339,1.694-1.625A.673.673,0,0,0,21.229,11.3Zm-5.7-3.237-4.711,7.058a.926.926,0,0,1-.728.44,1.179,1.179,0,0,1-.773-.348L5.862,11.7a.622.622,0,0,1,0-.869l.853-.869a.6.6,0,0,1,.853,0l2.251,2.286,3.712-5.561a.6.6,0,0,1,.839-.162l1,.688a.622.622,0,0,1,.161.853Z" transform="translate(0 0)" fill="#ffb83d"/>
      </g>
      <rect id="Rectangle_62693" data-name="Rectangle 62693" width="24" height="24" transform="translate(72 161)" fill="none"/>
    </g>
  </g>
</svg>
