<svg xmlns="http://www.w3.org/2000/svg" xmlns:xlink="http://www.w3.org/1999/xlink" width="24" height="24" viewBox="0 0 24 24">
  <defs>
    <clipPath id="clip-path">
      <circle id="Ellipse_378" data-name="Ellipse 378" cx="12" cy="12" r="12" transform="translate(-22116 -22092)" fill="#fff" stroke="#707070" stroke-width="1"/>
    </clipPath>
    <clipPath id="clip-path-2">
      <path id="Path_15090" data-name="Path 15090" d="M127.98,0h24V24h-24Z" fill="rgba(0,0,0,0.7)"/>
    </clipPath>
    <clipPath id="clip-SaudiArabia_沙乌地阿拉伯">
      <rect width="24" height="24"/>
    </clipPath>
  </defs>
  <g id="SaudiArabia_沙乌地阿拉伯" clip-path="url(#clip-SaudiArabia_沙乌地阿拉伯)">
    <g id="Mask_Group_32" data-name="Mask Group 32" transform="translate(22116 22092)" clip-path="url(#clip-path)">
      <g id="sa" transform="translate(-22243.98 -22092)" clip-path="url(#clip-path-2)">
        <path id="Path_15073" data-name="Path 15073" d="M0,0H36V24H0Z" transform="translate(121.98)" fill="#199d00" fill-rule="evenodd"/>
        <path id="Path_15074" data-name="Path 15074" d="M193.031,127.289c-.039.561-.092,1.548.387,1.65.576.053.256-.977.465-1.161.044-.1.116-.1.121.024v.871a.421.421,0,0,0,.324.431c.155-.015.252-.01.315.135l.068,1.515s.353.1.368-.852a8.745,8.745,0,0,1-.034-1.132c0-.106.135-.111.232-.063.15.106.218.242.45.184.358-.1.571-.271.581-.542a2.468,2.468,0,0,0-.165-.779c.015-.048-.073-.169-.053-.218.063.1.16.092.184,0a.771.771,0,0,0-.31-.474c-.126-.111-.31-.087-.377.145a1.258,1.258,0,0,0,.29.837.823.823,0,0,1,.073.421.221.221,0,0,1-.29-.053s-.285-.218-.285-.261c.077-.484.019-.537-.024-.673a.882.882,0,0,0-.189-.368c-.073-.077-.165-.077-.213,0a1.254,1.254,0,0,0,.024.89c.068.194.165.315.116.315-.039.106-.116.082-.174-.044a2.961,2.961,0,0,1-.1-.818c-.024-.218-.048-.677-.194-.794a.146.146,0,0,0-.261.048,3.871,3.871,0,0,0,.015.629,6.878,6.878,0,0,1,.174,1c.015.474-.276.208-.261-.029a2.136,2.136,0,0,0-.01-.91c-.048-.121-.1-.15-.213-.131-.1-.01-.324.242-.387.668a3.688,3.688,0,0,0-.082.406c-.034.218-.174.373-.276-.029C193.229,127.84,193.176,127.119,193.031,127.289Z" transform="translate(-61.978 -120.486)" fill="#fff" fill-rule="evenodd"/>
        <path id="Path_15075" data-name="Path 15075" d="M196.464,189.224l-1.5.721a1.527,1.527,0,0,1,1.185-.968c.31.01.232.121.315.242Z" transform="translate(-63.843 -180.118)" fill="#fff" fill-rule="evenodd"/>
        <path id="Path_15076" data-name="Path 15076" d="M210.953,130.118c-.794,2.037,1.848,2.323,2.144.082.029-.092.145-.184.16-.034-.063,2.032-2.042,2.168-2.381,1.529a2,2,0,0,1-.116-.687c-.048-.4-.261-.242-.29.155a2.436,2.436,0,0,0-.029.494c.106,1.6,2.661.91,3.077-.411.218-.731-.039-1.273.082-1.273.252.276.61.039.687-.058a.111.111,0,0,1,.174-.015.413.413,0,0,0,.619-.174,6.4,6.4,0,0,0,.082-.76c-.16.048-.281.082-.29.145l-.034.223c-.015.068-.155.073-.16-.019-.063-.276-.315-.315-.469.116-.1.087-.29.1-.31-.024.024-.29-.092-.329-.324-.194l-.227-1.694c.1,0,.189.068.276-.044a3.163,3.163,0,0,0-.416-.968c-.058-.068-.1-.024-.174-.01a.284.284,0,0,0-.2.353l.387,2.429c.019.1-.068.242-.179.227-.189-.131-.237-.387-.556-.377a.615.615,0,0,0-.532.5,1.106,1.106,0,0,0,0,.576.463.463,0,0,0,.532.131c.14-.058.256-.2.31-.165.034.044,0,.508-.673.871-.406.184-.735.223-.91-.111-.106-.208.01-1-.256-.823Z" transform="translate(-78.594 -120.542)" fill="#fff" fill-rule="evenodd"/>
        <path id="Path_15077" data-name="Path 15077" d="M195.581,124.363a7.288,7.288,0,0,0,.91-.919l-.111-.087c-.044-.039-.039-.073,0-.111a.3.3,0,0,0,.029-.455.455.455,0,0,0-.406,0,.347.347,0,0,0-.058.455c.1.048.2.145.135.2-.31.329-1.152.9-1.055.919a2.142,2.142,0,0,0,.556,0Zm-4.544,3.048a1.476,1.476,0,0,0-.145,1.321.313.313,0,0,0,.315.106.579.579,0,0,0,.213-.566c-.058-.1-.106-.106-.165-.029-.126.252-.179.077-.189-.063a3.256,3.256,0,0,1,.034-.711C191.135,127.271,191.1,127.329,191.038,127.411Zm12.053-.726c-.271-.585-.648-1.166-.769-1.389q-.547-.867-1.161-1.689c-.29-.348.479.145-.1-.547-.218-.194-.232-.2-.416-.353-.092-.068-.315-.184-.353.01a1.137,1.137,0,0,0,.019.416,1.344,1.344,0,0,0,.232.353,26.109,26.109,0,0,1,2.521,4.055C203.193,127.484,203.164,126.787,203.091,126.685Z" transform="translate(-59.869 -116.863)" fill="#fff" fill-rule="evenodd"/>
        <path id="Path_15078" data-name="Path 15078" d="M427.411,131.414c-.053.063.131.319.373.319a1.425,1.425,0,0,0,1.089-.871,1.586,1.586,0,0,0,.247-.673,14.4,14.4,0,0,0-.271-3.387.671.671,0,0,1,.015-.242c.024-.029.111,0,.16-.073.068-.073-.184-.658-.324-.881-.053-.1-.073-.169-.155.01a1.313,1.313,0,0,0-.145.639c.194,1.335.256,2.506.382,3.837a.522.522,0,0,1-.1.392A3.765,3.765,0,0,1,427.411,131.414Zm5.458,0c-.29.165-.29.358-.053.368a1.449,1.449,0,0,0,1.21-.581,1.957,1.957,0,0,0,.2-.745A14.571,14.571,0,0,0,434,127.1a2.367,2.367,0,0,1-.039-.344c.029-.068.16,0,.208-.073.068-.068-.339-.6-.484-.823-.053-.1-.073-.165-.155.015a1.025,1.025,0,0,0-.087.634,29.009,29.009,0,0,1,.406,3.823,1.113,1.113,0,0,1-.077.344,2.436,2.436,0,0,1-.4.465C433.242,131.24,432.961,131.336,432.869,131.409Z" transform="translate(-285.384 -119.622)" fill="#fff" fill-rule="evenodd"/>
        <path id="Path_15079" data-name="Path 15079" d="M418.817,131.052v-.885a1.6,1.6,0,0,0-.145-.639c-.087-.194-.034-.344-.073-.552s-.029-.513-.087-.755a1.96,1.96,0,0,1-.048-.426c.019-.068.111,0,.155-.077a2.713,2.713,0,0,0-.382-1.065c-.053-.1-.15-.068-.276.1-.111.1-.068.344-.024.571a19.534,19.534,0,0,1,.46,4.326C418.382,131.773,418.822,131.284,418.817,131.052Zm-2.144-1.877c-.179,0-.561-.358-.677-.561a.377.377,0,0,1,.024-.3c.068-.048.174-.1.252-.048,0,0,.077.116.063.131.1.048.145.019.155-.024,0-.068-.034-.111-.034-.194a.214.214,0,0,1,.377-.106.781.781,0,0,1,.1.377c0,.058-.1-.015-.155,0s-.068.082-.073.14c-.01.155-.029.4-.034.581Zm-3.368,2.255a14.342,14.342,0,0,0-.019-1.553c-.019-.644-.126-1.887-.174-2.09-.058-.392.16.044.131-.184a2.6,2.6,0,0,0-.542-1.016c-.082-.111-.077-.135-.208.029a1.225,1.225,0,0,0,.019.784,14.412,14.412,0,0,1,.339,2.284,18.447,18.447,0,0,1,.019,2.3C413.011,131.99,413.233,131.758,413.306,131.429Z" transform="translate(-271.114 -120.566)" fill="#fff" fill-rule="evenodd"/>
        <path id="Path_15080" data-name="Path 15080" d="M499.827,133.294c-.324-.537-.808-1.123-.939-1.34q-.65-.912-1.365-1.776c-.4-.421.184-.068-.077-.392a3.461,3.461,0,0,0-.474-.465c-.1-.063-.155-.179-.184.019a3.944,3.944,0,0,0-.015.527.722.722,0,0,0,.16.324,27.61,27.61,0,0,1,2.889,3.953c.121-.068.082-.755,0-.852Z" transform="translate(-351.5 -123.171)" fill="#fff" fill-rule="evenodd"/>
        <path id="Path_15081" data-name="Path 15081" d="M249.329,193.645c-.024.044-.077.1-.058.145a.152.152,0,0,0,.126.068c.048,0,.126.01.14-.019a.155.155,0,0,0,.024-.155A.136.136,0,0,0,249.329,193.645Z" transform="translate(-115.6 -184.519)" fill="#1ba400" fill-rule="evenodd"/>
        <path id="Path_15082" data-name="Path 15082" d="M254.664,132.316c.431.015.711.019,1.094.063l.445-.048c.5-.048.523.711.523.711,0,.445-.179.465-.4.513-.126.019-.194-.073-.256-.169a.661.661,0,0,1-.334.019c-.179-.01-.358-.01-.532-.024-.194-.015-.3.024-.484,0-.044.063-.1.145-.208.121s-.213-.285-.179-.489c.068-.15.048-.1.044-.169-1.761-.044-3.532-.121-5.26-.1-1.355,0-2.685.058-4.016.116a1.764,1.764,0,0,1-1.631-.677c.034,0,1.815.106,2.332.073.968-.015,1.844-.092,2.826-.121,1.935.034,3.847.034,5.782.169a.27.27,0,0,1,.1-.5c.019-.015.034.145.077.145C254.81,131.944,254.713,132.249,254.664,132.316Zm-7.761-10.66c-.29.837.165,1.752.484,1.665.232.1.377-.344.474-.823.063-.135.111-.15.145-.082-.01.639.048.779.213.973a.532.532,0,0,0,.692.015l.285-.29a.176.176,0,0,1,.237-.01c.087.082.073.218.261.315a.579.579,0,0,0,.571-.121c.1-.179.131-.242.179-.31.073-.1.2-.058.2-.024-.01.053-.082.111-.034.208.087.068.111.024.165.01.184-.087.324-.494.324-.494,0-.145-.077-.135-.131-.106l-.145.1c-.1.015-.271.073-.358-.063a5.515,5.515,0,0,1-.16-.552c0-.01-.116-.256,0-.271.053.01.174.039.194-.058.058-.1-.126-.373-.252-.513a.276.276,0,0,0-.406-.01.454.454,0,0,0-.106.3.464.464,0,0,0,.1.406,1.218,1.218,0,0,1,.227.823.335.335,0,0,1-.3.145c-.077-.019-.2-.048-.271-.552a3.581,3.581,0,0,0-.15-1.161c-.058-.155-.1-.3-.242-.039a.6.6,0,0,0-.087.571,1.694,1.694,0,0,1,.1.885,1.51,1.51,0,0,1-.174.242.28.28,0,0,1-.358.048.381.381,0,0,1-.218-.3,4.2,4.2,0,0,0-.034-.982.177.177,0,0,0-.3-.058,2.24,2.24,0,0,0-.542,1.108c-.082.266-.169.194-.232.082-.15-.145-.16-1.253-.344-1.069Z" transform="translate(-110.078 -115.318)" fill="#fff" fill-rule="evenodd"/>
        <path id="Path_15083" data-name="Path 15083" d="M241.306,127.62c.135-.1.073-.16.271.039a3.377,3.377,0,0,1,.435,1.466c-.015.121.073.194.111.169.019-.281.711-.677,1.34-.735.1-.019.048-.2.063-.3a.6.6,0,0,1,.527-.692.616.616,0,0,1,.6.668c-.048.7-.779.823-1.19.871-.063.029-.087.058,0,.092l1.718,0,.087.048c.01.048-.024.01-.1.121a1.323,1.323,0,0,0-.169.542,8.371,8.371,0,0,1-1.577.3c-.184.1-.276.223-.242.363.063.16.479.315.479.324.077.048.169.165-.024.4a1.875,1.875,0,0,1-1.708-.9c-.068-.048-.145,0-.189.068a2.647,2.647,0,0,1-1.2,1,.812.812,0,0,1-.832-.266c-.106-.126-.1-.261-.145-.29-.179.077-1.723.735-1.524.431a10.383,10.383,0,0,1,1.6-1.1c.048-.131.121-.581.348-.726.01,0-.039.261-.034.373,0,.092,0,.126.015.1a4.062,4.062,0,0,0,.789-.74c.068-.1.019-.339.019-.348-.126-.339-.31-.363-.377-.532-.063-.223-.034-.474.092-.547a.253.253,0,0,1,.368.019,1.129,1.129,0,0,1,.3.556c-.024.073-.184-.048-.242-.01a.715.715,0,0,1,.179.363,1.11,1.11,0,0,1-.024.784,2.442,2.442,0,0,1-1.055,1.084.268.268,0,0,0,.116.256.528.528,0,0,0,.435,0,2.555,2.555,0,0,0,1.05-1.094,2.333,2.333,0,0,0-.116-1.035q-.158-.382-.29-.774c-.01-.194,0-.261.1-.358Zm-4.49-1.81c.194.092.566.048.552-.266l-.01-.15c-.039-.1-.15-.073-.174.029-.01.029.015.082-.015.1s-.082,0-.077-.082a.142.142,0,0,0-.034-.077.1.1,0,0,0-.044-.01c-.029,0-.024.01-.044.034l-.015.073c0,.034-.015.044-.039.048a.052.052,0,0,1-.039-.01c-.015-.015-.029-.019-.029-.044l-.01-.077a.1.1,0,0,0-.048-.029c-.111,0-.116.126-.111.174A.288.288,0,0,0,236.816,125.81Z" transform="translate(-103.6 -119.457)" fill="#fff" fill-rule="evenodd"/>
        <path id="Path_15084" data-name="Path 15084" d="M360.3,129.4c.194.1.668.039.552-.266l-.01-.145c-.039-.1-.145-.073-.174.024,0,.029.015.082-.015.1s-.077.01-.077-.077a.142.142,0,0,0-.034-.077c-.01-.01-.019-.01-.044-.01s-.024,0-.039.029l-.014.073c0,.034-.019.048-.039.048a.065.065,0,0,1-.044-.01c-.01-.015-.029-.019-.029-.044a.189.189,0,0,0-.01-.077.077.077,0,0,0-.048-.024c-.106,0-.116.121-.111.169C360.163,129.12,360.158,129.338,360.3,129.4Zm3.377-1.016c.194.1.566.053.552-.261l-.01-.15c-.039-.1-.15-.073-.174.024-.01.034.015.082-.014.1s-.082.01-.077-.077a.189.189,0,0,0-.034-.077.1.1,0,0,0-.048-.01c-.024,0-.024.01-.039.034l-.015.073a.044.044,0,0,1-.039.048c-.024,0-.019,0-.039-.015s-.029-.019-.029-.039a.225.225,0,0,0-.015-.082c-.01-.015-.024-.019-.048-.024-.106,0-.111.126-.106.169C363.535,128.1,363.53,128.326,363.68,128.384Zm1.742,2.55a1.2,1.2,0,0,0-.111,1.161.906.906,0,0,0,.426.489.3.3,0,0,0,.445-.048c.2-.208.2-.745.3-.852a.177.177,0,0,1,.315-.073.774.774,0,0,0,.29.247.491.491,0,0,0,.634.048.751.751,0,0,0,.339-.416,12.6,12.6,0,0,0,.024-2.206c0-.058-.194-1-.194-1.006s-.029-.479-.048-.59c0-.044-.014-.058.034-.048a.374.374,0,0,0,.087.058c.048.01.1-.077.068-.16l-.474-.871c-.034-.034-.082-.073-.145.015a.339.339,0,0,0-.116.256c.014.208.048.416.063.624l.194,1.055c.058.755.073,1.369.131,2.129-.01.315-.106.6-.2.629,0,0-.14.087-.232,0a2.961,2.961,0,0,1-.348-.465.21.21,0,0,0-.339,0,4.862,4.862,0,0,0-.585,1.113c-.048.077-.189.145-.339,0a1.56,1.56,0,0,1-.208-1.084Zm-1.655-4.4a.656.656,0,0,1,.261.61c-.034.213-.131.45-.194.416s.048-.213-.024-.411c-.039-.126-.281-.363-.256-.431C363.506,126.575,363.661,126.512,363.768,126.536Z" transform="translate(-221.3 -120.599)" fill="#fff" fill-rule="evenodd"/>
        <path id="Path_15085" data-name="Path 15085" d="M298.409,131.948a5.776,5.776,0,0,0-.039-.948c-.01-.252-.29-2.177-.339-2.371-.073-.363.266-.048.227-.261-.116-.266-.4-.653-.494-.881-.053-.1-.034-.189-.155-.029a1.984,1.984,0,0,0-.106.9,18.466,18.466,0,0,1,.537,4.215c.14,0,.3-.315.368-.629Zm3.019-4c.165.082.256.532.242.658-.034.237-.121.484-.184.455s.015-.348-.019-.445c-.034-.14-.252-.392-.232-.469a.152.152,0,0,1,.194-.194Zm-11.985,3.184c.155.063.242.387.227.484-.029.174-.111.358-.169.339s.01-.256-.019-.329c-.014-.179-.227-.271-.223-.344-.039-.145.092-.169.184-.145Z" transform="translate(-153.711 -121.399)" fill="#fff" fill-rule="evenodd"/>
        <path id="Path_15086" data-name="Path 15086" d="M354.2,216.514c.194.01.3.169.111.232s-.363.111-.363.377c.068.373-.1.242-.194.194a.967.967,0,0,1-.474-.7.182.182,0,0,1,.2-.184,5.854,5.854,0,0,0,.716.082Z" transform="translate(-214.74 -206.285)" fill="#1b9d00" fill-rule="evenodd"/>
        <path id="Path_15087" data-name="Path 15087" d="M201.542,121.069c.227.068.242.4.223.5-.029.179-.111.368-.169.344s0-.261-.029-.339c-.034-.106-.227-.3-.2-.358-.048-.116.087-.169.179-.145Zm4.5,1.577a.414.414,0,0,0-.135.542.264.264,0,0,0,.285.092c.169.019.271-.324.271-.324s0-.1-.194.087c-.087.015-.1-.015-.121-.063a.421.421,0,0,1,.029-.271C206.2,122.627,206.134,122.589,206.037,122.647Zm1.306-1.708a.666.666,0,0,0-.266.45c0,.116-.024.116.048.194s.116.073.227.015a.242.242,0,0,0,.106-.16c.029-.135-.14.063-.16-.087-.039-.135.068-.194.169-.329,0-.092,0-.155-.121-.082Zm1.06.194a2.754,2.754,0,0,0-.077.518c-.029.131.135.184.213.015a1.679,1.679,0,0,0,.121-.566c-.034-.194-.169-.194-.256.029Zm6.653,3.382c.019-.024.939-.677.939-.677.092-.029.073.339.029.339a3.644,3.644,0,0,1-.968.673c-.048.029-.092-.252,0-.339Zm.832,0c.16.077.227.552.208.677,0,.252-.155.45-.218.416s0-.31-.024-.406c-.034-.14-.174-.4-.15-.474a.156.156,0,0,1,.184-.213Zm-5.439,2.032a1.092,1.092,0,0,1,.261-.227.166.166,0,0,1,.174.029c.015.092-.058.174-.034.3.019.048.034.1.126.082a.7.7,0,0,1,.426-.131c.111.01.111.194.044.2a3.2,3.2,0,0,0-.581.2.139.139,0,0,1-.169-.019.192.192,0,0,1-.015-.174c0-.1-.034-.145-.111-.135-.063.029-.116.048-.145-.019C210.411,126.595,210.411,126.571,210.45,126.542Zm6.4.252a.119.119,0,0,1,0,.179l-.174.145c-.034.058-.048.135.044.16.169.048.566-.208.566-.213a.118.118,0,0,0,.034-.14c-.034-.044-.121-.019-.174-.024-.029,0-.116-.015-.077-.092a.429.429,0,0,0,.073-.14c.029-.058,0-.1-.092-.131a1.01,1.01,0,0,0-.242,0c-.063.015-.082.039-.1.111.01.106.073.1.145.145Z" transform="translate(-69.933 -115.239)" fill="#fff" fill-rule="evenodd"/>
        <path id="Path_15088" data-name="Path 15088" d="M308.07,133.969c-.024.048-.111.044-.194,0s-.121-.121-.1-.165.111-.044.194,0S308.094,133.926,308.07,133.969Zm-4.176-2.506c-.048.015-.111-.029-.14-.1s-.015-.121.034-.135.111.034.14.1S303.943,131.453,303.894,131.463Z" transform="translate(-167.519 -125.076)" fill="#259f00" fill-rule="evenodd"/>
        <path id="Path_15089" data-name="Path 15089" d="M482.061,374.962c.435.019.852,0,1.287.029.082.063.024.232-.029.218l-.368-.01c0-.14-.363-.116-.348,0a3.112,3.112,0,0,1-.561-.015C481.983,375.117,481.993,374.991,482.061,374.962Z" transform="translate(-337.425 -357.383)" fill="#209000" fill-rule="evenodd"/>
      </g>
    </g>
  </g>
</svg>
