<svg xmlns="http://www.w3.org/2000/svg" xmlns:xlink="http://www.w3.org/1999/xlink" width="24" height="24" viewBox="0 0 24 24">
  <defs>
    <clipPath id="clip-path">
      <circle id="Ellipse_6147" data-name="Ellipse 6147" cx="12" cy="12" r="12" transform="translate(779.165 -194.597)" fill="none"/>
    </clipPath>
    <clipPath id="clip-國旗_菲律賓">
      <rect width="24" height="24"/>
    </clipPath>
  </defs>
  <g id="國旗_菲律賓" clip-path="url(#clip-國旗_菲律賓)">
    <g id="Group_38948" data-name="Group 38948" transform="translate(-779.165 194.597)">
      <g id="Group_38947" data-name="Group 38947" clip-path="url(#clip-path)">
        <rect id="Rectangle_62106" data-name="Rectangle 62106" width="34.552" height="12.311" transform="translate(778.222 -194.908)" fill="#2f3192"/>
        <rect id="Rectangle_62107" data-name="Rectangle 62107" width="34.552" height="12.311" transform="translate(778.222 -182.597)" fill="#ed1c24"/>
        <path id="Path_51200" data-name="Path 51200" d="M791.165-182.6l-12.943-12.311v24.622Z" fill="#fff"/>
        <path id="Path_51201" data-name="Path 51201" d="M786.949-182.449l.421-.378-.387-.339-1.47.167c0-.043-.01-.086-.018-.128l1.318-.175-.285-.251-1.064.281a1.9,1.9,0,0,0-.2-.479l.955-.557.024-.378-1.059.81c-.024-.036-.05-.071-.077-.1l1.128-.906.03-.565-.513.034-.92,1.155c-.033-.027-.067-.054-.1-.079l.8-1.052-.378.024-.551.945a1.861,1.861,0,0,0-.555-.23l.28-1.065-.25-.284-.176,1.32c-.042-.007-.085-.012-.128-.016l.167-1.475-.338-.387-.378.421.157,1.446c-.043.005-.086.012-.128.019L783.084-186l-.251.284.284,1.077a1.861,1.861,0,0,0-.5.213l-.577-.99-.378-.024.835,1.092c-.035.025-.069.052-.1.079l-.934-1.163-.566-.03.035.513,1.195.951q-.04.05-.078.1l-1.093-.836.024.378.991.577a1.909,1.909,0,0,0-.214.509l-1.064-.281-.285.251,1.318.175c-.008.042-.014.085-.018.128l-1.471-.167-.386.339.421.378,1.434-.156c0,.043.01.086.017.129l-1.315.175.285.25,1.06-.279a1.9,1.9,0,0,0,.226.537l-.945.551-.024.378,1.052-.8c.025.034.052.068.079.1l-1.155.92-.034.513.565-.03.906-1.128c.034.027.069.053.1.077l-.81,1.059.378-.024.557-.955a1.95,1.95,0,0,0,.461.191l-.28,1.061.251.284.175-1.312c.042.008.085.014.128.019l-.155,1.43.378.421.338-.387-.165-1.459c.043,0,.086-.009.128-.015l.174,1.3.25-.284-.276-1.049a1.9,1.9,0,0,0,.517-.208l.53.909.378.024-.778-1.017c.036-.025.07-.051.1-.078l.891,1.119.513.035-.03-.566-1.087-.873c.027-.034.054-.069.079-.1l1.016.777-.024-.378-.908-.529a1.922,1.922,0,0,0,.208-.508l1.06.279.285-.25-1.315-.175c.007-.043.013-.086.017-.129Z" fill="#ffda44"/>
        <path id="Path_51202" data-name="Path 51202" d="M788.791-183.08l.455-.614v.774l.694.216-.671.239-.023.785-.455-.626-.717.239.432-.62-.432-.643Z" fill="#ffda44"/>
        <path id="Path_51203" data-name="Path 51203" d="M781.9-188.405l-.149-.75.573.52.627-.368-.275.658.566.545-.769-.084-.305.691-.168-.737-.767-.112Z" fill="#ffda44"/>
        <path id="Path_51204" data-name="Path 51204" d="M782.01-177.254l.176-.744.3.711.723-.075-.523.484.288.731-.665-.4-.565.5.153-.74-.651-.421Z" fill="#ffda44"/>
      </g>
    </g>
  </g>
</svg>
