<svg xmlns="http://www.w3.org/2000/svg" xmlns:xlink="http://www.w3.org/1999/xlink" width="24" height="24" viewBox="0 0 24 24">
  <defs>
    <clipPath id="clip-國旗_法國">
      <rect width="24" height="24"/>
    </clipPath>
  </defs>
  <g id="國旗_法國" clip-path="url(#clip-國旗_法國)">
    <g id="Group_38940" data-name="Group 38940" transform="translate(-697.303 122.139)">
      <path id="Path_51172" data-name="Path 51172" d="M697.3-110.139a11.983,11.983,0,0,0,5.862,10.3v-20.595A11.981,11.981,0,0,0,697.3-110.139Z" fill="#002496"/>
      <path id="Path_51173" data-name="Path 51173" d="M703.165-120.436v20.595a11.923,11.923,0,0,0,6.138,1.7,11.926,11.926,0,0,0,6.138-1.7v-20.595a11.926,11.926,0,0,0-6.138-1.7A11.924,11.924,0,0,0,703.165-120.436Z" fill="#fff"/>
      <path id="Path_51174" data-name="Path 51174" d="M721.3-110.139a11.981,11.981,0,0,0-5.862-10.3v20.595A11.982,11.982,0,0,0,721.3-110.139Z" fill="#ed2839"/>
    </g>
  </g>
</svg>
