<svg xmlns="http://www.w3.org/2000/svg" xmlns:xlink="http://www.w3.org/1999/xlink" width="24" height="24" viewBox="0 0 24 24">
  <defs>
    <clipPath id="clip-國旗_韓國">
      <rect width="24" height="24"/>
    </clipPath>
  </defs>
  <g id="國旗_韓國" clip-path="url(#clip-國旗_韓國)">
    <g id="Group_38952" data-name="Group 38952" transform="translate(-936.261 182.757)">
      <circle id="Ellipse_6148" data-name="Ellipse 6148" cx="12" cy="12" r="12" transform="translate(936.261 -182.757)" fill="#fff"/>
      <g id="Group_38951" data-name="Group 38951">
        <path id="Path_51205" data-name="Path 51205" d="M952.632-168.446a3.792,3.792,0,0,1-.548.843,4.909,4.909,0,0,1-.962.892,4.825,4.825,0,0,1-1.2.613,5.076,5.076,0,0,1-1.883.288,4.821,4.821,0,0,1-2.553-.837,4.852,4.852,0,0,1-1.762-2.1,4.964,4.964,0,0,1-.371-1.271,4.81,4.81,0,0,1-.02-1.371,4.753,4.753,0,0,1,.382-1.371.335.335,0,0,0,.015-.057h0l.017-.031a.059.059,0,0,1,.027.076.973.973,0,0,0-.038.221,2.446,2.446,0,0,0,.045,1.029,2.426,2.426,0,0,0,1.295,1.6,2.4,2.4,0,0,0,1.528.227,2.352,2.352,0,0,0,1.561-.958,2.867,2.867,0,0,1,1.138-1,2.382,2.382,0,0,1,1.969-.026,2.415,2.415,0,0,1,1.374,1.438,2.485,2.485,0,0,1,.084,1.421A3.388,3.388,0,0,0,952.632-168.446Z" fill="#0047a1"/>
        <path id="Path_51206" data-name="Path 51206" d="M952.632-168.446a3.388,3.388,0,0,1,.1-.367,2.485,2.485,0,0,0-.084-1.421,2.415,2.415,0,0,0-1.374-1.438,2.382,2.382,0,0,0-1.969.026,2.867,2.867,0,0,0-1.138,1,2.352,2.352,0,0,1-1.561.958,2.4,2.4,0,0,1-1.528-.227,2.426,2.426,0,0,1-1.295-1.6,2.446,2.446,0,0,1-.045-1.029.973.973,0,0,1,.038-.221.059.059,0,0,0-.027-.076c-.007-.016.006-.021.016-.027s.029.009.034,0,.005-.028-.009-.039a.636.636,0,0,1,.089-.205A5.017,5.017,0,0,1,945.1-174.6a4.943,4.943,0,0,1,1.936-.971,4.935,4.935,0,0,1,2.189-.063,4.848,4.848,0,0,1,1.948.855,4.945,4.945,0,0,1,1.45,1.652,5,5,0,0,1,.543,1.644,4.989,4.989,0,0,1-.044,1.693,5.079,5.079,0,0,1-.463,1.32C952.655-168.454,952.649-168.443,952.632-168.446Z" fill="#ce2e3a"/>
        <path id="Path_51207" data-name="Path 51207" d="M942.393-177.63c-.011.017-.023.037-.036.056L940-174.039c-.1.15-.2.3-.3.452-.033.053-.058.067-.115.027q-.273-.187-.552-.366c-.054-.034-.064-.057-.026-.114q1.335-2,2.663-4c.039-.058.063-.064.119-.025.184.129.37.252.556.377C942.363-177.673,942.39-177.664,942.393-177.63Z" fill="#040404"/>
        <path id="Path_51208" data-name="Path 51208" d="M954.792-178.1c.033.007.041.039.056.063q.448.669.895,1.341.881,1.325,1.765,2.648c.044.066.031.091-.028.129-.184.117-.366.236-.545.36-.057.04-.081.025-.115-.027q-1.329-2-2.662-3.987c-.038-.056-.035-.083.024-.121.188-.122.372-.25.558-.375C954.756-178.081,954.773-178.09,954.792-178.1Z" fill="#040404"/>
        <path id="Path_51209" data-name="Path 51209" d="M941.362-163.2c0,.025-.024.037-.043.05-.194.13-.389.259-.581.392-.062.042-.077,0-.1-.039l-1.188-1.786c-.49-.734-.978-1.469-1.471-2.2-.042-.063-.034-.09.027-.128.183-.116.364-.237.544-.359.05-.034.076-.038.114.018q1.332,2,2.669,4Z" fill="#040404"/>
        <path id="Path_51210" data-name="Path 51210" d="M938.61-174.208l-.046-.03c-.192-.128-.383-.257-.578-.38-.058-.037-.046-.064-.016-.109q.761-1.137,1.518-2.277.573-.859,1.145-1.72c.038-.056.06-.069.121-.026.179.128.363.249.548.37.05.032.069.052.029.112q-1.338,2-2.673,4A.7.7,0,0,1,938.61-174.208Z" fill="#040404"/>
        <path id="Path_51211" data-name="Path 51211" d="M943.423-164.584c.006.036-.02.042-.039.054-.192.128-.386.252-.575.384-.064.045-.083,0-.111-.037q-.813-1.221-1.628-2.442-.515-.772-1.033-1.545c-.038-.057-.029-.08.024-.114.183-.118.365-.237.544-.361.06-.042.089-.035.13.026q.864,1.3,1.731,2.6l.912,1.364Z" fill="#040404"/>
        <path id="Path_51212" data-name="Path 51212" d="M940.662-172.845l-.046-.029c-.184-.122-.367-.246-.553-.365-.051-.033-.067-.053-.027-.114q1.333-1.99,2.66-3.987c.047-.071.075-.063.135-.022.173.12.349.237.528.347.069.043.07.073.027.137q-.916,1.367-1.828,2.736-.412.616-.824,1.233C940.717-172.884,940.711-172.843,940.662-172.845Z" fill="#040404"/>
        <path id="Path_51213" data-name="Path 51213" d="M942.393-163.9c0,.029-.021.04-.041.053-.2.132-.394.262-.588.4-.052.036-.067.005-.089-.028l-1.122-1.685c-.1-.15-.1-.151.05-.251s.318-.212.473-.322c.051-.036.073-.029.106.022.393.592.789,1.183,1.183,1.774Z" fill="#040404"/>
        <path id="Path_51214" data-name="Path 51214" d="M956.051-165.3c-.009.016-.019.037-.032.056q-.588.883-1.175,1.768c-.034.052-.058.054-.106.021-.186-.129-.374-.258-.564-.381-.052-.034-.055-.057-.021-.107q.59-.877,1.173-1.757c.036-.056.061-.07.121-.028.18.127.366.246.548.37C956.015-165.343,956.046-165.336,956.051-165.3Z" fill="#040404"/>
        <path id="Path_51215" data-name="Path 51215" d="M956.424-176.455c-.048-.007-.058-.048-.077-.076l-1.025-1.537-.072-.107c-.1-.16-.1-.16.05-.263s.313-.206.467-.314c.048-.033.073-.039.109.015.393.594.788,1.185,1.182,1.778.018.027.049.052,0,.086-.2.13-.4.265-.6.4Z" fill="#040404"/>
        <path id="Path_51216" data-name="Path 51216" d="M955.822-162.737l-.045-.028c-.191-.129-.381-.258-.574-.385-.044-.029-.053-.051-.021-.1q.593-.882,1.18-1.767c.036-.055.061-.06.115-.022q.276.192.559.373c.053.034.051.06.019.107q-.591.884-1.179,1.768A.111.111,0,0,1,955.822-162.737Z" fill="#040404"/>
        <path id="Path_51217" data-name="Path 51217" d="M955.854-168.68l.047.031c.185.122.367.247.554.364.063.04.056.067.019.123q-.582.864-1.156,1.734c-.045.068-.074.081-.144.032-.174-.124-.353-.243-.534-.357-.061-.039-.059-.067-.022-.123.39-.579.777-1.161,1.165-1.741C955.8-168.642,955.807-168.682,955.854-168.68Z" fill="#040404"/>
        <path id="Path_51218" data-name="Path 51218" d="M956.277-165.666l-.041-.027c-.192-.128-.382-.257-.577-.381-.051-.033-.046-.056-.017-.1q.591-.882,1.179-1.766c.036-.054.06-.063.116-.024.181.125.366.247.552.366.055.035.061.059.023.115q-.588.877-1.172,1.758C956.324-165.7,956.313-165.67,956.277-165.666Z" fill="#040404"/>
        <path id="Path_51219" data-name="Path 51219" d="M955.244-175.167c.04,0,.05.039.067.064q.4.591.79,1.183c.126.189.25.38.379.567.035.05.035.075-.018.109q-.286.185-.569.376c-.049.033-.07.023-.1-.023q-.591-.888-1.185-1.775c-.024-.037-.034-.06.008-.088.2-.132.4-.266.6-.4A.171.171,0,0,1,955.244-175.167Z" fill="#040404"/>
        <path id="Path_51220" data-name="Path 51220" d="M940.241-165.666c-.038,0-.048-.034-.064-.058q-.432-.649-.865-1.3c-.1-.156-.207-.313-.313-.467-.032-.047-.028-.071.02-.1.192-.123.381-.248.569-.377.056-.039.077-.015.107.03q.4.6.806,1.208l.373.558c.023.034.046.058-.009.093-.2.127-.4.261-.593.392Z" fill="#040404"/>
        <path id="Path_51221" data-name="Path 51221" d="M955.014-175.543c.006.04-.02.046-.038.059-.192.128-.385.254-.574.385-.06.042-.079.005-.106-.034q-.549-.827-1.1-1.652c-.117-.176-.116-.176.057-.29.148-.1.3-.2.444-.295.046-.03.074-.046.116.017.387.588.779,1.173,1.17,1.759C955-175.575,955.007-175.555,955.014-175.543Z" fill="#040404"/>
        <path id="Path_51222" data-name="Path 51222" d="M954.358-166.447a.447.447,0,0,1,.045.025c.189.127.376.254.566.379.045.03.057.051.023.1q-.6.888-1.188,1.782c-.033.05-.058.038-.094.014-.191-.127-.382-.256-.576-.381-.043-.028-.05-.047-.019-.092q.6-.893,1.2-1.789C954.321-166.424,954.326-166.445,954.358-166.447Z" fill="#040404"/>
        <path id="Path_51223" data-name="Path 51223" d="M958.577-166.851c-.008.014-.019.034-.031.053q-.586.879-1.171,1.759c-.035.053-.058.071-.119.028-.181-.126-.365-.248-.55-.367-.052-.034-.065-.058-.027-.115q.592-.881,1.178-1.765c.032-.048.054-.059.106-.023.187.128.378.251.566.378C958.547-166.891,958.576-166.889,958.577-166.851Z" fill="#040404"/>
        <path id="Path_51224" data-name="Path 51224" d="M958.576-174.676c0,.032-.019.037-.035.048-.2.131-.4.259-.593.394-.062.043-.072-.007-.093-.039q-.3-.447-.6-.9c-.19-.285-.379-.571-.572-.854-.039-.056-.04-.084.021-.123.189-.12.375-.245.56-.372.046-.031.069-.028.1.019q.592.894,1.188,1.785C958.563-174.7,958.571-174.685,958.576-174.676Z" fill="#040404"/>
        <path id="Path_51225" data-name="Path 51225" d="M943.794-172.909c.014.011.023.025.009.039s-.022,0-.034,0Z" fill="#040404"/>
        <path id="Path_51226" data-name="Path 51226" d="M943.736-172.816h0Z" fill="#cc2e3a"/>
      </g>
    </g>
  </g>
</svg>
