<svg xmlns="http://www.w3.org/2000/svg" xmlns:xlink="http://www.w3.org/1999/xlink" width="24" height="24" viewBox="0 0 24 24">
  <defs>
    <clipPath id="clip-國旗_馬來西亞">
      <rect width="24" height="24"/>
    </clipPath>
  </defs>
  <g id="國旗_馬來西亞" clip-path="url(#clip-國旗_馬來西亞)">
    <g id="Group_38945" data-name="Group 38945" transform="translate(-671.561 234.223)">
      <g id="Group_38943" data-name="Group 38943">
        <path id="Path_51180" data-name="Path 51180" d="M674.073-214.9h18.976a12.061,12.061,0,0,0,1.17-1.829H672.9A11.907,11.907,0,0,0,674.073-214.9Z" fill="#ce1126"/>
        <path id="Path_51181" data-name="Path 51181" d="M672.113-218.619h22.9a11.911,11.911,0,0,0,.407-1.829H671.706A11.918,11.918,0,0,0,672.113-218.619Z" fill="#ce1126"/>
        <path id="Path_51182" data-name="Path 51182" d="M695.388-224.172H683.561v1.828h11.993A11.97,11.97,0,0,0,695.388-224.172Z" fill="#ce1126"/>
        <path id="Path_51183" data-name="Path 51183" d="M678.88-211.17h9.361A12.023,12.023,0,0,0,691.234-213H675.887A12.021,12.021,0,0,0,678.88-211.17Z" fill="#ce1126"/>
        <path id="Path_51184" data-name="Path 51184" d="M683.561-234.223v.706h4.023A11.951,11.951,0,0,0,683.561-234.223Z" fill="#ce1126"/>
        <path id="Path_51185" data-name="Path 51185" d="M694.134-227.9H683.561v1.829H694.92A11.96,11.96,0,0,0,694.134-227.9Z" fill="#ce1126"/>
        <path id="Path_51186" data-name="Path 51186" d="M691.008-231.621h-7.447v1.829h9.307A12.049,12.049,0,0,0,691.008-231.621Z" fill="#ce1126"/>
      </g>
      <path id="Path_51187" data-name="Path 51187" d="M679.537-233.517a12,12,0,0,0-3.424,1.9,12.052,12.052,0,0,0-1.86,1.829,12.008,12.008,0,0,0-1.266,1.9,11.972,11.972,0,0,0-.786,1.829,11.835,11.835,0,0,0-.468,1.9,11.97,11.97,0,0,0-.166,1.828h11.994v-11.879A11.952,11.952,0,0,0,679.537-233.517ZM676.752-223.2a3.183,3.183,0,0,1-2.287-.969,3.179,3.179,0,0,1-.876-1.9,3.044,3.044,0,0,1-.033-.332,3.159,3.159,0,0,1,.388-1.5,3.183,3.183,0,0,1,2.808-1.7,3.178,3.178,0,0,1,1.569.412,2.889,2.889,0,0,0-.826-.12,2.893,2.893,0,0,0-2.478,1.408,2.884,2.884,0,0,0-.427,1.5,2.785,2.785,0,0,0,.034.332,2.885,2.885,0,0,0,1.027,1.9,2.883,2.883,0,0,0,1.844.677,2.889,2.889,0,0,0,.826-.12A3.178,3.178,0,0,1,676.752-223.2Zm5.8-2.865.278.135-1.477-.036.918,1.158-1.316-.674.3,1.313.029.129-.1-.129-.795-1.048-.243,1.048-.09.391-.08-.391-.214-1.057-.848,1.057-.077.1.024-.1.34-1.337-1.333.637.949-1.132-1.478-.005.131-.059,1.216-.549-1.329-.646,1.477.036-.531-.67-.387-.488.953.488.363.186-.042-.186-.283-1.256.893,1.177.334-1.439.293,1.448.925-1.152-.311,1.222-.053.21.439-.21.894-.427-.358.427-.591.705,1.478.005-1.347.609Z" fill="#002b7f"/>
      <g id="Group_38944" data-name="Group 38944">
        <path id="Path_51188" data-name="Path 51188" d="M687.584-233.517h-4.023v1.9h7.447A11.984,11.984,0,0,0,687.584-233.517Z" fill="#fff"/>
        <path id="Path_51189" data-name="Path 51189" d="M692.868-229.792h-9.307v1.9h10.573A12.008,12.008,0,0,0,692.868-229.792Z" fill="#fff"/>
        <path id="Path_51190" data-name="Path 51190" d="M694.92-226.068H683.561v1.9h11.827A11.828,11.828,0,0,0,694.92-226.068Z" fill="#fff"/>
        <path id="Path_51191" data-name="Path 51191" d="M695.554-222.344H671.567c0,.041-.006.08-.006.121a12.075,12.075,0,0,0,.145,1.775h23.709a12.075,12.075,0,0,0,.146-1.775C695.561-222.264,695.555-222.3,695.554-222.344Z" fill="#fff"/>
        <path id="Path_51192" data-name="Path 51192" d="M672.9-216.724h21.316a11.952,11.952,0,0,0,.789-1.9h-22.9A11.871,11.871,0,0,0,672.9-216.724Z" fill="#fff"/>
        <path id="Path_51193" data-name="Path 51193" d="M675.887-213h15.347a12.109,12.109,0,0,0,1.815-1.9H674.073A12.056,12.056,0,0,0,675.887-213Z" fill="#fff"/>
        <path id="Path_51194" data-name="Path 51194" d="M683.561-210.223a11.975,11.975,0,0,0,4.68-.947H678.88A11.976,11.976,0,0,0,683.561-210.223Z" fill="#fff"/>
      </g>
      <path id="Path_51195" data-name="Path 51195" d="M675.651-224.172a2.885,2.885,0,0,1-1.027-1.9,2.785,2.785,0,0,1-.034-.332,2.884,2.884,0,0,1,.427-1.5,2.893,2.893,0,0,1,2.478-1.408,2.889,2.889,0,0,1,.826.12,3.178,3.178,0,0,0-1.569-.412,3.183,3.183,0,0,0-2.808,1.7,3.159,3.159,0,0,0-.388,1.5,3.044,3.044,0,0,0,.033.332,3.179,3.179,0,0,0,.876,1.9,3.183,3.183,0,0,0,2.287.969,3.178,3.178,0,0,0,1.569-.412,2.889,2.889,0,0,1-.826.12A2.883,2.883,0,0,1,675.651-224.172Z" fill="#fcd116"/>
      <path id="Path_51196" data-name="Path 51196" d="M680.052-223.781l.091-.392h-.17Z" fill="#fff"/>
      <path id="Path_51197" data-name="Path 51197" d="M681.278-224.043l-.029-.13h-.069Z" fill="#fff"/>
      <path id="Path_51198" data-name="Path 51198" d="M678.833-224.077l.077-.1h-.053Z" fill="#fff"/>
      <path id="Path_51199" data-name="Path 51199" d="M682.55-226.068l-1.051-.51,1.347-.608-1.478,0,.591-.705.358-.427-.894.427-.439.21.053-.21.311-1.222-.925,1.152-.293-1.448-.333,1.44-.893-1.177.283,1.256.042.185-.362-.185-.953-.488.387.488.531.67-1.477-.036,1.329.646-1.216.549-.13.059,1.478,0-.949,1.132,1.333-.637-.34,1.336h.053l.848-1.057.214,1.057h.17l.243-1.048.795,1.048h.069l-.3-1.312,1.315.674-.918-1.158,1.477.036Z" fill="#fcd116"/>
    </g>
  </g>
</svg>
