<svg xmlns="http://www.w3.org/2000/svg" xmlns:xlink="http://www.w3.org/1999/xlink" width="30" height="30" viewBox="0 0 30 30">
  <defs>
    <clipPath id="clip-Artboard_9">
      <rect width="30" height="30"/>
    </clipPath>
  </defs>
  <g id="Artboard_9" data-name="Artboard – 9" clip-path="url(#clip-Artboard_9)">
    <g id="Group_3893" data-name="Group 3893" transform="translate(-7.877 -16.357)">
      <path id="Path_3296" data-name="Path 3296" d="M30.314,21.374H7.991a14.925,14.925,0,0,1,22.323,0Z" transform="translate(3.724 0)" fill="#ec1c24"/>
      <path id="Path_3297" data-name="Path 3297" d="M36.218,21.523H7.9a14.858,14.858,0,0,1,3-5.017H33.222A14.858,14.858,0,0,1,36.218,21.523Z" transform="translate(0.817 4.868)" fill="#fff"/>
      <path id="Path_3298" data-name="Path 3298" d="M36.218,16.951a15.191,15.191,0,0,1-3,5.017H10.9a15.19,15.19,0,0,1-3-5.017Z" transform="translate(0.817 19.406)" fill="#fff"/>
      <path id="Path_3299" data-name="Path 3299" d="M37.877,21.638a15.326,15.326,0,0,1-.842,4.983H8.719a15.171,15.171,0,0,1,0-9.966H37.035A15.174,15.174,0,0,1,37.877,21.638Z" transform="translate(0 9.736)" fill="#241d4e"/>
      <path id="Path_3300" data-name="Path 3300" d="M30.314,17.1a14.992,14.992,0,0,1-22.323,0Z" transform="translate(3.724 24.274)" fill="#ec1c24"/>
    </g>
  </g>
</svg>
