<svg xmlns="http://www.w3.org/2000/svg" xmlns:xlink="http://www.w3.org/1999/xlink" width="24" height="24" viewBox="0 0 24 24">
  <defs>
    <clipPath id="clip-國旗_土耳其">
      <rect width="24" height="24"/>
    </clipPath>
  </defs>
  <g id="國旗_土耳其" clip-path="url(#clip-國旗_土耳其)">
    <g id="Group_38959" data-name="Group 38959" transform="translate(1042 -1195)">
      <g id="Group_38958" data-name="Group 38958" transform="translate(-1889.556 1379.084)">
        <circle id="Ellipse_6149" data-name="Ellipse 6149" cx="12" cy="12" r="12" transform="translate(847.556 -184.084)" fill="#e30a17"/>
        <g id="Group_38957" data-name="Group 38957">
          <path id="Path_51227" data-name="Path 51227" d="M862.687-168.54c-.117.11-.229.225-.351.329a5.062,5.062,0,0,1-4.258,1.2,4.951,4.951,0,0,1-3.3-2.045,4.931,4.931,0,0,1-.908-3.907,5.016,5.016,0,0,1,3.1-3.887,4.862,4.862,0,0,1,2.6-.351,5.093,5.093,0,0,1,1.7.518,5.315,5.315,0,0,1,1.274.912c.031.03.057.074.121.081a6.413,6.413,0,0,0-6.826-2.681,6.437,6.437,0,0,0-4.967,6.085,6.439,6.439,0,0,0,4.629,6.391A6.391,6.391,0,0,0,862.687-168.54Zm4.207-3.544,1.349-1.861-.022-.028-2.183.708-.226-.309-.231-.318-.222-.306-.23-.318c-.074-.1-.145-.206-.224-.3a1.365,1.365,0,0,0-.259-.313v2.319c-.064.023-.116.042-.169.059q-.941.3-1.881.611c-.042.014-.1.012-.121.082l2.181.711v2.295l.03.011,1.351-1.857c.369.12.732.239,1.1.355s.724.247,1.092.348l.015-.027Z"/>
          <path id="Path_51228" data-name="Path 51228" d="M862.687-168.54a6.391,6.391,0,0,1-7.187,2.649,6.439,6.439,0,0,1-4.629-6.391,6.437,6.437,0,0,1,4.967-6.085,6.413,6.413,0,0,1,6.826,2.681c-.064-.007-.09-.051-.121-.081a5.315,5.315,0,0,0-1.274-.912,5.093,5.093,0,0,0-1.7-.518,4.862,4.862,0,0,0-2.6.351,5.016,5.016,0,0,0-3.1,3.887,4.931,4.931,0,0,0,.908,3.907,4.951,4.951,0,0,0,3.3,2.045,5.062,5.062,0,0,0,4.258-1.2C862.458-168.315,862.57-168.43,862.687-168.54Z" fill="#fff"/>
          <path id="Path_51229" data-name="Path 51229" d="M866.894-172.084l1.346,1.857-.015.027c-.368-.1-.728-.233-1.092-.348s-.727-.235-1.1-.355l-1.351,1.857-.03-.011v-2.295l-2.181-.711c.021-.07.079-.068.121-.082q.941-.308,1.881-.611c.053-.017.1-.036.169-.059v-2.319a1.365,1.365,0,0,1,.259.313c.079.1.15.2.224.3l.23.318.222.306.231.318.226.309,2.183-.708.022.028Z" fill="#fff"/>
        </g>
      </g>
    </g>
  </g>
</svg>
