<svg xmlns="http://www.w3.org/2000/svg" xmlns:xlink="http://www.w3.org/1999/xlink" width="30" height="30" viewBox="0 0 30 30">
  <defs>
    <clipPath id="clip-path">
      <rect id="Rectangle_61820" data-name="Rectangle 61820" width="30" height="30" fill="#fff"/>
    </clipPath>
    <clipPath id="clip-國旗-香港">
      <rect width="30" height="30"/>
    </clipPath>
  </defs>
  <g id="國旗-香港" clip-path="url(#clip-國旗-香港)">
    <g id="Mask_Group_149" data-name="Mask Group 149" clip-path="url(#clip-path)">
      <g id="Group_37951" data-name="Group 37951">
        <circle id="Ellipse_6203" data-name="Ellipse 6203" cx="15" cy="15" r="15" fill="#dd2910"/>
        <g id="Group_37950" data-name="Group 37950" transform="translate(-40.655 -210.6)">
          <path id="Subtraction_9" data-name="Subtraction 9" d="M2.982,10.022a5.024,5.024,0,0,1-2.838-5.8A5.583,5.583,0,0,1,1.989,1.26,5.473,5.473,0,0,1,5.538,0c.139,0,.283,0,.427.014A1.888,1.888,0,0,0,4.937,1.181,2.082,2.082,0,0,0,5.28,2.835a2.275,2.275,0,0,1,.173,1.9A2.673,2.673,0,0,1,4.176,6.4,2.489,2.489,0,0,0,2.7,8.151,2.087,2.087,0,0,0,3.216,10,3.544,3.544,0,0,1,1.921,8.058,4.055,4.055,0,0,1,2.4,4.829l-.131-.083A4.226,4.226,0,0,0,1.773,8.1,3.717,3.717,0,0,0,2.983,10.02Zm-.393-6.78.039.646L2.063,4.2l.627.162L2.815,5l.348-.545.642.075-.411-.5.27-.586-.6.236Z" transform="translate(51.608 215.593)" fill="#fff" stroke="rgba(0,0,0,0)" stroke-miterlimit="10" stroke-width="1"/>
          <path id="Subtraction_8" data-name="Subtraction 8" d="M5.715,5.223a2.653,2.653,0,0,1-1.9-.7,2.524,2.524,0,0,0-1.872-.873A2.1,2.1,0,0,0,.1,4.713,3.556,3.556,0,0,1,1.544,2.891a4.06,4.06,0,0,1,3.218-.547L4.8,2.195a4.21,4.21,0,0,0-3.34.567A3.708,3.708,0,0,0,0,4.523a5.4,5.4,0,0,1,1.848-3.41A5.087,5.087,0,0,1,5.065,0a5.5,5.5,0,0,1,5.379,4.251A1.918,1.918,0,0,0,9.1,3.632a2.042,2.042,0,0,0-1.55.839A2.328,2.328,0,0,1,5.715,5.223ZM5.253,1.836l.04.645L4.728,2.8l.626.162.127.633.348-.544.642.076-.412-.5.271-.588-.6.237Z" transform="translate(55.178 220.786)" fill="#fff" stroke="rgba(0,0,0,0)" stroke-miterlimit="10" stroke-width="1"/>
          <path id="Subtraction_10" data-name="Subtraction 10" d="M3.643,9.929l0,0A1.887,1.887,0,0,0,3.788,8.38,2.082,2.082,0,0,0,2.539,7.244,2.276,2.276,0,0,1,1.283,5.81a2.671,2.671,0,0,1,.053-2.1A2.491,2.491,0,0,0,1.5,1.43,2.084,2.084,0,0,0,0,.232H.022a3.563,3.563,0,0,1,2.164.813A4.061,4.061,0,0,1,3.7,3.936l.152-.01a4.218,4.218,0,0,0-1.572-3A3.712,3.712,0,0,0,.16.081,6.661,6.661,0,0,1,1.176,0a4.942,4.942,0,0,1,4.9,3.679,5.592,5.592,0,0,1-.1,3.38A5.572,5.572,0,0,1,3.645,9.927ZM3.259,4.045l.04.645-.563.315.625.163.125.635.348-.547.642.076-.411-.5.27-.588-.6.238Z" transform="translate(55.497 225.677)" fill="#fff" stroke="rgba(0,0,0,0)" stroke-miterlimit="10" stroke-width="1"/>
          <path id="Subtraction_11" data-name="Subtraction 11" d="M3.591,7.8h0A5.55,5.55,0,0,1,0,6.456a2.59,2.59,0,0,0,.395.032A1.8,1.8,0,0,0,2.212,4.576,2.775,2.775,0,0,1,4.875,2.31a1.623,1.623,0,0,1,.325.032,2.859,2.859,0,0,0,.581.061,2.4,2.4,0,0,0,1.8-.77A2.075,2.075,0,0,0,8.1,0,3.554,3.554,0,0,1,8,2.327,4.059,4.059,0,0,1,5.717,4.66l.057.142A4.217,4.217,0,0,0,8.142,2.381,3.709,3.709,0,0,0,8.289.1a5.113,5.113,0,0,1-.051,5.141A5.469,5.469,0,0,1,3.591,7.8ZM4.4,4.073l.039.645-.565.316.627.161.125.635.348-.545.642.076-.411-.5.271-.588-.6.238Z" transform="translate(47.086 226.25)" fill="#fff" stroke="rgba(0,0,0,0)" stroke-miterlimit="10" stroke-width="1"/>
          <path id="Subtraction_12" data-name="Subtraction 12" d="M5.266,7.6h0A5.335,5.335,0,0,1,.937,5.21,5.5,5.5,0,0,1,.429,0,1.751,1.751,0,0,0,2.22,1.615,2.661,2.661,0,0,0,2.9,1.523a1.792,1.792,0,0,1,.456-.058,2.687,2.687,0,0,1,1.72.729,2.5,2.5,0,0,1,.873,1.481A2.345,2.345,0,0,0,8.2,5.9a2.084,2.084,0,0,0,.868-.19,3.478,3.478,0,0,1-2.06.631c-.061,0-.122,0-.183,0A4.056,4.056,0,0,1,3.9,4.882l-.119.1a4.22,4.22,0,0,0,3.035,1.5c.059,0,.132.006.2.006a3.614,3.614,0,0,0,2.011-.569A5.314,5.314,0,0,1,5.266,7.6ZM2.98,3.249l.039.644-.565.316.627.162L3.208,5l.348-.545.642.076-.411-.5.27-.586-.6.235Z" transform="translate(45.69 220.348)" fill="#fff" stroke="rgba(0,0,0,0)" stroke-miterlimit="10" stroke-width="1"/>
        </g>
      </g>
    </g>
  </g>
</svg>
