<svg xmlns="http://www.w3.org/2000/svg" xmlns:xlink="http://www.w3.org/1999/xlink" width="24" height="24" viewBox="0 0 24 24">
  <defs>
    <clipPath id="clip-path">
      <rect id="Rectangle_62594" data-name="Rectangle 62594" width="24" height="24" fill="#fff" stroke="#707070" stroke-width="1"/>
    </clipPath>
  </defs>
  <g id="我的_全民推广" clip-path="url(#clip-path)">
    <g id="资金明细" clip-path="url(#clip-path)">
      <g id="Group_40074" data-name="Group 40074" transform="translate(1 2.828)">
        <path id="Union_34" data-name="Union 34" d="M1.712,18.342c-.074,0-.151,0-.225-.007C.772,18.291.182,18.074,0,17.28v-1.29c.066-.357.111-.719.2-1.068A8.471,8.471,0,0,1,5.924,8.638a4.429,4.429,0,0,1-2.193-4.3A4.359,4.359,0,0,1,5.257,1.194a4.678,4.678,0,0,1,6.568.322,4.412,4.412,0,0,1,1.16,2.445A4.771,4.771,0,0,1,12.6,6.644a4.393,4.393,0,0,1-1.824,1.973,16.407,16.407,0,0,1,1.611.747,8.418,8.418,0,0,1,4.367,7.053c0,.066,0,.13,0,.2a1.5,1.5,0,0,1-1.691,1.726q-2.863,0-5.725,0ZM19.354,16.5a.662.662,0,0,1-.683-.513c-.067-.225-.124-.451-.178-.679a11.5,11.5,0,0,0-2.071-4.1A18.472,18.472,0,0,0,15.04,9.51a10.128,10.128,0,0,0-1.07-.894c-.173-.141-.315-.3-.106-.508A4.035,4.035,0,0,0,14.781,4.6a5.5,5.5,0,0,0-.548-1.932.787.787,0,0,1-.043-.1c-.193-.493-.054-.7.473-.722A3.678,3.678,0,0,1,18.2,4.176a3.5,3.5,0,0,1-1.164,4c-.044.035-.086.071-.152.125a.79.79,0,0,0,.129.059,5.856,5.856,0,0,1,3.527,2.459,7.422,7.422,0,0,1,1.416,3.527c0,.044.046.231.046.231v.682a1.47,1.47,0,0,0-.061.153,1.444,1.444,0,0,1-1.351,1.079c-.179.009-.358.012-.537.012C19.819,16.5,19.586,16.5,19.354,16.5Z" transform="translate(0 0)" fill="#fff" stroke="rgba(0,0,0,0)" stroke-miterlimit="10" stroke-width="1"/>
      </g>
    </g>
  </g>
</svg>
