<svg xmlns="http://www.w3.org/2000/svg" xmlns:xlink="http://www.w3.org/1999/xlink" width="24" height="24" viewBox="0 0 24 24">
  <defs>
    <clipPath id="clip-path">
      <rect id="Rectangle_62586" data-name="Rectangle 62586" width="24" height="24" fill="#ffb83d" stroke="#707070" stroke-width="1"/>
    </clipPath>
  </defs>
  <g id="我的_我要充值" clip-path="url(#clip-path)">
    <g id="Group_40069" data-name="Group 40069" transform="translate(0.986 1.404)">
      <path id="Path_51974" data-name="Path 51974" d="M46.011,52.217c.351,0,.637,0,.923,0,.337,0,.441.168.284.47Q46.2,54.632,45.176,56.57c-.153.289-.33.29-.488-.005-.464-.868-.919-1.742-1.377-2.613-.226-.429-.455-.856-.674-1.289-.141-.279-.043-.436.27-.443.243-.005.486-.008.729,0a.209.209,0,0,0,.24-.176,10.621,10.621,0,0,1,6.559-6.885,10.322,10.322,0,0,1,4.537-.574A10.447,10.447,0,0,1,61.548,47.7a10.3,10.3,0,0,1,1.709,2.26A10.6,10.6,0,0,1,47.239,63.283a9.162,9.162,0,0,1-.9-.86,1.077,1.077,0,0,1-.056-1.177,1.025,1.025,0,0,1,1.076-.475,1.565,1.565,0,0,1,.636.36A8.435,8.435,0,0,0,54.507,63.6a8.267,8.267,0,0,0,2.324-.454,8.552,8.552,0,0,0,5.473-6.2,8.03,8.03,0,0,0-.028-3.738A8.49,8.49,0,0,0,48.4,48.78a7.755,7.755,0,0,0-1.833,2.268C46.374,51.408,46.215,51.786,46.011,52.217Z" transform="translate(-42.575 -44.535)" fill="#ffb83d"/>
      <path id="Path_51975" data-name="Path 51975" d="M83,76c.261,1.223.466,1.487,1.148,1.451v-.329c0-.562-.005-1.124.005-1.685,0-.162-.052-.224-.206-.257a7.142,7.142,0,0,1-2.035-.751,2.577,2.577,0,0,1-1.053-3.336,2.875,2.875,0,0,1,2.052-1.644c.434-.119.889-.16,1.365-.241v-.829h1.107v.857a3.5,3.5,0,0,1,2.942,1.325,2.94,2.94,0,0,1,.5,1.684H86.449c-.168-.9-.427-1.2-1.071-1.222v2.015c.575.2,1.146.372,1.7.6a4.745,4.745,0,0,1,.924.526,2.317,2.317,0,0,1,.966,1.815A2.763,2.763,0,0,1,88,78.518a4.063,4.063,0,0,1-1.924.757c-.269.045-.541.067-.835.1V80.5H84.2V79.382c-.423-.068-.824-.1-1.211-.2a2.987,2.987,0,0,1-2.328-2.067,5.283,5.283,0,0,1-.147-.961c-.005-.048.081-.151.126-.152C81.422,75.993,82.2,76,83,76Zm2.194-.544v2.065a7.337,7.337,0,0,0,.795-.18.836.836,0,0,0,.131-1.478C85.833,75.7,85.526,75.6,85.19,75.451Zm-.845-4.506a5.067,5.067,0,0,0-.731.145.8.8,0,0,0-.289,1.292,2.329,2.329,0,0,0,1.02.444Z" transform="translate(-73.301 -63.84)" fill="#ffb83d"/>
    </g>
  </g>
</svg>
