<svg id="我的_我的报表" xmlns="http://www.w3.org/2000/svg" xmlns:xlink="http://www.w3.org/1999/xlink" width="24" height="24" viewBox="0 0 24 24">
  <defs>
    <clipPath id="clip-path">
      <rect id="Rectangle_62581" data-name="Rectangle 62581" width="24" height="24" fill="#fff"/>
    </clipPath>
  </defs>
  <rect id="Rectangle_62580" data-name="Rectangle 62580" width="24" height="24" fill="none"/>
  <g id="资金明细" clip-path="url(#clip-path)">
    <g id="Group_40054" data-name="Group 40054" transform="translate(1 1.802)">
      <path id="Union_32" data-name="Union 32" d="M6.341,20.531a1.4,1.4,0,0,1-1.4-1.4V1.4A1.4,1.4,0,0,1,6.341,0H20.6A1.4,1.4,0,0,1,22,1.4V19.132a1.4,1.4,0,0,1-1.4,1.4ZM8.527,10.168a.7.7,0,0,0,.7.7h8.491a.7.7,0,1,0,0-1.4H9.226A.7.7,0,0,0,8.527,10.168Zm0-4.472a.7.7,0,0,0,.7.7h8.491a.7.7,0,0,0,0-1.4H9.226A.7.7,0,0,0,8.527,5.7ZM1.4,20.531A1.469,1.469,0,0,1,0,19V5.73A1.469,1.469,0,0,1,1.4,4.2H3.94V19.132a1.4,1.4,0,0,0,1.4,1.4Z" fill="#fff"/>
    </g>
  </g>
</svg>
