<svg id="我的_优惠活动" xmlns="http://www.w3.org/2000/svg" xmlns:xlink="http://www.w3.org/1999/xlink" width="24" height="24" viewBox="0 0 24 24">
  <defs>
    <clipPath id="clip-path">
      <rect id="Rectangle_57404" data-name="Rectangle 57404" width="24" height="24" fill="#fff"/>
    </clipPath>
  </defs>
  <g id="活动" clip-path="url(#clip-path)">
    <rect id="Rectangle_56259" width="24" height="24" fill="none"/>
    <g id="Group_5340" transform="translate(1 1.08)">
      <path id="Union_29" data-name="Union 29" d="M1.7,21.642a.689.689,0,0,1-.2-.5l.1-9.4h8.9v10.1H2.188A.693.693,0,0,1,1.7,21.642Zm18,.1H11.8v-10.1h8.6v9.4a.688.688,0,0,1-.2.5.68.68,0,0,1-.482.2Zm1.4-11.3H11.7v-4.6h9.7a.471.471,0,0,1,.5.5l.1,3.6a.47.47,0,0,1-.5.5.763.763,0,0,0-.4.1Zm-20.6,0A.476.476,0,0,1,.138,10.3.47.47,0,0,1,0,9.941v-3.6a.472.472,0,0,1,.5-.5H10.6v4.6H.9v.1C.8,10.541.7,10.44.5,10.44ZM12,4.541h-.2c.7-1.1,1.7-2.6,2.4-3.5a3.215,3.215,0,0,1,2.1-1h.2a1.882,1.882,0,0,1,1.6.4,2.274,2.274,0,0,1,.6,1.6,3.338,3.338,0,0,1-1.4,2.3,3.965,3.965,0,0,1-2.22.479A24,24,0,0,1,12,4.541Zm-7.1-.2a2.98,2.98,0,0,1-1.4-2.3,1.66,1.66,0,0,1,.6-1.6,2.277,2.277,0,0,1,1.6-.4h.2a2.813,2.813,0,0,1,2.1,1H8c.7.9,1.7,2.4,2.4,3.5h-.2a24.023,24.023,0,0,1-3.08.279A3.968,3.968,0,0,1,4.9,4.341Z" fill="#fff"/>
    </g>
  </g>
  <rect id="Rectangle_62575" data-name="Rectangle 62575" width="24" height="24" fill="none"/>
</svg>
