<svg id="我的_充提记录" xmlns="http://www.w3.org/2000/svg" xmlns:xlink="http://www.w3.org/1999/xlink" width="24" height="24" viewBox="0 0 24 24">
  <defs>
    <clipPath id="clip-path">
      <rect id="Rectangle_57404" data-name="Rectangle 57404" width="24" height="24" fill="#ffb83d"/>
    </clipPath>
  </defs>
  <g id="活动" clip-path="url(#clip-path)">
    <rect id="Rectangle_56259" width="24" height="24" fill="none"/>
    <g id="Group_40059" data-name="Group 40059" transform="translate(0.985 1.058)">
      <path id="Path_51970" data-name="Path 51970" d="M16.468,5.532a6.545,6.545,0,0,0-5.162,11.583h-.164q-4.729,0-9.457,0a4,4,0,0,1-1.258-.137,2.888,2.888,0,0,1-2-2.94c0-.046,0-.092,0-.137q0-7.784,0-15.567a3.093,3.093,0,0,1,.324-1.557,2.828,2.828,0,0,1,2.588-1.54c.978-.012,1.957,0,2.936,0q1.518,0,3.036,0,3.136,0,6.271-.009a2.862,2.862,0,0,1,2.8,2.207,3.921,3.921,0,0,1,.076.841c.011.779.009,1.557.009,2.336q0,2.161,0,4.323ZM7.3.025V.02H1.811c-.062,0-.125,0-.187,0A.724.724,0,0,0,.987.477a.755.755,0,0,0,.757,1.047q5.553,0,11.106,0a1.01,1.01,0,0,0,.295-.04A.745.745,0,0,0,12.917.026ZM3.958,7.351h2.21a1.055,1.055,0,0,0,.223-.015.746.746,0,0,0,.592-.83.756.756,0,0,0-.748-.654c-.316,0-.633,0-.949,0H1.716a.765.765,0,0,0-.73.47A.746.746,0,0,0,1.661,7.35C2.427,7.357,3.192,7.351,3.958,7.351Zm.007,4.644h0c-.762,0-1.523,0-2.285,0a.749.749,0,1,0-.008,1.5q2.285.006,4.569,0A.749.749,0,0,0,6.25,12C5.489,11.991,4.727,11.995,3.966,11.995Z" transform="translate(1.58 4.77)" fill="#ffb83d"/>
      <path id="Path_51971" data-name="Path 51971" d="M122.423,112.4a5.083,5.083,0,1,1-4.93-5.2A5.091,5.091,0,0,1,122.423,112.4Zm-6.974-1.472v.142q0,.974,0,1.947c0,.157.069.224.227.224h1.049c.218,0,.272-.053.272-.27q0-.949,0-1.9v-.151c.311,0,.6.005.892,0a.231.231,0,0,0,.178-.095.224.224,0,0,0-.055-.193c-.543-.552-1.091-1.1-1.639-1.645a.2.2,0,0,0-.3,0c-.548.547-1.1,1.093-1.639,1.644a.224.224,0,0,0-.056.193.232.232,0,0,0,.178.094c.253.011.507,0,.761,0C115.355,110.92,115.4,110.923,115.449,110.926Zm3.784,2.69c0-.06,0-.1,0-.149q0-.974,0-1.948c0-.151-.025-.175-.173-.175H117.9c-.191,0-.213.021-.213.215q0,.955,0,1.911v.141c-.054,0-.094.006-.135.006-.254,0-.508-.006-.762,0a.237.237,0,0,0-.176.1.21.21,0,0,0,.052.183q.832.845,1.675,1.68c.115.115.128.114.246,0,.557-.555,1.115-1.11,1.667-1.671a.224.224,0,0,0,.055-.193.232.232,0,0,0-.178-.094C119.838,113.611,119.547,113.616,119.234,113.616Z" transform="translate(-100.394 -95.525)" fill="#ffb83d"/>
    </g>
  </g>
</svg>
