<svg id="我的_马上提现" xmlns="http://www.w3.org/2000/svg" xmlns:xlink="http://www.w3.org/1999/xlink" width="24" height="24" viewBox="0 0 24 24">
  <defs>
    <clipPath id="clip-path">
      <rect id="Rectangle_57402" data-name="Rectangle 57402" width="24" height="24" fill="#ffb83d"/>
    </clipPath>
  </defs>
  <g id="提現" clip-path="url(#clip-path)">
    <rect id="Rectangle_56259" width="24" height="24" fill="none"/>
    <path id="Path_8027" d="M21.286,4H2.808A1.8,1.8,0,0,0,1,5.808V18.06a1.8,1.8,0,0,0,1.808,1.808H21.186a1.8,1.8,0,0,0,1.808-1.808h0V5.808A1.66,1.66,0,0,0,21.286,4ZM17.57,17.156H6.523a.7.7,0,1,1,0-1.406H17.57a.7.7,0,1,1,0,1.406Zm0-3.716H6.523a.7.7,0,1,1,0-1.406H17.57a.7.7,0,1,1,0,1.406Zm3.214-5.222a.687.687,0,0,1-.7.7h-1.1a.687.687,0,0,1-.7-.7h0v-1.1a.687.687,0,0,1,.7-.7h1.1a.687.687,0,0,1,.7.7h0Z" transform="translate(0 0.067)" fill="#ffb83d"/>
  </g>
</svg>
