<svg id="我的_登出" xmlns="http://www.w3.org/2000/svg" xmlns:xlink="http://www.w3.org/1999/xlink" width="24" height="24" viewBox="0 0 24 24">
  <defs>
    <clipPath id="clip-path">
      <rect id="Rectangle_57406" data-name="Rectangle 57406" width="24" height="24" fill="#fff"/>
    </clipPath>
  </defs>
  <g id="Footer_登录_灰" clip-path="url(#clip-path)">
    <rect id="Rectangle_56259" data-name="Rectangle 56259" width="24" height="24" fill="none"/>
    <g id="Group_34863" data-name="Group 34863" transform="translate(1.001 4.003)">
      <path id="Union_28" data-name="Union 28" d="M0,16.534V0H7.866V1.867h-6v12.8h6v1.865Zm13.549-.677a.494.494,0,0,1-.3-.452V11.733H4.32V4.664h8.934V.94A.411.411,0,0,1,13.5.56a.416.416,0,0,1,.449.071l7.837,7.147a.658.658,0,0,1,0,.973l-7.7,7.022a.5.5,0,0,1-.332.127A.505.505,0,0,1,13.549,15.857Z" fill="#fff"/>
    </g>
  </g>
</svg>
