<?xml version="1.0" encoding="utf-8"?>
<!-- Generator: Adobe Illustrator 25.4.1, SVG Export Plug-In . SVG Version: 6.00 Build 0)  -->
<svg version="1.1" id="圖層_1" xmlns="http://www.w3.org/2000/svg" xmlns:xlink="http://www.w3.org/1999/xlink" x="0px" y="0px"
	 viewBox="0 0 523.9 200" style="enable-background:new 0 0 523.9 200;" xml:space="preserve">
<style type="text/css">
	.st0{fill:#CC0001;}
	.st1{fill-rule:evenodd;clip-rule:evenodd;}
</style>
<g>
	<path class="st0" d="M166.2,85.6c-10.2,36.4-31.7,112-32.3,114.1c-13.8,0-30.5,0-44.6,0C77.5,158.1,65.8,116.9,54,75.5
		c-0.1,0-0.2,0-0.3,0.1c0.9,13.7,3.7,110.2,3.7,124.2c-19.2,0-38.2,0-57.4,0C0,134.8,0,69.9,0,4.6c1.1,0,53.6,0,77.3-0.1
		c0.3,1.3,33.6,119.4,34.1,120.6c8.6-30.3,17.7-60.6,26.5-91.5L166.2,85.6z"/>
	<path d="M271.5,199.8c-21.5,0-42.5,0-63.7,0c0-47.9,0-95.6,0-143.8c-1.2,0-23.7,0-32.9-0.1c-0.5-0.8-27.6-50.6-28-51.3
		c87.2,0,174.5,0,262.1,0c-0.8,1-44.6,49.6-46.2,51.4c-28-0.1-89.8,0-91.2,0C271.5,104,271.5,151.8,271.5,199.8z"/>
	<path class="st0" d="M303.3,199.7c0-15.1,0-31.2,0.1-46.1c0.6-0.8,57.3-63.2,85.2-93.9c15.9-17.6,48.3-53.4,49.9-55.2
		c10.2,0.1,35.9,0.1,37.2,0.1c0,1.3,0,32.2,0,45.3c-1.4,1.6-88.7,97.7-89.6,98.9c31.5,0,58.6,0,89.7,0c0,17.1,0,34,0,51
		C417.1,199.7,362.3,199.7,303.3,199.7z"/>
</g>
<g>
	<path class="st1" d="M500.3,21.6h3.8l6.3,9.9h3.9l-6.6-10.2c3.4-0.4,6.1-2.1,6.1-6.3c0-4.4-2.6-6.6-8.1-6.6h-8.9v23.1h3.6V21.6z
		 M500.3,11.4h4.8c2.4,0,5.1,0.5,5.1,3.5c0,3.6-2.9,3.8-6.1,3.8h-3.8V11.4z"/>
	<path class="st1" d="M523.9,20c0,10.9-8.8,19.7-19.7,19.7c-10.9,0-19.7-8.8-19.7-19.7s8.8-19.7,19.7-19.7
		C515,0.3,523.9,9.1,523.9,20z M504.2,3.2c-9.3,0-16.8,7.5-16.8,16.8s7.5,16.8,16.8,16.8S521,29.3,521,20S513.4,3.2,504.2,3.2z"/>
</g>
</svg>
