<svg xmlns="http://www.w3.org/2000/svg" xmlns:xlink="http://www.w3.org/1999/xlink" width="24" height="24" viewBox="0 0 24 24">
  <defs>
    <linearGradient id="linear-gradient" x1="0.5" x2="0.5" y2="1" gradientUnits="objectBoundingBox">
      <stop offset="0" stop-color="#f3ac0a"/>
      <stop offset="1" stop-color="#7a5605"/>
    </linearGradient>
    <clipPath id="clip-path">
      <rect id="Rectangle_62557" data-name="Rectangle 62557" width="24" height="24" transform="translate(-991 832)" stroke="#707070" stroke-width="1" fill="url(#linear-gradient)"/>
    </clipPath>
  </defs>
  <g id="賽事快訊" transform="translate(991 -832)" clip-path="url(#clip-path)">
    <g id="noun_Earth_2954490" transform="translate(-992 831)">
      <path id="Path_51776" data-name="Path 51776" d="M13,2A11,11,0,1,0,24,13,11.012,11.012,0,0,0,13,2ZM3.189,13a9.635,9.635,0,0,1,.141-1.582c0,.009,0,.019.006.028A2.708,2.708,0,0,0,4.917,13.8c.214.138.446.288.694.472a1.736,1.736,0,0,1,.66,1.8,7.647,7.647,0,0,0,0,.852,2.052,2.052,0,0,0,.79,1.349l.151.149a2.514,2.514,0,0,1,.731,1.323,7.361,7.361,0,0,0,.6,1.427l.188.379a2.619,2.619,0,0,0,.2.36A9.816,9.816,0,0,1,3.189,13ZM13,22.81a9.89,9.89,0,0,1-2.043-.216l0-.009a4.3,4.3,0,0,0-.372-.556c-.3-.407-.506-.674-.284-1.229a4.731,4.731,0,0,1,.774-1.027c.8-.905,1.785-2.031,1.044-3.022a2.186,2.186,0,0,0-1.4-.64,2.389,2.389,0,0,1-1.169-.445c-.078-.076-.153-.152-.229-.23A3.125,3.125,0,0,0,8.1,14.55a2.953,2.953,0,0,1-1.406-2.066,1.5,1.5,0,0,1,.553-1.421,4.235,4.235,0,0,0,.584-.783,1.251,1.251,0,0,1,.434-.427,2.434,2.434,0,0,1,.93-.294,2.219,2.219,0,0,0,1.235-.49.89.89,0,0,0,.284-.677c-.023-.561-.591-1.049-1.047-1.44-.123-.106-.235-.2-.317-.284-.213-.216-.26-.361-.236-.42.04-.1.3-.2.691-.2a1.885,1.885,0,0,1,1.078.288,1.255,1.255,0,0,0,.768.354c.468,0,.691-.438.907-.86.071-.138.143-.28.226-.409a3.875,3.875,0,0,1,.3-.4c.369-.449.829-1.008.086-1.744-.027-.027-.068-.059-.1-.087a9.738,9.738,0,0,1,5.145,1.514.32.32,0,0,1-.188.042,2.856,2.856,0,0,1-.626-.116,2.65,2.65,0,0,0-.672-.114h-.009a.993.993,0,0,0-.738.317,1.679,1.679,0,0,0-.163,1.291,1.589,1.589,0,0,1-.045.934,3.4,3.4,0,0,0-.271.51,2.582,2.582,0,0,1-.256.479,1.392,1.392,0,0,1-.215.2,1.07,1.07,0,0,0-.437.572,1.245,1.245,0,0,0,.1.741.612.612,0,0,1,.017.607,1.664,1.664,0,0,1-.373.419,1.537,1.537,0,0,0-.574.856,3.175,3.175,0,0,0,.526,2.418,1.362,1.362,0,0,0,1.083.528c.171,0,.344-.016.512-.031s.324-.029.481-.029a.974.974,0,0,1,.923.453,1.735,1.735,0,0,1,.015,1.58,3.2,3.2,0,0,0-.2,1.231c.012.12.013.267.016.422.009.623.02,1.564.77,1.564a1.516,1.516,0,0,0,.75-.258,1.746,1.746,0,0,0,.7-1.041,2.133,2.133,0,0,1,.31-.647l.169-.209a3.575,3.575,0,0,0,.858-1.575,3.349,3.349,0,0,1,.359-.749,4.287,4.287,0,0,0,.362-.726,2.606,2.606,0,0,0,.118-.753,1.568,1.568,0,0,1,.2-.822c.079-.124.321-.5.563-.5a.342.342,0,0,1,.171.052,1.236,1.236,0,0,1,.339.346c0,.1.016.2.016.3A9.826,9.826,0,0,1,13,22.81Z" fill="url(#linear-gradient)"/>
    </g>
  </g>
</svg>
