<svg xmlns="http://www.w3.org/2000/svg" xmlns:xlink="http://www.w3.org/1999/xlink" width="24" height="24" viewBox="0 0 24 24">
  <defs>
    <linearGradient id="linear-gradient" x1="0.5" x2="0.5" y2="1.357" gradientUnits="objectBoundingBox">
      <stop offset="0" stop-color="#f3ac0a"/>
      <stop offset="1" stop-color="#7a5605"/>
    </linearGradient>
    <clipPath id="clip-path">
      <rect id="Rectangle_62111" data-name="Rectangle 62111" width="24" height="24" transform="translate(0 0.23)" fill="url(#linear-gradient)"/>
    </clipPath>
    <clipPath id="clip-首頁_熱門賽事">
      <rect width="24" height="24"/>
    </clipPath>
  </defs>
  <g id="首頁_熱門賽事" clip-path="url(#clip-首頁_熱門賽事)">
    <g id="首页_最新消息" transform="translate(0 -0.23)" clip-path="url(#clip-path)">
      <rect id="Rectangle_56347" data-name="Rectangle 56347" width="24" height="24" transform="translate(0 0.23)" fill="none"/>
      <path id="Path_3047" data-name="Path 3047" d="M49.463,249.837c.059.1.118.2.184.295a6.922,6.922,0,0,0,.479.646,9.451,9.451,0,0,0,1.181,1.16c.175.145.355.287.536.421q.189.138.384.269c.259.174.525.338.794.493l.014.007a1.549,1.549,0,0,0,.147.073c.283.135.636.253.939.4l-.249-.166a1.1,1.1,0,0,1,.2.127h0c.017.014.035.024.052.041-2.127-2.018-2.221-4.861-.711-6.511q.087-.1.181-.186a3.928,3.928,0,0,1,1.117-.743,5.909,5.909,0,0,0,2.547-1.938h0a3.7,3.7,0,0,0,.2-.32c.032-.058.062-.118.087-.171.015-.034.03-.065.045-.1a3.137,3.137,0,0,0,.124-.328h0a2.657,2.657,0,0,0,.1-.455,1.59,1.59,0,0,0,.015-.3c2.734,2.939,1.427,5.51,1.427,5.51h0a1.787,1.787,0,0,0,1.469-1.959l.022.03c2.43,3.149-.094,6.128-.681,6.746-.073.077-.118.118-.118.118a4.659,4.659,0,0,0,1.6-.2q.1-.029.2-.065.165-.055.335-.125a5.721,5.721,0,0,0,1.93-1.321h0a6.78,6.78,0,0,0,.685-.827q.11-.156.216-.326.143-.229.277-.484a9.459,9.459,0,0,0,.5-1.094,6.688,6.688,0,0,0,.428-2.062,9.008,9.008,0,0,0-.324-2.775c-.056-.209-.118-.412-.183-.609a14.378,14.378,0,0,0-1.916-3.774,7.833,7.833,0,0,1-1.511,2.652,8.549,8.549,0,0,0-1.039-6.908q-.107-.152-.219-.3c-.075-.1-.158-.2-.237-.3a10.666,10.666,0,0,0-5.684-3.22h0a2.494,2.494,0,0,1,.417.516,3.65,3.65,0,0,1-.344,3.691,10.019,10.019,0,0,1-1.966,2.206q-.221.2-.446.4c-.3.262-.591.523-.882.791a10.319,10.319,0,0,0-3.087,4.793,8.208,8.208,0,0,0,.508,5.751Q49.33,249.616,49.463,249.837ZM62.2,241.973Z" transform="translate(-45.063 -230.387)" fill="url(#linear-gradient)"/>
    </g>
  </g>
</svg>
