<svg xmlns="http://www.w3.org/2000/svg" xmlns:xlink="http://www.w3.org/1999/xlink" width="24" height="24" viewBox="0 0 24 24">
  <defs>
    <linearGradient id="linear-gradient" x1="0.5" x2="0.5" y2="1.285" gradientUnits="objectBoundingBox">
      <stop offset="0" stop-color="#f3ac0a"/>
      <stop offset="1" stop-color="#7a5605"/>
    </linearGradient>
    <clipPath id="clip-path">
      <rect id="Rectangle_57535" data-name="Rectangle 57535" width="24" height="24" transform="translate(0 0)" stroke="#707070" stroke-width="1" fill="url(#linear-gradient)"/>
    </clipPath>
    <clipPath id="clip-首頁_我的_客服">
      <rect width="24" height="24"/>
    </clipPath>
  </defs>
  <g id="首頁_我的_客服" clip-path="url(#clip-首頁_我的_客服)">
    <g id="我的_游戏收藏" transform="translate(410.963 -182.074)">
      <g id="Mask_Group_422" data-name="Mask Group 422" transform="translate(-410.963 182.074)" clip-path="url(#clip-path)">
        <g id="Group_37927" data-name="Group 37927" transform="translate(1.2 1.2)">
          <path id="Path_47282" data-name="Path 47282" d="M-90.979-99.444a7.482,7.482,0,0,0-7.6-6.589,7.465,7.465,0,0,0-7.265,6.591c.269,0,.536,0,.8,0a.228.228,0,0,1,.249.2q.834,3.132,1.68,6.26c.04.149-.02.219-.127.3a3.763,3.763,0,0,1-5.908-2.345,3.7,3.7,0,0,1,1.207-3.509.455.455,0,0,0,.139-.279,9.378,9.378,0,0,1,7.616-8.936,9.394,9.394,0,0,1,11,7.523c.079.461.1.932.16,1.4a.532.532,0,0,0,.146.3,3.755,3.755,0,0,1-.2,5.792,1.083,1.083,0,0,0-.249.292,9.333,9.333,0,0,1-5.645,4.363.457.457,0,0,0-.345.3,2.306,2.306,0,0,1-2.514,1.429,2.353,2.353,0,0,1-1.974-2.066A2.355,2.355,0,0,1-98.3-90.872,2.329,2.329,0,0,1-95.556-90l.119.171c.145-.067.271-.139.407-.186A7.591,7.591,0,0,0-92-91.993a1.714,1.714,0,0,1-.213-.063q-.695-.316-1.387-.638c-.13-.061-.152-.159-.114-.3q.842-3.116,1.671-6.236a.243.243,0,0,1,.268-.216C-91.517-99.442-91.258-99.444-90.979-99.444Z" transform="translate(109.211 107.93)" fill="url(#linear-gradient)"/>
        </g>
      </g>
    </g>
  </g>
</svg>
