<svg xmlns="http://www.w3.org/2000/svg" xmlns:xlink="http://www.w3.org/1999/xlink" width="24" height="24" viewBox="0 0 24 24">
  <defs>
    <clipPath id="clip-path">
      <rect id="Rectangle_62985" data-name="Rectangle 62985" width="24" height="24" transform="translate(-1409 2090)" fill="#fff" stroke="#707070" stroke-width="1"/>
    </clipPath>
    <linearGradient id="linear-gradient" x1="0.5" x2="0.5" y2="1" gradientUnits="objectBoundingBox">
      <stop offset="0" stop-color="#d4d8e3"/>
      <stop offset="1" stop-color="#bcc0cb"/>
    </linearGradient>
    <clipPath id="clip-首页_获利榜_空资料">
      <rect width="24" height="24"/>
    </clipPath>
  </defs>
  <g id="首页_获利榜_空资料" clip-path="url(#clip-首页_获利榜_空资料)">
    <g id="Mask_Group_1043" data-name="Mask Group 1043" transform="translate(1409 -2090)" clip-path="url(#clip-path)">
      <g id="noun_Trophy_355128" transform="translate(-1408 2092.331)">
        <g id="Group_40598" data-name="Group 40598">
          <path id="Union_133" data-name="Union 133" d="M2404.355-199.993V-202h9.289v2.007ZM2409-202.97h-3.616a7.085,7.085,0,0,0,2.268-3.616,6.773,6.773,0,0,1-2.878-2.386,13.243,13.243,0,0,1-4.72-2.812c-1.594-1.522-2.3-3.134-1.977-4.54a2.544,2.544,0,0,1,2.005-2.029,4.139,4.139,0,0,1,2.3.235c-.007-.417,0-.824.007-1.214h13.224c.012.391.014.8.007,1.214a4.14,4.14,0,0,1,2.3-.235,2.544,2.544,0,0,1,2.005,2.029c.32,1.406-.383,3.018-1.977,4.54a13.236,13.236,0,0,1-4.72,2.812,6.771,6.771,0,0,1-2.878,2.386,7.084,7.084,0,0,0,2.268,3.616Zm6.534-13.407a18.512,18.512,0,0,1-1.147,5.235,11.01,11.01,0,0,0,2.5-1.753c1.153-1.1,1.728-2.255,1.539-3.087a1.026,1.026,0,0,0-.838-.868,1.853,1.853,0,0,0-.4-.041A3.285,3.285,0,0,0,2415.533-216.377Zm-15.121-.474a1.027,1.027,0,0,0-.838.869c-.189.833.386,1.986,1.539,3.087a10.975,10.975,0,0,0,2.5,1.753,18.544,18.544,0,0,1-1.147-5.235,3.287,3.287,0,0,0-1.656-.515A1.85,1.85,0,0,0,2400.413-216.851Z" transform="translate(-2398 219.331)" fill="url(#linear-gradient)"/>
        </g>
      </g>
    </g>
  </g>
</svg>
