<svg xmlns="http://www.w3.org/2000/svg" xmlns:xlink="http://www.w3.org/1999/xlink" width="24" height="24" viewBox="0 0 24 24">
  <defs>
    <clipPath id="clip-path">
      <rect id="Rectangle_62985" data-name="Rectangle 62985" width="24" height="24" transform="translate(-1409 2090)" fill="#21304e" stroke="#707070" stroke-width="1"/>
    </clipPath>
    <clipPath id="clip-首页_获利榜_空资料">
      <rect width="24" height="24"/>
    </clipPath>
  </defs>
  <g id="首页_获利榜_空资料" clip-path="url(#clip-首页_获利榜_空资料)">
    <g id="Mask_Group_1043" data-name="Mask Group 1043" transform="translate(1409 -2090)" clip-path="url(#clip-path)">
      <g id="noun_Trophy_355128" transform="translate(-1408 2092.331)">
        <g id="Group_40598" data-name="Group 40598">
          <path id="Path_55687" data-name="Path 55687" d="M24.919,11.425a4.135,4.135,0,0,0-2.3.234c.007-.417,0-.824-.007-1.214H9.388c-.012.39-.014.8-.007,1.214a4.135,4.135,0,0,0-2.3-.234,2.543,2.543,0,0,0-2.006,2.029c-.319,1.406.383,3.018,1.977,4.539a13.234,13.234,0,0,0,4.72,2.812,6.77,6.77,0,0,0,2.879,2.386,7.086,7.086,0,0,1-2.268,3.616h7.233a7.084,7.084,0,0,1-2.268-3.616A6.767,6.767,0,0,0,20.227,20.8a13.232,13.232,0,0,0,4.72-2.811c1.594-1.522,2.3-3.133,1.977-4.539A2.543,2.543,0,0,0,24.919,11.425ZM8.114,16.881c-1.153-1.1-1.728-2.255-1.54-3.087a1.028,1.028,0,0,1,.838-.869,2.967,2.967,0,0,1,2.054.474,18.545,18.545,0,0,0,1.148,5.235A10.961,10.961,0,0,1,8.114,16.881Zm15.772,0a10.977,10.977,0,0,1-2.5,1.753A18.528,18.528,0,0,0,22.534,13.4a2.97,2.97,0,0,1,2.054-.474,1.028,1.028,0,0,1,.838.869C25.615,14.626,25.039,15.78,23.886,16.881Z" transform="translate(-5 -10.445)" fill="#374e7b"/>
          <rect id="Rectangle_62984" data-name="Rectangle 62984" width="9.289" height="2.008" transform="translate(6.355 17.33)" fill="#374e7b"/>
        </g>
      </g>
    </g>
  </g>
</svg>
