<svg xmlns="http://www.w3.org/2000/svg" xmlns:xlink="http://www.w3.org/1999/xlink" width="1036" height="200" viewBox="0 0 1036 200">
  <defs>
    <clipPath id="clip-path">
      <rect id="Rectangle_61679" data-name="Rectangle 61679" width="1036" height="200" transform="translate(-1661 13)" fill="#fff" stroke="#707070" stroke-width="1"/>
    </clipPath>
  </defs>
  <g id="Mask_Group_167" data-name="Mask Group 167" transform="translate(1661 -13)" clip-path="url(#clip-path)">
    <g id="Group_38218" data-name="Group 38218" transform="translate(52)">
      <g id="AI智能_LOGO" transform="translate(-1661.05 13)">
        <g id="Group_38217" data-name="Group 38217">
          <path id="Path_50965" data-name="Path 50965" d="M111.9,166c-7.2,1.3-15,2.5-22.6,4.2a135.452,135.452,0,0,0-37.1,14.9,24.159,24.159,0,0,0-3.6,2.7,29.229,29.229,0,0,1-33.2,3.6C4.9,185.7-1.3,173.7.3,162.2c1.7-12.7,10.6-22,22.8-25.2,22.9-5.9,37.4-20.7,43.7-43.3C68.4,88,68.7,81.9,69.4,76c.3-3.1-.3-6.4.2-9.5a29.014,29.014,0,0,1,32.8-24.3,29.44,29.44,0,0,1,25.1,32.9c-1.8,13.9,2.6,26.4,10.4,37.7a58.222,58.222,0,0,0,20.4,18.1c4.2-5.1,10.8-29.3,13-47.5.9,5.7,1.7,11.5,2.9,17.2a140.53,140.53,0,0,0,16.2,42.5,33.78,33.78,0,0,0,2.7,3.6,29.251,29.251,0,0,1-32,46.6c-12.5-4.4-21.3-16.9-19.2-29.9,3.7-23.1-12.2-52.4-40.8-61.7a4.731,4.731,0,0,0-3.1-.1c-21.3,8.4-34.5,23.5-39,46-.4,2,.1,2.9,1.9,3.8a147.128,147.128,0,0,0,51,14.6C112.1,166,112.3,166.1,111.9,166Z" fill="#fff"/>
          <path id="Path_50966" data-name="Path 50966" d="M200,34.3A29.25,29.25,0,1,1,170.8,5,29.32,29.32,0,0,1,200,34.3Z" fill="#fff"/>
        </g>
      </g>
      <g id="AI智能_TEXT_EN" transform="translate(-1431.3 12.978)">
        <path id="Path_50967" data-name="Path 50967" d="M83,80.9H57.4l-2.7-9c-.2-.6-1-1.4-1.5-1.4-8.2-.1-16.3-.1-24.6-.1-.9,3.1-1.7,6.1-2.7,9.1-.2.5-.8,1.3-1.3,1.3-8,.1-16,.1-24.3.1C9.7,54.5,19.1,28.3,28.5,2c8.5,0,16.9,0,25.2.1.6,0,1.4,1.1,1.7,1.8C60.8,18.6,66,33.4,71.3,48.1c3.6,10,7.2,20,10.8,30.1C82.4,79,82.6,79.8,83,80.9ZM41.7,26.5h-.5C38.6,35.6,36,44.7,33.4,54H49.7C47,44.7,44.3,35.6,41.7,26.5Z" fill="#fff"/>
        <path id="Path_50968" data-name="Path 50968" d="M386,130.3v-7.2h19.7a7.844,7.844,0,0,1,.2,1.4c-.1,17.2,0,34.3-.3,51.5a35.537,35.537,0,0,1-2,10.7c-2.1,6.4-7,10-13.3,11.5-10.4,2.5-20.8,2.6-31.1-.7-5.5-1.8-10.1-4.9-12.5-10.5-.4-1-.6-2.2-1-3.5h21.8a1.853,1.853,0,0,1,1.3.9c2,3.3,5.1,3.2,8.3,2.9,3.4-.4,5.9-2.1,6.5-5.6.5-3.1.6-6.4.9-9.9a9.964,9.964,0,0,0-1.1.4c-15.6,12-36.8,3.7-40-15.8A37.417,37.417,0,0,1,346,135c6.8-15.6,29-18.5,39.1-5.6C385.2,129.6,385.4,129.8,386,130.3Zm-1.5,19.8a17.488,17.488,0,0,0-2.6-9c-1.9-2.9-4.8-3.6-8-3.5-3.2.2-5.7,1.6-6.9,4.8a19.425,19.425,0,0,0-.7,12.8c1.3,4.3,4.3,6.6,8.4,6.7,4.2,0,7.2-2.1,8.6-6.3A54.092,54.092,0,0,0,384.5,150.1Z" fill="#fff"/>
        <path id="Path_50969" data-name="Path 50969" d="M476.4,80.8H453c-.4-1.8-.7-3.6-1.2-5.8-.7.5-1.2.8-1.7,1.2-8.9,6.9-18.8,7.9-29.2,4.7-7.3-2.3-10.9-7.6-11.1-15.1-.2-7.6,3-13.3,10.2-15.9,4.9-1.8,10.3-2.5,15.5-3.6,3.5-.7,7-1.2,10.6-1.8a10.1,10.1,0,0,0,2.3-.7,3.662,3.662,0,0,0,2.4-3.6,3.585,3.585,0,0,0-2.5-3.7,13.875,13.875,0,0,0-9-.3c-2.5.7-3.6,2.5-4.1,4.9H413.5c0-6.7,2.8-11.6,8.4-14.8,4-2.3,8.4-3.2,12.9-3.7a76.091,76.091,0,0,1,23.8.7c9.8,2,14.4,7.4,14.7,17.5.2,9.9.2,19.9.2,29.8,0,3.4-.3,7,2.9,9.4C476.5,79.9,476.4,80.3,476.4,80.8ZM451,55.6c-4,1.1-7.4,1.9-10.7,2.8a31.213,31.213,0,0,0-4.3,1.5c-2.1.9-2.7,2.7-2.7,4.8a4.209,4.209,0,0,0,2.8,4,9.721,9.721,0,0,0,13.8-6.1A35.412,35.412,0,0,0,451,55.6Z" fill="#fff"/>
        <path id="Path_50970" data-name="Path 50970" d="M102.1,180.3H79.6v-2.5c0-9.1.1-18.1,0-27.2a23.72,23.72,0,0,0-.9-6.5c-.9-3.3-3.2-4.8-6.7-4.9-4.2-.2-7,1.2-8.1,4.5a22.621,22.621,0,0,0-1.2,6.8c-.1,9.1-.1,18.1-.1,27.2v2.5H39.9V123H60.5v8.7c1.5-1.6,2.6-2.9,3.8-4,7.2-7.1,19.4-8.6,28.2-3.6,5.4,3.1,8,8.2,9,14.1a41.144,41.144,0,0,1,.7,7.8c.1,10.8,0,21.6,0,32.4C102.2,179.1,102.1,179.6,102.1,180.3Z" fill="#fff"/>
        <path id="Path_50971" data-name="Path 50971" d="M513.5,180.4H490.9V123.2h20.6V131c1.7-1.5,3.5-3,5.2-4.6,7.9-7.2,21.5-5.8,27.7-1.6,5.6,3.9,8.2,9.7,8.4,16.1.4,12.9.3,25.8.3,38.8a2.543,2.543,0,0,1-.2.7H530.5V178c0-9.1.1-18.3,0-27.4a25.887,25.887,0,0,0-1-6.7c-.9-3.1-3.2-4.6-6.4-4.7-3.5-.1-6.8.5-8.1,4.1a19.918,19.918,0,0,0-1.3,7.2c-.2,9.1-.1,18.1-.1,27.2A23.474,23.474,0,0,0,513.5,180.4Z" fill="#fff"/>
        <path id="Path_50972" data-name="Path 50972" d="M482,156.8H438.8c-.8,5.3,3.9,10.8,9.6,11.2,3.8.3,7.1-.6,9.4-3.9a2.223,2.223,0,0,1,1.3-.9c6.8-.1,13.7,0,20.9,0-.3,1-.5,1.8-.7,2.5a22.166,22.166,0,0,1-11.4,12.1,43.765,43.765,0,0,1-32,2.3c-14.7-4.5-21.6-17.3-19.9-32.2,2-16.6,15.9-27.7,34.8-26.5,10.8.7,19.7,4.9,25.7,14.3C480.5,142,481.9,149.1,482,156.8Zm-43.3-11.7h20.4c.2-5.4-4.6-9.9-10.3-9.9C442.2,135.3,438.3,139.2,438.7,145.1Z" fill="#fff"/>
        <path id="Path_50973" data-name="Path 50973" d="M701.5,156.8H658.3c-.9,5.3,3.8,10.8,9.6,11.3,3.8.3,7.1-.6,9.4-3.9a2.523,2.523,0,0,1,1.5-1c6.8-.1,13.6,0,20.7,0-.3,1-.4,1.8-.7,2.5a22.145,22.145,0,0,1-12,12.4,44.23,44.23,0,0,1-31.4,2.1c-14.7-4.5-21.7-17.3-19.9-32.1,2-16.7,15.9-27.7,34.8-26.6,10.8.6,19.8,4.9,25.7,14.3C700,142,701.5,149.1,701.5,156.8Zm-43.3-11.7h20.4c.2-5.5-4.6-9.9-10.4-9.9C661.8,135.3,657.8,139.2,658.2,145.1Z" fill="#fff"/>
        <path id="Path_50974" data-name="Path 50974" d="M224.4,163.6a81.867,81.867,0,0,1-4.5,7.7,22.369,22.369,0,0,1-8.9,6.9,44.222,44.222,0,0,1-31.2,1.9c-14.5-4.5-21.5-17.1-19.8-32,2-17,16.2-27.8,34.9-26.6,10.7.7,19.6,4.9,25.6,14.2,4.1,6.3,5.5,13.4,5.6,21.1H182.8a10.487,10.487,0,0,0,7,10.7,10.218,10.218,0,0,0,11.9-3,2.663,2.663,0,0,1,1.8-1.2c6.6-.1,13.1,0,19.7,0C223.4,163.2,223.6,163.3,224.4,163.6Zm-21.2-18.5a9.189,9.189,0,0,0-4.8-8.3c-3.8-2.4-7.8-2.1-11.6,0-3.1,1.7-4.3,4.7-4.2,8.4C189.5,145.1,196.2,145.1,203.2,145.1Z" fill="#fff"/>
        <path id="Path_50975" data-name="Path 50975" d="M365,45.3H342.2c-.1-.4-.2-.9-.3-1.4-.9-3.8-3.3-6.2-6.9-6.7-4-.5-7.5,1.1-9.3,4.7-2.4,4.7-2.3,9.7-1.8,14.8a14.471,14.471,0,0,0,.8,3.6c1.6,4.8,4.8,7.1,9.4,6.9,4.4-.2,6.8-2.4,8.2-7.4.1-.3.2-.7.3-1.1h22.7a22.016,22.016,0,0,1-3.5,11,23.984,23.984,0,0,1-14,10.6,45.866,45.866,0,0,1-25.7.6c-15.5-4.3-22.5-16.8-21.3-31.6,1.3-15.2,12-27,31.6-27.5,7.4-.2,14.6,1,21,4.9A22.855,22.855,0,0,1,364.5,43,3.575,3.575,0,0,1,365,45.3Z" fill="#fff"/>
        <path id="Path_50976" data-name="Path 50976" d="M604,158.3h22.8c-.3,1.6-.4,3.1-.8,4.5-2.4,8.7-8.2,14.4-16.7,17.1a44.8,44.8,0,0,1-25.9.6c-15.3-4.3-22.5-16.6-21.1-31.3,1.7-17.2,13.4-27.4,31.5-27.8,7.5-.2,14.9,1,21.4,5.1,6.7,4.2,10.3,10.3,11.1,18.5H603.5c-1.6-6.8-5.7-9.6-11.5-7.8-3.1,1-4.8,3.2-5.8,6.1a27.666,27.666,0,0,0-.3,16.6c1.7,5.6,6.1,8,11.5,6.7a7.264,7.264,0,0,0,5.4-4.9C603.3,160.5,603.6,159.4,604,158.3Z" fill="#fff"/>
        <path id="Path_50977" data-name="Path 50977" d="M226.8,80.8V36.7h-7.5V23.5h7.2c.4-3.4.6-6.7,1.2-9.9C229.3,5.1,234.2.7,242.8.2,248-.1,253.3.1,258.7.1V14c-2.9.6-6.3-.6-8.3,2.2-1.4,2-1.3,4.5-.8,7.1h9.1V36.5h-9.3V80.7C241.8,80.8,234.5,80.8,226.8,80.8Z" fill="#fff"/>
        <path id="Path_50978" data-name="Path 50978" d="M142.7,36.5h-7.9v-13h8.3V5.7h22.3V23.4h10.9V36.5H165.5V58.1c.1,4.8,1.5,6.2,6.3,6.4H176V80.7c-3.1.2-6.2.5-9.3.4a92.971,92.971,0,0,1-12.9-.7c-7.3-1.1-10.5-4.6-10.8-12-.4-9.7-.3-19.4-.5-29.1A11.03,11.03,0,0,0,142.7,36.5Z" fill="#fff"/>
        <path id="Path_50979" data-name="Path 50979" d="M150.7,164.1v16.6H133.5a27.341,27.341,0,0,1-5-.5c-7.3-1.3-10.5-4.7-10.7-12.1-.4-9.7-.3-19.4-.5-29.1v-2.8h-7.9V123.1h8.2V105.3H140V123h10.9v13.1H140.1v21.6c.1,4.7,1.5,6.2,6.3,6.4Z" fill="#fff"/>
        <path id="Path_50980" data-name="Path 50980" d="M.4,180.3V101.6H26.1v78.7Z" fill="#fff"/>
        <path id="Path_50981" data-name="Path 50981" d="M487.2,2.1h22.4V80.7H487.2Z" fill="#fff"/>
        <path id="Path_50982" data-name="Path 50982" d="M236.6,101.6H259v78.6H236.6Z" fill="#fff"/>
        <path id="Path_50983" data-name="Path 50983" d="M295.7,180.3H273.3V101.7h22.4Z" fill="#fff"/>
        <path id="Path_50984" data-name="Path 50984" d="M131.6,22.3V44.6a72.354,72.354,0,0,0-8.1.1c-5.1.6-8.5,3.5-9.6,8.5a38.5,38.5,0,0,0-.9,7.6c-.1,6.6,0,13.3,0,20.1H90.3V23.8h20.4V34.5c.2.1.3.1.5.2,1.7-4.1,3.9-7.8,7.7-10.2A16.687,16.687,0,0,1,131.6,22.3Z" fill="#fff"/>
        <path id="Path_50985" data-name="Path 50985" d="M188.8,23.6h22.4V80.8H188.8Z" fill="#fff"/>
        <path id="Path_50986" data-name="Path 50986" d="M290.4,80.8H268V23.6h22.4Z" fill="#fff"/>
        <path id="Path_50987" data-name="Path 50987" d="M377.7,23.6h22.4V80.8H377.7Z" fill="#fff"/>
        <path id="Path_50988" data-name="Path 50988" d="M332.1,180.3H309.7V123.1h22.4Z" fill="#fff"/>
        <path id="Path_50989" data-name="Path 50989" d="M211.2,16H188.8V0h22.4Z" fill="#fff"/>
        <path id="Path_50990" data-name="Path 50990" d="M268,15.9V0h22.4V15.9Z" fill="#fff"/>
        <path id="Path_50991" data-name="Path 50991" d="M400,0V15.9H377.6V0Z" fill="#fff"/>
        <path id="Path_50992" data-name="Path 50992" d="M332.1,99.5v15.9H309.7V99.5Z" fill="#fff"/>
      </g>
    </g>
  </g>
</svg>
