<svg xmlns="http://www.w3.org/2000/svg" width="1035.9" height="199.908" viewBox="0 0 1035.9 199.908">
  <g id="Group_38212" data-name="Group 38212" transform="translate(1661 317.96)">
    <g id="AI智能_LOGO_W" transform="translate(-1661.05 -318)">
      <g id="Group_38210" data-name="Group 38210">
        <path id="Path_50915" data-name="Path 50915" d="M111.9,166c-7.2,1.3-15,2.5-22.6,4.2a135.452,135.452,0,0,0-37.1,14.9,24.159,24.159,0,0,0-3.6,2.7,29.229,29.229,0,0,1-33.2,3.6C4.9,185.7-1.3,173.7.3,162.2c1.7-12.7,10.6-22,22.8-25.2,22.9-5.9,37.4-20.7,43.7-43.3C68.4,88,68.7,81.9,69.4,76c.3-3.1-.3-6.4.2-9.5a29.014,29.014,0,0,1,32.8-24.3,29.44,29.44,0,0,1,25.1,32.9c-1.8,13.9,2.6,26.4,10.4,37.7a58.222,58.222,0,0,0,20.4,18.1c4.2-5.1,10.8-29.3,13-47.5.9,5.7,1.7,11.5,2.9,17.2a140.53,140.53,0,0,0,16.2,42.5,33.78,33.78,0,0,0,2.7,3.6,29.251,29.251,0,0,1-32,46.6c-12.5-4.4-21.3-16.9-19.2-29.9,3.7-23.1-12.2-52.4-40.8-61.7a4.731,4.731,0,0,0-3.1-.1c-21.3,8.4-34.5,23.5-39,46-.4,2,.1,2.9,1.9,3.8a147.128,147.128,0,0,0,51,14.6C112.1,166,112.3,166.1,111.9,166Z" fill="#fff"/>
        <path id="Path_50916" data-name="Path 50916" d="M200,34.3A29.25,29.25,0,1,1,170.8,5,29.32,29.32,0,0,1,200,34.3Z" fill="#fff"/>
      </g>
    </g>
    <g id="AI智能_TEXT_CH_W" transform="translate(-1431.1 -317.96)">
      <path id="Path_50926" data-name="Path 50926" d="M54.1,23.6H162.8c7,52.3,14,104.5,21.1,157H136.2c-.7-5.5-1.5-11.1-2.2-16.6-1.1-8.1-2.1-16.2-3.1-24.4-.2-1.4-.8-1.7-2-1.7H65.5c-1.8,0-2.1,1.2-2.6,2.3-5.6,12.8-11.2,25.5-16.7,38.4a3.154,3.154,0,0,1-3.4,2.3c-13.4-.1-26.9,0-40.3,0H.1c.5-1.3.9-2.3,1.3-3.3q29.55-72,59.1-143.8c.7-1.8.7-2.9-.8-4.2C57.7,27.6,56,25.6,54.1,23.6ZM128,111.1a5.722,5.722,0,0,0-.1-1.4c-2.5-19.3-5.1-38.5-7.5-57.8-.2-1.6-.9-2-2.4-2-4.9.1-9.8.1-14.6,0a2.727,2.727,0,0,0-2.9,2L75.6,109.2a9.479,9.479,0,0,0-.6,2C92.7,111.1,110.3,111.1,128,111.1Z" fill="#fff"/>
      <path id="Path_50927" data-name="Path 50927" d="M520.9,106c-1.1,7.9-2.1,15.3-3.2,22.7-2.5,17.9-5.1,35.9-7.6,53.8-.6,4.1-1.2,8.1-1.7,12.2-.2,1.4-.8,2-2.2,1.8a8.533,8.533,0,0,0-1.6,0H311c1.3-9.3,2.6-18.4,3.8-27.4,2.5-18,5.1-36.1,7.6-54.1.3-2.4.8-4.8,1-7.3.1-1.3.6-1.9,1.9-1.8H517.1C518.4,106,519.4,106,520.9,106Zm-49.7,24H369.1c-.5,3.6-1,7.2-1.6,10.8H469.6C470.1,137.2,470.6,133.7,471.2,130Zm-4.7,32.5H364.4c-.5,3.3-.9,6.4-1.4,9.8H465.1C465.6,169,466,165.9,466.5,162.5Z" fill="#fff"/>
      <path id="Path_50928" data-name="Path 50928" d="M576.6,68.6H692.7c-.9,6.6-1.8,13-2.7,19.4q-3.75,27.3-7.7,54.6c-1.8,12.8-3.4,25.6-5.4,38.3-1.6,10.9-9.6,18.4-20.6,18.8-13,.4-26,.1-39,.1-.1,0-.3-.2-.6-.4,3.3-2.7,6.7-5.3,9.8-8.1a6.585,6.585,0,0,0,2-3.4c1.2-8,2.3-16,3.4-24.3H610.4c-1.7,12-3.3,24.1-5,36.1H558ZM642,92.2H620.8c-.6,4.4-1.2,8.7-1.8,13h21.2C640.7,100.9,641.3,96.7,642,92.2Zm-28.1,47.2h21.5c.5-3.4.9-6.7,1.3-10H615.5C614.9,132.8,614.4,136.1,613.9,139.4Z" fill="#fff"/>
      <path id="Path_50929" data-name="Path 50929" d="M441.1,9.8c-1.4,9.8-2.8,19-4.2,28.5H400.3c-.3,1.9-.6,3.6-.9,5.6h37.2c-1.2,8.8-2.4,17.4-3.6,26.2H414.7c5.9,10.1,11.5,19.8,17.3,29.8-1,.1-1.7.2-2.4.2-14.2,0-28.4,0-42.7.1a3.506,3.506,0,0,1-3.5-2c-3.3-5.8-6.8-11.6-10.8-18.3a11.743,11.743,0,0,1-1.3,2.3c-4.6,5.5-9.1,11-13.8,16.5a4.638,4.638,0,0,1-3.2,1.7c-15.7.1-31.4.1-47.1.1-.3,0-.7-.1-1.7-.2,9.8-10.1,19.3-19.8,29.2-30.1H306.1c1.2-8.9,2.4-17.4,3.6-26.2h45.6c.3-1.9.5-3.6.9-5.7-3.2.6-6.3-1.2-9.1,1.3-.3.3-1,.2-1.5.2H311a4.549,4.549,0,0,1-1.1-.3c7.8-11.9,15.5-23.7,23.4-35.8-2-1.1-3.8-2.2-6.3-3.7h46.6c-2.2,3.3-4.2,6.4-6.5,9.8Z" fill="#fff"/>
      <path id="Path_50930" data-name="Path 50930" d="M547.1,7c-4.4,30.9-8.7,61.3-13,92h-100c.4-3,.7-6,1.1-8.9,3.8-27,7.7-54,11.4-81,.3-2.2,1.6-2.1,3.1-2.1h97.4ZM479.5,73.2h19.3c1.7-13.1,3.5-25.9,5.2-39H484.8C483,47.2,481.3,60.1,479.5,73.2Z" fill="#fff"/>
      <path id="Path_50931" data-name="Path 50931" d="M220.6,23.6h63.9q-12,78.45-24.1,157H209.9c.6-5.2,1.3-10.3,1.9-15.4l6.6-51.6c2.2-17.2,4.4-34.4,6.5-51.6,1.1-8.7,2.3-17.5,3.3-26.2a4.966,4.966,0,0,0-1-3.3C225.2,29.6,223,26.8,220.6,23.6Z" fill="#fff"/>
      <path id="Path_50932" data-name="Path 50932" d="M794.9,94.7H697.4c4.4-31.6,8.8-63.1,13.3-94.7h47.4c-1.2,8-2.3,15.9-3.5,24.2,17.2-2.9,34.2-5.7,51.4-8.6-1.2,8.6-2.4,16.8-3.7,25.1-.1.7-1.4,1.5-2.2,1.6-9.6,1.7-19.2,3.3-28.9,4.9-6.2,1-12.4,2-18.5,3.2a2.79,2.79,0,0,0-1.9,1.9c-.9,5.2-1.5,10.5-2.3,16.1a28.1,28.1,0,0,0,2.9.1c11.3,0,22.7.1,34-.1a7.882,7.882,0,0,0,4.4-1.6c3.3-2.6,6.4-5.6,10.1-8.8C798.1,70.6,796.5,82.6,794.9,94.7Z" fill="#fff"/>
      <path id="Path_50933" data-name="Path 50933" d="M695.6,105.6H743c-1.1,8.1-2.1,16-3.2,24.3,17.1-2.9,33.8-5.7,51.1-8.6-.5,3.6-.9,6.9-1.3,10.2-.6,4.5-1.4,9-1.8,13.5-.2,2.1-.9,2.8-2.9,3.1-15,2.5-29.9,5-44.9,7.4-2.7.4-4.2,1.1-4.4,4.3-.3,4.7-1.2,9.3-2,14.3h2.8c11.4,0,22.9,0,34.3-.1a5.981,5.981,0,0,0,3.6-1.4c3.5-2.9,6.8-5.9,10.7-9.3-1.8,12.6-3.5,24.5-5.3,36.4H682.2C686.8,168.3,691.2,137,695.6,105.6Z" fill="#fff"/>
      <path id="Path_50934" data-name="Path 50934" d="M649.5,0c-6.6,12.2-13.1,24.1-19.8,36.4,8.4-.5,16.2-.9,24.5-1.4-.4-6.5-.8-12.8-1.3-19.2h36.8c1.3,15.5,2.6,31.1,3.9,47H656.8c-.2-1.4-.5-2.7-.8-4.4-26.1,1.6-52.1,3.1-78.5,4.7.6-4.7,1.2-9.1,1.8-13.5.2-1.2.4-2.4.5-3.6.3-4.7,2.1-8.9,4.4-13,4.4-7.9,8.5-16,12.9-23.9.7-1.4.8-2.3-.3-3.4-1.6-1.7-3-3.5-4.8-5.7Z" fill="#fff"/>
    </g>
  </g>
</svg>
