<svg xmlns="http://www.w3.org/2000/svg" width="1056.8" height="200.104" viewBox="0 0 1056.8 200.104">
  <g id="Group_4" data-name="Group 4" transform="translate(-387 -810.883)">
    <g id="AI智能_LOGO_W" transform="translate(386.95 816)">
      <g id="Group_2" data-name="Group 2">
        <path id="Path_12" data-name="Path 12" d="M111.9,166c-7.2,1.3-15,2.5-22.6,4.2a135.452,135.452,0,0,0-37.1,14.9,24.159,24.159,0,0,0-3.6,2.7,29.229,29.229,0,0,1-33.2,3.6C4.9,185.7-1.3,173.7.3,162.2c1.7-12.7,10.6-22,22.8-25.2,22.9-5.9,37.4-20.7,43.7-43.3C68.4,88,68.7,81.9,69.4,76c.3-3.1-.3-6.4.2-9.5a29.014,29.014,0,0,1,32.8-24.3,29.44,29.44,0,0,1,25.1,32.9c-1.8,13.9,2.6,26.4,10.4,37.7a58.222,58.222,0,0,0,20.4,18.1c4.2-5.1,10.8-29.3,13-47.5.9,5.7,1.7,11.5,2.9,17.2a140.53,140.53,0,0,0,16.2,42.5,33.78,33.78,0,0,0,2.7,3.6,29.251,29.251,0,0,1-32,46.6c-12.5-4.4-21.3-16.9-19.2-29.9,3.7-23.1-12.2-52.4-40.8-61.7a4.731,4.731,0,0,0-3.1-.1c-21.3,8.4-34.5,23.5-39,46-.4,2,.1,2.9,1.9,3.8a147.128,147.128,0,0,0,51,14.6C112.1,166,112.3,166.1,111.9,166Z" fill="#fff"/>
        <path id="Path_13" data-name="Path 13" d="M200,34.3A29.25,29.25,0,1,1,170.8,5,29.32,29.32,0,0,1,200,34.3Z" fill="#fff"/>
      </g>
    </g>
    <g id="AI智能_TEXT_W" transform="translate(617.2 810.987)">
      <path id="Path_14" data-name="Path 14" d="M54.4,24.2H162.8c7,52,13.9,103.9,21,156.3H135.7c-1.9-13.7-3.7-27.5-5.7-42-14.6,0-28.9-.1-43.1,0-7.5,0-16.7-2.2-22.2,1.3-5.2,3.3-6.6,12.6-9.6,19.3-2.6,5.9-5,12-7.9,17.8-.8,1.6-2.9,3.7-4.4,3.7-14,.3-28,.2-43,.2,5.5-13.6,10.7-26.4,15.9-39.1Q36.1,92.8,56.1,44C60.6,33.1,60.6,33.1,54.4,24.2Zm21.1,86.5h52c-2.7-20.2-5.3-39.8-8-59.9-4.2,0-7.9.3-11.5-.1-4.9-.6-7.3,1.4-9.1,5.9C94.2,68.2,89,79.6,84,91,81.3,97.5,78.5,104,75.5,110.7Z" fill="#fff"/>
      <path id="Path_15" data-name="Path 15" d="M325.3,196.3c4.3-30.4,8.5-60.1,12.7-89.9H534.8c-4.2,30.2-8.4,59.8-12.7,89.9Zm159.3-65.7H383.9c-.5,3.2-1,6.2-1.5,9.6H483C483.5,137.1,484,134.3,484.6,130.6Zm-106,41.5h93c8,0,8.5-.6,7-9.6H386.1C378.2,162.5,378.2,162.6,378.6,172.1Z" fill="#fff"/>
      <path id="Path_16" data-name="Path 16" d="M579.1,199.6c6.2-43.9,12.4-87.2,18.5-130.8H713.7c-1.2,9.2-2.3,18.1-3.6,27-3.7,26.8-7.6,53.5-11.2,80.3-2.3,17.1-9.7,23.9-26.9,23.9-10.8,0-21.6,0-32.5-.1-.4,0-.7-.3-2.5-1.2,16.2-7.1,12.9-21.7,15.4-35-6.4,0-12-.3-17.5.2-1.3.1-3.1,2.5-3.4,4.1-1.7,10.4-3.1,20.9-4.6,31.6Zm61.3-94.8h20.4c.5-4.1,1-7.8,1.5-11.7h-20C641.7,96.9,641.2,100.3,640.4,104.8Zm-3.3,25.3c-.5,3-.9,5.8-1.4,8.8H656c.5-3.1.9-5.7,1.4-8.8Z" fill="#fff"/>
      <path id="Path_17" data-name="Path 17" d="M320.6,71.3c1.2-9,2-16.8,3.4-24.4.2-1.3,3.4-2.8,5.3-2.8,11.9-.3,23.8,0,35.7-.2,1.8,0,3.7-1.3,5.5-2a17.231,17.231,0,0,0-.7-2.1H324.5c7.6-11.8,15-23.1,22.6-34.9-1.7-1.3-3.2-2.6-5.5-4.4h46.7c-1.8,3.1-3.4,5.8-5.5,9.4h72.5c-1.3,9.4-2.3,17.9-3.9,26.2-.2,1.2-3.1,2.7-4.8,2.7-9.1.3-18.2,0-27.3.3-1.9.1-3.7,1.7-5.5,2.7.3.7.6,1.5.9,2.2h36.1c-1.1,8.3-1.9,16-3.3,23.6-.2,1.3-2.8,2.9-4.5,3.1-4,.4-8.2.1-13.5.1,5.8,10,11,19.3,17.1,29.9H436.2c-10.8,0-21.6.3-32.4-.2-2.6-.1-5.9-2.1-7.5-4.2-3.4-4.4-5.8-9.4-9.1-14.9-5,5.9-9.3,11.2-13.9,16.3-1.3,1.5-3.4,3.1-5.1,3.2-15.7.2-31.5.1-49,.1,10.7-9.6,20.2-18.1,29.8-26.7-.7-1-1.4-2.1-2.1-3.1C338.6,71.3,330.2,71.3,320.6,71.3Z" fill="#fff"/>
      <path id="Path_18" data-name="Path 18" d="M447.8,99.3c1.6-11.7,3.1-23.2,4.7-34.7,2.4-17.3,4.8-34.7,7.6-51.9.3-1.9,2.5-5,3.9-5,32-.3,64-.2,97-.2-4.3,30.8-8.6,61.1-12.9,91.9C514.7,99.3,481.6,99.3,447.8,99.3Zm69.4-63.9H498.8c-1.7,12.7-3.4,25-5.1,37.8H512C513.8,60.8,515.5,48.5,517.2,35.4Z" fill="#fff"/>
      <path id="Path_19" data-name="Path 19" d="M229.6,24.1h63.1c-8,52.2-16,104-24,156.2H217.8c1.2-10.3,2.4-20.5,3.7-30.6,4.7-37.3,9.6-74.5,13.8-111.9C235.8,33.7,231.8,29.1,229.6,24.1Z" fill="#fff"/>
      <path id="Path_20" data-name="Path 20" d="M775.7,24.3c17.1-2.8,33.4-5.5,50.9-8.4-1.3,8.8-2.3,16.8-3.9,24.7-.3,1.3-3.1,2.7-4.9,3-13.2,2.4-26.4,4.9-39.6,6.6-5.2.7-7.1,2.8-7.4,7.6-.2,3.2-.7,6.4-1.2,10.7,7.7,0,15.1-.3,22.5.1,10.4.6,20.3.3,26.8-10.4a17.89,17.89,0,0,0,1.3,1.4c-1.5,11.6-3.1,23.3-4.7,35.3H717.9c1.1-8.7,2.1-17.2,3.3-25.6,2.9-21.2,6-42.4,8.8-63.6.6-4.2,1.9-5.9,6.5-5.8,13.8.3,27.6.1,42.2.1C777.7,8.5,776.8,16.1,775.7,24.3Z" fill="#fff"/>
      <path id="Path_21" data-name="Path 21" d="M716.1,105.5h47.8c-1,8-1.9,15.6-2.9,23.9,17.1-2.8,33.3-5.5,50.5-8.3-1.3,9.5-2.4,17.9-3.5,26.7-15.2,2.6-30,5.5-44.9,7.6-4.9.7-6.8,2.5-6.9,7.2a103.476,103.476,0,0,1-1.4,11c12.5,0,24.6.3,36.7-.2,2.7-.1,5.3-3.3,7.8-5.2,1.8-1.4,3.5-3,6.6-5.7-1.9,13.4-3.6,25.2-5.4,37.2H702.8C707.2,168.3,711.6,137.1,716.1,105.5Z" fill="#fff"/>
      <path id="Path_22" data-name="Path 22" d="M598.9,63.1c.9-13.2,2.6-25.7,10.1-36.6a99.263,99.263,0,0,0,4.9-9.1c4.6-8.7,4.6-8.7-.5-16.7H671c-6.4,11.8-12.5,23.2-19.4,35.8,8.2-.4,15.3-.7,22.5-1V16.4h36.7c1.3,15.6,2.6,31.1,4,47.4C703,63.8,690.5,67,681,63c-11.7-4.9-22.2-1.7-33.1-1.8-11.4-.1-22.9,1.3-34.3,1.9C609,63.3,604.3,63.1,598.9,63.1Z" fill="#fff"/>
    </g>
  </g>
</svg>
